<svg width="439" height="235" viewBox="0 0 439 235" fill="none" xmlns="http://www.w3.org/2000/svg">
<g id="knihovna-0">
<g id="Group">
<g id="R33">
<path id="Vector" d="M264.751 93.9203L275.734 93.8983C277.264 93.8933 278.507 94.8524 278.511 96.0354L278.55 106.759C278.557 107.944 277.318 108.906 275.788 108.909L264.807 108.934C263.276 108.934 262.032 107.977 262.026 106.795L261.988 96.0704C261.984 94.8874 263.221 93.9253 264.751 93.9203Z" fill="#A7D9E2"/>
<path id="Vector_2" d="M264.15 103.782L265.349 103.785L265.409 101.872L265.772 101.875C266.264 101.883 266.489 102.05 266.612 102.658C266.751 103.258 266.862 103.654 266.946 103.793L268.181 103.796C268.085 103.609 267.939 102.971 267.79 102.424C267.669 101.975 267.476 101.649 267.106 101.512L267.108 101.49C267.57 101.342 268.067 100.915 268.089 100.296C268.104 99.8474 267.939 99.5074 267.631 99.2754C267.261 99.0024 266.709 98.8914 265.916 98.8874C265.275 98.8824 264.695 98.9244 264.305 98.9824L264.15 103.782ZM265.48 99.7394C265.566 99.7254 265.734 99.7034 266.027 99.7034C266.581 99.7144 266.905 99.9374 266.892 100.387C266.877 100.814 266.509 101.084 265.911 101.084L265.433 101.082L265.48 99.7394ZM268.632 103.545C268.929 103.718 269.486 103.88 270.152 103.882C271.457 103.888 272.277 103.282 272.304 102.455C272.324 101.841 271.839 101.412 271.226 101.311V101.294C271.865 101.093 272.187 100.706 272.202 100.209C272.223 99.5654 271.632 99.0384 270.532 99.0324C269.865 99.0304 269.241 99.2024 268.927 99.3814L269.147 100.175C269.367 100.061 269.813 99.8964 270.233 99.8994C270.739 99.8994 270.989 100.111 270.978 100.39C270.967 100.786 270.445 100.926 270.043 100.928H269.572L269.55 101.715H270.039C270.569 101.717 271.07 101.929 271.057 102.389C271.045 102.746 270.717 103.016 270.093 103.014C269.604 103.014 269.116 102.825 268.905 102.722L268.632 103.545ZM272.734 103.601C273.029 103.776 273.588 103.935 274.253 103.938C275.557 103.944 276.379 103.341 276.405 102.51C276.423 101.897 275.937 101.47 275.325 101.367V101.35C275.963 101.15 276.287 100.762 276.303 100.262C276.325 99.6244 275.731 99.0954 274.63 99.0894C273.965 99.0864 273.342 99.2564 273.027 99.4384L273.246 100.231C273.463 100.118 273.914 99.9534 274.334 99.9534C274.839 99.9564 275.088 100.167 275.079 100.446C275.065 100.842 274.544 100.987 274.141 100.985L273.674 100.982L273.646 101.771H274.139C274.67 101.774 275.169 101.986 275.154 102.446C275.142 102.8 274.816 103.073 274.191 103.073C273.7 103.071 273.218 102.881 273.005 102.778L272.734 103.601Z" fill="#010202"/>
</g>
<path id="Vector_3" d="M6.08105 79.6464L7.84905 74.2064L32.2081 56.3584L70.9071 33.7624C70.9071 33.7624 143.292 0.941364 208.913 0.935364C274.533 0.931364 351.844 18.7594 418.78 69.9874C426.693 77.2534 428.783 80.1873 428.783 80.1873L404.981 73.8974L374.336 65.2384L328.664 58.2254L285.886 52.9054L263.797 51.1404L246.694 50.6614L238.542 50.0584L236.963 48.0484L235.187 42.2904L235.568 39.2194C222.614 39.3204 209.661 39.4234 196.707 39.5274C196.457 41.6074 196.209 43.6864 195.963 45.7674C194.258 47.3994 192.557 49.0304 190.856 50.6614H184.007H169.938L140.211 53.3074L108.098 57.2914L85.9211 60.8944L50.361 68.0304L16.8211 75.7043L6.08105 79.6464Z" fill="#35ABB9"/>
<path id="Vector_4" d="M11.022 161.087L69.702 175.099L127.154 184.081C127.154 184.081 220.326 196.079 313.462 181.663C332.221 178.949 397.932 168.602 424.903 158.989C424.903 158.989 383.425 196.733 313.3 218.447C243.176 240.167 190.252 232.636 190.252 232.636C190.252 232.636 144.815 228.349 131.384 222.283C117.956 216.216 121.477 219.335 121.477 219.335L109.49 215.326L81.574 204.063L61.621 194.261L39.706 181.645L23.943 170.823L14.492 164.388L11.022 161.087Z" fill="#35ABB9"/>
<path id="Vector_5" d="M237.873 41.3453C237.873 41.3453 237.873 44.2253 238.466 45.5333C239.053 46.8413 241.417 48.6173 243.411 48.5813C245.403 48.5483 242.707 42.5193 242.707 42.5193L237.873 41.3453Z" fill="#35ABB9"/>
<path id="Vector_6" d="M0.650993 100.085H13.27C17.116 100.085 20.228 102.966 20.228 106.518V128.565C20.228 132.119 17.116 134.999 13.27 134.999H0.291992L0.650993 100.085Z" fill="#35ABB9"/>
<path id="Vector_7" d="M186.745 48.8763H173.165V42.8203H186.745V48.8763Z" fill="#35ABB9"/>
<path id="Vector_8" d="M234.579 161.464H201.589C195.627 161.464 190.798 157.078 190.798 151.665V87.3703C190.798 81.9603 195.627 77.5743 201.589 77.5743H234.579C240.539 77.5743 245.371 81.9603 245.371 87.3703V151.665C245.371 157.078 240.539 161.464 234.579 161.464Z" stroke="#414142" stroke-width="2" stroke-miterlimit="22.9256"/>
<path id="Vector_9" d="M192.015 82.7363H244.153" stroke="#414142" stroke-width="2" stroke-miterlimit="22.9256"/>
<path id="Vector_10" d="M190.798 87.8864H245.369" stroke="#414142" stroke-width="2" stroke-miterlimit="22.9256"/>
<path id="Vector_11" d="M190.798 93.0593H245.369" stroke="#414142" stroke-width="2" stroke-miterlimit="22.9256"/>
<path id="Vector_12" d="M207.585 61.3243H208.731L206.369 67.4473H205.203L202.85 61.3243H203.986L205.391 65.1303C205.464 65.3143 205.545 65.5483 205.626 65.8353C205.711 66.1233 205.766 66.3344 205.789 66.4743C205.827 66.2624 205.893 66.0153 205.977 65.7363C206.059 65.4543 206.125 65.2513 206.177 65.1163L207.585 61.3243ZM213.514 65.7853C213.514 66.3283 213.298 66.7583 212.862 67.0683C212.428 67.3773 211.831 67.5303 211.068 67.5303C210.304 67.5303 209.676 67.4244 209.192 67.2094V66.2643C209.5 66.3923 209.831 66.4964 210.174 66.5714C210.521 66.6463 210.842 66.6863 211.139 66.6863C211.577 66.6863 211.901 66.6113 212.106 66.4603C212.313 66.3093 212.417 66.1063 212.417 65.8523C212.417 65.6233 212.325 65.4283 212.133 65.2693C211.944 65.1113 211.549 64.9213 210.952 64.7063C210.336 64.4813 209.903 64.2184 209.651 63.9294C209.397 63.6414 209.272 63.2903 209.272 62.8843C209.272 62.3743 209.473 61.9723 209.875 61.6763C210.271 61.3833 210.808 61.2354 211.482 61.2354C212.129 61.2354 212.771 61.3674 213.411 61.6234L213.06 62.4393C212.459 62.2103 211.925 62.0963 211.453 62.0963C211.098 62.0963 210.826 62.1693 210.641 62.3083C210.456 62.4503 210.367 62.6373 210.367 62.8693C210.367 63.0253 210.403 63.1623 210.476 63.2733C210.548 63.3883 210.668 63.4963 210.84 63.5943C211.008 63.6943 211.314 63.8283 211.753 63.9923C212.247 64.1823 212.612 64.3523 212.842 64.5173C213.074 64.6793 213.241 64.8603 213.352 65.0663C213.458 65.2693 213.514 65.5093 213.514 65.7853ZM217.148 67.4473H216.047V62.1823H214.063V61.3243H219.132V62.1823H217.148V67.4473ZM225.453 61.3243V65.2863C225.453 65.7383 225.348 66.1364 225.133 66.4743C224.919 66.8144 224.612 67.0773 224.208 67.2583C223.801 67.4393 223.316 67.5313 222.755 67.5313C221.917 67.5313 221.266 67.3303 220.802 66.9283C220.338 66.5273 220.105 65.9713 220.105 65.2693V61.3243H221.211V65.1993C221.211 65.7043 221.341 66.0753 221.6 66.3183C221.859 66.5573 222.257 66.6774 222.792 66.6774C223.829 66.6774 224.353 66.1813 224.353 65.1913V61.3243H225.453ZM231.646 63.1753C231.646 63.8173 231.416 64.3043 230.956 64.6443C230.492 64.9873 229.836 65.1573 228.984 65.1573H228.281V67.4473H227.178V61.3243H229.122C229.966 61.3243 230.595 61.4823 231.016 61.7923C231.437 62.1073 231.646 62.5673 231.646 63.1753ZM228.281 64.3163H228.868C229.434 64.3163 229.848 64.2273 230.114 64.0483C230.381 63.8693 230.51 63.5904 230.51 63.2094C230.51 62.8574 230.394 62.5953 230.156 62.4223C229.917 62.2493 229.551 62.1633 229.048 62.1633H228.281V64.3163Z" fill="#414142"/>
<path id="Vector_13" d="M190.798 98.3763H245.369" stroke="#414142" stroke-width="2" stroke-miterlimit="22.9256"/>
<path id="Vector_14" d="M190.798 103.548H245.369" stroke="#414142" stroke-width="2" stroke-miterlimit="22.9256"/>
<path id="Vector_15" d="M190.798 108.958H245.369" stroke="#414142" stroke-width="2" stroke-miterlimit="22.9256"/>
<path id="Vector_16" d="M190.798 114.13H245.369" stroke="#414142" stroke-width="2" stroke-miterlimit="22.9256"/>
<path id="Vector_17" d="M190.798 119.446H245.369" stroke="#414142" stroke-width="2" stroke-miterlimit="22.9256"/>
<path id="Vector_18" d="M190.798 124.621H245.369" stroke="#414142" stroke-width="2" stroke-miterlimit="22.9256"/>
<path id="Vector_19" d="M190.798 129.841H245.369" stroke="#414142" stroke-width="2" stroke-miterlimit="22.9256"/>
<path id="Vector_20" d="M190.798 135.016H245.369" stroke="#414142" stroke-width="2" stroke-miterlimit="22.9256"/>
<path id="Vector_21" d="M190.798 140.334H245.369" stroke="#414142" stroke-width="2" stroke-miterlimit="22.9256"/>
<path id="Vector_22" d="M190.798 145.503H245.369" stroke="#414142" stroke-width="2" stroke-miterlimit="22.9256"/>
<path id="Vector_23" d="M190.798 150.76H245.369" stroke="#414142" stroke-width="2" stroke-miterlimit="22.9256"/>
<path id="Vector_24" d="M191.624 156.077H244.215" stroke="#414142" stroke-width="2" stroke-miterlimit="22.9256"/>
<path id="Vector_25" d="M9.31396 159.861C15.556 162.275 22.049 164.221 28.507 166.095C46.127 171.214 64.13 175.254 82.27 178.544C110.092 183.589 138.319 186.806 166.633 188.419C203.219 190.498 239.982 189.866 276.474 186.723C320.878 182.901 364.873 175.371 407.845 164.534C413.649 163.07 419.431 161.544 425.2 159.964C426.565 159.587 425.983 157.641 424.609 158.021C380.941 169.985 336.161 178.615 290.838 183.34C253.686 187.214 216.198 188.508 178.836 186.997C149.601 185.814 120.437 182.934 91.652 178.129C72.178 174.881 52.854 170.782 33.919 165.522C26.023 163.329 18.136 160.987 10.491 158.143C10.269 158.059 10.081 157.984 10.433 158.121C9.13396 157.615 8.00196 159.353 9.31396 159.861Z" fill="#4A4A4A"/>
<path id="Vector_26" d="M428.794 149.986L429.115 149.202L429.448 150.084L429.115 150.79L428.794 149.986Z" fill="#4A4A4A"/>
<path id="Vector_27" d="M429.947 87.3204C431.005 91.2664 431.642 95.3374 432.172 99.3634C433.46 109.125 433.764 119.016 432.943 128.823C432.36 135.786 431.172 142.695 429.308 149.465C428.96 150.726 431.101 151.263 431.45 150.003C436.718 130.869 436.871 110.428 433.041 91.0484C432.76 89.6234 432.467 88.1934 432.09 86.7854C431.75 85.5244 429.608 86.0574 429.947 87.3204Z" fill="#4A4A4A"/>
<path id="Vector_28" d="M33.919 155.182L30.815 154.621L30.73 150.611C30.719 150.441 30.722 150.109 30.732 149.616C30.743 149.117 30.759 148.704 30.786 148.372C30.694 148.629 30.562 148.946 30.398 149.317C30.232 149.693 30.078 150.034 29.927 150.343C29.779 150.658 29.166 151.919 28.09 154.126L24.986 153.563L24.522 144.311L27.053 144.768L27.137 149.379C27.16 150.4 27.154 151.211 27.115 151.806C27.262 151.406 27.487 150.866 27.791 150.189C28.093 149.513 28.363 148.954 28.591 148.517L30.184 145.334L32.618 145.776L32.712 149.261C32.736 149.822 32.744 150.461 32.736 151.192C32.729 151.918 32.712 152.458 32.683 152.814C32.839 152.375 33.166 151.628 33.666 150.575L35.717 146.341L38.247 146.798L33.919 155.182Z" fill="#414142"/>
<path id="Vector_29" d="M43.4279 149.641C42.8029 149.527 42.2649 149.669 41.8149 150.071C41.3609 150.472 41.0459 151.081 40.8659 151.897C40.4929 153.596 41.0179 154.572 42.4399 154.832C42.8679 154.909 43.2959 154.929 43.7239 154.893C44.1509 154.858 44.5849 154.798 45.0259 154.722L44.5849 156.736C43.7019 156.913 42.7499 156.913 41.7269 156.725C40.2579 156.461 39.2209 155.869 38.6099 154.956C37.9989 154.042 37.8529 152.857 38.1719 151.396C38.3739 150.484 38.7369 149.716 39.2689 149.092C39.8019 148.47 40.4619 148.038 41.2559 147.796C42.0479 147.55 42.9239 147.516 43.8859 147.687C44.9379 147.879 45.8939 148.27 46.7609 148.858L45.5419 150.587C45.2189 150.368 44.8879 150.174 44.5499 150.003C44.2139 149.833 43.8429 149.711 43.4279 149.641Z" fill="#414142"/>
<path id="Vector_30" d="M400.92 155.664L397.84 156.327L395.921 152.718C395.835 152.567 395.682 152.263 395.463 151.81C395.245 151.353 395.073 150.974 394.943 150.664C394.975 150.931 395.004 151.268 395.024 151.665C395.046 152.069 395.063 152.44 395.068 152.781C395.078 153.117 395.1 154.495 395.138 156.911L392.058 157.577L387.382 149.34L389.894 148.799L392.089 152.959C392.581 153.88 392.945 154.613 393.183 155.17C393.135 154.752 393.093 154.175 393.055 153.447C393.022 152.718 393.007 152.111 393.016 151.624L393 148.13L395.412 147.61L397.1 150.742C397.381 151.242 397.685 151.821 398.007 152.484C398.338 153.149 398.572 153.644 398.707 153.98C398.648 153.525 398.604 152.721 398.574 151.574L398.488 146.946L401.002 146.404L400.92 155.664Z" fill="#414142"/>
<path id="Vector_31" d="M407.016 147.022C406.394 147.157 405.973 147.493 405.745 148.028C405.519 148.561 405.511 149.236 405.722 150.046C406.161 151.73 407.089 152.419 408.5 152.114C408.925 152.022 409.323 151.88 409.698 151.687C410.067 151.492 410.438 151.274 410.802 151.034L411.326 153.034C410.605 153.533 409.737 153.891 408.722 154.106C407.268 154.422 406.05 154.28 405.076 153.681C404.098 153.08 403.421 152.055 403.043 150.611C402.807 149.705 402.786 148.868 402.984 148.102C403.18 147.334 403.581 146.691 404.189 146.168C404.799 145.647 405.578 145.285 406.534 145.077C407.575 144.855 408.624 144.847 409.679 145.05L409.371 147.083C408.974 147.008 408.583 146.96 408.2 146.932C407.82 146.908 407.425 146.936 407.016 147.022Z" fill="#414142"/>
<path id="Vector_32" d="M197.128 39.7193C197.128 39.7193 198.585 31.9333 215.657 31.9333C232.729 31.9333 235.717 39.1644 235.717 39.1644L228.749 41.3443H209.782L197.128 39.7193Z" fill="white"/>
<path id="Vector_33" d="M6.65919 80.8234C10.3522 79.6114 14.1012 78.5253 17.8472 77.4553C28.0122 74.5473 38.2812 71.9284 48.6022 69.5194C63.7852 65.9774 79.1042 62.9044 94.5202 60.3094C113.548 57.1054 132.725 54.6264 151.994 52.9954C162.442 52.1094 172.919 51.4734 183.405 51.1134C187.54 50.9734 192.638 51.7044 195.616 48.4874C197.561 46.3874 197.414 43.9164 197.414 41.3624V38.9344C197.414 37.6344 195.194 37.6344 195.194 38.9344C195.194 40.6294 195.248 42.3304 195.194 44.0234C195.138 45.7324 194.253 47.2824 192.638 48.1954C190.676 49.3044 187.982 48.9564 185.775 49.0234C175.337 49.3384 164.912 49.9324 154.508 50.7714C135.505 52.3084 116.582 54.6644 97.8062 57.7234C82.2912 60.2554 66.8732 63.2634 51.5882 66.7524C40.8752 69.1954 30.2192 71.8664 19.6642 74.8304C15.2022 76.0854 10.5792 77.2203 6.2462 78.8263C6.1902 78.8463 6.12819 78.8633 6.06819 78.8823C4.73619 79.3203 5.31119 81.2694 6.65919 80.8234Z" fill="#4A4A4A"/>
<path id="Vector_34" d="M6.74314 100.377H1.58314C1.58314 100.377 -0.803859 119.704 1.88914 134.7C2.05514 134.874 6.74314 134.7 6.74314 134.7V100.377Z" fill="#35ABB9"/>
<path id="Vector_35" d="M188.038 23.6444H186.122L182.942 19.4834L181.965 20.2054V23.6444H180.311V14.4584H181.965V18.8424C182.42 18.3394 182.87 17.8524 183.316 17.3894L186.05 14.4584H187.933C186.166 16.3434 184.9 17.6844 184.131 18.4834L188.038 23.6444ZM197.81 23.6444H195.778L190.799 16.3214H190.748L190.778 16.7284C190.842 17.5094 190.876 18.2194 190.876 18.8674V23.6444H189.374V14.4584H191.383L196.345 21.7384H196.386C196.377 21.6384 196.362 21.2904 196.333 20.6834C196.306 20.0824 196.289 19.6074 196.289 19.2664V14.4574H197.81V23.6444ZM200.476 23.6444V14.4584H202.13V23.6444H200.476ZM212.789 23.6444H211.125V19.5034H206.458V23.6444H204.802V14.4584H206.458V18.2144H211.125V14.4584H212.789V23.6444ZM224.434 19.0384C224.434 20.5304 224.023 21.6954 223.199 22.5234C222.377 23.3494 221.207 23.7664 219.7 23.7664C218.174 23.7664 216.999 23.3534 216.179 22.5284C215.361 21.7084 214.95 20.5374 214.95 19.0234C214.95 17.5064 215.366 16.3434 216.188 15.5314C217.012 14.7164 218.187 14.3124 219.717 14.3124C221.22 14.3124 222.381 14.7234 223.204 15.5494C224.023 16.3784 224.434 17.5384 224.434 19.0384ZM216.711 19.0384C216.711 20.1674 216.964 21.0234 217.465 21.6064C217.97 22.1944 218.711 22.4874 219.699 22.4874C220.682 22.4874 221.424 22.1974 221.926 21.6184C222.43 21.0414 222.677 20.1804 222.677 19.0384C222.677 17.9084 222.43 17.0554 221.933 16.4734C221.435 15.8934 220.696 15.5994 219.716 15.5994C218.722 15.5994 217.974 15.8934 217.468 16.4734C216.964 17.0554 216.711 17.9084 216.711 19.0384ZM232.372 14.4594H234.094L230.55 23.6454H228.802L225.274 14.4594H226.975L229.087 20.1674C229.195 20.4404 229.314 20.7894 229.44 21.2214C229.564 21.6504 229.646 21.9714 229.682 22.1804C229.743 21.8634 229.838 21.4894 229.96 21.0714C230.086 20.6524 230.188 20.3434 230.263 20.1454L232.372 14.4594ZM243.862 23.6444H241.834L236.855 16.3214H236.804L236.834 16.7284C236.899 17.5094 236.931 18.2194 236.931 18.8674V23.6444H235.429V14.4584H237.436L242.399 21.7384H242.441C242.433 21.6384 242.418 21.2904 242.388 20.6834C242.359 20.0824 242.344 19.6074 242.344 19.2664V14.4574H243.863V23.6444H243.862ZM252.81 23.6444L251.798 21.0924H247.929L246.94 23.6444H245.197L248.98 14.4174H250.78L254.567 23.6444H252.81ZM251.365 19.7994L250.417 17.2964C250.349 17.1294 250.252 16.8664 250.132 16.5044C250.007 16.1454 249.923 15.8814 249.873 15.7134C249.75 16.2284 249.57 16.7944 249.326 17.4074L248.416 19.8004L251.365 19.7994Z" fill="white"/>
<path id="Vector_36" d="M183.597 210.545H184.746C185.517 210.545 186.077 210.414 186.423 210.155C186.768 209.894 186.941 209.51 186.941 208.998C186.941 208.481 186.756 208.108 186.382 207.882C186.008 207.656 185.442 207.546 184.691 207.546H183.597V210.545ZM183.597 211.789V215.458H181.942V206.276H184.803C186.107 206.276 187.072 206.496 187.705 206.939C188.331 207.382 188.645 208.055 188.645 208.948C188.645 210.094 187.989 210.907 186.678 211.394L189.536 215.457H187.655L185.231 211.788H183.597V211.789ZM196.73 215.458H191.004V206.276H196.73V207.546H192.66V210.044H196.474V211.302H192.66V214.182H196.73V215.458ZM206.643 215.458H204.725L201.547 211.302L200.571 212.023V215.459H198.916V206.277H200.571V210.657C201.024 210.156 201.474 209.671 201.921 209.207L204.653 206.277H206.537C204.771 208.159 203.504 209.503 202.737 210.299L206.643 215.458ZM211.473 215.458H209.824V207.562H206.845V206.277H214.449V207.562H211.472V215.458H211.473ZM224.982 210.851C224.982 212.345 224.572 213.51 223.751 214.34C222.925 215.164 221.758 215.583 220.25 215.583C218.723 215.583 217.549 215.17 216.729 214.345C215.909 213.526 215.5 212.355 215.5 210.84C215.5 209.322 215.913 208.157 216.738 207.346C217.56 206.532 218.734 206.127 220.265 206.127C221.766 206.127 222.93 206.54 223.752 207.366C224.572 208.191 224.982 209.352 224.982 210.851ZM217.26 210.851C217.26 211.981 217.512 212.836 218.013 213.421C218.517 214.01 219.26 214.301 220.249 214.301C221.232 214.301 221.972 214.014 222.476 213.433C222.977 212.856 223.226 211.996 223.226 210.851C223.226 209.725 222.977 208.872 222.483 208.286C221.984 207.706 221.246 207.417 220.266 207.417C219.272 207.417 218.522 207.706 218.017 208.286C217.512 208.872 217.26 209.726 217.26 210.851ZM228.812 210.545H229.96C230.733 210.545 231.291 210.414 231.638 210.155C231.984 209.894 232.154 209.51 232.154 208.998C232.154 208.481 231.971 208.108 231.596 207.882C231.223 207.656 230.658 207.546 229.904 207.546H228.812V210.545ZM228.812 211.789V215.458H227.155V206.276H230.019C231.325 206.276 232.29 206.496 232.918 206.939C233.546 207.382 233.858 208.055 233.858 208.948C233.858 210.094 233.204 210.907 231.895 211.394L234.752 215.457H232.871L230.446 211.788H228.812V211.789ZM242.499 215.458L241.487 212.909H237.615L236.628 215.458H234.885L238.669 206.234H240.47L244.253 215.458H242.499ZM241.052 211.613L240.105 209.111C240.035 208.941 239.939 208.682 239.816 208.32C239.694 207.961 239.61 207.694 239.562 207.527C239.437 208.045 239.255 208.609 239.016 209.219L238.104 211.613H241.052ZM238.564 205.537V205.382C238.83 205.085 239.104 204.759 239.379 204.401C239.658 204.037 239.877 203.734 240.039 203.477H241.931V203.607C241.692 203.864 241.333 204.19 240.855 204.598C240.376 204.999 239.969 205.314 239.647 205.537H238.564ZM249.085 215.458H247.434V207.562H244.456V206.277H252.061V207.562H249.084V215.458H249.085Z" fill="white"/>
<path id="Vector_37" d="M7.21436 127.852V126.94L13.1254 128.82V129.745L7.21436 131.614V130.716L10.8904 129.593C11.0674 129.537 11.2914 129.472 11.5674 129.405C11.8434 129.341 12.0484 129.3 12.1844 129.28C11.9804 129.247 11.7424 129.196 11.4704 129.132C11.2014 129.066 11.0034 129.013 10.8724 128.971L7.21436 127.852Z" fill="white"/>
<path id="Vector_38" d="M6.74299 125.29H6.64199C6.45399 125.15 6.24099 125.009 6.01099 124.857C5.77899 124.71 5.57899 124.592 5.41699 124.508V123.505H5.49999C5.66499 123.63 5.87599 123.822 6.13799 124.076C6.39899 124.33 6.59999 124.542 6.74199 124.715L6.74299 125.29ZM9.91199 124.716L7.21399 123.446V122.493L10.833 124.278H13.126V125.159H10.866L7.21399 126.94V125.987L9.91199 124.716Z" fill="white"/>
<path id="Vector_39" d="M13.1141 119.442V120.321H8.03312V121.902H7.20312V117.867H8.03312V119.442H13.1141Z" fill="white"/>
<path id="Vector_40" d="M10.653 114.969L9.04396 115.471C8.93596 115.507 8.76296 115.557 8.53296 115.624C8.30096 115.688 8.13096 115.733 8.02296 115.758C8.35596 115.825 8.71796 115.92 9.11196 116.048L10.653 116.533V114.969ZM13.126 114.203L11.485 114.739V116.791L13.126 117.315V118.238L7.18896 116.23V115.277L13.126 113.272V114.203Z" fill="white"/>
<path id="Vector_41" d="M13.1264 108.33V109.211H10.4624V111.685H13.1264V112.563H7.21436V111.685H9.63036V109.211H7.21436V108.33H13.1264Z" fill="white"/>
<path id="Vector_42" d="M9.91232 105.399L7.21631 104.131V103.181L10.8333 104.965H13.1263V105.846H10.8663L7.21631 107.625V106.671L9.91232 105.399Z" fill="white"/>
<path id="Vector_43" d="M226.045 53.9093L217.13 42.9623C216.51 42.2003 215.249 42.2233 214.662 43.0063L206.467 53.9543C205.784 54.8663 206.502 56.0983 207.719 56.0983H224.829C226.069 56.0983 226.782 54.8133 226.045 53.9093Z" fill="#E95248"/>
<path id="Vector_44" d="M20.1039 142.548L12.0529 145.98C11.4939 146.22 11.3629 146.89 11.7949 147.289L17.8589 152.888C18.3629 153.353 19.2349 153.117 19.3759 152.479L21.3649 143.445C21.5069 142.786 20.7709 142.263 20.1039 142.548Z" fill="#E95248"/>
<path id="Vector_45" d="M413.641 142.709L421.826 145.876C422.394 146.097 422.552 146.764 422.135 147.176L416.298 152.968C415.811 153.449 414.931 153.243 414.762 152.605L412.418 143.647C412.247 142.996 412.964 142.447 413.641 142.709Z" fill="#E95248"/>
<path id="Vector_46" d="M1.41713 101.092C5.40513 101.092 9.39612 101.025 13.3801 101.092C16.7131 101.151 19.0481 103.565 19.1181 106.532C19.1441 107.645 19.1181 108.757 19.1181 109.87V124.136C19.1181 125.544 19.1311 126.952 19.1181 128.361C19.0951 131.116 17.1321 133.77 13.9101 133.982C9.67412 134.263 5.32113 133.994 1.07213 133.994C-0.356875 133.994 -0.357875 136.009 1.07213 136.009C5.21513 136.009 9.36913 136.093 13.5091 136.009C17.2161 135.935 20.3921 133.526 21.1471 130.215C21.4581 128.856 21.3391 127.394 21.3391 126.011V110.947C21.3391 109.503 21.3671 108.056 21.3391 106.612C21.2831 103.575 19.4711 100.703 16.2781 99.5574C13.9941 98.7354 11.1171 99.0784 8.71312 99.0784H1.41713C-0.00987375 99.0764 -0.0128736 101.092 1.41713 101.092Z" fill="#4A4A4A"/>
<path id="Vector_47" d="M189.448 48.9914C189.488 48.9914 191.748 49.1814 193.602 47.5914C195.457 46.0024 195.354 42.6804 195.354 42.6804L189.448 48.9914Z" fill="#35ABB9"/>
<path id="Vector_48" d="M425.847 80.9933L428.693 81.9384L427.796 80.4893L426.428 80.2064L425.847 80.9933Z" fill="#4A4A4A"/>
<path id="Vector_49" d="M432.859 89.8773C432.859 89.8773 432.718 86.3474 429.803 80.6784C426.889 75.0094 438.306 87.0523 438.306 87.0523L436.364 90.8523L432.859 89.8773Z" fill="white"/>
<path id="Vector_50" d="M268.29 6.38736C268.29 6.38736 268.398 4.28236 290.649 9.62436C312.901 14.9674 345.792 27.2334 345.792 27.2334L343.364 60.7164L307.798 54.8584L268.689 52.1114L270.373 32.8354L268.29 6.38736Z" fill="#E95248"/>
<path id="Vector_51" d="M342.296 60.0243C343.698 53.2543 344.04 46.2943 344.194 39.4203C344.277 35.6783 344.295 31.9333 344.161 28.1943C344.117 26.8953 346.336 26.8973 346.385 28.1943C346.521 32.0433 346.499 35.8993 346.407 39.7463C346.241 46.6953 345.855 53.7163 344.437 60.5593C344.173 61.8343 342.032 61.2963 342.296 60.0243Z" fill="#4A4A4A"/>
<path id="Vector_52" d="M269.832 5.95635C270.895 16.2834 271.136 26.7374 270.813 37.0984C270.664 41.9424 270.346 46.7853 269.801 51.6063C269.653 52.8833 267.431 52.8973 267.577 51.6063C269.18 37.5553 268.997 23.2974 267.894 9.21935C267.81 8.12935 267.722 7.04336 267.61 5.95536C267.479 4.66636 269.701 4.67835 269.832 5.95635Z" fill="#4A4A4A"/>
<path id="Vector_53" d="M426.802 78.6284C423.223 77.4514 419.592 76.3984 415.967 75.3574C406.103 72.5304 396.144 69.9734 386.13 67.6204C371.368 64.1454 356.477 61.1234 341.496 58.5464C323.059 55.3764 304.474 52.8804 285.8 51.1574C275.525 50.2094 265.221 49.4954 254.901 49.0494C252.272 48.9344 249.648 48.8374 247.021 48.7594C244.87 48.6924 242.218 49.0444 240.306 47.9674C237.63 46.4584 237.893 43.8284 237.893 41.3584V38.9324C237.893 37.2954 235.092 37.2924 235.092 38.9324C235.092 40.6334 235.045 42.3364 235.092 44.0384C235.188 47.4704 237.843 50.5264 241.65 51.0844C244.162 51.4494 246.853 51.2904 249.394 51.3764C252.098 51.4684 254.805 51.5804 257.506 51.7084C262.749 51.9584 267.987 52.2744 273.218 52.6564C292.82 54.0864 312.334 56.4094 331.704 59.4954C347.649 62.0384 363.5 65.0924 379.208 68.6414C390.24 71.1374 401.21 73.8724 412.073 76.9144C415.256 77.8074 418.43 78.7244 421.593 79.6834C423.017 80.1154 424.434 80.6504 425.879 81.0184C425.942 81.0334 425.998 81.0584 426.056 81.0774C427.753 81.6374 428.486 79.1804 426.802 78.6284Z" fill="#4A4A4A"/>
<path id="Vector_54" d="M420.686 70.2103C399.022 53.7843 374.919 39.8903 349.477 28.7773C311.603 12.2343 270.34 2.06334 228.264 0.283339C203.484 -0.762661 178.58 1.09434 154.313 5.74034C130.645 10.2653 107.725 17.6574 85.8942 27.0524C67.9752 34.7644 50.7812 43.8713 34.5622 54.2143C25.8722 59.7543 17.5402 65.8223 9.62025 72.2383C3.01125 77.5913 0.0502426 86.8123 0.0192426 94.5843C-0.0207574 104.025 0.0192426 113.466 0.0192426 122.908V137.584C0.0192426 142.921 0.561243 148.091 2.89324 153.081C4.89924 157.377 7.74525 160.932 11.5942 163.985C15.5822 167.15 19.6782 170.206 23.8552 173.17C31.7222 178.746 39.9012 183.918 48.3312 188.77C66.4772 199.213 85.6682 208.166 105.631 215.398C151.16 231.887 200.669 238.047 249.409 232.763C289.686 228.396 328.681 216.495 364.278 198.995C377.57 192.46 390.402 185.157 402.652 177.129C407.295 174.087 411.856 170.938 416.316 167.681C418.65 165.981 421.057 164.297 423.166 162.362C426.721 159.084 429.471 155.137 431.254 150.839C433.242 146.054 433.551 141.163 433.551 136.133V120.802C433.551 111.918 433.899 102.972 433.525 94.0943C433.135 84.8713 428.426 76.1973 420.686 70.2103C419.604 69.3683 418.017 70.7883 419.111 71.6353C426.845 77.6163 431.245 86.1824 431.323 95.3894C431.347 98.5354 431.323 101.68 431.323 104.823V136.747C431.323 142.315 430.652 147.72 427.906 152.814C424.533 159.08 418.861 163.303 412.972 167.536C402.855 174.811 392.239 181.526 381.266 187.708C349.732 205.48 315.065 218.837 278.767 226.178C232.808 235.476 184.768 234.62 139.276 223.562C116.646 218.06 94.7282 209.843 74.0232 199.951C56.4662 191.556 39.5532 181.886 23.9862 170.711C20.1662 167.973 16.4212 165.152 12.7602 162.233C8.60725 158.924 5.69224 154.727 3.96324 149.958C2.33824 145.471 2.24424 140.95 2.24424 136.308V103.611C2.24424 100.555 2.22024 97.4993 2.24424 94.4463C2.28124 90.1663 3.18924 85.9303 5.08924 81.9993C6.11024 79.8943 7.39324 77.8893 8.89524 76.0373C10.4052 74.1773 12.3092 72.7533 14.2262 71.2493C29.1532 59.5323 45.4352 49.3663 62.5392 40.4353C103.122 19.2463 148.225 5.49935 195.102 2.61635C239.427 -0.108653 283.947 6.71534 325.245 21.3763C354.56 31.7823 382.313 45.9844 407.404 63.1944C411.381 65.9203 415.288 68.7374 419.112 71.6364C420.203 72.4604 421.785 71.0443 420.686 70.2103Z" fill="#4A4A4A"/>
<path id="Vector_55" d="M282.182 27.7933L280.969 27.5733L282.245 21.7733L280.057 21.3773L280.265 20.4293L285.853 21.4413L285.644 22.3903L283.457 21.9933L282.182 27.7933ZM289.713 29.1563L285.505 28.3963L286.99 21.6483L291.196 22.4113L290.991 23.3433L288 22.8013L287.597 24.6373L290.4 25.1443L290.197 26.0673L287.395 25.5603L286.929 27.6763L289.921 28.2193L289.713 29.1563ZM296.011 28.3933C295.878 28.9923 295.534 29.4203 294.984 29.6743C294.429 29.9283 293.734 29.9793 292.893 29.8293C292.05 29.6753 291.388 29.4333 290.903 29.0983L291.135 28.0583C291.443 28.2613 291.781 28.4403 292.144 28.5913C292.505 28.7443 292.85 28.8503 293.177 28.9093C293.658 28.9983 294.035 28.9793 294.298 28.8543C294.562 28.7303 294.726 28.5273 294.784 28.2483C294.843 27.9943 294.784 27.7603 294.614 27.5483C294.445 27.3373 294.054 27.0493 293.451 26.6913C292.824 26.3183 292.411 25.9453 292.203 25.5773C291.995 25.2093 291.941 24.7963 292.042 24.3473C292.165 23.7843 292.483 23.3813 292.995 23.1373C293.505 22.8913 294.131 22.8393 294.875 22.9723C295.588 23.1033 296.263 23.3733 296.906 23.7843L296.322 24.6153C295.716 24.2443 295.154 24.0103 294.633 23.9163C294.242 23.8453 293.927 23.8713 293.69 23.9883C293.452 24.1063 293.304 24.2953 293.25 24.5493C293.211 24.7243 293.219 24.8813 293.271 25.0203C293.323 25.1593 293.434 25.3013 293.596 25.4433C293.756 25.5893 294.063 25.7973 294.505 26.0683C295.005 26.3723 295.365 26.6343 295.58 26.8623C295.795 27.0863 295.934 27.3203 296.01 27.5693C296.076 27.8133 296.078 28.0893 296.011 28.3933ZM299.615 30.9503L298.403 30.7293L299.675 24.9293L297.488 24.5333L297.696 23.5883L303.284 24.5993L303.076 25.5463L300.888 25.1503L299.615 30.9503ZM310.283 29.3633C310.041 30.4623 309.551 31.2653 308.814 31.7613C308.076 32.2603 307.148 32.4103 306.042 32.2103C304.92 32.0063 304.124 31.5463 303.654 30.8323C303.185 30.1203 303.073 29.2073 303.316 28.0943C303.563 26.9793 304.054 26.1783 304.793 25.6933C305.529 25.2033 306.455 25.0623 307.579 25.2673C308.685 25.4663 309.472 25.9233 309.942 26.6383C310.411 27.3553 310.525 28.2613 310.283 29.3633ZM304.609 28.3363C304.426 29.1673 304.474 29.8303 304.75 30.3273C305.023 30.8253 305.522 31.1373 306.247 31.2683C306.973 31.4013 307.56 31.2883 308.023 30.9283C308.485 30.5713 308.807 29.9723 308.993 29.1323C309.174 28.3023 309.131 27.6443 308.86 27.1493C308.589 26.6573 308.091 26.3453 307.374 26.2143C306.645 26.0813 306.043 26.1963 305.581 26.5543C305.116 26.9153 304.792 27.5093 304.609 28.3363ZM316.856 27.0593L318.117 27.2883L314.033 33.5623L312.748 33.3283L311.642 26.1123L312.891 26.3383L313.518 30.8133C313.553 31.0293 313.587 31.3023 313.608 31.6353C313.631 31.9683 313.637 32.2133 313.631 32.3713C313.726 32.1473 313.857 31.8863 314.017 31.5933C314.175 31.3033 314.298 31.0923 314.385 30.9533L316.856 27.0593ZM322.229 35.0463L321.897 33.0403L319.052 32.5233L317.917 34.2663L316.635 34.0343L320.906 27.7613L322.229 28.0013L323.518 35.2813L322.229 35.0463ZM321.786 32.0293L321.492 30.0663C321.469 29.9343 321.443 29.7283 321.411 29.4473C321.379 29.1653 321.36 28.9613 321.349 28.8303C321.176 29.1913 320.953 29.5833 320.676 30.0013L319.619 31.6383L321.786 32.0293ZM320.941 27.2363L320.966 27.1203C321.21 26.9383 321.462 26.7373 321.723 26.5083C321.986 26.2793 322.197 26.0843 322.359 25.9183L323.749 26.1713L323.727 26.2663C323.509 26.4223 323.195 26.6143 322.778 26.8493C322.361 27.0823 322.012 27.2593 321.738 27.3793L320.941 27.2363ZM330.694 36.5803L329.205 36.3093L326.731 30.2693L326.689 30.2633L326.648 30.5653C326.569 31.1493 326.479 31.6753 326.376 32.1513L325.604 35.6563L324.5 35.4583L325.985 28.7103L327.46 28.9783L329.93 34.9873L329.958 34.9933C329.97 34.9173 330.013 34.6613 330.09 34.2093C330.169 33.7633 330.23 33.4143 330.286 33.1653L331.063 29.6313L332.179 29.8343L330.694 36.5803ZM332.656 36.9373L334.136 30.1883L335.355 30.4093L333.873 37.1573L332.656 36.9373ZM334.185 29.6343L334.21 29.5203C334.454 29.3383 334.706 29.1353 334.97 28.9073C335.232 28.6793 335.443 28.4833 335.602 28.3183L336.991 28.5693L336.968 28.6633C336.753 28.8223 336.439 29.0153 336.023 29.2493C335.604 29.4823 335.254 29.6593 334.98 29.7793L334.185 29.6343Z" fill="white"/>
<path id="Vector_56" d="M284.568 32.3673L283.608 36.7334C283.496 37.2324 283.284 37.6453 282.967 37.9763C282.649 38.3083 282.245 38.5344 281.758 38.6534C281.267 38.7734 280.711 38.7793 280.092 38.6673C279.166 38.5003 278.498 38.1483 278.084 37.6133C277.671 37.0783 277.548 36.4193 277.718 35.6453L278.674 31.3003L279.895 31.5203L278.955 35.7894C278.832 36.3474 278.884 36.7823 279.113 37.1003C279.342 37.4163 279.75 37.6254 280.338 37.7334C281.484 37.9404 282.177 37.4993 282.417 36.4093L283.352 32.1483L284.568 32.3673ZM280.931 31.1463L280.956 31.0303C281.197 30.8493 281.446 30.6463 281.709 30.4173C281.973 30.1913 282.184 29.9953 282.343 29.8293L283.735 30.0793L283.711 30.1774C283.494 30.3334 283.18 30.5263 282.762 30.7593C282.345 30.9943 282 31.1703 281.723 31.2903L280.931 31.1463ZM286.994 36.0694L287.84 36.2224C288.406 36.3264 288.835 36.3033 289.131 36.1603C289.429 36.0153 289.617 35.7503 289.701 35.3773C289.784 34.9973 289.707 34.6994 289.471 34.4834C289.234 34.2664 288.834 34.1103 288.283 34.0063L287.48 33.8643L286.994 36.0694ZM286.791 36.9843L286.201 39.6803L284.983 39.4603L286.465 32.7123L288.569 33.0943C289.528 33.2663 290.199 33.5583 290.593 33.9673C290.982 34.3773 291.103 34.9124 290.958 35.5674C290.772 36.4104 290.159 36.9223 289.119 37.1043L290.561 40.4693L289.178 40.2183L287.992 37.2013L286.791 36.9843ZM298.985 38.4763C298.746 39.5753 298.255 40.3753 297.517 40.8743C296.776 41.3743 295.849 41.5213 294.743 41.3233C293.623 41.1203 292.827 40.6593 292.359 39.9453C291.887 39.2343 291.777 38.3204 292.019 37.2074C292.267 36.0924 292.757 35.2944 293.496 34.8044C294.23 34.3164 295.159 34.1774 296.283 34.3773C297.387 34.5813 298.174 35.0363 298.647 35.7523C299.113 36.4683 299.23 37.3743 298.985 38.4763ZM293.31 37.4493C293.127 38.2813 293.177 38.9443 293.452 39.4383C293.725 39.9373 294.223 40.2493 294.95 40.3803C295.674 40.5143 296.263 40.3993 296.727 40.0403C297.189 39.6833 297.51 39.0833 297.697 38.2413C297.878 37.4163 297.832 36.7553 297.565 36.2593C297.294 35.7683 296.795 35.4563 296.076 35.3253C295.347 35.1943 294.746 35.3083 294.285 35.6653C293.817 36.0283 293.493 36.6213 293.31 37.4493ZM305.557 36.1703L306.821 36.3993L302.733 42.6733L301.451 42.4444L300.342 35.2253L301.592 35.4513L302.221 39.9274C302.255 40.1424 302.288 40.4154 302.312 40.7504C302.333 41.0824 302.339 41.3303 302.333 41.4863C302.431 41.2633 302.561 41.0013 302.721 40.7083C302.878 40.4173 303.003 40.2063 303.091 40.0703L305.557 36.1703ZM312.513 44.4464L311.02 44.1753L308.548 38.1353L308.51 38.1273L308.466 38.4303C308.388 39.0133 308.296 39.5403 308.193 40.0143L307.422 43.5223L306.316 43.3233L307.802 36.5753L309.277 36.8433L311.746 42.8523L311.775 42.8584C311.787 42.7824 311.833 42.5243 311.908 42.0743C311.986 41.6283 312.05 41.2803 312.103 41.0323L312.88 37.4963L313.996 37.6973L312.513 44.4464ZM318.681 45.5633L314.474 44.8024L315.957 38.0544L320.163 38.8153L319.959 39.7493L316.968 39.2054L316.565 41.0434L319.366 41.5473L319.162 42.4733L316.363 41.9663L315.898 44.0833L318.887 44.6263L318.681 45.5633ZM320.51 36.7413L320.481 36.8663C319.966 37.1893 319.599 37.4323 319.383 37.5943C319.166 37.7533 318.996 37.8953 318.875 38.0173L317.552 37.7773C317.4 37.4153 317.073 36.8773 316.565 36.1573L316.591 36.0293L317.398 36.1774C317.803 36.5374 318.123 36.8883 318.354 37.2293C318.748 36.9803 319.199 36.7693 319.701 36.5963L320.51 36.7413ZM327.607 47.1783L327.273 45.1713L324.429 44.6583L323.29 46.3973L322.011 46.1673L326.281 39.8933L327.603 40.1333L328.895 47.4144L327.607 47.1783ZM327.161 44.1613L326.869 42.1983C326.848 42.0683 326.817 41.8613 326.79 41.5793C326.757 41.2973 326.735 41.0943 326.727 40.9633C326.553 41.3253 326.329 41.7163 326.052 42.1343L324.995 43.7723L327.161 44.1613ZM328.521 49.3033C328.186 49.2443 327.92 49.1563 327.712 49.0383L327.913 48.1093C328.185 48.2263 328.428 48.3023 328.64 48.3403C329.303 48.4613 329.717 48.1374 329.884 47.3734L331.322 40.8363L332.545 41.0564L331.116 47.5613C330.963 48.2483 330.668 48.7443 330.228 49.0423C329.784 49.3423 329.215 49.4293 328.521 49.3033Z" fill="white"/>
<g id="R28">
<path id="Vector_57" d="M26.1094 110.204L37.0904 110.21C38.6234 110.21 39.8634 111.171 39.8634 112.357L39.8714 123.076C39.8714 124.264 38.6294 125.22 37.1004 125.22L26.1194 125.218C24.5874 125.218 23.3464 124.255 23.3434 123.073L23.3394 112.351C23.3384 111.166 24.5784 110.207 26.1094 110.204Z" fill="#A7D9E2"/>
<path id="Vector_58" d="M27.9214 117.728C28.5284 117.59 28.9634 117.13 28.9664 116.528C28.9694 115.77 28.3184 115.171 27.4884 115.168L25.4194 115.16L25.4014 119.709L26.4074 119.711L26.4184 117.784H26.9114L28.0004 119.717L29.1274 119.72L27.9214 117.728ZM27.4424 117.079L26.4214 117.073L26.4254 115.957L27.4484 115.962C27.7874 115.962 28.0534 116.205 28.0524 116.523C28.0494 116.835 27.7904 117.079 27.4424 117.079ZM29.3974 119.719L32.6684 119.731L32.6714 118.955L30.6624 118.947C32.2384 117.463 32.5784 117.112 32.5774 116.404C32.5714 115.646 31.9124 115.116 31.0524 115.113C30.1504 115.11 29.3644 115.682 29.4364 116.518L30.3724 116.529C30.3344 116.131 30.6284 115.888 31.0034 115.888C31.3104 115.897 31.6444 116.05 31.6424 116.485C31.6404 116.856 31.4924 117.054 29.4014 119.076L29.3974 119.719Z" fill="#252525"/>
</g>
<g id="R22">
<path id="Vector_59" d="M128.067 74.6734L133.931 74.1854L135.09 74.0884L142.116 73.4994C142.772 73.4434 143.208 72.4424 143.091 71.2604L142.047 60.7534C141.929 59.5724 141.303 58.6574 140.648 58.7154L133.624 59.3004L132.465 59.3954L126.599 59.8864C125.942 59.9424 125.497 60.8674 125.604 61.9524L125.624 62.1274L126.669 72.6314L126.684 72.8034C126.791 73.8924 127.411 74.7294 128.067 74.6734Z" fill="#FBED62"/>
<path id="Vector_60" d="M130.993 67.0943C131.583 66.9043 131.965 66.4103 131.899 65.8123C131.814 65.0563 131.099 64.5124 130.276 64.5824L128.215 64.7473L128.71 69.2784L129.714 69.1973L129.504 67.2764L129.995 67.2343L131.296 69.0663L132.418 68.9764L130.993 67.0943ZM130.443 66.4863L129.426 66.5674L129.306 65.4543L130.323 65.3734C130.663 65.3484 130.952 65.5653 130.988 65.8803C131.022 66.1943 130.79 66.4553 130.443 66.4863ZM132.687 68.9523L135.938 68.6903L135.858 67.9184L133.859 68.0804C135.257 66.4684 135.556 66.0893 135.473 65.3833C135.382 64.6273 134.665 64.1564 133.81 64.2264C132.914 64.2984 132.201 64.9373 132.364 65.7623L133.293 65.6964C133.213 65.3004 133.476 65.0354 133.848 65.0044C134.156 64.9844 134.504 65.1104 134.551 65.5434C134.591 65.9114 134.468 66.1233 132.617 68.3093L132.687 68.9523ZM136.474 68.6443L139.728 68.3803L139.644 67.6073L137.644 67.7693C139.044 66.1573 139.343 65.7803 139.26 65.0723C139.169 64.3203 138.454 63.8484 137.598 63.9184C136.702 63.9904 135.986 64.6263 136.151 65.4543L137.083 65.3853C137 64.9893 137.265 64.7233 137.636 64.6933C137.945 64.6743 138.291 64.7993 138.339 65.2343C138.381 65.6063 138.254 65.8153 136.402 68.0013L136.474 68.6443Z" fill="#252525"/>
</g>
<g id="R20">
<path id="Vector_61" d="M127.396 98.9504L138.378 98.9334C139.906 98.9314 141.15 99.8904 141.154 101.072L141.184 111.794C141.188 112.979 139.948 113.941 138.418 113.944L127.436 113.961C125.905 113.961 124.662 113.004 124.66 111.819L124.63 101.098C124.626 99.9154 125.864 98.9534 127.396 98.9504Z" fill="#A7D9E2"/>
<path id="Vector_62" d="M129.755 106.49C130.362 106.347 130.794 105.888 130.793 105.285C130.793 104.53 130.138 103.93 129.308 103.93L127.239 103.935L127.252 108.481H128.258L128.252 106.551H128.746L129.848 108.478L130.976 108.476L129.755 106.49ZM129.273 105.84L128.252 105.843L128.248 104.728L129.271 104.725C129.611 104.725 129.878 104.968 129.878 105.283C129.88 105.598 129.619 105.84 129.273 105.84ZM131.244 108.476L134.515 108.467L134.514 107.692L132.505 107.695C134.068 106.203 134.409 105.849 134.4 105.141C134.394 104.383 133.731 103.855 132.869 103.858C131.967 103.861 131.187 104.435 131.264 105.275L132.199 105.278C132.159 104.879 132.451 104.636 132.822 104.636C133.134 104.639 133.467 104.792 133.467 105.227C133.468 105.598 133.321 105.796 131.243 107.826L131.244 108.476ZM136.976 108.523C138.063 108.523 138.827 107.563 138.824 106.187C138.821 104.81 138.052 103.855 136.964 103.855C135.861 103.858 135.104 104.817 135.106 106.194C135.111 107.569 135.872 108.526 136.976 108.523ZM136.974 107.747C136.453 107.747 136.081 107.106 136.08 106.191C136.079 105.271 136.443 104.627 136.964 104.627C137.477 104.625 137.847 105.266 137.849 106.188C137.85 107.103 137.487 107.747 136.974 107.747Z" fill="#252525"/>
</g>
<g id="R17">
<path id="Vector_63" d="M173.277 55.9453L184.246 55.4683C185.777 55.4013 187.065 56.3044 187.128 57.4894L187.706 68.1973C187.77 69.3803 186.582 70.3943 185.055 70.4583L174.088 70.9354C172.555 71.0054 171.266 70.0994 171.201 68.9164L170.626 58.2064C170.561 57.0244 171.747 56.0123 173.277 55.9453Z" fill="#FBED62"/>
<path id="Vector_64" d="M176.365 63.4184C176.965 63.2534 177.375 62.7763 177.345 62.1753C177.308 61.4193 176.624 60.8473 175.797 60.8813L173.73 60.9643L173.955 65.5063L174.96 65.4643L174.866 63.5394L175.359 63.5183L176.548 65.4003L177.676 65.3563L176.365 63.4184ZM175.852 62.7883L174.831 62.8324L174.776 61.7173L175.797 61.6753C176.138 61.6613 176.416 61.8924 176.434 62.2074C176.448 62.5224 176.201 62.7733 175.852 62.7883ZM178.852 65.3064L179.826 65.2673L179.602 60.7253L178.686 60.7643L177.624 61.5674L177.671 62.5353L178.677 61.7663L178.852 65.3064ZM180.82 65.2273L181.872 65.1853L183.99 61.1924L183.956 60.5483L180.527 60.6873L180.566 61.4574L182.94 61.3604L180.82 65.2273Z" fill="#252525"/>
</g>
<g id="R27">
<path id="Vector_65" d="M47.387 81.6623L37.44 77.2133C36.32 76.7123 35.101 76.9374 34.715 77.7104L30.586 86.0014L29.907 87.3664L26.462 94.2894C26.075 95.0664 26.599 96.0663 27.627 96.5283L27.79 96.5984L37.736 101.047L37.9 101.121C38.927 101.582 40.075 101.329 40.461 100.551L43.907 93.6273L44.587 92.2624L48.714 83.9704C49.101 83.1954 48.506 82.1643 47.387 81.6623Z" fill="#FBED62"/>
<path id="Vector_66" d="M36.37 91.3463C36.484 90.7783 36.229 90.2253 35.667 89.9873C34.958 89.6863 34.138 89.9963 33.811 90.6943L32.979 92.4393L37.221 94.2553L37.624 93.4073L35.825 92.6373L36.021 92.2203L38.258 92.0643L38.711 91.1143L36.37 91.3463ZM35.571 91.4883L35.163 92.3513L34.124 91.9053L34.536 91.0433C34.669 90.7563 35.003 90.6293 35.297 90.7553C35.59 90.8823 35.713 91.1963 35.571 91.4883ZM38.819 90.8883L40.131 88.1293L39.408 87.8213L38.602 89.5153C37.84 87.5973 37.648 87.1683 36.986 86.8903C36.273 86.5953 35.517 86.9413 35.174 87.6683C34.812 88.4273 35.035 89.3163 35.844 89.5873L36.225 88.8023C35.837 88.6763 35.725 88.3313 35.877 88.0173C36.008 87.7573 36.283 87.5393 36.69 87.7133C37.035 87.8603 37.162 88.0653 38.216 90.6283L38.819 90.8883ZM40.346 87.6783L40.769 86.7893L38.054 83.2833L37.452 83.0283L36.079 85.9213L36.796 86.2313L37.748 84.2253L40.346 87.6783Z" fill="#252525"/>
</g>
<g id="R25">
<path id="Vector_67" d="M67.7471 125.137C68.5091 124.903 69.0141 124.273 68.9451 123.502C68.8581 122.535 67.9561 121.827 66.8931 121.902L64.2461 122.094L64.7561 127.912L66.0481 127.821L65.8281 125.353L66.4621 125.305L68.0791 127.672L69.5241 127.567L67.7471 125.137ZM67.0591 124.351L65.7491 124.446L65.6261 123.018L66.9331 122.923C67.3701 122.892 67.7381 123.176 67.7741 123.584C67.8091 123.984 67.5041 124.32 67.0591 124.351ZM69.8701 127.543L74.0571 127.242L73.9681 126.249L71.3991 126.434C73.2421 124.381 73.6351 123.902 73.5471 122.993C73.4511 122.023 72.5471 121.406 71.4461 121.49C70.2921 121.571 69.3561 122.383 69.5441 123.445L70.7441 123.367C70.6471 122.859 70.9941 122.522 71.4731 122.488C71.8681 122.467 72.3111 122.631 72.3611 123.188C72.4021 123.662 72.2361 123.929 69.7981 126.715L69.8701 127.543ZM77.2121 127.091C78.6041 126.991 79.4781 125.695 79.3231 123.933C79.1691 122.173 78.0801 121.019 76.6881 121.12C75.2771 121.22 74.4101 122.516 74.5661 124.279C74.7201 126.04 75.8001 127.191 77.2121 127.091ZM77.1231 126.099C76.4581 126.149 75.9161 125.36 75.8121 124.186C75.7091 123.009 76.1081 122.151 76.7721 122.103C77.4291 122.056 77.9721 122.845 78.0751 124.025C78.1791 125.195 77.7811 126.052 77.1231 126.099Z" fill="#252525"/>
<path id="Vector_68" d="M65.9761 117.13L76.9561 117.029C78.4861 117.013 79.7381 117.961 79.7531 119.149L79.8841 129.868C79.9011 131.054 78.6691 132.023 77.1401 132.038L66.1591 132.141C64.6301 132.155 63.3781 131.206 63.3611 130.023L63.2311 119.301C63.2141 118.118 64.4441 117.145 65.9761 117.13Z" fill="#FBED62"/>
<path id="Vector_69" d="M68.9821 124.766C69.5881 124.621 70.0211 124.162 70.0141 123.559C70.0101 122.8 69.3511 122.204 68.5231 122.209L66.4561 122.22L66.4881 126.765L67.4941 126.763L67.4801 124.833L67.9741 124.83L69.0831 126.751L70.2111 126.746L68.9821 124.766ZM68.4951 124.119L67.4751 124.125L67.4661 123.009L68.4871 123.004C68.8291 123.001 69.0961 123.24 69.0991 123.559C69.1041 123.87 68.8441 124.116 68.4951 124.119ZM70.4801 126.746L73.7521 126.725L73.7441 125.948L71.7371 125.959C73.2971 124.462 73.6321 124.107 73.6211 123.397C73.6081 122.64 72.9441 122.116 72.0831 122.122C71.1831 122.126 70.4041 122.708 70.4841 123.542L71.4191 123.544C71.3771 123.144 71.6681 122.9 72.0401 122.898C72.3511 122.904 72.6841 123.054 72.6871 123.489C72.6881 123.86 72.5421 124.061 70.4751 126.097L70.4801 126.746ZM76.0621 126.773C77.0771 126.767 77.8011 126.096 77.7961 125.156C77.7881 124.278 77.1371 123.642 76.2351 123.644C75.8611 123.647 75.4801 123.758 75.2611 123.926L75.3681 122.949L77.4511 122.938L77.4441 122.168L74.6071 122.185L74.3831 124.427L75.1631 124.745C75.3631 124.546 75.6911 124.415 75.9771 124.412C76.4591 124.412 76.8151 124.749 76.8171 125.199C76.8211 125.639 76.4831 125.963 75.9881 125.966C75.6221 125.968 75.2311 125.793 75.0171 125.523L74.4071 126.139C74.7721 126.519 75.4291 126.776 76.0621 126.773Z" fill="#252525"/>
</g>
<g id="R23">
<path id="Vector_70" d="M76.422 100.459L87.404 100.389C88.933 100.377 90.184 101.331 90.194 102.516L90.284 113.238C90.294 114.423 89.064 115.391 87.532 115.4L76.552 115.469C75.023 115.477 73.772 114.527 73.763 113.341L73.67 102.62C73.66 101.434 74.89 100.467 76.422 100.459Z" fill="#A7D9E2"/>
<path id="Vector_71" d="M78.706 107.892C79.312 107.752 79.745 107.29 79.743 106.69C79.738 105.929 79.083 105.332 78.255 105.335L76.186 105.343L76.205 109.888L77.213 109.885L77.205 107.956H77.699L78.803 109.88L79.93 109.877L78.706 107.892ZM78.223 107.246L77.201 107.249L77.196 106.134L78.219 106.131C78.559 106.131 78.827 106.371 78.828 106.686C78.828 107 78.573 107.246 78.223 107.246ZM80.198 109.875L83.469 109.867L83.467 109.089L81.456 109.095C83.019 107.6 83.358 107.249 83.35 106.538C83.338 105.779 82.677 105.255 81.817 105.258C80.916 105.261 80.134 105.841 80.213 106.675L81.149 106.681C81.107 106.282 81.399 106.036 81.772 106.036C82.08 106.039 82.415 106.189 82.416 106.628C82.416 106.998 82.27 107.197 80.196 109.229L80.198 109.875ZM86.5 107.274C86.815 107.084 87.017 106.795 87.016 106.443C87.014 105.774 86.378 105.25 85.57 105.253C84.754 105.255 84.123 105.785 84.124 106.452L85.062 106.466C85.06 106.243 85.287 106.067 85.574 106.067C85.9 106.065 86.142 106.262 86.142 106.536C86.145 106.845 85.907 107.077 85.577 107.077H85.571L85.238 107.08L85.245 107.777H85.642C86.039 107.774 86.334 108.052 86.336 108.426C86.337 108.811 86.045 109.093 85.647 109.095C85.256 109.095 84.952 108.871 84.95 108.59L83.994 108.604C83.997 109.337 84.728 109.923 85.649 109.92C86.578 109.917 87.296 109.259 87.294 108.428C87.288 107.92 86.973 107.51 86.5 107.274Z" fill="#252525"/>
</g>
<g id="R24">
<path id="Vector_72" d="M85.2792 117.159L96.2582 117.024C97.7892 117.005 99.0452 117.954 99.0642 119.136L99.2332 129.858C99.2542 131.04 98.0252 132.019 96.4952 132.036L85.5152 132.169C83.9842 132.186 82.7282 131.242 82.7082 130.059L82.5392 119.337C82.5222 118.151 83.7452 117.177 85.2792 117.159Z" fill="#A7D9E2"/>
<path id="Vector_73" d="M87.8063 124.91C88.4123 124.763 88.8373 124.297 88.8293 123.695C88.8173 122.936 88.1553 122.348 87.3273 122.356L85.2593 122.383L85.3243 126.929L86.3333 126.914L86.3033 124.988L86.7973 124.979L87.9233 126.894L89.0523 126.88L87.8063 124.91ZM87.3173 124.267L86.2933 124.279L86.2763 123.163L87.2983 123.152C87.6413 123.146 87.9093 123.386 87.9143 123.702C87.9183 124.016 87.6633 124.264 87.3173 124.267ZM89.3203 126.879L92.5913 126.837L92.5793 126.063L90.5703 126.087C92.1173 124.579 92.4513 124.222 92.4353 123.514C92.4173 122.755 91.7473 122.237 90.8863 122.248C89.9873 122.256 89.2123 122.842 89.2993 123.679L90.2343 123.673C90.1873 123.275 90.4783 123.028 90.8503 123.023C91.1603 123.026 91.4953 123.174 91.4993 123.609C91.5063 123.98 91.3613 124.181 89.3093 126.233L89.3203 126.879ZM96.6863 125.056L96.2443 125.062L96.2033 122.249L94.9813 122.263L92.9043 125.322L92.9113 125.88L95.2893 125.853L95.3043 126.807L96.2713 126.798L96.2563 125.841L96.6973 125.833L96.6863 125.056ZM94.0103 125.087L95.2493 123.129L95.2773 125.072L94.0103 125.087Z" fill="#252525"/>
</g>
<g id="R21">
<path id="Vector_74" d="M127.044 116.386L138.025 116.43C139.558 116.436 140.795 117.4 140.788 118.586L140.747 129.304C140.745 130.49 139.499 131.447 137.969 131.441L126.988 131.396C125.458 131.39 124.221 130.426 124.224 129.241L124.265 118.519C124.27 117.336 125.512 116.381 127.044 116.386Z" fill="#FBED62"/>
<path id="Vector_75" d="M127.258 126.319H128.415V124.475H128.767C129.243 124.483 129.464 124.642 129.601 125.228C129.755 125.805 129.878 126.184 129.964 126.319H131.157C131.057 126.137 130.896 125.527 130.735 124.997C130.605 124.564 130.404 124.253 130.047 124.121V124.101C130.49 123.954 130.958 123.543 130.958 122.948C130.958 122.515 130.79 122.189 130.48 121.967C130.115 121.701 129.579 121.599 128.812 121.599C128.191 121.599 127.633 121.64 127.257 121.696L127.258 126.319ZM128.415 122.418C128.5 122.404 128.66 122.384 128.944 122.384C129.48 122.39 129.799 122.609 129.799 123.037C129.799 123.446 129.454 123.712 128.873 123.712H128.415V122.418ZM135.147 126.319V125.449H133.271V125.434L133.731 125.086C134.451 124.506 135.056 123.9 135.056 123.139C135.056 122.323 134.436 121.723 133.31 121.723C132.634 121.723 132.054 121.932 131.676 122.189L132.007 122.948C132.268 122.765 132.643 122.571 133.07 122.571C133.646 122.571 133.889 122.864 133.889 123.232C133.874 123.758 133.346 124.269 132.258 125.15L131.616 125.68V126.319H135.147ZM136.631 126.319H137.755V121.798H136.79L135.473 122.356L135.665 123.148L136.613 122.738H136.631V126.319Z" fill="#010202"/>
</g>
<g id="R18">
<path id="Vector_76" d="M161.388 109.875L161.286 102.064L161.265 100.522L161.144 91.1703C161.13 90.2943 160.041 89.5914 158.712 89.6004L146.864 89.6613C145.53 89.6693 144.461 90.3833 144.472 91.2563L144.592 100.611L144.613 102.15L144.717 109.963C144.73 110.836 145.733 111.542 146.958 111.532L147.151 111.53L158.996 111.468H159.189C160.413 111.464 161.4 110.754 161.388 109.875Z" fill="#A7D9E2"/>
<path id="Vector_77" d="M150.304 101.013C150.915 100.863 151.343 100.403 151.343 99.8044C151.343 99.0544 150.678 98.4543 149.855 98.4543H147.787L147.798 103.007L148.803 102.996V101.077L149.298 101.066L150.391 102.996H151.528L150.304 101.013ZM149.821 100.361H148.794V99.2454H149.821C150.154 99.2454 150.424 99.4914 150.424 99.8034C150.433 100.113 150.165 100.361 149.821 100.361Z" fill="#252525"/>
<path id="Vector_78" d="M152.703 102.994L153.675 102.991L153.665 98.4434L152.747 98.4464L151.649 99.2064L151.652 100.177L152.693 99.4474L152.703 102.994Z" fill="#252525"/>
<path id="Vector_79" d="M157.313 100.445C157.592 100.244 157.762 99.9324 157.762 99.5774C157.762 98.8914 157.152 98.3784 156.316 98.3784C155.48 98.3784 154.87 98.9024 154.87 99.5774C154.881 99.9424 155.041 100.244 155.318 100.456C154.86 100.693 154.582 101.108 154.582 101.612C154.582 102.426 155.318 103.049 156.326 103.041C157.333 103.041 158.074 102.418 158.074 101.612C158.074 101.109 157.773 100.693 157.313 100.445ZM156.326 99.0654C156.681 99.0654 156.949 99.3214 156.949 99.6424C156.949 99.9744 156.681 100.222 156.326 100.222C155.965 100.222 155.695 99.9744 155.695 99.6424C155.684 99.3214 155.964 99.0764 156.326 99.0654ZM156.326 102.266C155.888 102.266 155.555 101.949 155.555 101.55C155.555 101.154 155.888 100.856 156.317 100.856C156.755 100.856 157.088 101.146 157.088 101.55C157.087 101.948 156.765 102.266 156.326 102.266Z" fill="#252525"/>
</g>
<g id="R19">
<path id="Vector_80" d="M161.462 133.15L161.36 125.339L161.339 123.798L161.219 114.444C161.209 113.569 160.116 112.866 158.784 112.872L146.939 112.936C145.606 112.941 144.537 113.658 144.545 114.531L144.668 123.883L144.689 125.426L144.792 133.239C144.805 134.112 145.807 134.817 147.033 134.812L147.224 134.808L159.069 134.745H159.264C160.491 134.74 161.476 134.026 161.462 133.15Z" fill="#A7D9E2"/>
<path id="Vector_81" d="M150.233 123.698C150.841 123.56 151.277 123.104 151.28 122.498C151.281 121.743 150.628 121.141 149.799 121.141L147.731 121.135L147.72 125.684L148.729 125.686L148.731 123.759H149.225L150.317 125.686L151.447 125.689L150.233 123.698ZM149.756 123.049L148.733 123.045L148.737 121.933L149.758 121.936C150.099 121.936 150.363 122.179 150.363 122.494C150.363 122.809 150.104 123.051 149.756 123.049ZM152.622 125.691L153.598 125.694L153.609 121.146H152.693L151.588 121.902V122.872L152.631 122.147L152.622 125.691ZM158.291 122.672C158.284 121.776 157.454 121.088 156.43 121.094C155.438 121.105 154.588 121.788 154.59 122.689C154.596 123.484 155.277 124.169 156.178 124.255C156.238 124.264 156.31 124.27 156.378 124.264L155.145 125.701H156.254L157.888 123.693C158.117 123.393 158.291 123.049 158.291 122.672ZM156.452 123.511C155.918 123.517 155.548 123.152 155.539 122.686C155.527 122.225 155.903 121.853 156.43 121.838C156.959 121.832 157.324 122.209 157.336 122.666C157.343 123.132 156.98 123.511 156.452 123.511Z" fill="#252525"/>
</g>
<g id="R30">
<path id="Vector_82" d="M278.728 129.695L278.627 125.1L278.605 123.558L278.485 117.42C278.474 116.545 277.383 115.842 276.052 115.847L264.204 115.909C262.871 115.92 261.802 116.631 261.812 117.507L261.934 123.644L261.954 125.187L262.058 129.785C262.071 130.657 263.073 131.359 264.3 131.355H264.492L276.337 131.29H276.53C277.754 131.285 278.741 130.571 278.728 129.695Z" fill="#A7D9E2"/>
<path id="Vector_83" d="M266.949 123.352C267.554 123.204 267.977 122.733 267.965 122.133C267.947 121.377 267.283 120.785 266.453 120.803L264.386 120.839L264.482 125.384L265.488 125.364L265.449 123.437L265.944 123.429L267.079 125.336L268.208 125.318L266.949 123.352ZM266.455 122.711L265.432 122.731L265.409 121.616L266.43 121.595C266.77 121.589 267.043 121.829 267.049 122.145C267.056 122.457 266.802 122.705 266.455 122.711ZM270.925 122.688C271.239 122.493 271.436 122.197 271.425 121.848C271.413 121.182 270.767 120.666 269.958 120.677C269.144 120.695 268.521 121.232 268.536 121.899H269.469C269.465 121.678 269.688 121.498 269.978 121.492C270.304 121.486 270.549 121.681 270.556 121.955C270.562 122.262 270.326 122.498 269.999 122.504H269.99L269.657 122.51L269.678 123.204L270.074 123.198C270.472 123.192 270.774 123.466 270.778 123.843C270.786 124.225 270.5 124.512 270.1 124.521C269.712 124.526 269.402 124.309 269.395 124.025L268.44 124.055C268.456 124.785 269.198 125.363 270.119 125.343C271.047 125.326 271.755 124.663 271.735 123.832C271.726 123.324 271.403 122.917 270.925 122.688ZM274.352 125.27C275.439 125.253 276.186 124.28 276.158 122.905C276.127 121.528 275.34 120.586 274.253 120.602C273.15 120.624 272.41 121.592 272.44 122.969C272.469 124.345 273.248 125.29 274.352 125.27ZM274.337 124.495C273.815 124.507 273.434 123.868 273.414 122.953C273.393 122.033 273.746 121.384 274.268 121.375C274.782 121.363 275.164 122.002 275.18 122.923C275.203 123.838 274.848 124.487 274.337 124.495Z" fill="#252525"/>
</g>
<g id="R29">
<path id="Vector_84" d="M266.836 68.2593L267.047 60.4483L267.087 58.9063L267.039 57.0373C267.063 56.1623 266.002 55.4173 264.672 55.3703L252.832 54.9603C251.499 54.9153 250.401 55.5853 250.378 56.4603L250.424 58.3313L250.385 59.8703L250.175 67.6803C250.154 68.5533 251.125 69.2953 252.354 69.3393L252.547 69.3453L264.384 69.7523L264.577 69.7603C265.801 69.8063 266.814 69.1313 266.836 68.2593Z" fill="#FBED62"/>
<path id="Vector_85" d="M255.394 61.9513C256.009 61.8323 256.457 61.3883 256.478 60.7863C256.502 60.0273 255.867 59.4093 255.039 59.3813L252.972 59.3113L252.825 63.8533L253.832 63.8873L253.895 61.9633L254.389 61.9773L255.421 63.9433L256.55 63.9793L255.394 61.9513ZM254.94 61.2873L253.916 61.2513L253.954 60.1353L254.973 60.1723C255.316 60.1833 255.575 60.4313 255.565 60.7493C255.553 61.0613 255.286 61.2983 254.94 61.2873ZM256.817 63.9903L260.087 64.0983L260.112 63.3203L258.102 63.2533C259.721 61.8183 260.071 61.4773 260.086 60.7693C260.106 60.0113 259.46 59.4613 258.601 59.4333C257.698 59.4023 256.9 59.9493 256.946 60.7883L257.882 60.8283C257.856 60.4263 258.156 60.1944 258.529 60.2054C258.837 60.2224 259.163 60.3843 259.149 60.8223C259.14 61.1933 258.983 61.3853 256.836 63.3403L256.817 63.9903ZM264.411 61.2094C264.432 60.3144 263.62 59.6003 262.598 59.5723C261.604 59.5523 260.734 60.2084 260.71 61.1084C260.694 61.9034 261.353 62.6113 262.25 62.7253C262.309 62.7343 262.381 62.7423 262.448 62.7403L261.177 64.1343L262.282 64.1703L263.975 62.2163C264.214 61.9263 264.399 61.5894 264.411 61.2094ZM262.544 61.9913C262.011 61.9793 261.652 61.6033 261.659 61.1373C261.661 60.6743 262.045 60.3114 262.571 60.3174C263.102 60.3314 263.456 60.7183 263.454 61.1723C263.448 61.6383 263.073 62.0063 262.544 61.9913Z" fill="#252525"/>
</g>
<path id="Vector_86" d="M333.351 124.227C334.111 123.993 334.615 123.363 334.547 122.59C334.461 121.622 333.559 120.914 332.498 120.989L329.848 121.181L330.36 127.001L331.65 126.908L331.433 124.44L332.066 124.395L333.684 126.76L335.128 126.656L333.351 124.227ZM332.662 123.438L331.353 123.533L331.227 122.105L332.536 122.01C332.971 121.98 333.342 122.264 333.375 122.668C333.412 123.073 333.108 123.407 332.662 123.438ZM335.474 126.634L339.66 126.33L339.573 125.338L337.004 125.522C338.844 123.472 339.238 122.988 339.15 122.082C339.056 121.111 338.152 120.498 337.049 120.576C335.894 120.659 334.958 121.468 335.148 122.536L336.345 122.458C336.247 121.947 336.596 121.613 337.074 121.576C337.469 121.555 337.914 121.719 337.964 122.276C338.005 122.751 337.837 123.02 335.401 125.806L335.474 126.634ZM342.815 126.18C344.208 126.079 345.082 124.783 344.927 123.02C344.771 121.261 343.685 120.107 342.289 120.207C340.878 120.31 340.013 121.603 340.167 123.366C340.321 125.125 341.405 126.282 342.815 126.18ZM342.725 125.187C342.061 125.233 341.521 124.448 341.413 123.274C341.311 122.094 341.709 121.238 342.376 121.19C343.032 121.143 343.575 121.932 343.679 123.112C343.782 124.283 343.384 125.142 342.725 125.187Z" fill="#252525"/>
<g id="R35">
<path id="Vector_87" d="M331.814 116.219L342.793 116.118C344.325 116.101 345.576 117.05 345.593 118.234L345.724 128.956C345.741 130.141 344.507 131.111 342.98 131.126L332.001 131.228C330.469 131.246 329.216 130.294 329.199 129.11L329.068 118.388C329.053 117.204 330.283 116.233 331.814 116.219Z" fill="#FBED62"/>
<path id="Vector_88" d="M331.428 125.655H332.594V123.796H332.948C333.428 123.804 333.653 123.966 333.791 124.554C333.944 125.134 334.069 125.519 334.153 125.656H335.36C335.259 125.472 335.095 124.856 334.935 124.321C334.803 123.888 334.602 123.573 334.24 123.439V123.418C334.689 123.27 335.159 122.856 335.159 122.255C335.159 121.819 334.99 121.49 334.679 121.268C334.31 120.997 333.769 120.894 332.995 120.894C332.37 120.894 331.806 120.936 331.429 120.992V125.655H331.428ZM332.594 121.721C332.678 121.707 332.841 121.685 333.127 121.685C333.664 121.694 333.992 121.911 333.992 122.345C333.992 122.758 333.642 123.026 333.057 123.026H332.593V121.721H332.594ZM335.793 125.41C336.086 125.577 336.635 125.73 337.282 125.73C338.557 125.73 339.337 125.142 339.337 124.336C339.337 123.738 338.85 123.326 338.247 123.226V123.212C338.866 123.017 339.168 122.637 339.168 122.152C339.168 121.529 338.571 121.019 337.498 121.019C336.85 121.019 336.246 121.187 335.947 121.362L336.184 122.133C336.393 122.022 336.827 121.86 337.237 121.86C337.73 121.86 337.976 122.063 337.976 122.337C337.976 122.725 337.475 122.856 337.082 122.864H336.624V123.628H337.104C337.62 123.628 338.117 123.832 338.117 124.278C338.117 124.623 337.806 124.89 337.195 124.89C336.717 124.89 336.239 124.707 336.029 124.609L335.793 125.41ZM343.165 121.096H340.397L340.066 123.489C340.275 123.459 340.467 123.447 340.747 123.447C341.751 123.447 342.159 123.735 342.159 124.207C342.159 124.688 341.642 124.897 341.157 124.897C340.7 124.897 340.244 124.772 340.02 124.674L339.81 125.472C340.089 125.606 340.598 125.731 341.208 125.731C342.562 125.731 343.363 124.981 343.363 124.133C343.363 123.601 343.129 123.227 342.755 122.99C342.395 122.763 341.91 122.661 341.434 122.661C341.311 122.661 341.217 122.661 341.109 122.675L341.217 121.972H343.164V121.096H343.165Z" fill="#010202"/>
</g>
<g id="R34">
<path id="Vector_89" d="M331.843 100.088L342.822 100.018C344.353 100.009 345.603 100.963 345.612 102.145L345.705 112.866C345.716 114.051 344.481 115.019 342.952 115.027L331.971 115.096C330.441 115.105 329.193 114.154 329.181 112.969L329.089 102.247C329.077 101.067 330.311 100.099 331.843 100.088Z" fill="#FBED62"/>
<path id="Vector_90" d="M331.157 109.672H332.324V107.815H332.679C333.158 107.823 333.381 107.985 333.52 108.57C333.676 109.153 333.8 109.54 333.886 109.672H335.09C334.991 109.491 334.826 108.871 334.664 108.342C334.533 107.906 334.333 107.589 333.97 107.458V107.436C334.419 107.288 334.889 106.875 334.889 106.27C334.889 105.837 334.719 105.508 334.411 105.283C334.039 105.015 333.499 104.912 332.725 104.912C332.098 104.912 331.535 104.954 331.156 105.01V109.672H331.157ZM332.324 105.74C332.412 105.726 332.572 105.703 332.857 105.703C333.398 105.709 333.723 105.926 333.723 106.364C333.723 106.777 333.375 107.044 332.788 107.044H332.323L332.324 105.74ZM335.523 109.426C335.816 109.596 336.366 109.749 337.015 109.749C338.288 109.749 339.07 109.161 339.07 108.355C339.07 107.758 338.584 107.345 337.979 107.245V107.231C338.598 107.036 338.9 106.656 338.9 106.174C338.9 105.549 338.304 105.037 337.23 105.037C336.582 105.037 335.978 105.207 335.676 105.383L335.917 106.153C336.124 106.041 336.559 105.88 336.968 105.88C337.462 105.88 337.709 106.084 337.709 106.357C337.709 106.742 337.206 106.875 336.813 106.883H336.357V107.648H336.836C337.352 107.648 337.849 107.848 337.849 108.3C337.849 108.643 337.539 108.908 336.928 108.908C336.449 108.908 335.973 108.726 335.761 108.629L335.523 109.426ZM343.032 109.672V108.587H343.636V107.788H343.032V105.117H341.594L339.695 107.891V108.588H341.92V109.673H343.032V109.672ZM340.791 107.787V107.773L341.464 106.777C341.632 106.49 341.765 106.222 341.926 105.926H341.958C341.936 106.222 341.919 106.503 341.919 106.777V107.787H340.791Z" fill="#010202"/>
</g>
<g id="R36">
<path id="Vector_91" d="M350.879 116.246L361.86 116.113C363.389 116.096 364.646 117.038 364.665 118.224L364.832 128.943C364.854 130.131 363.629 131.103 362.097 131.123L351.118 131.258C349.585 131.277 348.33 130.329 348.311 129.147L348.141 118.425C348.122 117.24 349.347 116.266 350.879 116.246Z" fill="#FBED62"/>
<path id="Vector_92" d="M350.268 125.864H351.437V124.005H351.793C352.268 124.011 352.492 124.172 352.634 124.763C352.788 125.343 352.912 125.731 352.995 125.865H354.2C354.1 125.681 353.938 125.065 353.776 124.529C353.643 124.097 353.442 123.782 353.08 123.648V123.626C353.527 123.481 353.999 123.065 353.999 122.464C353.999 122.028 353.829 121.7 353.52 121.474C353.148 121.208 352.609 121.103 351.836 121.103C351.211 121.103 350.648 121.145 350.267 121.201L350.268 125.864ZM351.437 121.93C351.52 121.916 351.684 121.897 351.968 121.897C352.51 121.903 352.834 122.121 352.834 122.552C352.834 122.967 352.484 123.233 351.898 123.233H351.436V121.93H351.437ZM354.634 125.619C354.928 125.786 355.476 125.939 356.123 125.939C357.397 125.939 358.179 125.351 358.179 124.545C358.179 123.947 357.694 123.535 357.092 123.438V123.421C357.709 123.226 358.009 122.847 358.009 122.364C358.009 121.739 357.415 121.226 356.342 121.226C355.694 121.226 355.09 121.396 354.788 121.572L355.027 122.342C355.236 122.23 355.669 122.069 356.079 122.069C356.572 122.069 356.82 122.272 356.82 122.546C356.82 122.931 356.318 123.065 355.923 123.073H355.469V123.838H355.946C356.466 123.838 356.961 124.041 356.961 124.487C356.961 124.83 356.65 125.1 356.041 125.1C355.562 125.1 355.084 124.915 354.873 124.819L354.634 125.619ZM362.159 121.241C362.043 121.235 361.903 121.238 361.687 121.249C360.9 121.289 360.247 121.506 359.749 121.922C359.205 122.373 358.859 123.093 358.859 123.948C358.859 125.036 359.517 125.939 360.854 125.939C361.944 125.939 362.707 125.198 362.707 124.292C362.707 123.347 362 122.806 361.154 122.806C360.683 122.806 360.336 122.94 360.089 123.171H360.067C360.197 122.638 360.663 122.153 361.704 122.077C361.891 122.063 362.029 122.056 362.16 122.063L362.159 121.241ZM360.837 125.153C360.303 125.153 360.044 124.721 360.024 124.236C360.021 124.111 360.044 124.027 360.07 123.968C360.189 123.739 360.45 123.564 360.769 123.564C361.27 123.564 361.516 123.926 361.516 124.347C361.517 124.81 361.253 125.153 360.837 125.153Z" fill="#010202"/>
</g>
<g id="R32">
<path id="Vector_93" d="M285.41 93.9203L296.392 93.8983C297.921 93.8933 299.163 94.8524 299.169 96.0354L299.209 106.759C299.216 107.944 297.975 108.906 296.446 108.909L285.465 108.934C283.934 108.934 282.688 107.977 282.685 106.795L282.648 96.0704C282.64 94.8874 283.876 93.9253 285.41 93.9203Z" fill="#A7D9E2"/>
<path id="Vector_94" d="M284.953 103.537H286.121V101.68H286.477C286.955 101.686 287.178 101.85 287.318 102.436C287.472 103.019 287.596 103.406 287.679 103.537H288.886C288.784 103.356 288.621 102.737 288.461 102.204C288.327 101.772 288.129 101.454 287.766 101.324V101.301C288.213 101.154 288.684 100.741 288.684 100.138C288.684 99.7034 288.514 99.3713 288.205 99.1483C287.833 98.8833 287.295 98.7744 286.521 98.7744C285.895 98.7744 285.332 98.8164 284.952 98.8754L284.953 103.537ZM286.121 99.6024C286.204 99.5884 286.368 99.5684 286.653 99.5684C287.194 99.5744 287.52 99.7924 287.52 100.227C287.52 100.64 287.17 100.907 286.582 100.907H286.12L286.121 99.6024ZM289.319 103.292C289.613 103.459 290.161 103.615 290.809 103.615C292.084 103.615 292.866 103.027 292.866 102.218C292.866 101.624 292.378 101.212 291.777 101.112V101.098C292.395 100.903 292.695 100.523 292.695 100.038C292.695 99.4134 292.102 98.9034 291.028 98.9034C290.378 98.9034 289.777 99.0714 289.474 99.2464L289.713 100.016C289.922 99.9074 290.353 99.7454 290.765 99.7454C291.257 99.7454 291.505 99.9494 291.505 100.222C291.505 100.607 291.001 100.741 290.609 100.749H290.155V101.513H290.632C291.152 101.513 291.647 101.713 291.647 102.162C291.647 102.505 291.334 102.772 290.724 102.772C290.247 102.772 289.769 102.591 289.559 102.494L289.319 103.292ZM296.901 103.537V102.662H295.009V102.648L295.47 102.297C296.22 101.731 296.808 101.098 296.808 100.334C296.808 99.5064 296.182 98.9034 295.046 98.9034C294.369 98.9034 293.778 99.1134 293.4 99.3724L293.733 100.139C293.997 99.9554 294.373 99.7574 294.807 99.7574C295.387 99.7574 295.64 100.052 295.633 100.426C295.626 100.958 295.079 101.463 293.988 102.361L293.338 102.894V103.538H296.901V103.537Z" fill="#010202"/>
</g>
<g id="R31">
<path id="Vector_95" d="M285.309 116.222H296.289C297.821 116.222 299.063 117.181 299.064 118.366L299.078 129.088C299.078 130.274 297.837 131.232 296.307 131.232L285.326 131.236C283.796 131.236 282.552 130.276 282.55 129.09L282.54 118.37C282.536 117.183 283.777 116.224 285.309 116.222Z" fill="#FBED62"/>
<path id="Vector_96" d="M285.447 126.097H286.612V124.237H286.967C287.449 124.245 287.673 124.404 287.811 124.995C287.964 125.578 288.087 125.963 288.174 126.098H289.38C289.279 125.915 289.116 125.297 288.956 124.764C288.823 124.329 288.622 124.014 288.261 123.88V123.86C288.709 123.71 289.179 123.297 289.179 122.695C289.179 122.259 289.011 121.93 288.7 121.705C288.329 121.44 287.786 121.334 287.014 121.334C286.388 121.334 285.826 121.379 285.447 121.433V126.097ZM286.612 122.161C286.7 122.147 286.86 122.126 287.147 122.126C287.688 122.134 288.011 122.351 288.011 122.786C288.011 123.198 287.664 123.464 287.077 123.464H286.611L286.612 122.161ZM289.812 125.851C290.106 126.018 290.656 126.171 291.304 126.171C292.578 126.171 293.359 125.583 293.359 124.777C293.359 124.18 292.872 123.764 292.269 123.667V123.656C292.887 123.458 293.19 123.079 293.19 122.596C293.19 121.971 292.592 121.458 291.519 121.458C290.871 121.458 290.269 121.625 289.965 121.803L290.207 122.576C290.414 122.462 290.848 122.3 291.257 122.3C291.752 122.3 291.998 122.503 291.998 122.777C291.998 123.162 291.496 123.296 291.102 123.304H290.646V124.069H291.127C291.644 124.069 292.136 124.272 292.136 124.721C292.136 125.064 291.829 125.328 291.218 125.328C290.739 125.328 290.261 125.146 290.053 125.049L289.812 125.851ZM295.034 126.097H296.167V121.536H295.196L293.865 122.098L294.061 122.898L295.017 122.482H295.034V126.097Z" fill="#010202"/>
</g>
<g id="R38">
<path id="Vector_97" d="M410.685 125.744L410.584 117.934L410.56 116.392L410.44 107.037C410.429 106.163 409.343 105.461 408.007 105.467L396.161 105.529C394.828 105.537 393.758 106.254 393.77 107.127L393.892 116.479L393.911 118.021L394.017 125.832C394.026 126.708 395.03 127.41 396.254 127.404L396.446 127.401L408.294 127.34H408.486C409.712 127.334 410.699 126.62 410.685 125.744Z" fill="#A7D9E2"/>
<path id="Vector_98" d="M396.374 118.338H397.502V116.537H397.848C398.311 116.541 398.529 116.698 398.663 117.269C398.812 117.832 398.933 118.207 399.015 118.337H400.182C400.083 118.158 399.927 117.562 399.769 117.043C399.644 116.624 399.447 116.317 399.097 116.189V116.169C399.531 116.024 399.988 115.622 399.988 115.04C399.988 114.619 399.823 114.301 399.523 114.083C399.167 113.824 398.641 113.723 397.893 113.723C397.286 113.723 396.742 113.762 396.374 113.818V118.338ZM397.502 114.526C397.585 114.511 397.742 114.492 398.02 114.492C398.544 114.501 398.858 114.707 398.858 115.131C398.858 115.532 398.521 115.788 397.955 115.788H397.503V114.526H397.502ZM400.601 118.098C400.884 118.259 401.415 118.411 402.044 118.411C403.277 118.411 404.033 117.843 404.033 117.058C404.033 116.481 403.561 116.082 402.979 115.987V115.973C403.577 115.784 403.87 115.415 403.87 114.948C403.87 114.343 403.292 113.846 402.253 113.846C401.625 113.846 401.042 114.011 400.75 114.181L400.981 114.928C401.185 114.816 401.603 114.663 401.999 114.663C402.478 114.663 402.716 114.858 402.716 115.122C402.716 115.496 402.232 115.624 401.849 115.633H401.408V116.372H401.873C402.373 116.372 402.854 116.57 402.854 117.005C402.854 117.336 402.553 117.596 401.961 117.596C401.498 117.596 401.034 117.42 400.833 117.323L400.601 118.098ZM406.212 118.411C407.344 118.411 408.082 117.872 408.082 117.073C408.082 116.503 407.663 116.135 407.192 115.973V115.952C407.671 115.734 407.894 115.361 407.894 114.981C407.894 114.446 407.424 113.846 406.287 113.846C405.313 113.846 404.573 114.343 404.573 115.09C404.573 115.478 404.804 115.838 405.276 116.055V116.074C404.744 116.286 404.408 116.652 404.408 117.181C404.409 117.781 404.978 118.411 406.212 118.411ZM406.255 117.7C405.831 117.7 405.565 117.398 405.567 117.079C405.571 116.761 405.784 116.517 406.159 116.42C406.608 116.532 406.921 116.761 406.921 117.149C406.921 117.46 406.66 117.7 406.255 117.7ZM406.236 114.546C406.652 114.546 406.826 114.816 406.826 115.089C406.826 115.368 406.595 115.586 406.332 115.652C405.943 115.544 405.644 115.354 405.644 115.055C405.644 114.777 405.846 114.546 406.236 114.546Z" fill="#010202"/>
</g>
<g id="R37">
<path id="Vector_99" d="M350.644 100.088L361.624 100.018C363.157 100.009 364.404 100.963 364.414 102.145L364.506 112.866C364.516 114.051 363.284 115.019 361.752 115.027L350.772 115.096C349.242 115.105 347.992 114.154 347.982 112.969L347.889 102.247C347.879 101.067 349.111 100.099 350.644 100.088Z" fill="#FBED62"/>
<path id="Vector_100" d="M349.912 110.229L351.134 110.218L351.204 108.249L351.575 108.246C352.075 108.246 352.305 108.416 352.429 109.038C352.569 109.651 352.685 110.059 352.77 110.2L354.03 110.186C353.933 109.994 353.786 109.341 353.637 108.781C353.513 108.323 353.314 107.988 352.942 107.852L352.943 107.83C353.415 107.668 353.924 107.225 353.948 106.586C353.963 106.129 353.801 105.78 353.484 105.546C353.105 105.267 352.541 105.164 351.733 105.169C351.079 105.175 350.485 105.228 350.087 105.289L349.912 110.229ZM351.282 106.052C351.371 106.035 351.542 106.01 351.841 106.01C352.407 106.01 352.74 106.239 352.722 106.699C352.708 107.137 352.332 107.421 351.719 107.426L351.233 107.432L351.282 106.052ZM354.492 109.922C354.795 110.098 355.362 110.257 356.043 110.248C357.378 110.234 358.218 109.604 358.248 108.751C358.27 108.121 357.775 107.686 357.147 107.588V107.574C357.802 107.36 358.133 106.955 358.149 106.442C358.174 105.784 357.569 105.249 356.446 105.259C355.765 105.265 355.13 105.449 354.808 105.638L355.028 106.45C355.252 106.33 355.713 106.155 356.14 106.152C356.657 106.146 356.909 106.358 356.898 106.649C356.883 107.059 356.354 107.204 355.94 107.215L355.462 107.221L355.434 108.03L355.934 108.024C356.477 108.018 356.988 108.228 356.972 108.704C356.958 109.069 356.622 109.354 355.984 109.36C355.483 109.366 354.989 109.176 354.774 109.075L354.492 109.922ZM358.769 105.319L358.736 106.244L361.147 106.219L361.146 106.236L358.842 110.14L360.143 110.126L362.457 105.993L362.483 105.28L358.769 105.319Z" fill="#010202"/>
</g>
<path id="Vector_101" d="M432.117 99.8734H419.5C415.655 99.8734 412.54 102.753 412.54 106.306V128.353C412.54 131.91 415.655 134.79 419.5 134.79H432.479L432.117 99.8734Z" fill="#35ABB9"/>
<path id="Vector_102" d="M419.461 127.642V126.729L425.373 128.611V129.535L419.461 131.405V130.503L423.136 129.385C423.312 129.326 423.539 129.262 423.816 129.197C424.091 129.131 424.297 129.089 424.43 129.068C424.225 129.038 423.988 128.986 423.719 128.921C423.448 128.856 423.251 128.802 423.123 128.761L419.461 127.642Z" fill="white"/>
<path id="Vector_103" d="M418.991 125.078H418.887C418.699 124.938 418.487 124.796 418.258 124.648C418.024 124.498 417.825 124.38 417.662 124.296V123.292H417.746C417.912 123.421 418.124 123.613 418.384 123.867C418.645 124.118 418.844 124.33 418.99 124.506V125.078H418.991ZM422.16 124.507L419.465 123.237V122.281L423.081 124.069H425.374V124.95H423.113L419.465 126.728V125.774L422.16 124.507Z" fill="white"/>
<path id="Vector_104" d="M425.361 119.233V120.112H420.28V121.689H419.452V117.658H420.28V119.233H425.361Z" fill="white"/>
<path id="Vector_105" d="M422.901 114.758L421.292 115.26C421.183 115.299 421.014 115.349 420.779 115.413C420.548 115.477 420.378 115.521 420.271 115.546C420.602 115.614 420.964 115.708 421.36 115.837L422.901 116.322V114.758ZM425.373 113.991L423.733 114.529V116.579L425.373 117.103V118.026L419.438 116.018V115.067L425.373 113.059V113.991Z" fill="white"/>
<path id="Vector_106" d="M425.373 108.119V108.999H422.709V111.476H425.373V112.351H419.464V111.476H421.879V108.999H419.464V108.119H425.373Z" fill="white"/>
<path id="Vector_107" d="M422.16 105.191L419.464 103.922V102.968L423.08 104.753H425.373V105.634H423.113L419.464 107.413V106.462L422.16 105.191Z" fill="white"/>
<path id="Vector_108" d="M432.191 100.883C428.207 100.883 424.214 100.815 420.23 100.883C416.896 100.938 414.563 103.353 414.491 106.32C414.463 107.433 414.491 108.548 414.491 109.661V123.924C414.491 125.334 414.479 126.742 414.491 128.149C414.514 130.904 416.476 133.558 419.7 133.773C423.934 134.052 428.288 133.782 432.537 133.782C433.966 133.782 433.969 135.797 432.537 135.797C428.392 135.797 424.239 135.882 420.098 135.797C416.394 135.723 413.219 133.313 412.463 130.003C412.151 128.643 412.272 127.185 412.272 125.799V110.738C412.272 109.294 412.243 107.843 412.272 106.399C412.323 103.363 414.136 100.49 417.331 99.3443C419.617 98.5213 422.493 98.8674 424.897 98.8674H432.192C433.619 98.8674 433.621 100.883 432.191 100.883Z" fill="#4A4A4A"/>
<path id="Vector_109" d="M36.0352 117.192C36.3142 116.989 36.4862 116.679 36.4862 116.325C36.4862 115.639 35.8752 115.126 35.0382 115.126C34.2032 115.126 33.5912 115.65 33.5912 116.325C33.6012 116.687 33.7652 116.989 34.0422 117.204C33.5802 117.44 33.3032 117.856 33.3032 118.36C33.3032 119.175 34.0422 119.797 35.0502 119.786C36.0572 119.786 36.7972 119.163 36.7972 118.36C36.7962 117.856 36.4952 117.44 36.0352 117.192ZM35.0492 115.812C35.4032 115.812 35.6712 116.066 35.6712 116.389C35.6712 116.722 35.4032 116.969 35.0492 116.969C34.6852 116.969 34.4162 116.722 34.4162 116.389C34.4052 116.066 34.6852 115.82 35.0492 115.812ZM35.0492 119.014C34.6092 119.014 34.2772 118.693 34.2772 118.297C34.2772 117.901 34.6092 117.6 35.0382 117.6C35.4782 117.6 35.8112 117.89 35.8112 118.297C35.8112 118.692 35.4882 119.014 35.0492 119.014Z" fill="#252525"/>
<g id="R26">
<path id="Vector_110" d="M78.1299 67.6814L88.9969 66.1034C90.5129 65.8824 91.8829 66.6524 92.0569 67.8264L93.6329 78.4304C93.8099 79.6014 92.7209 80.7314 91.2079 80.9514L80.3409 82.5274C78.8229 82.7484 77.4529 81.9744 77.2779 80.8044L75.7019 70.2004C75.5279 69.0284 76.6149 67.8994 78.1299 67.6814Z" fill="#FBED62"/>
<path id="Vector_111" d="M82.0897 75.5084C81.9077 75.0984 81.6617 74.8064 81.2857 74.7274L81.2817 74.7064C81.7077 74.4974 82.1227 74.0334 82.0407 73.4264C81.9847 73.0024 81.7707 72.6964 81.4347 72.5144C81.0387 72.2944 80.4837 72.2604 79.7157 72.3614C79.1007 72.4444 78.5447 72.5624 78.1807 72.6764L78.7917 77.2964L79.9497 77.1434L79.7047 75.2944L80.0557 75.2474C80.5257 75.1934 80.7687 75.3254 80.9857 75.8914C81.2207 76.4434 81.3877 76.8114 81.4927 76.9374L82.6907 76.7784C82.5597 76.6124 82.3207 76.0164 82.0897 75.5084ZM80.0617 74.4694L79.6047 74.5304L79.4307 73.2344C79.5057 73.2144 79.6727 73.1704 79.9497 73.1344C80.4917 73.0724 80.8407 73.2424 80.8957 73.6754C80.9497 74.0784 80.6457 74.3904 80.0617 74.4694Z" fill="#010202"/>
<path id="Vector_112" d="M89.174 72.8254C88.704 72.8874 88.386 73.0714 88.169 73.3274L88.148 73.3304C88.21 72.7924 88.599 72.2424 89.631 72.0314C89.809 71.9974 89.946 71.9674 90.071 71.9614L89.965 71.1414C89.85 71.1584 89.711 71.1784 89.499 71.2134C88.729 71.3594 88.11 71.6594 87.664 72.1394C87.193 72.6554 86.938 73.4134 87.051 74.2644C87.195 75.3484 87.972 76.1513 89.287 75.9763C90.372 75.8333 91.03 74.9994 90.909 74.0964C90.786 73.1634 90.013 72.7144 89.174 72.8254ZM89.174 75.1934C88.642 75.2634 88.329 74.8734 88.247 74.3994C88.228 74.2704 88.238 74.1814 88.255 74.1284C88.34 73.8794 88.582 73.6734 88.891 73.6314C89.391 73.5644 89.684 73.8934 89.738 74.3094C89.798 74.7644 89.587 75.1374 89.174 75.1934Z" fill="#010202"/>
<path id="Vector_113" d="M83.525 76.5904L86.765 76.1524L86.661 75.3804L84.67 75.6534C86.024 73.9634 86.31 73.5704 86.207 72.8674C86.098 72.1174 85.375 71.6854 84.519 71.8004C83.627 71.9204 82.93 72.5984 83.117 73.4174L84.047 73.2974C83.953 72.9074 84.207 72.6264 84.579 72.5784C84.886 72.5394 85.237 72.6474 85.295 73.0804C85.346 73.4464 85.226 73.6634 83.437 75.9524L83.525 76.5904Z" fill="#010202"/>
</g>
<g id="R40">
<path id="Vector_114" d="M312.292 60.4623L323.147 62.1294C324.662 62.3604 325.748 63.4954 325.567 64.6634L323.971 75.2674C323.793 76.4384 322.424 77.1974 320.912 76.9714L310.055 75.3094C308.544 75.0753 307.457 73.9404 307.637 72.7674L309.234 62.1654C309.411 60.9954 310.779 60.2363 312.292 60.4623Z" fill="#FBED62"/>
<path id="Vector_115" d="M313.786 69.0644C313.721 68.6064 313.576 68.2694 313.24 68.0774V68.0554C313.711 67.9854 314.24 67.6484 314.337 67.0544C314.404 66.6254 314.288 66.2684 314.018 65.9944C313.688 65.6734 313.174 65.4934 312.412 65.3724C311.789 65.2714 311.233 65.2264 310.842 65.2194L310.107 69.8234L311.261 70.0074L311.554 68.1754L311.906 68.2344C312.381 68.3104 312.577 68.5024 312.623 69.1074C312.675 69.7124 312.742 70.1134 312.806 70.2534L313.994 70.4424C313.921 70.2464 313.863 69.6054 313.786 69.0644ZM312.128 67.4864L311.671 67.4144L311.88 66.1234C311.964 66.1264 312.125 66.1294 312.414 66.1734C312.942 66.2604 313.234 66.5324 313.168 66.9564C313.103 67.3714 312.711 67.5784 312.128 67.4864Z" fill="#010202"/>
<path id="Vector_116" d="M318.233 69.2093L318.654 66.5713L317.236 66.3453L314.926 68.7883L314.817 69.4773L317.017 69.8283L316.844 70.8993L317.938 71.0723L318.107 70.0023L318.71 70.1003L318.836 69.3053L318.233 69.2093ZM317.303 68.0413L317.142 69.0343L316.02 68.8543L316.023 68.8463L316.849 67.9683C317.063 67.7063 317.232 67.4643 317.435 67.2013L317.468 67.2093C317.4 67.4923 317.345 67.7633 317.303 68.0413Z" fill="#010202"/>
<path id="Vector_117" d="M320.904 71.6244C321.989 71.7774 322.891 70.9294 323.08 69.5554C323.269 68.1754 322.635 67.1104 321.547 66.9544C320.448 66.8004 319.555 67.6484 319.364 69.0254C319.174 70.4034 319.801 71.4684 320.904 71.6244ZM321.012 70.8464C320.491 70.7774 320.213 70.0794 320.338 69.1654C320.465 68.2444 320.919 67.6504 321.444 67.7234C321.952 67.7984 322.231 68.4954 322.105 69.4164C321.979 70.3304 321.526 70.9214 321.012 70.8464Z" fill="#010202"/>
</g>
<g id="R39">
<path id="Vector_118" d="M380.77 73.5234L391.486 75.9244C392.979 76.2584 393.985 77.4664 393.73 78.6234L391.421 89.0934C391.168 90.2504 389.749 90.9164 388.256 90.5824L377.542 88.1814C376.045 87.8474 375.044 86.6364 375.299 85.4794L377.603 75.0094C377.859 73.8524 379.275 73.1854 380.77 73.5234Z" fill="#FBED62"/>
<path id="Vector_119" d="M377.959 82.7383L379.096 83.0063L379.523 81.1993L379.87 81.2803C380.332 81.3983 380.515 81.6063 380.515 82.2113C380.53 82.8143 380.563 83.2153 380.613 83.3663L381.788 83.6423C381.731 83.4443 381.718 82.8063 381.681 82.2513C381.652 81.7963 381.529 81.4423 381.208 81.2303L381.212 81.2083C381.682 81.1713 382.237 80.8763 382.375 80.2883C382.476 79.8643 382.385 79.5073 382.136 79.2183C381.839 78.8713 381.336 78.6463 380.586 78.4683C379.976 78.3223 379.415 78.2333 379.034 78.1993L377.959 82.7383ZM380.001 79.1783C380.086 79.1863 380.251 79.2033 380.526 79.2673C381.052 79.3983 381.317 79.6853 381.217 80.1093C381.121 80.5103 380.723 80.6893 380.151 80.5523L379.702 80.4473L380.001 79.1783ZM382.264 83.5053C382.508 83.7363 383.007 84.0123 383.639 84.1603C384.88 84.4553 385.777 84.0623 385.962 83.2793C386.097 82.6963 385.722 82.1833 385.155 81.9493L385.161 81.9353C385.806 81.8853 386.186 81.5863 386.301 81.1153C386.441 80.5103 385.981 79.8743 384.937 79.6263C384.306 79.4753 383.68 79.5033 383.346 79.6043L383.401 80.4103C383.63 80.3463 384.089 80.2903 384.487 80.3853C384.968 80.4993 385.162 80.7533 385.099 81.0213C385.011 81.3953 384.492 81.4093 384.106 81.3293L383.664 81.2233L383.486 81.9683L383.952 82.0763C384.457 82.1973 384.89 82.5093 384.786 82.9433C384.708 83.2783 384.345 83.4683 383.752 83.3283C383.286 83.2163 382.861 82.9263 382.682 82.7843L382.264 83.5053Z" fill="#010202"/>
<path id="Vector_120" d="M390.402 82.5353C390.607 81.6603 389.952 80.8013 388.956 80.5693C387.986 80.3523 387.004 80.8183 386.797 81.6963C386.619 82.4713 387.124 83.2973 387.981 83.5893C388.041 83.6093 388.11 83.6313 388.173 83.6423L386.645 84.7523L387.723 85.0113L389.777 83.4333C390.065 83.1963 390.316 82.9003 390.402 82.5353ZM388.42 82.9253C387.899 82.8113 387.62 82.3683 387.722 81.9123C387.817 81.4613 388.266 81.1823 388.785 81.2933C389.298 81.4073 389.568 81.8593 389.476 82.3093C389.372 82.7643 388.932 83.0483 388.42 82.9253Z" fill="#010202"/>
</g>
</g>
</g>
</svg>
