<svg width="596" height="843" viewBox="0 0 596 843" fill="none" xmlns="http://www.w3.org/2000/svg">
<g id="Knihovna0Mobile" clipPath="url(#clip0_813_3186)">
<path id="Vector" d="M347.645 170.655L354.825 172.775L378.385 201.955L408.205 248.315C408.205 248.315 451.525 335.025 451.525 413.635C451.535 492.245 428.005 584.855 360.395 665.045C350.805 674.525 346.935 677.025 346.935 677.025L355.235 648.515L366.655 611.805L375.915 557.085L382.935 505.835L385.265 479.375L385.895 458.885L386.695 449.115L389.345 447.225L396.945 445.095L400.995 445.555C400.855 430.035 400.725 414.515 400.585 399.005C397.845 398.705 395.095 398.405 392.355 398.115C390.205 396.075 388.045 394.035 385.895 391.995V383.795V366.945L382.405 331.335L377.145 292.865L372.395 266.305L362.975 223.705L352.845 183.525L347.645 170.655Z" fill="#2CAAB9"/>
<path id="Vector_2" d="M240.165 176.575L221.675 246.865L209.815 315.695C209.815 315.695 193.985 427.315 213.005 538.885C216.585 561.355 230.245 640.075 242.925 672.385C242.925 672.385 193.115 622.695 164.455 538.695C135.795 454.685 145.735 391.285 145.735 391.285C145.735 391.285 151.395 336.855 159.395 320.765C167.405 304.675 163.285 308.895 163.285 308.895L168.575 294.535L183.445 261.095L196.375 237.195L213.025 210.945L227.305 192.065L235.795 180.745" fill="#2CAAB9"/>
<path id="Vector_3" d="M398.195 448.335C398.195 448.335 394.395 448.335 392.665 449.045C390.945 449.755 388.595 452.585 388.645 454.975C388.695 457.365 396.645 454.135 396.645 454.135" fill="#2CAAB9"/>
<path id="Vector_4" d="M320.675 164.155V179.275C320.675 183.875 316.875 187.615 312.185 187.615H283.085C278.395 187.615 274.595 183.885 274.595 179.275V163.725" fill="#2CAAB9"/>
<path id="Vector_5" d="M396.245 387.085V370.815H388.245V387.085H396.245Z" fill="#2CAAB9"/>
<path id="Vector_6" d="M239.665 444.385V404.865C239.665 397.725 245.455 391.935 252.595 391.935H337.455C344.595 391.935 350.385 397.725 350.385 404.865V444.385C350.385 451.525 344.595 457.315 337.455 457.315H252.595C245.455 457.315 239.665 451.525 239.665 444.385Z" stroke="#3A3A3A" stroke-width="1.319" stroke-miterlimit="10"/>
<path id="Vector_7" d="M343.565 393.395V455.855" stroke="#3A3A3A" stroke-width="1.319" stroke-miterlimit="10"/>
<path id="Vector_8" d="M336.775 391.935V457.315" stroke="#3A3A3A" stroke-width="1.319" stroke-miterlimit="10"/>
<path id="Vector_9" d="M329.945 391.935V457.315" stroke="#3A3A3A" stroke-width="1.319" stroke-miterlimit="10"/>
<g id="Group">
<path id="Vector_10" d="M371.825 412.045V413.415L363.745 410.585V409.195L371.825 406.375V407.735L366.805 409.425C366.565 409.515 366.255 409.605 365.875 409.705C365.495 409.805 365.215 409.865 365.035 409.895C365.315 409.945 365.635 410.015 366.005 410.115C366.375 410.215 366.645 410.295 366.825 410.355L371.825 412.045Z" fill="#3A3A3A"/>
<path id="Vector_11" d="M365.935 419.145C365.215 419.145 364.655 418.885 364.245 418.365C363.835 417.845 363.635 417.125 363.635 416.215C363.635 415.305 363.775 414.555 364.065 413.975H365.315C365.145 414.345 365.005 414.735 364.905 415.145C364.805 415.555 364.755 415.945 364.755 416.305C364.755 416.825 364.855 417.215 365.055 417.465C365.255 417.715 365.525 417.835 365.855 417.835C366.155 417.835 366.415 417.725 366.625 417.495C366.835 417.265 367.085 416.795 367.375 416.075C367.675 415.335 368.015 414.815 368.395 414.515C368.775 414.215 369.235 414.065 369.775 414.065C370.445 414.065 370.985 414.305 371.365 414.785C371.755 415.265 371.945 415.905 371.945 416.715C371.945 417.485 371.775 418.255 371.435 419.025L370.355 418.605C370.655 417.885 370.805 417.245 370.805 416.685C370.805 416.255 370.715 415.935 370.525 415.715C370.335 415.495 370.095 415.385 369.785 415.385C369.575 415.385 369.395 415.425 369.245 415.515C369.095 415.605 368.955 415.745 368.825 415.955C368.695 416.155 368.515 416.525 368.295 417.045C368.045 417.635 367.815 418.075 367.605 418.345C367.395 418.615 367.145 418.825 366.885 418.955C366.625 419.085 366.305 419.145 365.935 419.145Z" fill="#3A3A3A"/>
<path id="Vector_12" d="M363.745 423.505V422.185H370.695V419.805H371.825V425.885H370.695V423.505H363.745Z" fill="#3A3A3A"/>
<path id="Vector_13" d="M371.825 433.455H366.595C365.995 433.455 365.475 433.325 365.025 433.075C364.575 432.825 364.235 432.445 363.995 431.965C363.755 431.485 363.635 430.905 363.635 430.225C363.635 429.225 363.905 428.445 364.435 427.885C364.965 427.325 365.695 427.055 366.625 427.055H371.835V428.385H366.725C366.055 428.385 365.565 428.545 365.245 428.845C364.925 429.145 364.765 429.635 364.765 430.275C364.765 431.525 365.415 432.145 366.725 432.145H371.825V433.455Z" fill="#3A3A3A"/>
<path id="Vector_14" d="M369.385 440.875C368.545 440.875 367.895 440.595 367.445 440.045C366.995 439.495 366.775 438.705 366.775 437.685V436.845H363.755V435.525H371.835V437.855C371.835 438.865 371.625 439.625 371.215 440.125C370.795 440.615 370.185 440.875 369.385 440.875ZM367.875 436.845V437.545C367.875 438.225 367.995 438.725 368.225 439.035C368.465 439.355 368.825 439.505 369.335 439.505C369.795 439.505 370.145 439.365 370.375 439.085C370.605 438.805 370.715 438.355 370.715 437.755V436.835H367.875V436.845Z" fill="#3A3A3A"/>
</g>
<path id="Vector_15" d="M322.925 391.935V457.315" stroke="#3A3A3A" stroke-width="1.319" stroke-miterlimit="10"/>
<path id="Vector_16" d="M316.095 391.935V457.315" stroke="#3A3A3A" stroke-width="1.319" stroke-miterlimit="10"/>
<path id="Vector_17" d="M308.965 391.935V457.315" stroke="#3A3A3A" stroke-width="1.319" stroke-miterlimit="10"/>
<path id="Vector_18" d="M302.135 391.935V457.315" stroke="#3A3A3A" stroke-width="1.319" stroke-miterlimit="10"/>
<path id="Vector_19" d="M295.115 391.935V457.315" stroke="#3A3A3A" stroke-width="1.319" stroke-miterlimit="10"/>
<path id="Vector_20" d="M288.285 391.935V457.315" stroke="#3A3A3A" stroke-width="1.319" stroke-miterlimit="10"/>
<path id="Vector_21" d="M281.395 391.935V457.315" stroke="#3A3A3A" stroke-width="1.319" stroke-miterlimit="10"/>
<path id="Vector_22" d="M274.575 391.935V457.315" stroke="#3A3A3A" stroke-width="1.319" stroke-miterlimit="10"/>
<path id="Vector_23" d="M267.555 391.935V457.315" stroke="#3A3A3A" stroke-width="1.319" stroke-miterlimit="10"/>
<path id="Vector_24" d="M260.725 391.935V457.315" stroke="#3A3A3A" stroke-width="1.319" stroke-miterlimit="10"/>
<path id="Vector_25" d="M253.795 391.935V457.315" stroke="#3A3A3A" stroke-width="1.319" stroke-miterlimit="10"/>
<path id="Vector_26" d="M246.775 392.925V455.925" stroke="#3A3A3A" stroke-width="1.319" stroke-miterlimit="10"/>
<path id="Vector_27" d="M241.785 174.525C238.595 182.005 236.035 189.785 233.555 197.515C226.795 218.625 221.465 240.195 217.125 261.915C210.465 295.245 206.215 329.055 204.095 362.975C201.345 406.805 202.185 450.845 206.335 494.555C211.385 547.755 221.315 600.455 235.625 651.935C237.555 658.885 239.575 665.815 241.655 672.725C242.145 674.365 244.715 673.665 244.225 672.015C228.435 619.705 217.045 566.055 210.805 511.765C205.695 467.255 203.985 422.345 205.975 377.595C207.535 342.575 211.335 307.635 217.675 273.155C221.965 249.825 227.375 226.675 234.315 203.995C237.205 194.535 240.295 185.085 244.055 175.935C244.165 175.675 244.265 175.445 244.085 175.865C244.745 174.315 242.455 172.955 241.785 174.525Z" fill="#424242"/>
<path id="Vector_28" d="M337.255 169.855V132.685L257.155 132.685V169.855H337.255Z" fill="white"/>
<path id="Vector_29" d="M334.315 711.145V672.385H254.965V711.145H334.315Z" fill="white"/>
<path id="Vector_30" d="M254.815 677.045L255.845 677.425L254.685 677.825L253.755 677.425" fill="#424242"/>
<path id="Vector_31" d="M337.515 678.425C332.305 679.695 326.935 680.455 321.615 681.095C308.735 682.635 295.675 682.995 282.735 682.015C273.545 681.315 264.425 679.895 255.485 677.655C253.825 677.235 253.115 679.805 254.775 680.225C280.025 686.535 307.005 686.715 332.585 682.135C334.465 681.795 336.355 681.445 338.215 680.995C339.885 680.585 339.185 678.015 337.515 678.425Z" fill="#424242"/>
<path id="Vector_32" d="M255.485 680.725C255.485 680.725 252.525 680.065 246.645 677.055C240.765 674.045 253.235 682.395 253.235 682.395" fill="white"/>
<path id="Vector_33" d="M247.955 204.005L248.695 200.285L253.985 200.185C254.205 200.175 254.645 200.175 255.305 200.185C255.965 200.195 256.505 200.215 256.945 200.255C256.605 200.145 256.195 199.985 255.695 199.795C255.205 199.595 254.755 199.405 254.335 199.225C253.925 199.045 252.255 198.315 249.345 197.025L250.085 193.305L262.295 192.745L261.685 195.775L255.595 195.875C254.245 195.905 253.185 195.895 252.395 195.845C252.925 196.025 253.635 196.295 254.525 196.655C255.415 197.015 256.155 197.335 256.735 197.615L260.935 199.525L260.355 202.435L255.755 202.555C255.015 202.585 254.165 202.595 253.205 202.585C252.245 202.575 251.535 202.555 251.065 202.525C251.645 202.715 252.625 203.105 254.015 203.705L259.605 206.165L258.995 209.195L247.955 204.005Z" fill="#3A3A3A"/>
<path id="Vector_34" d="M255.275 215.395C255.425 214.645 255.235 214.005 254.705 213.465C254.175 212.925 253.375 212.545 252.295 212.335C250.055 211.885 248.765 212.515 248.425 214.225C248.325 214.735 248.295 215.255 248.345 215.765C248.395 216.275 248.465 216.795 248.575 217.325L245.915 216.795C245.675 215.735 245.685 214.595 245.925 213.375C246.275 211.615 247.055 210.375 248.265 209.645C249.475 208.915 251.035 208.735 252.965 209.125C254.165 209.365 255.185 209.805 256.005 210.435C256.825 211.075 257.395 211.865 257.715 212.815C258.035 213.765 258.085 214.815 257.855 215.965C257.605 217.225 257.085 218.375 256.315 219.405L254.035 217.945C254.325 217.555 254.575 217.155 254.805 216.755C255.015 216.335 255.175 215.895 255.275 215.395Z" fill="#3A3A3A"/>
<path id="Vector_35" d="M247.325 643.655L246.445 639.965L251.215 637.665C251.415 637.565 251.815 637.385 252.415 637.115C253.015 636.855 253.515 636.645 253.925 636.495C253.575 636.535 253.125 636.565 252.605 636.595C252.075 636.625 251.585 636.635 251.135 636.645C250.685 636.655 248.865 636.685 245.685 636.725L244.805 633.035L255.675 627.435L256.395 630.445L250.905 633.075C249.695 633.665 248.725 634.095 247.985 634.385C248.535 634.325 249.295 634.275 250.255 634.235C251.215 634.195 252.025 634.175 252.665 634.185L257.275 634.165L257.965 637.055L253.835 639.075C253.175 639.415 252.405 639.775 251.535 640.165C250.665 640.555 250.005 640.835 249.565 641.005C250.165 640.935 251.225 640.885 252.735 640.845L258.845 640.745L259.565 643.755L247.325 643.655Z" fill="#3A3A3A"/>
<path id="Vector_36" d="M258.725 650.955C258.545 650.215 258.105 649.705 257.405 649.435C256.695 649.165 255.805 649.155 254.745 649.405C252.525 649.935 251.615 651.045 252.015 652.735C252.135 653.245 252.325 653.725 252.585 654.165C252.845 654.605 253.125 655.055 253.445 655.485L250.805 656.115C250.145 655.255 249.675 654.215 249.385 652.995C248.965 651.255 249.155 649.795 249.945 648.625C250.735 647.455 252.085 646.645 253.995 646.195C255.195 645.915 256.295 645.885 257.305 646.125C258.315 646.355 259.165 646.845 259.855 647.575C260.545 648.305 261.025 649.235 261.295 650.385C261.595 651.635 261.605 652.895 261.335 654.155L258.655 653.785C258.755 653.315 258.825 652.845 258.855 652.385C258.875 651.915 258.835 651.445 258.725 650.955Z" fill="#3A3A3A"/>
<path id="Vector_37" d="M400.345 399.525C400.345 399.525 410.615 401.265 410.615 421.725C410.615 442.175 401.075 445.755 401.075 445.755L398.195 437.405V414.685L400.345 399.525Z" fill="white"/>
<path id="Vector_38" d="M346.085 171.355C347.685 175.775 349.115 180.265 350.535 184.755C354.375 196.935 357.835 209.235 361.015 221.595C365.685 239.785 369.745 258.135 373.165 276.595C377.395 299.385 380.665 322.365 382.815 345.445C383.985 357.965 384.825 370.515 385.295 383.075C385.485 388.025 384.515 394.135 388.765 397.705C391.535 400.035 394.795 399.855 398.165 399.855H401.375C403.085 399.855 403.085 397.195 401.375 397.195C399.135 397.195 396.895 397.265 394.655 397.195C392.405 397.125 390.355 396.075 389.155 394.135C387.695 391.785 388.155 388.555 388.065 385.915C387.645 373.415 386.865 360.925 385.755 348.465C383.725 325.705 380.615 303.035 376.575 280.535C373.235 261.955 369.265 243.485 364.665 225.165C361.445 212.325 357.915 199.565 354.005 186.925C352.355 181.585 350.855 176.045 348.735 170.855C348.705 170.785 348.685 170.715 348.665 170.645C348.075 169.045 345.505 169.735 346.085 171.355Z" fill="#424242"/>
<path id="Vector_39" d="M320.285 171.445V165.265C320.285 165.265 294.785 162.405 274.985 165.635C274.755 165.835 274.985 171.445 274.985 171.445H320.285Z" fill="#2CAAB9"/>
<g id="Group_2">
<path id="Vector_40" d="M421.555 388.635V386.335L427.045 382.525L426.095 381.355H421.555V379.375H433.685V381.355H427.895C428.555 381.895 429.195 382.435 429.815 382.975L433.685 386.255V388.505C431.195 386.385 429.425 384.875 428.365 383.955L421.555 388.635Z" fill="white"/>
<path id="Vector_41" d="M421.555 400.335V397.905L431.215 391.945V391.875L430.675 391.915C429.645 391.995 428.705 392.035 427.855 392.035H421.555V390.235H433.685V392.635L424.075 398.585V398.635C424.205 398.625 424.665 398.605 425.465 398.565C426.265 398.525 426.885 398.515 427.335 398.515H433.685V400.335H421.555Z" fill="white"/>
<path id="Vector_42" d="M421.555 403.535H433.685V405.515H421.565V403.535H421.555Z" fill="white"/>
<path id="Vector_43" d="M421.555 418.275V416.285H427.015V410.695H421.555V408.715H433.685V410.695H428.725V416.285H433.685V418.275H421.555Z" fill="white"/>
<path id="Vector_44" d="M427.635 432.235C425.665 432.235 424.125 431.745 423.035 430.755C421.945 429.765 421.395 428.375 421.395 426.565C421.395 424.735 421.935 423.325 423.025 422.345C424.115 421.365 425.655 420.875 427.655 420.875C429.655 420.875 431.195 421.365 432.265 422.355C433.335 423.345 433.875 424.755 433.875 426.575C433.875 428.375 433.335 429.775 432.245 430.755C431.145 431.735 429.615 432.235 427.635 432.235ZM427.635 422.975C426.145 422.975 425.015 423.275 424.235 423.875C423.465 424.475 423.075 425.375 423.075 426.555C423.075 427.735 423.455 428.625 424.215 429.225C424.975 429.825 426.115 430.125 427.625 430.125C429.115 430.125 430.235 429.825 431.005 429.235C431.775 428.645 432.155 427.755 432.155 426.575C432.155 425.385 431.775 424.495 431.005 423.885C430.255 423.285 429.125 422.975 427.635 422.975Z" fill="white"/>
<path id="Vector_45" d="M433.685 441.745V443.805L421.565 439.555V437.465L433.685 433.235V435.275L426.145 437.805C425.785 437.935 425.325 438.075 424.755 438.225C424.185 438.375 423.765 438.475 423.495 438.515C423.915 438.585 424.405 438.695 424.955 438.845C425.505 438.995 425.915 439.115 426.185 439.215L433.685 441.745Z" fill="white"/>
<path id="Vector_46" d="M421.555 455.495V453.065L431.215 447.105V447.035L430.675 447.075C429.645 447.155 428.705 447.195 427.855 447.195H421.555V445.395H433.685V447.795L424.075 453.745V453.795C424.205 453.785 424.665 453.765 425.465 453.725C426.265 453.685 426.885 453.675 427.335 453.675H433.685V455.495H421.555Z" fill="white"/>
<path id="Vector_47" d="M421.555 466.225L424.925 465.015V460.385L421.555 459.195V457.105L433.725 461.645V463.805L421.555 468.345V466.225ZM426.635 464.485L429.935 463.345C430.155 463.265 430.505 463.145 430.975 463.005C431.455 462.855 431.795 462.755 432.015 462.705C431.335 462.555 430.595 462.335 429.785 462.045L426.625 460.955V464.485H426.635Z" fill="white"/>
</g>
<g id="Group_3">
<path id="Vector_48" d="M173.255 383.305H168.415V381.325H180.535V384.745C180.535 386.305 180.245 387.465 179.655 388.215C179.065 388.965 178.185 389.345 177.005 389.345C175.495 389.345 174.425 388.555 173.775 386.995L168.415 390.415V388.165L173.255 385.265V383.305ZM174.895 383.305V384.685C174.895 385.605 175.065 386.275 175.405 386.695C175.745 387.115 176.255 387.315 176.935 387.315C177.625 387.315 178.115 387.095 178.415 386.645C178.715 386.195 178.865 385.525 178.865 384.625V383.315H174.895V383.305Z" fill="white"/>
<path id="Vector_49" d="M168.415 399.035V392.175H180.535V399.035H178.855V394.155H175.555V398.725H173.895V394.155H170.085V399.035H168.415Z" fill="white"/>
<path id="Vector_50" d="M168.415 410.915V408.615L173.905 404.805L172.955 403.635H168.415V401.655H180.535V403.635H174.745C175.405 404.175 176.045 404.715 176.665 405.255L180.535 408.535V410.785C178.045 408.665 176.275 407.155 175.215 406.235L168.415 410.915Z" fill="white"/>
<path id="Vector_51" d="M168.415 416.705V414.725H178.835V411.155H180.535V420.265H178.835V416.695H168.415V416.705Z" fill="white"/>
<path id="Vector_52" d="M174.495 432.885C172.525 432.885 170.985 432.395 169.895 431.405C168.805 430.415 168.255 429.025 168.255 427.215C168.255 425.385 168.795 423.975 169.885 422.995C170.975 422.015 172.515 421.525 174.515 421.525C176.515 421.525 178.055 422.015 179.125 423.005C180.195 423.995 180.735 425.405 180.735 427.225C180.735 429.025 180.195 430.425 179.105 431.405C178.005 432.395 176.465 432.885 174.495 432.885ZM174.495 423.635C173.005 423.635 171.875 423.935 171.095 424.535C170.325 425.135 169.935 426.035 169.935 427.215C169.935 428.395 170.315 429.285 171.075 429.885C171.835 430.485 172.975 430.785 174.485 430.785C175.975 430.785 177.095 430.485 177.865 429.895C178.635 429.305 179.015 428.415 179.015 427.235C179.015 426.045 178.635 425.155 177.865 424.545C177.105 423.935 175.975 423.635 174.495 423.635Z" fill="white"/>
<path id="Vector_53" d="M173.255 437.475H168.415V435.495H180.535V438.915C180.535 440.475 180.245 441.635 179.655 442.385C179.065 443.135 178.185 443.515 177.005 443.515C175.495 443.515 174.425 442.725 173.775 441.165L168.415 444.585V442.335L173.255 439.435V437.475ZM174.895 437.475V438.855C174.895 439.775 175.065 440.445 175.405 440.865C175.745 441.285 176.255 441.485 176.935 441.485C177.625 441.485 178.115 441.265 178.415 440.815C178.715 440.365 178.865 439.695 178.865 438.795V437.485H174.895V437.475Z" fill="white"/>
<path id="Vector_54" d="M168.415 453.865L171.785 452.655V448.025L168.415 446.835V444.745L180.585 449.285V451.445L168.415 455.985V453.865ZM173.485 452.135L176.785 450.995C177.005 450.915 177.355 450.795 177.825 450.655C178.305 450.505 178.645 450.405 178.865 450.355C178.185 450.205 177.445 449.985 176.635 449.695L173.475 448.605V452.135H173.485ZM181.505 449.155H181.715C182.105 449.475 182.535 449.795 183.005 450.125C183.485 450.455 183.885 450.725 184.225 450.915V453.175H184.055C183.715 452.885 183.285 452.455 182.745 451.885C182.215 451.315 181.795 450.835 181.505 450.435V449.155Z" fill="white"/>
<path id="Vector_55" d="M168.415 461.755V459.775H178.835V456.205H180.535V465.315H178.835V461.745H168.415V461.755Z" fill="white"/>
</g>
<path id="Vector_56" d="M173.255 385.265L168.415 388.165V390.425L173.785 386.995C174.425 388.565 175.505 389.345 177.015 389.345C178.195 389.345 179.085 388.965 179.665 388.215C180.255 387.465 180.545 386.305 180.545 384.745V381.325H168.425V383.305H173.265V385.265H173.255ZM178.865 383.305V384.615C178.865 385.515 178.715 386.195 178.415 386.635C178.115 387.085 177.625 387.305 176.935 387.305C176.265 387.305 175.755 387.095 175.405 386.685C175.065 386.265 174.895 385.605 174.895 384.675V383.295H178.865V383.305Z" stroke="white" stroke-width="0.278" stroke-miterlimit="10"/>
<path id="Vector_57" d="M170.095 399.035V394.165H173.905V398.735H175.555V394.165H178.855V399.035H180.535V392.185H168.415V399.035H170.095Z" stroke="white" stroke-width="0.278" stroke-miterlimit="10"/>
<path id="Vector_58" d="M175.215 406.235C176.265 407.155 178.045 408.675 180.535 410.785V408.535L176.665 405.255C176.055 404.715 175.415 404.175 174.755 403.635H180.545V401.655H168.425V403.635H172.965L173.915 404.805L168.425 408.615V410.915L175.215 406.235Z" stroke="white" stroke-width="0.278" stroke-miterlimit="10"/>
<path id="Vector_59" d="M178.835 416.695V420.265H180.535V411.155H178.835V414.715H168.415V416.695H178.835Z" stroke="white" stroke-width="0.278" stroke-miterlimit="10"/>
<path id="Vector_60" d="M177.875 424.535C178.645 425.145 179.025 426.035 179.025 427.225C179.025 428.405 178.645 429.285 177.875 429.885C177.105 430.485 175.975 430.775 174.495 430.775C172.985 430.775 171.855 430.475 171.085 429.875C170.325 429.275 169.945 428.385 169.945 427.205C169.945 426.025 170.335 425.125 171.105 424.525C171.875 423.925 173.005 423.625 174.505 423.625C175.975 423.635 177.105 423.935 177.875 424.535ZM179.095 431.405C180.185 430.425 180.725 429.025 180.725 427.225C180.725 425.395 180.185 423.985 179.115 423.005C178.045 422.015 176.505 421.525 174.505 421.525C172.505 421.525 170.965 422.015 169.875 422.995C168.785 423.975 168.245 425.385 168.245 427.215C168.245 429.025 168.795 430.415 169.885 431.405C170.975 432.395 172.515 432.885 174.485 432.885C176.465 432.885 178.005 432.395 179.095 431.405Z" stroke="white" stroke-width="0.278" stroke-miterlimit="10"/>
<path id="Vector_61" d="M173.255 439.425L168.415 442.325V444.585L173.785 441.155C174.425 442.725 175.505 443.505 177.015 443.505C178.195 443.505 179.085 443.125 179.665 442.375C180.255 441.625 180.545 440.465 180.545 438.905V435.485H168.425V437.465H173.265V439.425H173.255ZM178.865 437.475V438.785C178.865 439.685 178.715 440.365 178.415 440.805C178.115 441.255 177.625 441.475 176.935 441.475C176.265 441.475 175.755 441.265 175.405 440.855C175.065 440.435 174.895 439.775 174.895 438.845V437.465H178.865V437.475Z" stroke="white" stroke-width="0.278" stroke-miterlimit="10"/>
<path id="Vector_62" d="M181.505 450.445C181.795 450.835 182.215 451.315 182.745 451.895C183.275 452.465 183.715 452.895 184.055 453.185H184.225V450.925C183.885 450.735 183.485 450.465 183.005 450.135C182.535 449.795 182.095 449.475 181.715 449.155H181.505V450.445ZM173.485 448.595L176.645 449.685C177.455 449.975 178.195 450.195 178.875 450.335C178.655 450.385 178.305 450.495 177.835 450.635C177.355 450.785 177.015 450.895 176.785 450.975L173.485 452.115V448.595ZM168.415 455.965L180.585 451.435V449.275L168.415 444.735V446.825L171.785 448.015V452.655L168.415 453.865V455.965Z" stroke="white" stroke-width="0.278" stroke-miterlimit="10"/>
<path id="Vector_63" d="M178.835 461.755V465.325H180.535V456.205H178.835V459.775H168.415V461.755H178.835Z" stroke="white" stroke-width="0.278" stroke-miterlimit="10"/>
<path id="Vector_64" d="M284.025 172.015H285.225L282.745 179.095H281.525L279.055 172.015H280.245L281.725 176.415C281.805 176.625 281.885 176.895 281.975 177.225C282.065 177.555 282.115 177.805 282.145 177.965C282.185 177.725 282.255 177.435 282.335 177.115C282.425 176.795 282.495 176.555 282.545 176.395L284.025 172.015Z" fill="white"/>
<path id="Vector_65" d="M284.025 172.015H285.225L282.745 179.095H281.525L279.055 172.015H280.245L281.725 176.415C281.805 176.625 281.885 176.895 281.975 177.225C282.065 177.555 282.115 177.805 282.145 177.965C282.185 177.725 282.255 177.435 282.335 177.115C282.425 176.795 282.495 176.555 282.545 176.395L284.025 172.015Z" stroke="white" stroke-width="0.276" stroke-miterlimit="10"/>
<path id="Vector_66" d="M288.165 175.245L289.845 172.015H291.105L288.745 176.345V179.095H287.585V176.385L285.235 172.015H286.495L288.165 175.245ZM287.405 171.445V171.325C287.585 171.095 287.775 170.845 287.975 170.565C288.175 170.285 288.325 170.045 288.435 169.855H289.755V169.955C289.585 170.155 289.335 170.405 289.005 170.715C288.675 171.025 288.395 171.265 288.165 171.435H287.405V171.445Z" fill="white"/>
<path id="Vector_67" d="M288.165 175.245L289.845 172.015H291.105L288.745 176.345V179.095H287.585V176.385L285.235 172.015H286.495L288.165 175.245ZM287.405 171.445V171.325C287.585 171.095 287.775 170.845 287.975 170.565C288.175 170.285 288.325 170.045 288.435 169.855H289.755V169.955C289.585 170.155 289.335 170.405 289.005 170.715C288.675 171.025 288.395 171.265 288.165 171.435H287.405V171.445Z" stroke="white" stroke-width="0.276" stroke-miterlimit="10"/>
<path id="Vector_68" d="M295.125 179.085H293.965V172.995H291.875V172.005H297.205V172.995H295.125V179.085Z" fill="white"/>
<path id="Vector_69" d="M295.125 179.085H293.965V172.995H291.875V172.005H297.205V172.995H295.125V179.085Z" stroke="white" stroke-width="0.276" stroke-miterlimit="10"/>
<path id="Vector_70" d="M302.035 179.095L301.325 177.125H298.615L297.925 179.095H296.705L299.355 171.985H300.615L303.265 179.095H302.035ZM301.025 176.135L300.365 174.205C300.315 174.075 300.245 173.875 300.165 173.595C300.075 173.315 300.015 173.115 299.985 172.985C299.895 173.385 299.765 173.815 299.605 174.285L298.965 176.135H301.025Z" fill="white"/>
<path id="Vector_71" d="M302.035 179.095L301.325 177.125H298.615L297.925 179.095H296.705L299.355 171.985H300.615L303.265 179.095H302.035ZM301.025 176.135L300.365 174.205C300.315 174.075 300.245 173.875 300.165 173.595C300.075 173.315 300.015 173.115 299.985 172.985C299.895 173.385 299.765 173.815 299.605 174.285L298.965 176.135H301.025V176.135Z" stroke="white" stroke-width="0.276" stroke-miterlimit="10"/>
<path id="Vector_72" d="M309.785 179.095H308.625V175.905H305.365V179.095H304.205V172.015H305.365V174.915H308.625V172.015H309.785V179.095Z" fill="white"/>
<path id="Vector_73" d="M309.785 179.095H308.625V175.905H305.365V179.095H304.205V172.015H305.365V174.915H308.625V172.015H309.785V179.095Z" stroke="white" stroke-width="0.276" stroke-miterlimit="10"/>
<path id="Vector_74" d="M313.655 175.245L315.325 172.015H316.585L314.235 176.345V179.095H313.065V176.385L310.715 172.015H311.975L313.655 175.245Z" fill="white"/>
<path id="Vector_75" d="M313.655 175.245L315.325 172.015H316.585L314.235 176.345V179.095H313.065V176.385L310.715 172.015H311.975L313.655 175.245Z" stroke="white" stroke-width="0.276" stroke-miterlimit="10"/>
<path id="Vector_76" d="M381.615 434.165L396.065 423.485C397.065 422.745 397.045 421.235 396.005 420.525L381.555 410.705C380.355 409.885 378.725 410.745 378.725 412.205V432.705C378.725 434.195 380.415 435.045 381.615 434.165Z" fill="#E94C41"/>
<path id="Vector_77" d="M264.635 187.455L260.105 177.815C259.785 177.145 258.905 176.985 258.375 177.505L250.985 184.765C250.365 185.365 250.685 186.415 251.525 186.585L263.445 188.965C264.315 189.135 265.005 188.255 264.635 187.455Z" fill="#E94C41"/>
<path id="Vector_78" d="M264.415 658.895L260.235 668.695C259.945 669.375 259.065 669.565 258.525 669.065L250.875 662.075C250.235 661.495 250.515 660.435 251.355 660.235L263.185 657.425C264.045 657.225 264.765 658.085 264.415 658.895Z" fill="#E94C41"/>
<g id="R29">
<path id="Vector_79" d="M341.405 271.615L343.385 284.615C343.665 286.425 342.635 288.095 341.085 288.325L327.095 290.475C325.545 290.715 324.075 289.435 323.795 287.625L321.805 274.625C321.525 272.815 322.555 271.145 324.105 270.915L338.095 268.765C339.655 268.525 341.135 269.805 341.405 271.615Z" fill="#A8D9E2"/>
<g id="Group_4">
<path id="Vector_80" d="M329.865 277.675L329.675 276.335L332.005 274.675L331.925 274.085L329.405 274.445L329.235 273.245L335.175 272.395L335.525 274.845C335.665 275.825 334.995 276.715 334.005 276.855C333.225 276.965 332.545 276.535 332.265 275.845L329.865 277.675ZM333.855 275.785C334.265 275.725 334.535 275.365 334.475 274.965L334.305 273.755L332.845 273.965L333.015 275.175C333.085 275.585 333.445 275.845 333.855 275.785Z" fill="#121212"/>
<path id="Vector_81" d="M330.765 277.864C333.765 279.954 334.045 280.094 334.525 280.024C335.095 279.944 335.235 279.514 335.195 279.154C335.135 278.714 334.765 278.404 334.255 278.534L334.105 277.424C335.185 277.184 336.065 278.004 336.225 279.064C336.375 280.084 335.795 280.964 334.805 281.114C333.885 281.254 333.365 280.914 331.155 279.334L331.495 281.714L330.485 281.854L329.935 277.974L330.765 277.864Z" fill="#121212"/>
<path id="Vector_82" d="M333.745 286.034L330.845 284.474L330.655 283.164L332.735 284.354C332.715 284.274 332.715 284.184 332.705 284.114C332.665 283.034 333.445 282.094 334.475 281.944C335.655 281.764 336.695 282.644 336.875 283.824C337.055 285.034 336.305 286.154 335.135 286.324C334.645 286.384 334.165 286.244 333.745 286.034ZM334.985 285.184C335.575 285.084 336.005 284.574 335.905 283.954C335.805 283.334 335.245 282.954 334.645 283.054C334.035 283.144 333.625 283.664 333.725 284.294C333.815 284.924 334.375 285.284 334.985 285.184Z" fill="#121212"/>
</g>
</g>
<g id="R30">
<path id="Vector_83" d="M346.245 302.185L347.915 315.235C348.145 317.055 347.075 318.695 345.525 318.895L331.495 320.705C329.945 320.905 328.495 319.595 328.265 317.775L326.595 304.725C326.365 302.905 327.435 301.265 328.985 301.065L343.015 299.255C344.575 299.055 346.015 300.365 346.245 302.185Z" fill="#A8D9E2"/>
<g id="Group_5">
<path id="Vector_84" d="M334.195 307.435L334.025 306.095L336.385 304.475L336.315 303.885L333.795 304.195L333.645 302.995L339.595 302.255L339.905 304.715C340.025 305.695 339.335 306.575 338.345 306.695C337.555 306.795 336.895 306.355 336.615 305.655L334.195 307.435ZM338.215 305.615C338.625 305.565 338.905 305.205 338.855 304.805L338.705 303.595L337.245 303.775L337.395 304.985C337.445 305.395 337.805 305.665 338.215 305.615Z" fill="#121212"/>
<path id="Vector_85" d="M336.585 311.435C335.495 311.565 334.535 310.815 334.395 309.715C334.255 308.625 334.915 307.665 335.885 307.545L336.045 308.675C335.675 308.725 335.425 309.125 335.485 309.585C335.545 310.065 335.955 310.365 336.455 310.305C336.945 310.245 337.265 309.845 337.205 309.375L337.145 308.905L338.055 308.785L338.105 309.185V309.195C338.155 309.585 338.495 309.835 338.895 309.785C339.255 309.745 339.475 309.425 339.425 309.035C339.385 308.695 339.115 308.455 338.825 308.485L338.715 307.375C339.585 307.265 340.375 307.935 340.495 308.905C340.615 309.865 340.015 310.705 339.145 310.815C338.685 310.875 338.275 310.685 337.975 310.335C337.745 310.905 337.255 311.345 336.585 311.435Z" fill="#121212"/>
<path id="Vector_86" d="M337.805 312.155C339.605 311.935 340.975 312.675 341.135 313.985C341.295 315.275 340.155 316.345 338.355 316.575C336.555 316.795 335.185 316.045 335.025 314.745C334.865 313.435 336.005 312.375 337.805 312.155ZM338.205 315.415C339.415 315.265 340.195 314.725 340.125 314.115C340.045 313.495 339.155 313.165 337.945 313.315C336.745 313.465 335.965 314.005 336.035 314.625C336.115 315.225 337.015 315.565 338.205 315.415Z" fill="#121212"/>
</g>
</g>
<g id="R31">
<path id="Vector_87" d="M349.565 333.925L350.045 347.075C350.115 348.905 348.895 350.445 347.335 350.495L333.195 351.015C331.635 351.075 330.315 349.635 330.245 347.805L329.765 334.655C329.695 332.825 330.915 331.285 332.475 331.235L346.615 330.715C348.175 330.655 349.495 332.085 349.565 333.925Z" fill="#A8D9E2"/>
<g id="Group_6">
<path id="Vector_88" d="M337.025 339.455L336.945 338.105L339.405 336.645L339.375 336.055L336.835 336.205L336.765 334.995L342.755 334.645L342.905 337.115C342.965 338.105 342.215 338.935 341.225 338.995C340.435 339.045 339.795 338.555 339.575 337.845L337.025 339.455ZM341.145 337.905C341.565 337.885 341.865 337.545 341.835 337.135L341.765 335.915L340.295 336.005L340.365 337.225C340.395 337.635 340.735 337.925 341.145 337.905Z" fill="#121212"/>
<path id="Vector_89" d="M339.145 343.594C338.055 343.654 337.135 342.844 337.075 341.734C337.015 340.634 337.735 339.714 338.695 339.654L338.775 340.794C338.395 340.814 338.125 341.204 338.155 341.664C338.185 342.144 338.575 342.474 339.085 342.444C339.585 342.414 339.925 342.044 339.895 341.564L339.865 341.094L340.785 341.034L340.805 341.434V341.444C340.825 341.834 341.145 342.104 341.555 342.084C341.915 342.064 342.155 341.754 342.135 341.364C342.115 341.024 341.865 340.764 341.575 340.784L341.535 339.664C342.415 339.614 343.155 340.334 343.205 341.304C343.265 342.274 342.615 343.064 341.735 343.124C341.275 343.154 340.875 342.934 340.605 342.564C340.335 343.144 339.815 343.554 339.145 343.594Z" fill="#121212"/>
<path id="Vector_90" d="M342.055 345.314L341.025 344.124L342.305 344.044L343.385 345.304L343.445 346.394L337.455 346.744L337.385 345.574L342.055 345.314Z" fill="#121212"/>
</g>
</g>
<g id="R32">
<path id="Vector_91" d="M353.455 225.635L353.485 238.785C353.485 240.615 352.225 242.115 350.665 242.115L336.515 242.165C334.955 242.175 333.685 240.685 333.675 238.855L333.645 225.705C333.645 223.875 334.905 222.375 336.465 222.375L350.615 222.325C352.185 222.315 353.455 223.805 353.455 225.635Z" fill="#A8D9E2"/>
<g id="Group_7">
<path id="Vector_92" d="M340.615 230.285V228.935L343.155 227.625V227.035H340.615V225.825H346.615V228.305C346.615 229.295 345.825 230.085 344.825 230.085C344.035 230.085 343.425 229.565 343.245 228.835L340.615 230.285ZM344.835 228.975C345.255 228.975 345.575 228.655 345.575 228.245V227.025H344.105V228.245C344.095 228.665 344.415 228.975 344.835 228.975Z" fill="#121212"/>
<path id="Vector_93" d="M342.495 233.955C341.395 233.955 340.535 233.095 340.535 231.985C340.535 230.885 341.315 230.005 342.275 230.005L342.295 231.145C341.915 231.145 341.625 231.515 341.625 231.975C341.625 232.455 342.005 232.805 342.505 232.805C343.005 232.805 343.365 232.455 343.365 231.975V231.505L344.285 231.495V231.895V231.905C344.285 232.295 344.585 232.585 344.995 232.585C345.355 232.585 345.615 232.295 345.615 231.905C345.615 231.565 345.385 231.285 345.085 231.285L345.105 230.165C345.985 230.165 346.685 230.925 346.685 231.905C346.685 232.875 345.985 233.635 345.105 233.635C344.645 233.635 344.255 233.395 344.005 233.015C343.715 233.575 343.165 233.955 342.495 233.955Z" fill="#121212"/>
<path id="Vector_94" d="M341.475 234.155C344.145 236.655 344.405 236.825 344.895 236.825C345.475 236.825 345.675 236.425 345.675 236.055C345.675 235.605 345.355 235.255 344.825 235.305L344.835 234.185C345.935 234.095 346.695 235.035 346.695 236.115C346.695 237.145 345.995 237.935 345.005 237.945C344.065 237.955 343.605 237.545 341.635 235.665V238.075H340.615V234.155H341.475Z" fill="#121212"/>
</g>
</g>
<path id="Vector_95" d="M319.345 165.075C319.345 169.845 319.435 174.635 319.345 179.405C319.275 183.395 316.085 186.195 312.165 186.285C310.695 186.315 309.225 186.285 307.765 186.285H288.935C287.075 186.285 285.215 186.295 283.355 186.285C279.725 186.255 276.215 183.905 275.935 180.045C275.565 174.975 275.925 169.755 275.925 164.665C275.925 162.955 273.265 162.955 273.265 164.665C273.265 169.625 273.155 174.605 273.265 179.565C273.365 184.005 276.545 187.805 280.915 188.715C282.715 189.085 284.635 188.945 286.465 188.945H306.345C308.255 188.945 310.165 188.975 312.065 188.945C316.075 188.875 319.865 186.705 321.375 182.885C322.465 180.145 322.005 176.705 322.005 173.815V165.075C322.005 163.355 319.345 163.355 319.345 165.075Z" fill="#424242"/>
<path id="Vector_96" d="M388.105 390.315C388.105 390.365 387.855 393.075 389.955 395.295C392.055 397.515 396.435 397.395 396.435 397.395" fill="#2CAAB9"/>
<path id="Vector_97" d="M345.865 673.515L344.625 676.925L346.535 675.845L346.905 674.215L345.865 673.515Z" fill="#424242"/>
<path id="Vector_98" d="M334.145 681.915C334.145 681.915 338.805 681.745 346.285 678.255C353.765 674.765 337.875 688.445 337.875 688.445L332.855 686.115" fill="white"/>
<path id="Vector_99" d="M256.535 677.825C256.535 677.825 254.095 677.545 252.825 676.745C251.545 675.945 255.625 675.725 255.625 675.725" fill="white"/>
<path id="Vector_100" d="M255.845 680.425C255.845 680.425 253.435 680.065 250.905 678.785C248.385 677.505 255.335 684.245 255.335 684.245L256.095 684.025" fill="white"/>
<path id="Vector_101" d="M368.265 295.305C372.565 317.675 375.405 340.485 376.825 363.215C377.415 372.775 377.695 382.365 377.395 391.945C377.345 393.655 380.005 393.655 380.055 391.945C380.595 374.765 379.365 357.535 377.515 340.465C376.115 327.585 374.325 314.745 372.145 301.975C371.725 299.515 371.305 297.055 370.825 294.595C370.505 292.915 367.945 293.625 368.265 295.305Z" fill="#424242"/>
<g id="Group_8">
<path id="Vector_102" d="M358.285 318.125C358.245 317.755 358.265 317.445 358.335 317.185L359.465 317.065C359.415 317.385 359.405 317.665 359.435 317.895C359.515 318.635 360.015 318.955 360.945 318.855L368.935 318.035L369.075 319.385L361.135 320.205C360.295 320.295 359.625 320.155 359.145 319.805C358.645 319.455 358.365 318.895 358.285 318.125Z" fill="#3A3A3A"/>
<path id="Vector_103" d="M365.925 329.275C364.585 329.415 363.505 329.185 362.695 328.595C361.885 328.005 361.415 327.085 361.285 325.855C361.155 324.615 361.425 323.615 362.095 322.875C362.765 322.135 363.775 321.695 365.145 321.555C366.505 321.415 367.585 321.645 368.385 322.235C369.185 322.835 369.645 323.755 369.775 324.995C369.905 326.215 369.625 327.205 368.955 327.955C368.285 328.705 367.275 329.135 365.925 329.275ZM365.285 322.985C364.275 323.085 363.525 323.375 363.045 323.835C362.565 324.295 362.365 324.935 362.445 325.735C362.525 326.535 362.845 327.115 363.405 327.465C363.965 327.815 364.755 327.945 365.785 327.835C366.795 327.735 367.545 327.455 368.025 326.995C368.505 326.535 368.705 325.905 368.625 325.105C368.545 324.295 368.215 323.715 367.655 323.355C367.075 323.005 366.295 322.875 365.285 322.985Z" fill="#3A3A3A"/>
<path id="Vector_104" d="M370.215 330.625L370.465 333.075C370.585 334.215 370.505 335.045 370.225 335.585C369.945 336.125 369.445 336.435 368.735 336.505C368.255 336.555 367.845 336.475 367.495 336.255C367.145 336.035 366.915 335.705 366.785 335.245L366.725 335.255C366.675 335.845 366.505 336.295 366.215 336.595C365.925 336.895 365.505 337.085 364.955 337.135C364.215 337.215 363.605 337.015 363.135 336.535C362.665 336.055 362.375 335.365 362.285 334.445L361.975 331.465L370.215 330.625ZM366.955 332.315L367.085 333.615C367.145 334.175 367.275 334.585 367.475 334.825C367.685 335.065 367.995 335.165 368.425 335.115C368.815 335.075 369.075 334.905 369.225 334.605C369.375 334.305 369.415 333.855 369.345 333.245L369.225 332.075L366.955 332.315ZM365.855 332.435L363.245 332.705L363.395 334.135C363.455 334.695 363.605 335.115 363.855 335.375C364.095 335.635 364.455 335.745 364.925 335.705C365.355 335.665 365.655 335.485 365.835 335.165C366.015 334.855 366.065 334.395 366.005 333.795L365.855 332.435Z" fill="#3A3A3A"/>
<path id="Vector_105" d="M363.545 346.695L363.395 345.235L368.165 343.335C368.375 343.255 368.675 343.145 369.065 343.015C369.455 342.885 369.735 342.805 369.895 342.765C369.655 342.755 369.335 342.725 368.945 342.675C368.555 342.635 368.255 342.585 368.065 342.555L363.035 341.695L362.885 340.225L366.905 338.735L370.905 337.235L371.045 338.615L366.365 340.285C365.615 340.545 364.945 340.755 364.365 340.895C364.685 340.905 365.055 340.925 365.455 340.975C365.855 341.015 366.185 341.055 366.435 341.105L371.385 341.955L371.525 343.295L366.835 345.165C366.405 345.345 365.745 345.545 364.875 345.785C365.415 345.785 366.115 345.855 366.965 345.985L371.875 346.665L372.015 348.035L363.545 346.695Z" fill="#3A3A3A"/>
<path id="Vector_106" d="M364.415 355.125L366.615 354.065L366.295 350.915L363.925 350.345L363.775 348.925L372.365 351.155L372.515 352.625L364.555 356.555L364.415 355.125ZM367.735 353.585L369.905 352.585C370.045 352.515 370.275 352.415 370.595 352.275C370.905 352.145 371.135 352.045 371.285 351.995C370.815 351.945 370.295 351.845 369.725 351.705L367.505 351.185L367.735 353.585Z" fill="#3A3A3A"/>
<path id="Vector_107" d="M364.665 357.645L372.905 356.795L373.045 358.145L365.965 358.875L366.325 362.365L365.165 362.485L364.665 357.645Z" fill="#3A3A3A"/>
<path id="Vector_108" d="M365.315 363.895L373.555 363.045L373.695 364.395L366.615 365.125L366.975 368.615L365.815 368.735L365.315 363.895Z" fill="#3A3A3A"/>
</g>
<path id="Vector_109" d="M371.495 549.425C375.805 526.995 378.665 504.125 380.115 481.345C380.735 471.605 381.025 461.845 380.725 452.085C380.675 450.375 378.015 450.375 378.065 452.085C378.595 469.105 377.395 486.155 375.575 503.065C374.185 515.955 372.385 528.805 370.205 541.585C369.795 543.965 369.385 546.345 368.935 548.715C368.605 550.395 371.175 551.115 371.495 549.425Z" fill="#424242"/>
<g id="Group_9">
<path id="Vector_110" d="M363.675 471.765C363.705 471.395 363.785 471.095 363.895 470.855L365.025 470.955C364.915 471.265 364.855 471.535 364.835 471.765C364.775 472.505 365.205 472.915 366.135 472.995L374.135 473.695L374.015 475.055L366.065 474.365C365.225 474.295 364.595 474.035 364.185 473.595C363.775 473.135 363.605 472.535 363.675 471.765Z" fill="#3A3A3A"/>
<path id="Vector_111" d="M369.085 484.155C367.745 484.035 366.725 483.615 366.035 482.875C365.345 482.135 365.055 481.155 365.165 479.925C365.275 478.675 365.725 477.755 366.525 477.155C367.325 476.555 368.405 476.305 369.765 476.425C371.125 476.545 372.145 476.975 372.815 477.705C373.485 478.435 373.765 479.435 373.655 480.675C373.545 481.905 373.095 482.815 372.295 483.425C371.505 484.025 370.425 484.265 369.085 484.155ZM369.635 477.845C368.615 477.755 367.825 477.895 367.265 478.255C366.705 478.615 366.385 479.205 366.315 480.005C366.245 480.805 366.455 481.435 366.935 481.885C367.415 482.335 368.175 482.605 369.205 482.695C370.215 482.785 371.005 482.645 371.565 482.285C372.125 481.925 372.435 481.345 372.505 480.545C372.575 479.735 372.365 479.105 371.875 478.645C371.395 478.215 370.645 477.935 369.635 477.845Z" fill="#3A3A3A"/>
<path id="Vector_112" d="M373.045 486.285L372.835 488.735C372.735 489.875 372.495 490.675 372.125 491.155C371.755 491.635 371.205 491.835 370.495 491.775C370.015 491.735 369.625 491.575 369.325 491.295C369.025 491.015 368.855 490.645 368.815 490.175H368.755C368.595 490.745 368.345 491.155 367.995 491.395C367.645 491.645 367.205 491.735 366.655 491.685C365.915 491.625 365.355 491.315 364.985 490.755C364.605 490.205 364.465 489.465 364.545 488.545L364.805 485.565L373.045 486.285ZM368.415 487.235L365.805 487.005L365.675 488.435C365.625 488.995 365.695 489.435 365.885 489.745C366.075 490.055 366.405 490.225 366.875 490.265C367.305 490.305 367.635 490.185 367.865 489.905C368.095 489.625 368.245 489.195 368.295 488.595L368.415 487.235ZM369.515 487.335L369.405 488.635C369.355 489.205 369.405 489.615 369.565 489.895C369.725 490.175 370.015 490.325 370.445 490.365C370.835 490.395 371.125 490.285 371.325 490.015C371.525 489.755 371.645 489.315 371.705 488.705L371.805 487.535L369.515 487.335Z" fill="#3A3A3A"/>
<path id="Vector_113" d="M363.465 500.815L363.595 499.345L368.635 498.375C368.855 498.335 369.175 498.285 369.585 498.235C369.995 498.175 370.285 498.145 370.445 498.145C370.205 498.085 369.905 497.995 369.525 497.885C369.145 497.765 368.865 497.675 368.685 497.595L363.905 495.805L364.035 494.335L368.265 493.625L372.485 492.895L372.365 494.275L367.455 495.035C366.665 495.155 365.975 495.225 365.375 495.255C365.695 495.325 366.045 495.415 366.435 495.535C366.825 495.655 367.135 495.755 367.375 495.845L372.075 497.605L371.955 498.945L366.995 499.905C366.535 499.995 365.855 500.075 364.945 500.145C365.475 500.245 366.155 500.445 366.965 500.725L371.665 502.315L371.545 503.685L363.465 500.815Z" fill="#3A3A3A"/>
<path id="Vector_114" d="M362.725 509.245L365.085 508.615L365.355 505.455L363.135 504.445L363.255 503.025L371.275 506.835L371.145 508.305L362.585 510.675L362.725 509.245ZM366.285 508.375L368.595 507.795C368.755 507.755 368.995 507.695 369.325 507.625C369.655 507.555 369.905 507.505 370.055 507.485C369.605 507.345 369.105 507.155 368.575 506.905L366.485 505.975L366.285 508.375Z" fill="#3A3A3A"/>
<path id="Vector_115" d="M362.505 511.775L370.755 512.495L370.635 513.845L363.535 513.225L363.235 516.715L362.075 516.615L362.505 511.775Z" fill="#3A3A3A"/>
<path id="Vector_116" d="M361.955 518.035L370.205 518.755L370.085 520.105L362.985 519.485L362.685 522.975L361.525 522.875L361.955 518.035Z" fill="#3A3A3A"/>
</g>
<g id="R24">
<path id="Vector_117" d="M279.915 379.415L295.055 379.305L298.045 379.285L316.175 379.145C317.865 379.135 319.235 377.855 319.215 376.295L319.085 362.385C319.075 360.825 317.685 359.565 315.995 359.575L297.865 359.705L294.875 359.725L279.735 359.835C278.045 359.845 276.675 361.025 276.695 362.465V362.695L276.825 376.605V376.835C276.835 378.265 278.215 379.425 279.915 379.415Z" fill="#A8D9E2"/>
<g id="Group_10">
<path id="Vector_118" d="M295.505 367.965L295.485 366.615L298.005 365.265L297.995 364.675L295.455 364.705L295.435 363.495L301.435 363.415L301.465 365.895C301.475 366.885 300.695 367.685 299.695 367.695C298.905 367.705 298.285 367.195 298.095 366.465L295.505 367.965ZM299.705 366.605C300.125 366.595 300.435 366.275 300.435 365.865L300.415 364.645L298.945 364.665L298.965 365.885C298.965 366.305 299.285 366.615 299.705 366.605Z" fill="#121212"/>
<path id="Vector_119" d="M296.365 368.285C299.065 370.745 299.335 370.915 299.825 370.915C300.405 370.905 300.595 370.505 300.595 370.135C300.585 369.685 300.265 369.335 299.735 369.395L299.725 368.275C300.825 368.175 301.595 369.095 301.615 370.175C301.625 371.205 300.945 372.005 299.945 372.025C299.005 372.045 298.545 371.645 296.545 369.795L296.575 372.205L295.555 372.215L295.505 368.295L296.365 368.285Z" fill="#121212"/>
<path id="Vector_120" d="M296.895 377.125L296.885 376.595L295.625 376.615L295.605 375.455L296.865 375.435L296.825 372.585L297.565 372.575L301.595 375.065L301.615 376.525L297.905 376.575L297.915 377.105L296.895 377.125ZM297.895 375.425L300.465 375.395L297.875 373.905L297.895 375.425Z" fill="#121212"/>
</g>
</g>
<g id="Group_11">
<path id="Vector_121" d="M256.165 342.175L256.155 340.435L259.415 338.735V337.975L256.145 337.985L256.135 336.435L263.835 336.405L263.845 339.585C263.845 340.855 262.835 341.865 261.555 341.875C260.535 341.875 259.755 341.215 259.515 340.285L256.165 342.175ZM261.575 340.485C262.105 340.485 262.515 340.075 262.515 339.545L262.505 337.975L260.615 337.985L260.625 339.555C260.625 340.085 261.045 340.485 261.575 340.485Z" fill="#121212"/>
<path id="Vector_122" d="M257.265 342.585C260.705 345.775 261.045 346.005 261.675 346.005C262.415 346.005 262.665 345.485 262.675 345.015C262.675 344.435 262.265 343.985 261.585 344.055L261.595 342.615C263.015 342.495 263.995 343.695 263.995 345.085C263.995 346.405 263.105 347.425 261.825 347.445C260.625 347.455 260.025 346.935 257.495 344.535L257.505 347.625H256.195L256.175 342.595L257.265 342.585Z" fill="#121212"/>
<path id="Vector_123" d="M260.045 348.525C262.375 348.515 264.005 349.685 264.005 351.375C264.015 353.045 262.395 354.235 260.065 354.245C257.735 354.255 256.105 353.075 256.105 351.405C256.095 349.705 257.705 348.535 260.045 348.525ZM260.055 352.745C261.615 352.735 262.705 352.175 262.705 351.385C262.705 350.585 261.615 350.025 260.055 350.025C258.505 350.025 257.415 350.595 257.425 351.405C257.415 352.185 258.505 352.745 260.055 352.745Z" fill="#121212"/>
</g>
<g id="R28">
<path id="Vector_124" d="M285.565 214.145L295.655 214.035L297.645 214.015L309.725 213.875C310.855 213.865 311.765 212.585 311.755 211.025L311.665 197.115C311.655 195.555 310.735 194.295 309.605 194.305L297.525 194.435L295.535 194.455L285.445 194.565C284.315 194.575 283.405 195.755 283.415 197.195V197.425L283.505 211.335V211.565C283.515 212.995 284.435 214.155 285.565 214.145Z" fill="#A8D9E2"/>
<g id="Group_12">
<path id="Vector_125" d="M294.725 206.944L293.375 206.964L292.025 204.444L291.435 204.454L291.465 206.994L290.255 207.014L290.175 201.014L292.655 200.984C293.645 200.974 294.445 201.754 294.455 202.754C294.465 203.544 293.955 204.164 293.225 204.354L294.725 206.944ZM293.365 202.754C293.355 202.334 293.035 202.024 292.625 202.024L291.405 202.044L291.425 203.514L292.645 203.494C293.055 203.494 293.365 203.164 293.365 202.754Z" fill="#121212"/>
<path id="Vector_126" d="M295.035 206.085C297.495 203.385 297.665 203.115 297.655 202.625C297.645 202.045 297.245 201.855 296.875 201.855C296.425 201.865 296.075 202.185 296.135 202.715L295.015 202.725C294.915 201.625 295.835 200.855 296.915 200.835C297.945 200.825 298.745 201.505 298.765 202.505C298.785 203.445 298.385 203.905 296.535 205.905L298.945 205.875L298.955 206.895L295.035 206.945V206.085Z" fill="#121212"/>
<path id="Vector_127" d="M303.655 205.025C303.665 206.095 302.795 206.925 301.585 206.945C300.385 206.965 299.485 206.155 299.475 205.085C299.465 204.425 299.805 203.865 300.355 203.545C300.015 203.265 299.815 202.875 299.805 202.395C299.795 201.495 300.515 200.805 301.515 200.785C302.515 200.765 303.255 201.445 303.265 202.345C303.275 202.815 303.075 203.225 302.745 203.505C303.285 203.815 303.645 204.355 303.655 205.025ZM300.775 202.465C300.785 202.895 301.115 203.215 301.545 203.215C301.965 203.205 302.295 202.875 302.285 202.445C302.275 202.015 301.945 201.695 301.525 201.695C301.095 201.695 300.765 202.035 300.775 202.465ZM302.475 204.945C302.465 204.415 302.075 204.035 301.545 204.045C301.025 204.055 300.625 204.445 300.635 204.965C300.645 205.495 301.045 205.915 301.565 205.905C302.105 205.905 302.485 205.475 302.475 204.945Z" fill="#121212"/>
</g>
</g>
<path id="Vector_128" d="M444.335 484.775C444.335 484.775 447.115 484.905 440.065 511.555C433.015 538.215 416.825 577.615 416.825 577.615L372.635 574.705L380.365 532.095L383.985 485.245L409.425 487.265L444.335 484.775Z" fill="#E94C41"/>
<path id="Vector_129" d="M373.545 573.425C382.485 575.105 391.665 575.515 400.735 575.695C405.675 575.795 410.615 575.815 415.545 575.655C417.255 575.595 417.255 578.255 415.545 578.315C410.465 578.475 405.375 578.455 400.295 578.345C391.125 578.145 381.855 577.685 372.825 575.985C371.155 575.675 371.865 573.105 373.545 573.425Z" fill="#424242"/>
<path id="Vector_130" d="M444.895 486.615C431.265 487.885 417.465 488.175 403.795 487.795C397.405 487.615 391.015 487.235 384.645 486.575C382.955 486.395 382.945 483.735 384.645 483.915C403.185 485.835 422.005 485.615 440.585 484.295C442.025 484.195 443.455 484.085 444.885 483.955C446.605 483.795 446.585 486.455 444.895 486.615Z" fill="#424242"/>
<path id="Vector_131" d="M348.985 674.655C350.535 670.365 351.925 666.025 353.305 661.675C357.035 649.855 360.415 637.925 363.515 625.935C368.095 608.255 372.085 590.415 375.485 572.465C379.675 550.375 382.965 528.115 385.235 505.745C386.485 493.435 387.425 481.085 388.015 468.725C388.165 465.575 388.295 462.435 388.395 459.285C388.485 456.705 388.015 453.535 389.435 451.245C391.425 448.035 394.895 448.355 398.155 448.355H401.365C403.525 448.355 403.525 444.995 401.365 444.995C399.125 444.995 396.865 444.935 394.625 444.995C390.095 445.105 386.065 448.285 385.325 452.855C384.845 455.865 385.055 459.085 384.935 462.135C384.815 465.375 384.665 468.615 384.495 471.855C384.165 478.135 383.745 484.405 383.245 490.675C381.355 514.155 378.295 537.535 374.215 560.735C370.865 579.835 366.835 598.825 362.145 617.645C358.855 630.865 355.245 644.005 351.225 657.015C350.045 660.825 348.835 664.635 347.575 668.415C347.005 670.125 346.295 671.815 345.815 673.555C345.795 673.625 345.765 673.695 345.735 673.765C345.015 675.795 348.255 676.675 348.985 674.655Z" fill="#424242"/>
<path id="Vector_132" d="M360.105 667.335C381.785 641.375 400.115 612.505 414.785 582.035C436.615 536.665 450.045 487.235 452.385 436.825C453.765 407.145 451.315 377.305 445.185 348.235C439.205 319.885 429.455 292.425 417.055 266.275C406.875 244.805 394.855 224.215 381.205 204.785C373.895 194.375 365.885 184.395 357.415 174.905C350.345 166.985 338.185 163.445 327.925 163.405C315.465 163.355 303.005 163.405 290.545 163.405H271.175C264.135 163.405 257.305 164.055 250.725 166.845C245.055 169.245 240.375 172.655 236.335 177.265C232.155 182.045 228.125 186.955 224.215 191.955C216.855 201.375 210.025 211.175 203.625 221.275C189.845 243.015 178.025 266.005 168.485 289.915C146.725 344.455 138.595 403.765 145.565 462.155C151.325 510.405 167.035 557.115 190.125 599.765C198.745 615.685 208.395 631.065 218.985 645.735C222.995 651.295 227.155 656.755 231.445 662.105C233.695 664.905 235.915 667.785 238.465 670.305C242.795 674.565 247.995 677.855 253.675 679.995C259.995 682.375 266.445 682.745 273.085 682.745H293.315C305.035 682.745 316.845 683.165 328.555 682.715C340.745 682.245 352.195 676.605 360.105 667.335C361.215 666.035 359.345 664.135 358.225 665.445C350.325 674.705 339.025 679.985 326.875 680.075C322.725 680.105 318.575 680.075 314.425 680.075H272.295C264.945 680.075 257.815 679.275 251.095 675.985C242.825 671.945 237.255 665.145 231.665 658.095C222.065 645.975 213.205 633.255 205.045 620.115C181.585 582.335 163.965 540.805 154.275 497.325C142.005 442.265 143.135 384.715 157.725 330.225C164.985 303.115 175.835 276.855 188.895 252.055C199.975 231.015 212.735 210.755 227.475 192.115C231.095 187.535 234.815 183.055 238.665 178.665C243.035 173.685 248.575 170.195 254.865 168.125C260.785 166.175 266.755 166.065 272.875 166.065H316.025C320.055 166.065 324.085 166.035 328.125 166.065C333.775 166.105 339.365 167.195 344.555 169.475C347.335 170.695 349.985 172.235 352.425 174.035C354.875 175.845 356.755 178.125 358.745 180.415C374.205 198.295 387.625 217.805 399.415 238.295C427.385 286.905 445.525 340.935 449.325 397.095C452.925 450.195 443.915 503.525 424.565 552.995C410.835 588.115 392.085 621.365 369.375 651.425C365.775 656.185 362.065 660.865 358.235 665.455C357.125 666.755 359.005 668.655 360.105 667.335Z" fill="#424242"/>
<g id="Group_13">
<path id="Vector_133" d="M416.045 501.455L416.335 499.995L423.995 501.525L424.515 498.905L425.765 499.155L424.425 505.845L423.175 505.595L423.695 502.975L416.045 501.455Z" fill="white"/>
<path id="Vector_134" d="M414.245 510.475L415.255 505.435L424.155 507.215L423.155 512.255L421.925 512.005L422.635 508.425L420.215 507.945L419.545 511.305L418.325 511.065L418.985 507.695L416.185 507.135L415.475 510.715L414.245 510.475Z" fill="white"/>
<path id="Vector_135" d="M415.255 518.015C414.465 517.855 413.895 517.445 413.565 516.785C413.225 516.125 413.165 515.285 413.365 514.285C413.565 513.285 413.885 512.485 414.325 511.905L415.705 512.175C415.435 512.545 415.195 512.945 414.995 513.385C414.795 513.815 414.655 514.235 414.575 514.625C414.455 515.205 414.485 515.645 414.645 515.965C414.805 516.285 415.075 516.475 415.445 516.555C415.775 516.625 416.085 516.555 416.365 516.345C416.645 516.135 417.025 515.675 417.495 514.945C417.985 514.195 418.475 513.705 418.965 513.455C419.455 513.205 419.995 513.145 420.585 513.255C421.325 513.405 421.865 513.785 422.185 514.395C422.505 515.005 422.575 515.765 422.405 516.645C422.235 517.495 421.875 518.305 421.335 519.075L420.235 518.375C420.725 517.645 421.035 516.975 421.155 516.355C421.245 515.885 421.215 515.505 421.065 515.225C420.905 514.935 420.665 514.765 420.325 514.695C420.095 514.645 419.885 514.655 419.705 514.725C419.525 514.785 419.335 514.915 419.145 515.115C418.955 515.305 418.685 515.675 418.325 516.205C417.925 516.805 417.575 517.235 417.275 517.495C416.975 517.755 416.665 517.925 416.345 518.005C416.015 518.095 415.655 518.095 415.255 518.015Z" fill="white"/>
<path id="Vector_136" d="M411.875 522.335L412.165 520.875L419.825 522.405L420.345 519.785L421.595 520.035L420.255 526.725L419.005 526.475L419.525 523.855L411.875 522.335Z" fill="white"/>
<path id="Vector_137" d="M413.965 535.115C412.515 534.825 411.465 534.235 410.805 533.355C410.145 532.465 409.945 531.365 410.215 530.035C410.485 528.695 411.085 527.735 412.035 527.175C412.975 526.615 414.185 526.475 415.655 526.775C417.125 527.065 418.185 527.655 418.825 528.535C419.465 529.415 419.655 530.525 419.385 531.875C419.125 533.195 418.515 534.145 417.575 534.705C416.615 535.265 415.415 535.405 413.965 535.115ZM415.325 528.315C414.225 528.095 413.355 528.155 412.695 528.485C412.035 528.815 411.625 529.415 411.455 530.285C411.285 531.145 411.435 531.855 411.905 532.415C412.375 532.965 413.165 533.355 414.275 533.575C415.365 533.795 416.235 533.745 416.895 533.415C417.545 533.095 417.955 532.495 418.135 531.635C418.305 530.765 418.155 530.045 417.685 529.485C417.195 528.925 416.415 528.535 415.325 528.315Z" fill="white"/>
<path id="Vector_138" d="M417.015 542.985L416.715 544.495L408.435 539.595L408.745 538.055L418.275 536.725L417.975 538.225L412.065 538.975C411.785 539.015 411.425 539.055 410.985 539.085C410.545 539.115 410.225 539.125 410.015 539.115C410.315 539.225 410.655 539.385 411.035 539.575C411.415 539.765 411.705 539.915 411.885 540.025L417.015 542.985Z" fill="white"/>
<path id="Vector_139" d="M406.465 549.425L409.115 549.025L409.795 545.625L407.495 544.255L407.805 542.715L416.085 547.835L415.765 549.415L406.155 550.965L406.465 549.425ZM410.455 548.895L413.045 548.545C413.215 548.515 413.495 548.485 413.865 548.445C414.235 548.405 414.505 548.385 414.675 548.375C414.195 548.165 413.685 547.895 413.135 547.565L410.975 546.295L410.455 548.895ZM416.775 547.885L416.925 547.915C417.165 548.205 417.435 548.505 417.735 548.815C418.035 549.135 418.295 549.385 418.515 549.575L418.185 551.235L418.055 551.205C417.845 550.945 417.595 550.565 417.285 550.065C416.975 549.565 416.745 549.155 416.585 548.815L416.775 547.885Z" fill="white"/>
<path id="Vector_140" d="M404.445 559.565L404.805 557.775L412.775 554.815L412.785 554.765L412.385 554.715C411.615 554.625 410.925 554.515 410.295 554.385L405.665 553.465L405.925 552.145L414.835 553.925L414.485 555.695L406.555 558.655L406.545 558.695C406.635 558.705 406.985 558.755 407.575 558.845C408.165 558.935 408.625 559.015 408.955 559.085L413.625 560.015L413.355 561.345L404.445 559.565Z" fill="white"/>
<path id="Vector_141" d="M403.975 561.915L412.885 563.695L412.595 565.155L403.685 563.375L403.975 561.915ZM413.605 563.745L413.755 563.775C413.995 564.065 414.265 564.365 414.565 564.685C414.865 565.005 415.125 565.255 415.345 565.445L415.015 567.105L414.885 567.075C414.675 566.815 414.425 566.435 414.115 565.935C413.805 565.435 413.575 565.025 413.415 564.685L413.605 563.745Z" fill="white"/>
</g>
<path id="Vector_142" d="M423.645 502.975L423.125 505.595L424.365 505.845L425.705 499.145L424.455 498.895L423.935 501.515L416.275 499.985L415.985 501.445L423.645 502.975Z" stroke="white" stroke-width="0.273" stroke-miterlimit="10"/>
<path id="Vector_143" d="M415.425 510.715L416.135 507.135L418.935 507.685L418.265 511.045L419.485 511.285L420.155 507.935L422.575 508.415L421.865 511.995L423.085 512.245L424.095 507.205L415.195 505.425L414.185 510.465L415.425 510.715Z" stroke="white" stroke-width="0.273" stroke-miterlimit="10"/>
<path id="Vector_144" d="M416.285 518.005C416.605 517.925 416.925 517.755 417.215 517.495C417.515 517.235 417.865 516.805 418.265 516.205C418.615 515.675 418.895 515.305 419.085 515.115C419.275 514.925 419.465 514.795 419.645 514.725C419.825 514.655 420.035 514.655 420.265 514.695C420.605 514.765 420.855 514.935 421.005 515.225C421.165 515.505 421.195 515.885 421.095 516.355C420.975 516.975 420.665 517.645 420.175 518.375L421.265 519.075C421.805 518.305 422.165 517.495 422.335 516.645C422.515 515.755 422.445 515.005 422.115 514.395C421.795 513.785 421.265 513.405 420.515 513.255C419.925 513.135 419.385 513.205 418.895 513.445C418.405 513.695 417.915 514.195 417.425 514.935C416.955 515.655 416.575 516.125 416.295 516.325C416.015 516.535 415.705 516.605 415.375 516.535C415.005 516.465 414.735 516.265 414.575 515.945C414.405 515.625 414.385 515.185 414.495 514.605C414.575 514.215 414.715 513.795 414.915 513.365C415.115 512.935 415.355 512.525 415.625 512.165L414.245 511.895C413.805 512.475 413.485 513.265 413.285 514.275C413.085 515.285 413.155 516.115 413.485 516.775C413.825 517.435 414.385 517.845 415.175 518.005C415.595 518.085 415.965 518.085 416.285 518.005Z" stroke="white" stroke-width="0.273" stroke-miterlimit="10"/>
<path id="Vector_145" d="M419.475 523.855L418.955 526.475L420.205 526.725L421.535 520.025L420.285 519.775L419.765 522.395L412.105 520.875L411.815 522.325L419.475 523.855Z" stroke="white" stroke-width="0.273" stroke-miterlimit="10"/>
<path id="Vector_146" d="M417.615 529.475C418.095 530.035 418.245 530.745 418.065 531.625C417.895 532.495 417.485 533.085 416.825 533.405C416.175 533.725 415.305 533.785 414.205 533.565C413.095 533.345 412.305 532.955 411.835 532.405C411.365 531.855 411.215 531.145 411.385 530.275C411.555 529.405 411.975 528.805 412.625 528.475C413.275 528.145 414.155 528.095 415.255 528.305C416.355 528.525 417.145 528.915 417.615 529.475ZM417.505 534.695C418.445 534.135 419.055 533.185 419.315 531.865C419.585 530.525 419.395 529.405 418.755 528.525C418.115 527.645 417.055 527.055 415.585 526.765C414.115 526.475 412.905 526.605 411.965 527.165C411.025 527.725 410.415 528.675 410.145 530.025C409.885 531.355 410.075 532.455 410.735 533.345C411.395 534.225 412.445 534.815 413.895 535.105C415.365 535.395 416.565 535.265 417.505 534.695Z" stroke="white" stroke-width="0.273" stroke-miterlimit="10"/>
<path id="Vector_147" d="M411.815 540.025C411.635 539.915 411.355 539.765 410.965 539.575C410.575 539.385 410.235 539.235 409.945 539.115C410.155 539.125 410.475 539.115 410.915 539.085C411.355 539.055 411.715 539.025 411.995 538.975L417.905 538.215L418.205 536.715L408.675 538.045L408.365 539.575L416.645 544.475L416.945 542.965L411.815 540.025Z" stroke="white" stroke-width="0.273" stroke-miterlimit="10"/>
<path id="Vector_148" d="M416.535 548.825C416.695 549.155 416.925 549.575 417.235 550.065C417.545 550.565 417.805 550.945 418.005 551.205L418.135 551.235L418.465 549.575C418.245 549.385 417.985 549.125 417.685 548.815C417.385 548.495 417.115 548.195 416.875 547.905L416.725 547.875L416.535 548.825ZM410.915 546.285L413.075 547.555C413.625 547.885 414.145 548.155 414.615 548.365C414.445 548.375 414.175 548.395 413.805 548.435C413.435 548.475 413.165 548.505 412.985 548.535L410.395 548.885L410.915 546.285ZM406.105 550.965L415.715 549.415L416.035 547.835L407.755 542.715L407.445 544.255L409.745 545.615L409.065 549.025L406.415 549.425L406.105 550.965Z" stroke="white" stroke-width="0.273" stroke-miterlimit="10"/>
<path id="Vector_149" d="M413.295 561.335L413.565 560.005L408.895 559.075C408.565 559.005 408.105 558.925 407.515 558.835C406.925 558.745 406.585 558.695 406.485 558.685L406.495 558.645L414.425 555.685L414.775 553.915L405.865 552.135L405.605 553.455L410.235 554.375C410.865 554.495 411.555 554.605 412.325 554.705L412.725 554.755L412.715 554.805L404.745 557.765L404.385 559.545L413.295 561.335Z" stroke="white" stroke-width="0.273" stroke-miterlimit="10"/>
<path id="Vector_150" d="M413.365 564.695C413.525 565.025 413.755 565.435 414.065 565.935C414.375 566.435 414.635 566.815 414.835 567.075L414.965 567.095L415.295 565.435C415.075 565.245 414.815 564.985 414.515 564.675C414.215 564.355 413.945 564.055 413.705 563.765L413.555 563.735L413.365 564.695ZM403.625 563.365L412.525 565.145L412.815 563.685L403.905 561.905L403.625 563.365Z" stroke="white" stroke-width="0.273" stroke-miterlimit="10"/>
<g id="Group_14">
<path id="Vector_151" d="M410.005 504.305L404.245 503.155C403.585 503.025 403.035 502.765 402.605 502.385C402.175 502.005 401.865 501.525 401.705 500.935C401.545 500.345 401.545 499.685 401.685 498.935C401.905 497.835 402.365 497.025 403.075 496.535C403.785 496.035 404.645 495.895 405.675 496.095L411.415 497.245L411.125 498.705L405.495 497.575C404.755 497.425 404.185 497.495 403.765 497.765C403.345 498.035 403.065 498.525 402.925 499.235C402.655 500.605 403.235 501.435 404.675 501.725L410.295 502.845L410.005 504.305ZM411.615 499.945L411.765 499.975C412.005 500.265 412.275 500.565 412.575 500.885C412.875 501.205 413.135 501.455 413.355 501.645L413.025 503.305L412.895 503.275C412.685 503.015 412.435 502.635 412.125 502.135C411.815 501.635 411.585 501.225 411.425 500.895L411.615 499.945Z" fill="white"/>
<path id="Vector_152" d="M403.915 506.975L400.355 506.265L400.645 504.805L409.555 506.585L409.055 509.105C408.825 510.255 408.435 511.065 407.895 511.525C407.355 511.995 406.645 512.135 405.785 511.965C404.675 511.745 404.005 511.005 403.765 509.765L399.325 511.495L399.655 509.835L403.635 508.415L403.915 506.975ZM405.115 507.215L404.915 508.225C404.775 508.905 404.805 509.425 404.995 509.775C405.185 510.125 405.525 510.355 406.025 510.455C406.525 510.555 406.925 510.465 407.205 510.175C407.495 509.885 407.695 509.415 407.835 508.755L408.025 507.795L405.115 507.215Z" fill="white"/>
<path id="Vector_153" d="M401.935 521.575C400.485 521.285 399.435 520.695 398.775 519.815C398.115 518.935 397.915 517.825 398.185 516.495C398.455 515.155 399.055 514.195 400.005 513.635C400.955 513.075 402.155 512.935 403.625 513.235C405.095 513.525 406.155 514.115 406.795 514.995C407.435 515.875 407.625 516.995 407.355 518.335C407.095 519.655 406.485 520.605 405.545 521.165C404.595 521.735 403.395 521.865 401.935 521.575ZM403.295 514.785C402.195 514.565 401.325 514.625 400.665 514.955C400.005 515.285 399.595 515.885 399.425 516.755C399.255 517.615 399.405 518.325 399.875 518.885C400.345 519.445 401.135 519.825 402.245 520.045C403.335 520.265 404.215 520.215 404.865 519.885C405.515 519.565 405.925 518.965 406.105 518.105C406.275 517.235 406.125 516.515 405.655 515.955C405.175 515.385 404.385 514.995 403.295 514.785Z" fill="white"/>
<path id="Vector_154" d="M404.985 529.454L404.685 530.964L396.405 526.064L396.715 524.524L406.245 523.194L405.945 524.694L400.035 525.444C399.755 525.484 399.395 525.524 398.955 525.554C398.515 525.584 398.195 525.594 397.985 525.584C398.285 525.694 398.625 525.854 399.005 526.044C399.385 526.234 399.675 526.384 399.855 526.494L404.985 529.454Z" fill="white"/>
<path id="Vector_155" d="M394.065 537.785L394.425 535.995L402.395 533.035L402.405 532.985L402.005 532.935C401.235 532.845 400.545 532.735 399.915 532.605L395.285 531.685L395.545 530.365L404.455 532.145L404.105 533.915L396.175 536.875L396.165 536.915C396.265 536.925 396.605 536.975 397.195 537.075C397.785 537.165 398.245 537.245 398.575 537.315L403.245 538.245L402.975 539.575L394.065 537.785Z" fill="white"/>
<path id="Vector_156" d="M392.585 545.175L393.595 540.135L402.505 541.915L401.495 546.955L400.265 546.705L400.975 543.125L398.555 542.645L397.885 546.005L396.665 545.765L397.335 542.405L394.535 541.845L393.825 545.425L392.585 545.175ZM404.235 547.365L404.065 547.335C403.635 546.715 403.315 546.275 403.105 546.015C402.895 545.755 402.705 545.555 402.545 545.405L402.865 543.825C403.345 543.645 404.055 543.255 405.005 542.645L405.175 542.675L404.985 543.635C404.505 544.125 404.045 544.505 403.595 544.785C403.925 545.255 404.205 545.795 404.435 546.395L404.235 547.365Z" fill="white"/>
<path id="Vector_157" d="M390.455 555.865L393.105 555.465L393.785 552.055L391.485 550.685L391.795 549.145L400.075 554.265L399.755 555.845L390.145 557.395L390.455 555.865ZM394.435 555.335L397.025 554.984C397.205 554.954 397.475 554.925 397.845 554.885C398.215 554.845 398.485 554.825 398.655 554.815C398.175 554.605 397.665 554.335 397.115 554.005L394.955 552.734L394.435 555.335Z" fill="white"/>
<path id="Vector_158" d="M387.655 556.965C387.735 556.565 387.855 556.245 388.005 555.995L389.225 556.235C389.075 556.555 388.975 556.845 388.925 557.095C388.765 557.895 389.185 558.385 390.195 558.595L398.825 560.315L398.535 561.775L389.955 560.065C389.045 559.885 388.395 559.525 387.995 558.995C387.605 558.475 387.485 557.795 387.655 556.965Z" fill="white"/>
</g>
<path id="Vector_159" d="M411.365 500.895C411.525 501.225 411.755 501.645 412.065 502.135C412.375 502.635 412.635 503.015 412.835 503.275L412.965 503.305L413.295 501.645C413.075 501.455 412.815 501.205 412.515 500.885C412.215 500.565 411.945 500.265 411.705 499.975L411.555 499.945L411.365 500.895ZM410.235 502.845L404.615 501.725C403.175 501.435 402.585 500.605 402.865 499.235C403.005 498.525 403.285 498.035 403.705 497.765C404.125 497.495 404.695 497.425 405.435 497.575L411.075 498.695L411.365 497.235L405.625 496.085C404.605 495.885 403.735 496.025 403.025 496.525C402.315 497.025 401.855 497.825 401.635 498.925C401.485 499.665 401.495 500.335 401.655 500.915C401.815 501.505 402.115 501.985 402.545 502.365C402.985 502.745 403.525 503.005 404.185 503.135L409.945 504.285L410.235 502.845Z" stroke="white" stroke-width="0.273" stroke-miterlimit="10"/>
<path id="Vector_160" d="M403.565 508.405L399.585 509.825L399.255 511.485L403.695 509.755C403.935 511.005 404.605 511.735 405.715 511.955C406.585 512.125 407.285 511.985 407.835 511.515C408.375 511.045 408.765 510.245 408.985 509.095L409.485 506.585L400.575 504.805L400.285 506.265L403.845 506.975L403.565 508.405ZM407.975 507.785L407.785 508.745C407.655 509.405 407.445 509.885 407.155 510.165C406.875 510.445 406.475 510.545 405.975 510.445C405.475 510.345 405.135 510.115 404.945 509.765C404.755 509.415 404.725 508.895 404.865 508.215L405.065 507.205L407.975 507.785Z" stroke="white" stroke-width="0.273" stroke-miterlimit="10"/>
<path id="Vector_161" d="M405.595 515.935C406.065 516.495 406.225 517.205 406.045 518.085C405.875 518.945 405.465 519.545 404.805 519.865C404.155 520.185 403.285 520.245 402.185 520.025C401.075 519.805 400.285 519.415 399.815 518.865C399.345 518.315 399.195 517.605 399.365 516.735C399.535 515.865 399.955 515.265 400.605 514.935C401.255 514.605 402.135 514.555 403.235 514.765C404.335 514.995 405.115 515.375 405.595 515.935ZM405.485 521.165C406.425 520.605 407.035 519.655 407.295 518.335C407.565 516.995 407.375 515.875 406.735 514.995C406.095 514.115 405.035 513.525 403.565 513.235C402.095 512.945 400.885 513.075 399.945 513.635C399.005 514.195 398.395 515.155 398.125 516.495C397.865 517.825 398.055 518.925 398.715 519.815C399.375 520.695 400.425 521.285 401.875 521.575C403.335 521.865 404.535 521.725 405.485 521.165Z" stroke="white" stroke-width="0.273" stroke-miterlimit="10"/>
<path id="Vector_162" d="M399.785 526.485C399.605 526.375 399.325 526.225 398.935 526.035C398.555 525.845 398.205 525.695 397.915 525.575C398.125 525.585 398.445 525.575 398.885 525.545C399.325 525.515 399.685 525.485 399.965 525.435L405.875 524.685L406.175 523.185L396.645 524.515L396.335 526.045L404.615 530.945L404.915 529.435L399.785 526.485Z" stroke="white" stroke-width="0.273" stroke-miterlimit="10"/>
<path id="Vector_163" d="M402.915 539.545L403.185 538.215L398.515 537.285C398.185 537.215 397.725 537.135 397.135 537.045C396.545 536.955 396.205 536.905 396.105 536.885L396.115 536.845L404.045 533.885L404.395 532.115L395.485 530.335L395.225 531.655L399.855 532.575C400.485 532.695 401.175 532.805 401.945 532.905L402.345 532.955L402.335 533.005L394.365 535.965L394.005 537.755L402.915 539.545Z" stroke="white" stroke-width="0.273" stroke-miterlimit="10"/>
<path id="Vector_164" d="M404.365 546.385C404.135 545.785 403.855 545.245 403.525 544.775C403.975 544.495 404.435 544.115 404.915 543.625L405.105 542.665L404.945 542.635C403.995 543.245 403.285 543.635 402.805 543.815L402.485 545.395C402.645 545.545 402.835 545.745 403.045 546.005C403.255 546.265 403.575 546.705 404.005 547.325L404.165 547.355L404.365 546.385ZM393.765 545.405L394.475 541.825L397.275 542.385L396.605 545.745L397.825 545.985L398.495 542.625L400.915 543.105L400.205 546.685L401.435 546.935L402.445 541.895L393.535 540.115L392.525 545.155L393.765 545.405Z" stroke="white" stroke-width="0.273" stroke-miterlimit="10"/>
<path id="Vector_165" d="M394.895 552.725L397.055 553.995C397.605 554.325 398.125 554.595 398.595 554.805C398.425 554.815 398.155 554.835 397.785 554.875C397.415 554.915 397.145 554.945 396.965 554.975L394.375 555.325L394.895 552.725ZM390.095 557.395L399.705 555.845L400.025 554.265L391.745 549.145L391.435 550.685L393.735 552.045L393.055 555.455L390.405 555.855L390.095 557.395Z" stroke="white" stroke-width="0.273" stroke-miterlimit="10"/>
<path id="Vector_166" d="M387.935 558.995C388.325 559.525 388.985 559.875 389.895 560.065L398.475 561.775L398.765 560.315L390.135 558.595C389.125 558.395 388.705 557.895 388.865 557.095C388.915 556.845 389.015 556.555 389.175 556.225L387.955 555.985C387.795 556.235 387.685 556.555 387.605 556.955C387.425 557.785 387.545 558.465 387.935 558.995Z" stroke="white" stroke-width="0.273" stroke-miterlimit="10"/>
<g id="R25">
<path id="Vector_167" d="M270.275 338.935L269.405 352.065C269.285 353.895 267.925 355.295 266.365 355.195L252.245 354.275C250.685 354.175 249.515 352.605 249.635 350.775L250.495 337.645C250.615 335.815 251.975 334.415 253.535 334.515L267.655 335.435C269.225 335.545 270.395 337.105 270.275 338.935Z" fill="#A8D9E2"/>
<g id="Group_15">
<path id="Vector_168" d="M257.195 343.085L257.255 341.735L259.855 340.535L259.885 339.945L257.345 339.835L257.395 338.625L263.385 338.885L263.275 341.365C263.235 342.355 262.405 343.105 261.405 343.065C260.615 343.025 260.025 342.485 259.875 341.755L257.195 343.085ZM261.455 341.965C261.875 341.985 262.205 341.675 262.225 341.275L262.275 340.055L260.805 339.995L260.755 341.215C260.735 341.625 261.045 341.945 261.455 341.965Z" fill="#121212"/>
<path id="Vector_169" d="M258.035 343.445C260.595 346.055 260.855 346.235 261.335 346.265C261.915 346.285 262.125 345.895 262.155 345.535C262.175 345.085 261.865 344.725 261.345 344.745L261.405 343.625C262.515 343.585 263.225 344.555 263.185 345.635C263.145 346.665 262.415 347.425 261.415 347.395C260.475 347.365 260.035 346.935 258.145 344.975L258.045 347.375L257.025 347.335L257.195 343.425L258.035 343.445Z" fill="#121212"/>
<path id="Vector_170" d="M257.735 348.155L258.515 348.925C258.145 349.165 257.895 349.615 257.875 350.055C257.845 350.645 258.255 351.075 258.835 351.095C259.425 351.125 259.895 350.715 259.915 350.145C259.925 349.805 259.775 349.405 259.525 349.155L259.985 348.235L262.925 348.655L262.775 352.055L261.765 352.015L261.875 349.525L260.595 349.335C260.805 349.605 260.935 350.075 260.915 350.515C260.865 351.595 259.985 352.335 258.835 352.285C257.595 352.235 256.755 351.325 256.805 350.105C256.835 349.325 257.215 348.565 257.735 348.155Z" fill="#121212"/>
</g>
</g>
<g id="R26">
<path id="Vector_171" d="M275.325 304.545L273.845 317.615C273.635 319.435 272.215 320.775 270.655 320.595L256.595 319.015C255.045 318.845 253.945 317.225 254.155 315.405L255.635 302.335C255.845 300.515 257.265 299.175 258.825 299.355L272.885 300.935C274.435 301.105 275.525 302.725 275.325 304.545Z" fill="#A8D9E2"/>
<g id="Group_16">
<path id="Vector_172" d="M262.395 306.775L262.555 305.435L265.235 304.425L265.305 303.835L262.775 303.545L262.915 302.345L268.875 303.045L268.585 305.505C268.475 306.485 267.595 307.175 266.605 307.065C265.815 306.975 265.275 306.385 265.175 305.645L262.395 306.775ZM266.735 305.965C267.145 306.015 267.505 305.735 267.545 305.325L267.685 304.115L266.225 303.945L266.085 305.155C266.035 305.575 266.315 305.915 266.735 305.965Z" fill="#121212"/>
<path id="Vector_173" d="M263.205 307.195C265.565 309.985 265.815 310.185 266.295 310.245C266.865 310.315 267.115 309.935 267.165 309.575C267.215 309.125 266.935 308.745 266.415 308.735L266.555 307.625C267.665 307.665 268.305 308.685 268.185 309.755C268.065 310.785 267.285 311.485 266.285 311.375C265.355 311.275 264.945 310.815 263.205 308.725L262.925 311.115L261.905 310.995L262.355 307.105L263.205 307.195Z" fill="#121212"/>
<path id="Vector_174" d="M261.495 313.825C261.625 312.605 262.655 311.725 263.815 311.845C264.305 311.905 264.735 312.165 265.095 312.485L267.505 314.725L267.355 316.045L265.645 314.375C265.635 314.455 265.615 314.525 265.615 314.595C265.375 315.655 264.385 316.355 263.335 316.245C262.155 316.115 261.365 315.015 261.495 313.825ZM263.465 315.125C264.075 315.175 264.605 314.795 264.675 314.165C264.745 313.525 264.285 313.055 263.685 312.995C263.075 312.925 262.535 313.305 262.475 313.945C262.415 314.565 262.855 315.055 263.465 315.125Z" fill="#121212"/>
</g>
</g>
<g id="R27">
<path id="Vector_175" d="M282.385 271.405L279.945 284.335C279.605 286.135 278.085 287.365 276.545 287.075L262.635 284.465C261.095 284.175 260.125 282.485 260.465 280.685L262.905 267.755C263.245 265.955 264.765 264.725 266.305 265.015L280.215 267.625C281.755 267.915 282.725 269.605 282.385 271.405Z" fill="#A8D9E2"/>
<g id="Group_17">
<path id="Vector_176" d="M269.245 272.625L269.495 271.295L272.245 270.485L272.355 269.905L269.855 269.425L270.085 268.235L275.975 269.365L275.505 271.805C275.315 272.775 274.395 273.395 273.415 273.205C272.635 273.055 272.135 272.425 272.095 271.685L269.245 272.625ZM273.625 272.145C274.035 272.225 274.405 271.965 274.485 271.565L274.715 270.365L273.275 270.085L273.045 271.285C272.965 271.695 273.215 272.065 273.625 272.145Z" fill="#121212"/>
<path id="Vector_177" d="M270.025 273.106C272.175 276.056 272.405 276.286 272.885 276.376C273.455 276.486 273.725 276.126 273.805 275.766C273.885 275.326 273.645 274.916 273.115 274.866L273.335 273.766C274.435 273.886 275.005 274.946 274.805 276.006C274.615 277.016 273.775 277.666 272.795 277.486C271.875 277.316 271.495 276.826 269.915 274.616L269.455 276.976L268.455 276.786L269.195 272.936L270.025 273.106Z" fill="#121212"/>
<path id="Vector_178" d="M272.685 281.075L273.225 278.285L274.225 278.475L273.445 282.515L272.615 282.355L268.085 278.665L268.325 277.425L272.685 281.075Z" fill="#121212"/>
</g>
</g>
<g id="R21">
<path id="Vector_179" d="M300.835 482.015L310.925 481.905L312.915 481.885L324.995 481.745C326.125 481.735 327.035 480.455 327.025 478.895L326.935 464.985C326.925 463.425 326.005 462.165 324.875 462.175L312.795 462.305L310.805 462.325L300.715 462.435C299.585 462.445 298.675 463.625 298.685 465.065V465.295L298.775 479.205V479.435C298.785 480.865 299.705 482.025 300.835 482.015Z" fill="#A8D9E2"/>
<g id="Group_18">
<path id="Vector_180" d="M310.855 474.745L309.505 474.765L308.155 472.245L307.565 472.255L307.595 474.795L306.385 474.815L306.305 468.815L308.785 468.785C309.775 468.775 310.575 469.555 310.585 470.555C310.595 471.345 310.085 471.965 309.355 472.155L310.855 474.745ZM309.495 470.545C309.485 470.125 309.165 469.815 308.755 469.815L307.535 469.835L307.555 471.305L308.775 471.285C309.195 471.285 309.505 470.965 309.495 470.545Z" fill="#121212"/>
<path id="Vector_181" d="M311.165 473.885C313.625 471.185 313.795 470.915 313.795 470.425C313.785 469.845 313.385 469.655 313.015 469.655C312.565 469.665 312.215 469.985 312.275 470.515L311.155 470.525C311.055 469.425 311.975 468.655 313.055 468.635C314.085 468.625 314.885 469.305 314.905 470.305C314.925 471.245 314.525 471.715 312.675 473.705L315.085 473.675L315.095 474.695L311.175 474.745L311.165 473.885Z" fill="#121212"/>
<path id="Vector_182" d="M316.765 469.985L315.535 470.965L315.515 469.685L316.825 468.665L317.915 468.655L317.995 474.655L316.825 474.675L316.765 469.985Z" fill="#121212"/>
</g>
</g>
<g id="R22">
<path id="Vector_183" d="M276.605 482.305L283.665 482.195L285.055 482.175L293.515 482.035C294.305 482.025 294.945 480.745 294.935 479.185L294.875 465.275C294.865 463.715 294.225 462.455 293.435 462.465L284.975 462.595L283.585 462.615L276.515 462.725C275.725 462.735 275.085 463.915 275.095 465.355V465.585L275.155 479.495V479.725C275.165 481.165 275.815 482.325 276.605 482.305Z" fill="#A8D9E2"/>
<g id="Group_19">
<path id="Vector_184" d="M282.455 475.205L281.105 475.225L279.755 472.705L279.165 472.715L279.195 475.255L277.985 475.275L277.905 469.275L280.385 469.245C281.375 469.235 282.175 470.015 282.185 471.015C282.195 471.805 281.685 472.425 280.955 472.615L282.455 475.205ZM281.095 471.005C281.085 470.585 280.765 470.275 280.355 470.275L279.135 470.295L279.155 471.765L280.375 471.745C280.795 471.745 281.095 471.425 281.095 471.005Z" fill="#121212"/>
<path id="Vector_185" d="M282.765 474.345C285.225 471.645 285.395 471.375 285.395 470.885C285.385 470.305 284.985 470.115 284.615 470.115C284.165 470.125 283.815 470.445 283.875 470.975L282.755 470.985C282.655 469.885 283.575 469.115 284.655 469.095C285.685 469.085 286.485 469.765 286.505 470.765C286.525 471.705 286.125 472.175 284.275 474.165L286.685 474.135L286.695 475.155L282.775 475.205L282.765 474.345Z" fill="#121212"/>
<path id="Vector_186" d="M287.325 474.285C289.785 471.585 289.955 471.315 289.955 470.825C289.945 470.245 289.545 470.055 289.175 470.055C288.725 470.065 288.375 470.385 288.435 470.915L287.315 470.925C287.215 469.825 288.135 469.055 289.215 469.035C290.245 469.025 291.045 469.705 291.065 470.705C291.085 471.635 290.685 472.105 288.835 474.105L291.245 474.075L291.255 475.095L287.335 475.145L287.325 474.285Z" fill="#121212"/>
</g>
</g>
<g id="R20">
<path id="Vector_187" d="M350.675 501.615L350.335 514.765C350.285 516.595 348.985 518.055 347.415 518.015L333.265 517.665C331.705 517.625 330.475 516.105 330.525 514.275L330.865 501.125C330.915 499.295 332.215 497.835 333.785 497.875L347.935 498.225C349.495 498.265 350.725 499.785 350.675 501.615Z" fill="#A8D9E2"/>
<g id="Group_20">
<path id="Vector_188" d="M338.155 505.525L338.205 504.175L340.795 502.955L340.815 502.365L338.275 502.275L338.315 501.065L344.305 501.275L344.215 503.755C344.175 504.745 343.365 505.505 342.365 505.465C341.575 505.435 340.985 504.895 340.825 504.165L338.155 505.525ZM342.415 504.375C342.835 504.385 343.165 504.085 343.175 503.675L343.215 502.455L341.745 502.405L341.705 503.625C341.695 504.035 342.005 504.365 342.415 504.375Z" fill="#121212"/>
<path id="Vector_189" d="M339.005 505.885C341.585 508.475 341.845 508.655 342.325 508.675C342.905 508.695 343.115 508.305 343.135 507.935C343.155 507.485 342.845 507.125 342.315 507.155L342.365 506.035C343.475 505.985 344.195 506.945 344.155 508.025C344.115 509.055 343.395 509.825 342.395 509.795C341.465 509.765 341.015 509.345 339.115 507.395L339.025 509.805L338.005 509.765L338.145 505.845L339.005 505.885Z" fill="#121212"/>
<path id="Vector_190" d="M340.975 510.585C342.785 510.645 344.015 511.605 343.975 512.925C343.925 514.225 342.635 515.105 340.815 515.035C339.005 514.975 337.775 514.005 337.815 512.705C337.865 511.385 339.165 510.525 340.975 510.585ZM340.855 513.875C342.065 513.915 342.935 513.505 342.955 512.895C342.975 512.275 342.145 511.805 340.935 511.755C339.725 511.715 338.865 512.125 338.845 512.745C338.825 513.355 339.655 513.825 340.855 513.875Z" fill="#121212"/>
</g>
</g>
<g id="R19">
<path id="Vector_191" d="M350.045 532.555L349.385 545.695C349.295 547.525 347.955 548.945 346.395 548.875L332.265 548.175C330.705 548.095 329.515 546.555 329.605 544.715L330.265 531.575C330.355 529.745 331.695 528.325 333.255 528.395L347.385 529.095C348.945 529.175 350.135 530.725 350.045 532.555Z" fill="#A8D9E2"/>
<g id="Group_21">
<path id="Vector_192" d="M337.155 535.565L337.225 534.215L339.835 533.045L339.865 532.455L337.325 532.315L337.385 531.105L343.375 531.425L343.245 533.895C343.195 534.885 342.355 535.625 341.365 535.575C340.575 535.535 339.995 534.985 339.855 534.245L337.155 535.565ZM341.425 534.485C341.845 534.505 342.175 534.205 342.195 533.795L342.265 532.575L340.795 532.495L340.725 533.715C340.705 534.135 341.015 534.465 341.425 534.485Z" fill="#121212"/>
<path id="Vector_193" d="M341.745 537.225L340.855 535.925L342.135 535.995L343.065 537.365L343.005 538.455L337.015 538.135L337.075 536.965L341.745 537.225Z" fill="#121212"/>
<path id="Vector_194" d="M339.385 543.405L336.835 541.315L336.905 539.985L338.715 541.555C338.715 541.475 338.725 541.385 338.735 541.315C338.905 540.245 339.855 539.475 340.895 539.525C342.085 539.585 342.935 540.645 342.885 541.835C342.825 543.055 341.875 544.005 340.695 543.955C340.205 543.935 339.765 543.705 339.385 543.405ZM340.775 542.815C341.375 542.835 341.895 542.415 341.915 541.785C341.935 541.155 341.465 540.675 340.855 540.665C340.245 540.635 339.735 541.065 339.715 541.705C339.675 542.335 340.155 542.795 340.775 542.815Z" fill="#121212"/>
</g>
</g>
<g id="R18">
<path id="Vector_195" d="M334.715 584.265L326.025 594.135C324.815 595.515 322.875 595.795 321.705 594.755L311.075 585.415C309.895 584.385 309.935 582.435 311.145 581.055L319.835 571.175C321.045 569.795 322.985 569.515 324.155 570.545L334.785 579.885C335.955 580.935 335.925 582.885 334.715 584.265Z" fill="#A8D9E2"/>
<g id="Group_22">
<path id="Vector_196" d="M321.845 579.704L322.715 578.674L325.505 579.304L325.885 578.854L323.935 577.214L324.715 576.294L329.305 580.154L327.715 582.054C327.075 582.814 325.965 582.904 325.205 582.264C324.595 581.754 324.465 580.964 324.795 580.294L321.845 579.704ZM325.905 581.414C326.225 581.684 326.675 581.644 326.935 581.334L327.725 580.394L326.595 579.444L325.805 580.384C325.545 580.704 325.585 581.144 325.905 581.414Z" fill="#121212"/>
<path id="Vector_197" d="M324.515 583.784L324.585 582.214L325.565 583.034L325.485 584.684L324.775 585.524L320.185 581.664L320.935 580.774L324.515 583.784Z" fill="#121212"/>
<path id="Vector_198" d="M318.175 586.874C317.355 586.184 317.305 584.984 318.075 584.054C318.845 583.134 320.045 582.984 320.865 583.674C321.375 584.104 321.575 584.714 321.455 585.344C321.885 585.264 322.325 585.374 322.685 585.684C323.375 586.264 323.425 587.264 322.785 588.024C322.145 588.784 321.145 588.904 320.465 588.324C320.105 588.024 319.925 587.604 319.925 587.174C319.335 587.384 318.685 587.294 318.175 586.874ZM318.995 586.024C319.395 586.364 319.945 586.314 320.285 585.904C320.615 585.504 320.585 584.954 320.175 584.614C319.775 584.274 319.185 584.314 318.855 584.704C318.525 585.114 318.595 585.684 318.995 586.024ZM321.995 586.364C321.665 586.084 321.205 586.124 320.925 586.454C320.655 586.774 320.695 587.244 321.025 587.514C321.355 587.794 321.815 587.754 322.095 587.424C322.365 587.104 322.325 586.644 321.995 586.364Z" fill="#121212"/>
</g>
</g>
<g id="R23">
<path id="Vector_199" d="M353.655 632.275L349.545 644.775C348.975 646.515 347.305 647.535 345.815 647.045L332.375 642.635C330.885 642.145 330.155 640.345 330.725 638.595L334.835 626.095C335.405 624.355 337.075 623.335 338.565 623.825L352.005 628.235C353.485 628.725 354.225 630.525 353.655 632.275Z" fill="#A8D9E2"/>
<g id="Group_23">
<path id="Vector_200" d="M340.515 632.305L340.945 631.025L343.775 630.585L343.965 630.025L341.555 629.225L341.935 628.075L347.625 629.965L346.845 632.315C346.535 633.255 345.535 633.745 344.585 633.435C343.835 633.185 343.415 632.505 343.475 631.755L340.515 632.305ZM344.925 632.405C345.315 632.535 345.725 632.335 345.855 631.945L346.245 630.785L344.845 630.325L344.455 631.485C344.325 631.875 344.525 632.265 344.925 632.405Z" fill="#121212"/>
<path id="Vector_201" d="M341.225 632.885C342.975 636.095 343.165 636.345 343.625 636.505C344.175 636.685 344.485 636.375 344.615 636.025C344.755 635.595 344.565 635.165 344.045 635.045L344.405 633.985C345.475 634.245 345.905 635.375 345.565 636.405C345.235 637.385 344.325 637.915 343.375 637.605C342.485 637.315 342.175 636.785 340.905 634.385L340.145 636.665L339.175 636.345L340.415 632.625L341.225 632.885Z" fill="#121212"/>
<path id="Vector_202" d="M339.505 641.275C338.465 640.925 337.915 639.835 338.265 638.785C338.615 637.735 339.625 637.155 340.545 637.465L340.195 638.555C339.835 638.435 339.445 638.695 339.295 639.135C339.145 639.595 339.385 640.045 339.865 640.205C340.335 640.365 340.795 640.145 340.945 639.685L341.095 639.235L341.975 639.515L341.845 639.895V639.905C341.725 640.275 341.915 640.645 342.305 640.775C342.645 640.885 342.985 640.695 343.115 640.325C343.225 639.995 343.085 639.665 342.805 639.575L343.185 638.525C344.015 638.805 344.435 639.745 344.135 640.665C343.835 641.585 342.935 642.085 342.095 641.805C341.655 641.655 341.365 641.305 341.255 640.865C340.785 641.305 340.145 641.485 339.505 641.275Z" fill="#121212"/>
</g>
</g>
<g id="R17">
<g id="Group 33">
<path id="Vector_203" d="M304.195 643.985L291.045 644.015C289.215 644.015 287.715 642.755 287.715 641.195L287.665 627.045C287.655 625.485 289.145 624.215 290.975 624.205L304.125 624.175C305.955 624.175 307.455 625.435 307.455 626.995L307.505 641.145C307.515 642.715 306.035 643.985 304.195 643.985Z" fill="#A8D9E2"/>
<g id="Group_24">
<path id="Vector_204" d="M299.405 631.444H300.755L302.065 633.984H302.655V631.444H303.865L303.855 637.444H301.375C300.385 637.444 299.605 636.654 299.605 635.654C299.605 634.864 300.125 634.254 300.855 634.074L299.405 631.444ZM300.695 635.654C300.695 636.074 301.015 636.394 301.425 636.394H302.645V634.924H301.425C301.015 634.924 300.705 635.244 300.695 635.654Z" fill="#121212"/>
<path id="Vector_205" d="M297.985 636.115L299.235 635.155V636.435L297.915 637.435H296.815L296.825 631.435H297.995L297.985 636.115Z" fill="#121212"/>
<path id="Vector_206" d="M292.855 636.415H295.705V637.435H291.595V636.585L294.365 631.435H295.625L292.855 636.415Z" fill="#121212"/>
</g>
</g>
</g>
<g id="R14">
<path id="Vector_207" d="M238.845 492.305L239.365 502.385L239.465 504.375L240.085 516.445C240.145 517.575 241.455 518.425 243.015 518.355L256.905 517.705C258.465 517.635 259.685 516.655 259.625 515.535L259.005 503.465L258.905 501.475L258.385 491.395C258.325 490.265 257.115 489.405 255.675 489.475L255.445 489.485L241.555 490.135L241.325 490.145C239.905 490.215 238.785 491.175 238.845 492.305Z" fill="#A8D9E2"/>
<g id="Group_25">
<path id="Vector_208" d="M246.635 501.835L246.525 500.485L248.955 498.975L248.905 498.385L246.375 498.595L246.275 497.395L252.255 496.905L252.455 499.375C252.535 500.365 251.815 501.205 250.815 501.295C250.025 501.355 249.375 500.895 249.135 500.185L246.635 501.835ZM250.735 500.185C251.145 500.155 251.445 499.805 251.405 499.405L251.305 498.185L249.835 498.305L249.935 499.525C249.975 499.935 250.315 500.225 250.735 500.185Z" fill="#121212"/>
<path id="Vector_209" d="M251.415 502.855L250.355 501.685L251.625 501.585L252.725 502.815L252.815 503.905L246.835 504.395L246.745 503.235L251.415 502.855Z" fill="#121212"/>
<path id="Vector_210" d="M248.555 509.765L248.515 509.235L247.255 509.335L247.165 508.175L248.425 508.075L248.195 505.235L248.925 505.175L253.115 507.385L253.235 508.845L249.535 509.145L249.575 509.675L248.555 509.765ZM249.435 508.005L251.995 507.795L249.315 506.485L249.435 508.005Z" fill="#121212"/>
</g>
</g>
<g id="R15">
<path id="Vector_211" d="M261.185 529.385L262.805 542.435C263.035 544.255 261.955 545.885 260.405 546.085L246.365 547.845C244.815 548.045 243.375 546.725 243.145 544.905L241.525 531.855C241.295 530.035 242.375 528.405 243.925 528.205L257.965 526.445C259.515 526.245 260.955 527.565 261.185 529.385Z" fill="#A8D9E2"/>
<g id="Group_26">
<path id="Vector_212" d="M249.905 536.045L249.725 534.705L252.075 533.065L251.995 532.485L249.475 532.825L249.315 531.625L255.255 530.825L255.585 533.285C255.715 534.265 255.035 535.155 254.045 535.285C253.265 535.395 252.585 534.955 252.315 534.255L249.905 536.045ZM253.905 534.195C254.315 534.135 254.595 533.785 254.535 533.375L254.375 532.165L252.915 532.365L253.075 533.575C253.135 533.985 253.495 534.245 253.905 534.195Z" fill="#121212"/>
<path id="Vector_213" d="M254.725 536.815L253.605 535.705L254.875 535.535L256.045 536.705L256.195 537.785L250.255 538.585L250.095 537.425L254.725 536.815Z" fill="#121212"/>
<path id="Vector_214" d="M251.185 539.825L252.085 540.445C251.765 540.745 251.595 541.235 251.655 541.675C251.735 542.265 252.205 542.605 252.785 542.535C253.375 542.455 253.755 541.975 253.685 541.405C253.635 541.065 253.425 540.695 253.125 540.495L253.425 539.515L256.395 539.405L256.845 542.775L255.835 542.905L255.505 540.435L254.215 540.475C254.475 540.705 254.675 541.135 254.735 541.585C254.875 542.655 254.145 543.535 252.995 543.695C251.765 543.865 250.775 543.115 250.615 541.905C250.505 541.145 250.745 540.325 251.185 539.825Z" fill="#121212"/>
</g>
</g>
<g id="R16">
<path id="Vector_215" d="M266.965 563.345L269.335 576.285C269.665 578.085 268.685 579.785 267.145 580.065L253.225 582.625C251.685 582.905 250.175 581.675 249.845 579.875L247.475 566.935C247.145 565.135 248.125 563.435 249.665 563.155L263.585 560.595C265.125 560.315 266.635 561.545 266.965 563.345Z" fill="#A8D9E2"/>
<g id="Group_27">
<path id="Vector_216" d="M254.775 570.285L254.525 568.955L256.775 567.195L256.665 566.615L254.165 567.085L253.935 565.895L259.825 564.775L260.285 567.205C260.465 568.185 259.835 569.095 258.855 569.285C258.075 569.435 257.385 569.035 257.065 568.355L254.775 570.285ZM258.675 568.215C259.085 568.135 259.335 567.765 259.265 567.365L259.035 566.165L257.585 566.435L257.815 567.635C257.895 568.045 258.265 568.295 258.675 568.215Z" fill="#121212"/>
<path id="Vector_217" d="M259.635 570.795L258.465 569.745L259.725 569.505L260.955 570.615L261.155 571.695L255.265 572.815L255.045 571.665L259.635 570.795Z" fill="#121212"/>
<path id="Vector_218" d="M255.815 576.185C255.575 574.985 256.285 573.835 257.445 573.605C257.935 573.515 258.415 573.635 258.855 573.835L261.825 575.255L262.075 576.555L259.945 575.475C259.965 575.555 259.965 575.625 259.975 575.695C260.055 576.775 259.335 577.745 258.295 577.955C257.135 578.175 256.055 577.365 255.815 576.185ZM258.085 576.835C258.685 576.705 259.075 576.175 258.945 575.555C258.815 574.925 258.245 574.615 257.655 574.735C257.055 574.845 256.655 575.375 256.785 575.995C256.915 576.625 257.485 576.965 258.085 576.835Z" fill="#121212"/>
</g>
</g>
</g>
<defs>
<clipPath id="clip0_813_3186">
<rect width="841.89" height="595.28" fill="white" transform="translate(595.585 0.694824) rotate(90)"/>
</clipPath>
</defs>
</svg>
