<svg width="241" height="379" viewBox="0 0 241 379" fill="none" xmlns="http://www.w3.org/2000/svg">
<g id="knihovna-1-mob">
<g id="Group">
<path id="Vector" d="M171.852 214.209L135.266 214.275L129.505 211.836L126.681 207.974L126.094 201.524L125.744 138.61V114.347L129.302 109.784L134.226 107.648H138.519C138.519 107.648 145.103 106.497 145.284 97.54C145.418 91.226 141.704 89.216 139.489 88.594C138.563 88.324 137.896 88.301 137.896 88.301L132.306 87.837L130.489 86.819C128.68 85.827 127.416 84.098 126.997 82.076L126.094 77.672V31.259L127.485 29.53C127.8 29.372 128.115 29.225 128.408 29.068H128.422C130.667 26.718 133.809 25.464 137.05 25.42C137.694 25.408 138.327 25.42 138.971 25.42L191.979 25.42C192.927 25.42 193.865 25.408 194.814 25.544C198.452 26.051 201.739 28.243 203.557 31.428C203.68 31.656 203.793 31.868 203.908 32.107V187.418C203.908 187.418 205.488 208.222 199.481 211.6C193.471 214.965 171.852 214.209 171.852 214.209Z" fill="#E95248"/>
<path id="Vector_2" d="M203.902 377.386V339.413V315.576L201.211 307.353L196.576 304.808L187.511 304.48H146.147H127.274L120.67 304.568L116.764 305.843L113.073 310.721L112.052 316.963C112.052 316.963 109.568 322.967 102.898 322.782C96.2289 322.596 94.1049 316.963 94.1049 316.963L92.7188 310.165L88.4518 304.897L80.5219 304.479H10.2228L14.5839 326.286L22.3599 354.86L27.4239 368.036L32.7448 373.597L38.2658 376.38L50.4008 377.385H203.902V377.386Z" fill="#35ABB9"/>
<path id="Vector_3" d="M189.108 25.994V37.876C189.108 37.876 190.406 44.692 177.751 45.407C165.098 46.121 144.647 45.145 144.647 45.145C144.647 45.145 135.632 42.615 139.724 26.909L189.108 25.994Z" fill="#35ABB9"/>
<path id="Vector_4" d="M65.1396 88.273C64.6806 87.897 64.0406 87.716 63.2346 87.716C62.5946 87.716 62.0646 87.814 61.6636 88.022C61.5226 88.091 61.4116 88.174 61.3006 88.258C61.2316 88.3 61.1896 88.342 61.1616 88.397C60.9116 88.648 60.7586 88.954 60.6886 89.316C60.6606 89.467 60.6466 89.635 60.6466 89.802C60.6466 90.107 60.6736 90.386 60.7296 90.664C60.8006 90.942 60.8696 91.22 60.9526 91.526H59.9786C59.7846 90.982 59.6726 90.358 59.6726 89.676C59.6726 88.66 59.9786 87.882 60.6056 87.324C60.9116 87.061 61.2866 86.851 61.7166 86.714C62.1616 86.574 62.6626 86.505 63.2346 86.505C63.7756 86.505 64.2776 86.589 64.7216 86.741C64.8616 86.783 64.9986 86.839 65.1396 86.907C65.4026 87.033 65.6386 87.2 65.8486 87.394C65.9036 87.45 65.9596 87.504 66.0006 87.56C66.1536 87.714 66.2776 87.881 66.3766 88.062C66.6686 88.563 66.8076 89.147 66.8076 89.814C66.8076 90.522 66.6686 91.178 66.3636 91.775L65.4166 91.372C65.5286 91.136 65.6266 90.899 65.7086 90.635C65.7936 90.371 65.8356 90.092 65.8356 89.801C65.8356 89.647 65.8206 89.495 65.7936 89.342C65.7376 89.049 65.6126 88.8 65.4446 88.577C65.3606 88.467 65.2486 88.369 65.1396 88.273Z" fill="#E95248"/>
<path id="Vector_5" d="M66.7109 97.353V98.495H59.7719V97.353H62.899V94.155H59.7719V93.014H66.7109V94.155H63.8739V97.353H66.7109Z" fill="#E95248"/>
<path id="Vector_6" d="M66.7109 101.457V100.315H59.7719V101.457H66.7109Z" fill="#E95248"/>
<path id="Vector_7" d="M59.7719 103.292H66.7109V104.418H60.744V107.368H59.7719V103.292Z" fill="#E95248"/>
<path id="Vector_8" d="M59.7719 108.548H66.7109V109.689H60.744V112.625H59.7719V108.548Z" fill="#E95248"/>
<path id="Vector_9" d="M65.8888 121.665C66.5148 121.107 66.8228 120.315 66.8228 119.272C66.8228 118.23 66.5147 117.423 65.9037 116.852C65.2927 116.295 64.4018 116.003 63.2608 116.003C62.6908 116.003 62.1908 116.072 61.7448 116.212C61.6338 116.253 61.5218 116.295 61.4248 116.338C61.2168 116.435 61.0218 116.532 60.8568 116.656C60.7578 116.712 60.6888 116.783 60.6058 116.851C59.9948 117.408 59.6728 118.214 59.6728 119.271C59.6728 120.299 59.9938 121.093 60.6198 121.664C61.2448 122.233 62.1208 122.512 63.2468 122.512C64.3878 122.512 65.2638 122.234 65.8888 121.665ZM61.2998 120.789C61.0768 120.622 60.9248 120.413 60.8148 120.163C60.7718 120.064 60.7448 119.969 60.7158 119.856C60.6738 119.674 60.6468 119.48 60.6468 119.272C60.6468 118.59 60.8698 118.076 61.2998 117.728C61.7448 117.381 62.3988 117.214 63.2468 117.214C64.0968 117.214 64.7497 117.381 65.1797 117.728C65.6257 118.076 65.8488 118.59 65.8488 119.272C65.8488 119.954 65.6257 120.455 65.1797 120.802C64.7497 121.136 64.0968 121.303 63.2468 121.303C62.3848 121.303 61.7328 121.136 61.2998 120.789Z" fill="#E95248"/>
<path id="Vector_10" d="M60.3549 124.654C60.8149 124.18 61.4399 123.944 62.2469 123.944H66.7119V125.086H62.3169C61.7459 125.086 61.3289 125.211 61.0509 125.476C60.7849 125.753 60.6469 126.157 60.6469 126.7C60.6469 127.77 61.2039 128.313 62.3309 128.313H66.7119V129.439H62.2189C61.7049 129.439 61.2609 129.329 60.8839 129.119C60.4939 128.898 60.2019 128.577 59.9949 128.16C59.7849 127.743 59.6739 127.242 59.6739 126.672C59.6729 125.808 59.9089 125.141 60.3549 124.654Z" fill="#E95248"/>
<path id="Vector_11" d="M65.7369 132.485V130.439H66.7109V135.654H65.7369V133.611H59.7719V132.485H65.7369Z" fill="#E95248"/>
<path id="Vector_12" d="M59.7719 143.611V138.646H60.5639L65.7369 142.135V138.743H66.7109V143.512H65.9169L60.744 140.007V143.611H59.7719Z" fill="#E95248"/>
<path id="Vector_13" d="M67.2667 147.784V147.046H67.3907C67.6137 147.227 67.8507 147.407 68.1287 147.602C68.3937 147.798 68.6297 147.95 68.8237 148.061V149.355H68.7257C68.5317 149.188 68.2817 148.937 67.9747 148.618C67.6697 148.283 67.4337 148.003 67.2667 147.784Z" fill="#E95248"/>
<path id="Vector_14" d="M65.8888 150.162C66.5148 149.591 66.8228 148.798 66.8228 147.767C66.8228 146.71 66.5147 145.905 65.9037 145.349C65.2927 144.778 64.4018 144.5 63.2608 144.5C62.1208 144.5 61.2308 144.777 60.6058 145.334C59.9948 145.904 59.6728 146.71 59.6728 147.754C59.6728 148.783 59.9938 149.59 60.6198 150.161C61.2448 150.716 62.1208 150.995 63.2468 150.995C64.3878 150.996 65.2638 150.716 65.8888 150.162ZM61.2998 149.283C60.8688 148.936 60.6468 148.437 60.6468 147.755C60.6468 147.073 60.8698 146.573 61.2998 146.226C61.7448 145.877 62.3988 145.711 63.2468 145.711C64.0968 145.711 64.7497 145.877 65.1797 146.226C65.6257 146.574 65.8488 147.088 65.8488 147.768C65.8488 148.438 65.6257 148.952 65.1797 149.284C64.7497 149.633 64.0968 149.8 63.2468 149.8C62.3848 149.798 61.7328 149.618 61.2998 149.283Z" fill="#E95248"/>
<path id="Vector_15" d="M59.7719 153.206V152.177H66.7109V153.555L61.2029 156.949V156.976C61.2859 156.976 61.5509 156.962 62.0099 156.949C62.4539 156.92 62.816 156.92 63.08 156.92H66.7109V157.95H59.7719V156.559L65.3059 153.152V153.109L64.9989 153.138C64.4009 153.18 63.859 153.206 63.373 153.206H59.7719Z" fill="#E95248"/>
<path id="Vector_16" d="M88.6151 173.024L87.209 61.0139V60.8879H86.277L86.195 61.0269L82.592 67.2159L78.627 70.0529L73.301 71.4719L63.316 71.5129H49.16L40.885 70.7779L29.773 73.0849L23.167 78.1619C23.167 78.1619 20.261 83.2239 16.478 96.6439C16.033 98.0219 15.616 99.4539 15.199 100.955C9.40004 121.595 5.38003 152.816 3.21103 173.024C1.93203 184.833 1.29202 192.884 1.29202 192.884H86.155L87.795 194.427L88.894 195.455L88.6151 173.024ZM18.159 96.0319C18.826 93.5149 19.508 91.0119 20.218 88.5229C20.872 86.2129 21.413 83.8489 22.555 81.7219C25.6 76.0469 31.469 72.8339 37.825 72.8069C46.323 72.7789 54.834 72.8069 63.331 72.8069C66.279 72.8069 69.228 72.8479 72.19 72.8069C78.211 72.7239 83.706 69.3159 86.238 63.8509C86.251 65.6869 86.278 67.5219 86.306 69.3579C86.445 80.6239 86.585 91.8879 86.723 103.153C86.89 116.728 87.058 130.314 87.225 143.887L87.585 173.024H27.463L27.463 116.671C27.463 109.647 23.0141 103.681 16.7701 101.442C17.2291 99.6349 17.688 97.8269 18.159 96.0319Z" fill="#E95248"/>
<path id="Vector_17" d="M87.8636 196.542V196.291C87.8346 195.665 87.8066 195.053 87.7926 194.427C87.6416 189.338 87.7106 184.206 87.6546 179.115L87.5846 173.023L87.2246 143.886C87.0576 130.313 86.8896 116.727 86.7226 103.152C86.5846 91.887 86.4446 80.623 86.3056 69.357C86.2776 67.521 86.2496 65.686 86.2376 63.85C86.2216 62.905 86.2096 61.972 86.1956 61.026C86.1676 59.107 86.1536 57.188 86.1256 55.269C86.1106 54.364 87.0846 54.087 87.6846 54.449C87.9606 54.588 88.1416 54.866 88.1576 55.269C88.1576 55.352 88.1576 55.435 88.1716 55.505C88.4206 61.222 88.3106 66.979 88.3806 72.695C88.5196 84.432 88.6716 96.17 88.8116 107.922C88.9786 121.496 89.1456 135.083 89.3116 148.657C89.4096 156.779 89.5056 164.901 89.6186 173.022C89.6456 176.166 89.6876 179.309 89.7286 182.452C89.7856 187.152 89.8406 191.839 89.9096 196.541C89.9206 197.85 87.8916 197.85 87.8636 196.542Z" fill="#4A4A4A"/>
<path id="Vector_18" d="M72.9131 185.777H74.2061L72.2451 182.703C73.1501 182.343 73.5951 181.717 73.5951 180.854C73.5951 180.172 73.3731 179.671 72.9421 179.338C72.5101 179.003 71.8561 178.836 70.9531 178.836H68.9921V185.776H70.1331V182.995H71.2591L72.9131 185.777ZM70.1321 182.063V179.797H70.8831C71.3981 179.797 71.7861 179.879 72.0371 180.047C72.3011 180.214 72.4261 180.505 72.4261 180.896C72.4261 181.271 72.3011 181.578 72.0651 181.758C71.8291 181.966 71.4521 182.063 70.9111 182.063H70.1321ZM66.8781 185.777H68.0731L65.4861 178.796H64.2491L61.6471 185.777H62.8431L63.5251 183.844H66.1821L66.8781 185.777ZM63.8591 182.871L64.4851 181.063C64.6521 180.59 64.7761 180.172 64.8611 179.784C64.8881 179.908 64.9571 180.102 65.0411 180.382C65.1251 180.647 65.1801 180.855 65.2351 180.979L65.8751 182.872L63.8591 182.871ZM60.4801 185.25C60.9121 184.888 61.1201 184.401 61.1201 183.776C61.1201 183.316 61.0091 182.954 60.7861 182.676C60.5501 182.411 60.1891 182.231 59.7021 182.133V182.092C60.1051 182.021 60.3981 181.84 60.6061 181.577C60.8151 181.312 60.9251 180.977 60.9251 180.56C60.9251 179.963 60.7021 179.532 60.2851 179.253C59.8531 178.962 59.1581 178.835 58.2131 178.835H56.1541V185.775H58.6581C59.4371 185.777 60.0341 185.596 60.4801 185.25ZM57.2811 181.703V179.784H58.2671C58.7831 179.784 59.1581 179.853 59.3941 179.992C59.6171 180.144 59.7421 180.382 59.7421 180.702C59.7421 181.063 59.6311 181.327 59.4231 181.48C59.2001 181.618 58.8531 181.703 58.3801 181.703H57.2811ZM57.2811 184.819V182.621H58.4351C58.9351 182.621 59.3111 182.703 59.5611 182.885C59.7971 183.052 59.9371 183.317 59.9371 183.678C59.9371 184.081 59.8121 184.36 59.5611 184.554C59.3241 184.721 58.9631 184.82 58.4911 184.82L57.2811 184.819ZM50.6621 177.557C50.9941 177.265 51.2321 177.016 51.3971 176.822V176.723H50.1041C49.9941 176.904 49.8401 177.14 49.6451 177.419C49.4511 177.684 49.2701 177.934 49.0891 178.155V178.281H49.8251C50.0491 178.115 50.3271 177.878 50.6621 177.557ZM50.3981 183.08L52.7061 178.837H51.4701L49.8271 181.995L48.1861 178.837H46.9491L49.2571 183.12V185.777H50.3991V183.08H50.3981ZM46.9481 178.836H45.7791L44.3331 183.119C44.2781 183.273 44.2071 183.51 44.1251 183.83C44.0411 184.149 43.9711 184.428 43.9311 184.664C43.9031 184.511 43.8471 184.261 43.7631 183.941C43.6801 183.621 43.5971 183.356 43.5281 183.148L42.0811 178.835H40.8981L43.3321 185.775H44.5291L46.9481 178.836ZM39.4801 184.929C40.0511 184.303 40.3281 183.427 40.3281 182.286C40.3281 181.16 40.0521 180.283 39.4801 179.658C38.9241 179.031 38.1171 178.726 37.0871 178.726C36.0441 178.726 35.2381 179.031 34.6681 179.642C34.1111 180.255 33.8191 181.131 33.8191 182.286C33.8191 183.427 34.1111 184.316 34.6681 184.929C35.2241 185.554 36.0301 185.861 37.0871 185.861C38.1161 185.861 38.9241 185.554 39.4801 184.929ZM35.5441 184.234C35.2101 183.789 35.0291 183.149 35.0291 182.287C35.0291 181.438 35.2101 180.799 35.5571 180.354C35.8911 179.908 36.4061 179.699 37.0861 179.699C37.7681 179.699 38.2701 179.908 38.6161 180.354C38.9511 180.798 39.1171 181.438 39.1171 182.287C39.1171 183.163 38.9511 183.803 38.6021 184.248C38.2691 184.679 37.7531 184.901 37.0851 184.901C36.4061 184.901 35.8921 184.678 35.5441 184.234ZM33.2491 178.836H32.0661L30.6211 183.119C30.5641 183.273 30.5091 183.51 30.4121 183.83C30.3281 184.149 30.2731 184.428 30.2311 184.664C30.2041 184.511 30.1471 184.261 30.0631 183.941C29.9671 183.621 29.8961 183.356 29.8141 183.148L28.3671 178.835H27.2001L29.6201 185.775H30.8151L33.2491 178.836ZM24.8771 177.557C25.1961 177.265 25.4471 177.016 25.6131 176.822V176.723H24.3061C24.1951 176.904 24.0411 177.14 23.8611 177.419C23.6671 177.684 23.4861 177.934 23.3051 178.155V178.281H24.0411C24.2651 178.101 24.5431 177.878 24.8771 177.557ZM26.0031 185.777H27.2001L24.6121 178.796H23.3751L20.7731 185.777H21.9701L22.6511 183.844H25.3071L26.0031 185.777ZM22.9851 182.871L23.6111 181.063C23.7791 180.59 23.9031 180.172 23.9851 179.784C24.0141 179.908 24.0701 180.102 24.1531 180.382C24.2371 180.647 24.3061 180.855 24.3481 180.979L25.0011 182.872L22.9851 182.871ZM20.7741 185.777L18.0911 181.87C18.6181 181.271 19.4941 180.257 20.7051 178.837H19.4111L17.5331 181.05C17.2281 181.397 16.9211 181.759 16.6161 182.149V178.837H15.4741V185.777H16.6161V183.176L17.2841 182.634L19.4661 185.777H20.7741Z" fill="white"/>
<path id="Vector_19" d="M60.6468 89.802C60.6468 89.635 60.6608 89.467 60.6888 89.316C60.7158 89.134 60.7718 88.968 60.8568 88.814C60.9248 88.648 61.0218 88.509 61.1618 88.397C61.1888 88.342 61.2308 88.3 61.3008 88.258C61.4118 88.174 61.5238 88.091 61.6638 88.022C62.0648 87.814 62.5958 87.716 63.2348 87.716C64.0418 87.716 64.6808 87.897 65.1398 88.273C65.2488 88.369 65.3618 88.467 65.4448 88.579C65.6268 88.802 65.7378 89.051 65.7938 89.344C65.8208 89.497 65.8358 89.649 65.8358 89.803C65.8358 90.094 65.7938 90.373 65.7088 90.637C65.6268 90.902 65.5287 91.138 65.4167 91.374L66.3638 91.777C66.6698 91.18 66.8078 90.524 66.8078 89.816C66.8078 89.149 66.6688 88.565 66.3768 88.064C66.2778 87.883 66.1538 87.716 66.0008 87.562C65.9598 87.506 65.9028 87.452 65.8488 87.396C65.6388 87.202 65.4028 87.035 65.1398 86.909C64.9988 86.841 64.8618 86.785 64.7218 86.743C64.6098 86.7 64.4988 86.673 64.3728 86.644C64.2628 86.618 64.1368 86.59 64.0258 86.576C63.9838 86.562 63.9558 86.562 63.9138 86.549C63.8458 86.549 63.7747 86.535 63.7057 86.535C63.5527 86.507 63.3868 86.507 63.2338 86.507C63.0928 86.507 62.9558 86.507 62.8298 86.535C62.6208 86.549 62.4398 86.562 62.2598 86.604H62.2038C62.1618 86.604 62.1068 86.618 62.0638 86.63C61.9388 86.658 61.8278 86.686 61.7158 86.715C61.2848 86.853 60.9098 87.063 60.6048 87.325C59.9778 87.883 59.6718 88.661 59.6718 89.677C59.6718 90.359 59.7828 90.983 59.9778 91.527H60.9518C60.8688 91.22 60.7848 90.943 60.7288 90.665C60.6728 90.387 60.6468 90.107 60.6468 89.802ZM66.7108 97.353H63.8737V94.155H66.7108V93.014H59.7718V94.155H62.8997V97.353H59.7718V98.495H66.7108V97.353ZM66.7108 100.315H59.7718V101.457H66.7108V100.315ZM60.7438 104.418H66.7108V103.292H59.7718V107.354H60.7448L60.7438 104.418ZM60.7438 109.689H66.7108V108.548H59.7718V112.624H60.7448L60.7438 109.689ZM65.8888 121.665C66.5148 121.107 66.8228 120.315 66.8228 119.272C66.8228 118.23 66.5147 117.423 65.9037 116.852C65.2927 116.295 64.4018 116.003 63.2608 116.003C62.6908 116.003 62.1908 116.072 61.7448 116.212C61.6338 116.253 61.5218 116.295 61.4248 116.338C61.2168 116.435 61.0218 116.532 60.8568 116.656C60.7578 116.712 60.6888 116.783 60.6058 116.851C59.9948 117.408 59.6728 118.214 59.6728 119.271C59.6728 120.299 59.9938 121.093 60.6198 121.664C61.2448 122.233 62.1208 122.512 63.2468 122.512C64.3878 122.512 65.2638 122.234 65.8888 121.665ZM61.2998 120.789C61.0768 120.622 60.9248 120.413 60.8148 120.163C60.7718 120.064 60.7448 119.969 60.7158 119.856C60.6738 119.674 60.6468 119.48 60.6468 119.272C60.6468 118.59 60.8698 118.076 61.2998 117.728C61.7448 117.381 62.3988 117.214 63.2468 117.214C64.0968 117.214 64.7497 117.381 65.1797 117.728C65.6257 118.076 65.8488 118.59 65.8488 119.272C65.8488 119.954 65.6257 120.455 65.1797 120.802C64.7497 121.136 64.0968 121.303 63.2468 121.303C62.3848 121.303 61.7328 121.136 61.2998 120.789ZM66.7108 128.312H62.3298C61.2028 128.312 60.6458 127.769 60.6458 126.699C60.6458 126.156 60.7848 125.753 61.0498 125.475C61.3268 125.21 61.7438 125.085 62.3158 125.085H66.7108V123.943H62.2458C61.4388 123.943 60.8138 124.179 60.3538 124.653C59.9088 125.14 59.6718 125.807 59.6718 126.67C59.6718 127.24 59.7828 127.741 59.9928 128.158C60.1998 128.575 60.4918 128.896 60.8818 129.117C61.2588 129.327 61.7028 129.437 62.2168 129.437H66.7097V128.312H66.7108ZM66.7108 130.439H65.7368V132.485H59.7708V133.611H65.7368V135.654H66.7108V130.439ZM60.7438 139.994L65.9167 143.513H66.7108V138.743H65.7368V142.136L60.5628 138.647H59.7708V143.612H60.7438V139.994ZM66.7108 156.918H63.0798C62.8148 156.918 62.4538 156.918 62.0098 156.947C61.5508 156.961 61.2858 156.974 61.2028 156.974V156.947L66.7108 153.553V152.175H59.7718V153.204H63.3737C63.8597 153.204 64.4018 153.178 64.9998 153.136L65.3068 153.107V153.15L59.7728 156.557V157.948H66.7118V156.918H66.7108Z" fill="#E95248"/>
<path id="Vector_20" d="M66.7368 162.706V161.468L59.7708 158.867V160.062L61.6898 160.744V163.4L59.7708 164.095V165.292L66.7368 162.706ZM62.6768 161.078L64.4858 161.704C64.9448 161.872 65.3768 161.996 65.7648 162.079C65.6388 162.108 65.4318 162.177 65.1668 162.26C64.8888 162.344 64.6938 162.4 64.5678 162.455L62.6758 163.108V161.078H62.6768Z" fill="#E95248"/>
<path id="Vector_21" d="M13.9236 244.119V243.077H16.7776V240.159H13.9236V239.124H20.2556V240.159H17.6646V243.077H20.2556V244.119H13.9236ZM13.9236 245.782H20.2556V246.819H14.8136V249.5H13.9236V245.782ZM13.9236 254.521L15.6826 253.886V251.465L13.9236 250.848V249.755L20.2826 252.125V253.25L13.9236 255.619V254.521ZM16.5736 253.616L18.2986 253.023C18.4166 252.978 18.5976 252.919 18.8446 252.844C19.0926 252.764 19.2736 252.713 19.3896 252.683C19.0356 252.604 18.6446 252.491 18.2236 252.341L16.5746 251.769V253.616H16.5736ZM20.2556 260.063V261.138L13.9236 258.92V257.826L20.2556 255.619V256.684L16.3186 258.003C16.1306 258.071 15.8886 258.148 15.5936 258.226C15.2956 258.303 15.0736 258.354 14.9316 258.375C15.1496 258.413 15.4086 258.474 15.6966 258.552C15.9866 258.63 16.1976 258.694 16.3346 258.74L20.2556 260.063ZM13.9236 267.25V265.98L18.9686 262.864V262.831L18.6896 262.853C18.1526 262.892 17.6616 262.914 17.2156 262.914H13.9236V261.974H20.2556V263.232L15.2356 266.336V266.361C15.3036 266.355 15.5456 266.346 15.9626 266.328C16.3796 266.311 16.7066 266.3 16.9406 266.3H20.2556V267.251L13.9236 267.25ZM13.9236 268.92H20.2556L20.2556 269.954H13.9236V268.92ZM20.7636 268.857H20.8706C21.0736 269.025 21.2996 269.196 21.5486 269.368C21.7956 269.543 22.0076 269.681 22.1836 269.781V270.964H22.0926C21.9166 270.816 21.6926 270.591 21.4106 270.292C21.1316 269.992 20.9146 269.737 20.7636 269.535V268.857Z" fill="#414142"/>
<path id="Vector_22" d="M10.2756 245.26V246.335L3.94464 244.117V243.023L10.2756 240.815V241.881L6.34064 243.201C6.15264 243.267 5.91165 243.345 5.61365 243.422C5.31665 243.5 5.09464 243.55 4.95364 243.573C5.17164 243.609 5.42965 243.672 5.71765 243.749C6.00665 243.827 6.21963 243.891 6.35663 243.938L10.2756 245.26ZM5.66565 250.823C5.10265 250.823 4.66063 250.619 4.33963 250.212C4.02263 249.804 3.86163 249.244 3.86163 248.528C3.86163 247.81 3.97165 247.222 4.19165 246.767H5.16965C5.03665 247.058 4.93165 247.367 4.85565 247.691C4.77565 248.014 4.73663 248.317 4.73663 248.595C4.73663 249.006 4.81464 249.31 4.96964 249.502C5.12564 249.697 5.33364 249.794 5.59564 249.794C5.83464 249.794 6.03464 249.706 6.19864 249.527C6.36264 249.348 6.55763 248.978 6.78363 248.418C7.01563 247.84 7.28663 247.433 7.58463 247.197C7.88463 246.961 8.24665 246.843 8.66965 246.843C9.19565 246.843 9.61163 247.031 9.91663 247.406C10.2206 247.78 10.3696 248.285 10.3696 248.918C10.3696 249.523 10.2376 250.126 9.97165 250.728L9.12564 250.399C9.36164 249.836 9.48065 249.334 9.48065 248.89C9.48065 248.556 9.40863 248.302 9.26163 248.127C9.11463 247.955 8.92365 247.87 8.68265 247.87C8.51965 247.87 8.37963 247.904 8.26263 247.973C8.14463 248.04 8.03362 248.156 7.93362 248.316C7.82862 248.472 7.68965 248.759 7.51965 249.172C7.32565 249.637 7.14664 249.979 6.97964 250.194C6.80964 250.41 6.62264 250.57 6.41064 250.673C6.19764 250.773 5.95065 250.823 5.66565 250.823ZM3.94464 254.234V253.201H9.38864V251.339H10.2756L10.2756 256.099H9.38864V254.235H3.94464V254.234ZM10.2756 262.028H6.18063C5.71163 262.028 5.30364 261.928 4.95364 261.73C4.60164 261.528 4.33265 261.239 4.14365 260.86C3.95565 260.479 3.86063 260.024 3.86063 259.497C3.86063 258.71 4.06764 258.099 4.48364 257.665C4.89664 257.229 5.46962 257.011 6.19662 257.011H10.2746V258.049H6.27164C5.74564 258.049 5.36265 258.169 5.11365 258.414C4.86465 258.657 4.74164 259.03 4.74164 259.533C4.74164 260.509 5.25563 260.996 6.27863 260.996H10.2746V262.028H10.2756ZM8.36465 267.84C7.70265 267.84 7.19663 267.624 6.84363 267.193C6.48963 266.757 6.31464 266.142 6.31464 265.342V264.684H3.94464V263.648H10.2756V265.474C10.2756 266.267 10.1166 266.856 9.79465 267.25C9.46965 267.645 8.99565 267.84 8.36465 267.84ZM7.18463 264.684V265.233C7.18463 265.765 7.27663 266.155 7.46463 266.402C7.64763 266.652 7.93664 266.776 8.32864 266.776C8.69264 266.776 8.96463 266.666 9.14163 266.444C9.32163 266.22 9.41263 265.875 9.41263 265.403V264.684H7.18463Z" fill="#414142"/>
<path id="Vector_23" d="M209.347 22.6339V20.585L212.14 19.969C212.257 19.941 212.488 19.896 212.84 19.831C213.189 19.768 213.478 19.723 213.711 19.693C213.522 19.671 213.288 19.6319 213.005 19.5799C212.72 19.5269 212.462 19.4759 212.224 19.4249C211.988 19.3729 211.029 19.16 209.347 18.785V16.738L215.758 15.1479V16.822L212.546 17.519C211.836 17.678 211.266 17.7839 210.847 17.8419C211.145 17.8799 211.552 17.947 212.063 18.045C212.577 18.145 212.999 18.237 213.334 18.321L215.759 18.8859V20.49L213.334 21.04C212.946 21.133 212.498 21.2279 211.989 21.3249C211.479 21.4229 211.1 21.4849 210.848 21.5189C211.171 21.5559 211.733 21.6569 212.536 21.8279L215.759 22.5389V24.2109L209.347 22.6339ZM214.43 27.8989C214.43 27.4859 214.262 27.1679 213.925 26.9349C213.587 26.7039 213.122 26.585 212.529 26.585C211.293 26.585 210.676 27.0539 210.676 27.9929C210.676 28.2789 210.718 28.5549 210.797 28.8209C210.875 29.0859 210.97 29.3519 211.079 29.6229H209.615C209.379 29.0859 209.26 28.48 209.26 27.805C209.26 26.838 209.54 26.0969 210.104 25.5799C210.665 25.0609 211.475 24.8059 212.536 24.8059C213.2 24.8059 213.785 24.9299 214.288 25.1829C214.791 25.4319 215.177 25.7909 215.449 26.2629C215.72 26.7319 215.854 27.282 215.854 27.915C215.854 28.609 215.705 29.2709 215.402 29.9049L214.036 29.3709C214.149 29.1349 214.242 28.901 214.318 28.665C214.392 28.425 214.43 28.1729 214.43 27.8989Z" fill="#414142"/>
<path id="Vector_24" d="M209.058 356.825V354.778L211.853 354.162C211.97 354.134 212.202 354.089 212.55 354.024C212.899 353.961 213.19 353.915 213.424 353.887C213.234 353.864 212.999 353.824 212.716 353.772C212.434 353.719 212.174 353.668 211.938 353.617C211.702 353.567 210.74 353.352 209.059 352.978V350.929L215.472 349.342V351.012L212.258 351.711C211.548 351.868 210.98 351.976 210.56 352.034C210.859 352.074 211.265 352.138 211.777 352.238C212.289 352.338 212.712 352.428 213.048 352.513L215.472 353.078V354.682L213.048 355.234C212.66 355.326 212.21 355.421 211.7 355.517C211.193 355.614 210.813 355.679 210.56 355.71C210.883 355.749 211.447 355.851 212.249 356.022L215.472 356.733V358.404L209.058 356.825ZM214.143 362.091C214.143 361.678 213.973 361.36 213.638 361.125C213.298 360.895 212.832 360.777 212.239 360.777C211.004 360.777 210.388 361.246 210.388 362.185C210.388 362.469 210.43 362.745 210.507 363.013C210.587 363.278 210.682 363.544 210.792 363.814H209.327C209.089 363.278 208.972 362.672 208.972 361.997C208.972 361.03 209.252 360.289 209.815 359.771C210.375 359.255 211.185 358.997 212.248 358.997C212.912 358.997 213.495 359.121 214 359.374C214.5 359.623 214.889 359.983 215.16 360.455C215.431 360.924 215.566 361.474 215.566 362.105C215.566 362.802 215.416 363.464 215.111 364.094L213.747 363.563C213.858 363.326 213.953 363.091 214.03 362.856C214.103 362.618 214.143 362.364 214.143 362.091Z" fill="#414142"/>
<g id="R1">
<path id="Vector_25" d="M37.7018 298.165V287.633C37.7018 286.165 38.7139 284.976 39.9639 284.976H51.2849C52.5349 284.976 53.5479 286.165 53.5479 287.633V298.164C53.5479 299.631 52.5349 300.822 51.2849 300.822H39.9639C38.7139 300.823 37.7018 299.631 37.7018 298.165Z" fill="#FBED62"/>
<path id="Vector_26" d="M45.3156 291.864C45.4646 292.445 45.9496 292.859 46.5826 292.859C47.3816 292.859 48.0146 292.234 48.0146 291.442V289.462H43.2226V290.425H45.2546V290.898L43.2226 291.949V293.027L45.3156 291.864ZM46.0026 291.403V290.424H47.1796V291.403C47.1796 291.729 46.9216 291.984 46.5896 291.984C46.2566 291.984 46.0026 291.737 46.0026 291.403Z" fill="#252525"/>
<path id="Vector_27" d="M43.2226 294.47V295.404H48.0146V294.528L47.2156 293.474H46.1926L46.9596 294.47H43.2226Z" fill="#252525"/>
</g>
<g id="R4">
<path id="Vector_28" d="M130.024 246.572L130.01 256.86C130.009 258.294 129.016 259.456 127.794 259.456L116.725 259.45C115.505 259.452 114.514 258.288 114.517 256.855L114.53 246.567C114.53 245.132 115.522 243.97 116.747 243.97L127.815 243.975C129.035 243.975 130.024 245.137 130.024 246.572Z" fill="#FBED62"/>
<path id="Vector_29" d="M122.189 250.465C122.334 251.047 122.82 251.461 123.456 251.461C124.254 251.461 124.885 250.836 124.885 250.043V248.063H120.093V249.027H122.125V249.5L120.093 250.551V251.628L122.189 250.465ZM122.873 250.005V249.026H124.049V250.005C124.049 250.33 123.793 250.586 123.46 250.586C123.129 250.586 122.873 250.338 122.873 250.005Z" fill="#252525"/>
<path id="Vector_30" d="M121.92 255.634V255.213H124.885V254.043L121.691 252.013H121.101V254.285H120.094V255.213H121.101V255.634H121.92ZM121.92 253.073L123.972 254.286H121.92V253.073Z" fill="#252525"/>
</g>
<g id="R5">
<path id="Vector_31" d="M146.828 246.575L146.811 256.861C146.81 258.296 145.817 259.458 144.595 259.456L133.529 259.45C132.305 259.45 131.317 258.286 131.32 256.852L131.335 246.565C131.338 245.131 132.331 243.967 133.552 243.967L144.621 243.975C145.842 243.977 146.828 245.139 146.828 246.575Z" fill="#FBED62"/>
<path id="Vector_32" d="M139.295 250.523C139.442 251.104 139.926 251.518 140.562 251.518C141.36 251.518 141.991 250.893 141.991 250.1V248.121H137.199V249.085H139.231V249.558L137.199 250.605V251.686L139.295 250.523ZM139.979 250.063V249.084H141.155V250.063C141.155 250.389 140.898 250.643 140.565 250.643C140.234 250.643 139.979 250.395 139.979 250.063Z" fill="#252525"/>
<path id="Vector_33" d="M137.134 253.959C137.134 254.933 137.838 255.629 138.829 255.629C139.752 255.629 140.433 255.009 140.433 254.146C140.433 253.789 140.318 253.424 140.137 253.213L141.168 253.321V255.315H141.979V252.599L139.615 252.37L139.276 253.115C139.486 253.307 139.621 253.621 139.621 253.896C139.621 254.356 139.261 254.695 138.789 254.695C138.323 254.695 137.984 254.369 137.984 253.896C137.984 253.545 138.169 253.172 138.458 252.968L137.812 252.382C137.408 252.725 137.134 253.354 137.134 253.959Z" fill="#252525"/>
</g>
<path id="Vector_34" d="M180.147 75.071C179.42 75.071 178.868 74.833 178.481 74.359C178.092 73.881 177.898 73.208 177.898 72.332V71.608H175.304V70.473H182.243V72.474C182.243 73.342 182.066 73.99 181.713 74.421C181.358 74.856 180.837 75.071 180.147 75.071ZM178.855 71.608V72.213C178.855 72.793 178.956 73.222 179.159 73.493C179.362 73.766 179.677 73.9 180.108 73.9C180.507 73.9 180.804 73.78 181.001 73.536C181.197 73.292 181.297 72.911 181.297 72.396V71.607L178.855 71.608ZM179.018 77.59V78.377C179.018 78.906 179.117 79.29 179.311 79.526C179.508 79.762 179.799 79.881 180.185 79.881C180.578 79.881 180.857 79.754 181.028 79.498C181.199 79.241 181.286 78.852 181.286 78.337V77.589L179.018 77.59ZM178.075 77.59H175.304V76.452H182.243V78.415C182.243 79.311 182.075 79.972 181.742 80.404C181.407 80.834 180.899 81.051 180.224 81.051C179.357 81.051 178.742 80.599 178.373 79.701L175.304 81.661V80.371L178.075 78.708V77.59ZM175.304 86.595V82.668H182.243V86.595H181.285V83.805H179.396V86.419H178.445V83.805H176.267V86.595H175.304ZM175.304 92.457V87.495H176.092L181.27 90.992V87.588H182.243V92.364H181.447L176.277 88.85V92.456L175.304 92.457ZM175.304 97.614V93.687H182.243V97.614H181.285V94.823H179.396V97.438H178.445V94.823H176.267V97.614H175.304ZM175.304 104.898V103.507L180.835 100.091V100.055L180.526 100.077C179.937 100.123 179.399 100.143 178.911 100.143H175.304V99.111H182.243V100.49L176.743 103.895V103.92C176.817 103.916 177.082 103.904 177.539 103.885C177.994 103.865 178.352 103.856 178.61 103.856H182.244V104.897H175.304V104.898ZM175.304 109.126V107.993H181.27V105.952H182.243V111.168H181.27V109.126H175.304ZM175.304 116.536L177.23 115.843V113.189L175.304 112.512V111.315L182.273 113.912V115.146L175.304 117.742V116.536ZM178.208 115.544L180.098 114.895C180.226 114.848 180.425 114.782 180.698 114.698C180.969 114.613 181.168 114.555 181.296 114.522C180.905 114.436 180.48 114.313 180.017 114.147L178.208 113.522V115.544ZM181.369 121.61C181.369 120.958 181.137 120.446 180.678 120.073C180.215 119.7 179.577 119.513 178.766 119.513C177.914 119.513 177.267 119.693 176.833 120.052C176.395 120.41 176.177 120.929 176.177 121.61C176.177 121.906 176.206 122.19 176.265 122.464C176.322 122.739 176.4 123.026 176.491 123.323H175.519C175.312 122.778 175.209 122.161 175.209 121.473C175.209 120.455 175.519 119.674 176.134 119.132C176.746 118.587 177.629 118.313 178.775 118.313C179.496 118.313 180.128 118.446 180.67 118.711C181.21 118.976 181.623 119.357 181.912 119.857C182.204 120.357 182.346 120.944 182.346 121.619C182.346 122.326 182.197 122.982 181.899 123.583L180.955 123.177C181.065 122.943 181.16 122.696 181.247 122.435C181.33 122.173 181.369 121.9 181.369 121.61ZM175.304 128.746V124.818H182.243V128.746H181.285V125.955H179.396V128.57H178.445V125.955H176.267V128.746H175.304ZM180.147 137.367C179.42 137.367 178.868 137.13 178.481 136.656C178.092 136.179 177.901 135.505 177.901 134.627V133.905H175.304V132.768H182.243V134.771C182.243 135.639 182.066 136.287 181.715 136.718C181.358 137.151 180.837 137.367 180.147 137.367ZM178.855 133.905V134.509C178.855 135.09 178.956 135.518 179.159 135.791C179.362 136.062 179.677 136.198 180.108 136.198C180.507 136.198 180.804 136.076 181.001 135.834C181.197 135.588 181.297 135.209 181.297 134.693V133.905H178.855ZM179.018 139.884V140.673C179.018 141.201 179.117 141.585 179.311 141.822C179.508 142.058 179.799 142.176 180.185 142.176C180.578 142.176 180.857 142.05 181.028 141.794C181.199 141.536 181.286 141.148 181.286 140.635V139.883L179.018 139.884ZM178.075 139.884H175.304V138.75H182.243V140.713C182.243 141.607 182.075 142.269 181.742 142.701C181.407 143.132 180.899 143.347 180.224 143.347C179.357 143.347 178.742 142.897 178.373 142L175.304 143.958V142.669L178.075 141.006V139.884ZM175.304 149.273L177.23 148.577V145.924L175.304 145.246V144.051L182.273 146.645V147.881L175.304 150.478V149.273ZM178.208 148.281L180.098 147.63C180.226 147.584 180.425 147.517 180.698 147.435C180.969 147.35 181.168 147.292 181.296 147.259C180.905 147.174 180.48 147.05 180.017 146.885L178.208 146.259V148.281ZM175.304 156.506V155.201L178.143 153.46L175.304 151.71V150.495L178.903 152.797L182.243 150.641V151.905L179.619 153.51L182.243 155.114V156.34L178.885 154.171L175.304 156.506ZM175.304 157.442H182.243V158.576H175.304V157.442ZM182.8 157.374H182.918C183.143 157.557 183.388 157.743 183.659 157.934C183.932 158.125 184.164 158.277 184.358 158.387V159.682H184.259C184.065 159.519 183.818 159.274 183.511 158.947C183.204 158.62 182.968 158.341 182.8 158.117V157.374ZM182.243 163.206L175.304 160.624V159.572L182.243 162.157V163.206ZM177.188 168.206C176.573 168.206 176.088 167.983 175.736 167.536C175.385 167.089 175.209 166.476 175.209 165.69C175.209 164.904 175.33 164.259 175.573 163.759H176.646C176.5 164.077 176.383 164.416 176.3 164.772C176.213 165.127 176.17 165.458 176.17 165.763C176.17 166.212 176.255 166.547 176.425 166.758C176.598 166.97 176.825 167.078 177.111 167.078C177.375 167.078 177.594 166.981 177.774 166.787C177.952 166.59 178.168 166.185 178.414 165.571C178.67 164.937 178.965 164.49 179.294 164.232C179.621 163.972 180.018 163.842 180.482 163.842C181.06 163.842 181.514 164.049 181.847 164.459C182.182 164.87 182.347 165.421 182.347 166.115C182.347 166.779 182.2 167.44 181.909 168.1L180.982 167.738C181.243 167.121 181.371 166.57 181.371 166.086C181.371 165.719 181.291 165.44 181.132 165.25C180.971 165.06 180.759 164.966 180.497 164.966C180.318 164.966 180.164 165.006 180.038 165.079C179.908 165.153 179.787 165.281 179.674 165.453C179.561 165.628 179.409 165.941 179.222 166.393C179.01 166.903 178.813 167.278 178.628 167.514C178.445 167.75 178.237 167.925 178.005 168.037C177.774 168.151 177.499 168.206 177.188 168.206ZM175.304 171.945V170.813H181.27V168.77H182.243V173.989H181.27V171.945H175.304ZM175.304 179.357L177.23 178.663V176.009L175.304 175.331V174.135L182.273 176.731V177.966L175.304 180.562V179.357ZM178.208 178.364L180.098 177.714C180.226 177.668 180.425 177.602 180.698 177.519C180.969 177.435 181.168 177.376 181.296 177.342C180.905 177.258 180.48 177.135 180.017 176.967L178.208 176.342V178.364ZM182.8 176.66H182.918C183.143 176.841 183.388 177.028 183.659 177.218C183.932 177.409 184.164 177.559 184.358 177.671V178.969H184.259C184.065 178.805 183.818 178.558 183.511 178.231C183.204 177.903 182.968 177.625 182.8 177.402V176.66ZM175.304 185.839V180.874H176.092L181.27 184.372V180.97H182.243V185.746H181.447L176.277 182.231V185.838H175.304V185.839ZM184.358 185.213H184.228C183.816 184.813 183.509 184.535 183.312 184.372C183.116 184.211 182.946 184.083 182.8 183.998V182.763C183.133 182.556 183.608 182.158 184.228 181.559H184.358V182.309C184.073 182.746 183.784 183.103 183.489 183.374C183.806 183.684 184.095 184.045 184.358 184.458V185.213ZM175.304 187.067H182.243V188.205H175.304V187.067ZM182.8 187.002H182.918C183.143 187.185 183.388 187.371 183.659 187.562C183.932 187.751 184.164 187.904 184.358 188.013V189.31H184.259C184.065 189.146 183.818 188.901 183.511 188.572C183.204 188.246 182.968 187.967 182.8 187.743V187.002Z" fill="white"/>
<path id="Vector_35" d="M164.269 57.218V52.255H165.057L170.237 55.752V52.35H171.208V57.125H170.411L165.242 53.611V57.217L164.269 57.218ZM164.269 62.755L166.195 62.061V59.407L164.269 58.729V57.533L171.238 60.129V61.365L164.269 63.962V62.755ZM167.174 61.763L169.065 61.113C169.191 61.067 169.39 61.001 169.662 60.917C169.934 60.832 170.132 60.773 170.261 60.741C169.873 60.655 169.445 60.533 168.982 60.367L167.174 59.74V61.763ZM164.269 67.876L170.064 65.865V65.825C169.204 65.877 168.396 65.905 167.644 65.905H164.269V64.876H171.208V66.477L165.687 68.403V68.433L171.208 70.418V72.022H164.269V70.93H167.7C168.043 70.93 168.496 70.94 169.05 70.957C169.604 70.975 169.94 70.987 170.057 71.002V70.963L164.269 68.879V67.876ZM164.269 77.776V73.848H171.208V77.776H170.25V74.985H168.361V77.599H167.41V74.985H165.233V77.776H164.269ZM173.323 77.675H173.193C172.779 77.276 172.474 76.996 172.277 76.832C172.082 76.67 171.912 76.547 171.765 76.461V75.226C172.099 75.02 172.573 74.617 173.193 74.019H173.323V74.772C173.039 75.208 172.75 75.562 172.454 75.837C172.772 76.145 173.061 76.505 173.323 76.921V77.675ZM166.153 83.279C165.537 83.279 165.052 83.056 164.701 82.61C164.351 82.163 164.174 81.549 164.174 80.764C164.174 79.977 164.295 79.332 164.538 78.833H165.611C165.464 79.149 165.35 79.489 165.265 79.844C165.178 80.199 165.135 80.532 165.135 80.836C165.135 81.286 165.22 81.62 165.39 81.833C165.562 82.044 165.792 82.151 166.076 82.151C166.339 82.151 166.559 82.054 166.739 81.86C166.917 81.664 167.133 81.258 167.379 80.645C167.634 80.009 167.931 79.564 168.256 79.304C168.585 79.044 168.983 78.915 169.446 78.915C170.023 78.915 170.478 79.121 170.814 79.532C171.147 79.942 171.312 80.493 171.312 81.188C171.312 81.852 171.164 82.514 170.874 83.172L169.947 82.813C170.208 82.194 170.335 81.643 170.335 81.159C170.335 80.792 170.256 80.513 170.097 80.323C169.935 80.134 169.724 80.039 169.461 80.039C169.282 80.039 169.128 80.077 169.002 80.152C168.872 80.227 168.751 80.353 168.638 80.527C168.526 80.701 168.374 81.014 168.186 81.467C167.974 81.976 167.778 82.35 167.595 82.589C167.409 82.824 167.202 82.999 166.97 83.111C166.738 83.224 166.464 83.279 166.153 83.279ZM164.269 87.019V85.886H170.237V83.844H171.208V89.062H170.237V87.019H164.269ZM164.269 95.908V94.515L169.799 91.1V91.065L169.491 91.086C168.902 91.13 168.364 91.152 167.876 91.152H164.269V90.123H171.208V91.499L165.708 94.904V94.931C165.783 94.926 166.046 94.914 166.504 94.895C166.959 94.875 167.319 94.865 167.574 94.865H171.209V95.907H164.269V95.908ZM164.269 102.044L166.195 101.351V98.695L164.269 98.017V96.823L171.238 99.42V100.654L164.269 103.25V102.044ZM167.174 101.053L169.065 100.403C169.191 100.356 169.39 100.29 169.662 100.207C169.934 100.12 170.132 100.063 170.261 100.03C169.873 99.945 169.445 99.821 168.982 99.656L167.174 99.03V101.053ZM171.208 108.12V109.298L164.269 106.869V105.669L171.208 103.25V104.419L166.895 105.866C166.69 105.939 166.425 106.022 166.099 106.108C165.775 106.194 165.531 106.249 165.375 106.274C165.616 106.315 165.896 106.381 166.213 106.464C166.528 106.552 166.76 106.619 166.912 106.672L171.208 108.12ZM164.269 114.522L166.195 113.828V111.173L164.269 110.495V109.298L171.238 111.896V113.13L164.269 115.726V114.522ZM167.174 113.53L169.065 112.879C169.191 112.832 169.39 112.767 169.662 112.684C169.934 112.598 170.132 112.541 170.261 112.507C169.873 112.423 169.445 112.299 168.982 112.132L167.174 111.508V113.53ZM164.269 119.039V117.907H170.237V115.863H171.208V121.081H170.237V119.039H164.269ZM164.269 126.069V122.142H171.208V126.069H170.25V123.276H168.361V125.893H167.41V123.276H165.233V126.069H164.269ZM164.269 127.57H171.208V128.704H165.242V131.642H164.269V127.57ZM171.208 138.277H166.718C166.206 138.277 165.757 138.168 165.375 137.95C164.988 137.729 164.693 137.412 164.489 136.997C164.281 136.58 164.175 136.081 164.175 135.503C164.175 134.641 164.405 133.971 164.86 133.494C165.314 133.017 165.943 132.778 166.74 132.778H171.21V133.915H166.819C166.246 133.915 165.824 134.048 165.554 134.316C165.279 134.582 165.145 134.991 165.145 135.543C165.145 136.61 165.707 137.147 166.829 137.147H171.21V138.277H171.208ZM172.842 136.656C172.52 136.656 172.258 136.552 172.057 136.345C171.856 136.14 171.754 135.863 171.754 135.521C171.754 135.18 171.853 134.906 172.053 134.706C172.251 134.503 172.509 134.399 172.831 134.399C173.151 134.399 173.411 134.503 173.609 134.705C173.809 134.905 173.905 135.179 173.905 135.521C173.905 135.85 173.809 136.122 173.612 136.335C173.415 136.548 173.16 136.656 172.842 136.656ZM172.831 136.023C172.992 136.023 173.116 135.976 173.206 135.884C173.297 135.786 173.341 135.667 173.341 135.521C173.341 135.374 173.298 135.253 173.206 135.156C173.117 135.059 172.993 135.012 172.831 135.012C172.498 135.012 172.33 135.181 172.33 135.521C172.33 135.667 172.374 135.787 172.463 135.884C172.547 135.976 172.672 136.023 172.831 136.023ZM164.269 146.885L166.195 146.192V143.536L164.269 142.857V141.662L171.238 144.26V145.493L164.269 148.09V146.885ZM167.174 145.893L169.065 145.242C169.191 145.195 169.39 145.129 169.662 145.047C169.934 144.961 170.132 144.903 170.261 144.871C169.873 144.786 169.445 144.66 168.982 144.497L167.174 143.871V145.893ZM169.111 156.126C168.385 156.126 167.831 155.889 167.446 155.415C167.057 154.938 166.866 154.264 166.866 153.388V152.664H164.269V151.528H171.208V153.53C171.208 154.397 171.033 155.046 170.68 155.478C170.325 155.912 169.802 156.126 169.111 156.126ZM167.819 152.664V153.269C167.819 153.848 167.92 154.276 168.124 154.549C168.326 154.822 168.641 154.957 169.072 154.957C169.471 154.957 169.769 154.837 169.966 154.593C170.163 154.347 170.262 153.967 170.262 153.451V152.663H167.819V152.664ZM167.983 158.643V159.433C167.983 159.96 168.082 160.346 168.276 160.581C168.471 160.819 168.764 160.937 169.15 160.937C169.542 160.937 169.822 160.809 169.994 160.554C170.164 160.298 170.251 159.908 170.251 159.394V158.642L167.983 158.643ZM167.043 158.643H164.27V157.51H171.209V159.471C171.209 160.367 171.041 161.029 170.708 161.461C170.373 161.891 169.865 162.106 169.19 162.106C168.323 162.106 167.709 161.656 167.342 160.756L164.271 162.718V161.428L167.044 159.765V158.643H167.043ZM173.323 161.514H173.193C172.781 161.115 172.474 160.832 172.277 160.669C172.082 160.507 171.912 160.384 171.765 160.299V159.064C172.099 158.856 172.573 158.456 173.193 157.856H173.323V158.606C173.039 159.044 172.75 159.4 172.454 159.676C172.772 159.982 173.061 160.343 173.323 160.756V161.514ZM164.269 167.653V163.724H171.208V167.653H170.25V164.859H168.361V167.476H167.41V164.859H165.233V167.653H164.269ZM167.806 174.797C166.66 174.797 165.785 174.48 165.178 173.844C164.571 173.207 164.269 172.289 164.269 171.092V169.149H171.208V171.298C171.208 172.402 170.912 173.261 170.318 173.876C169.723 174.493 168.884 174.797 167.806 174.797ZM167.768 173.6C169.432 173.6 170.262 172.82 170.262 171.27V170.286H165.223V171.093C165.223 172.763 166.071 173.6 167.768 173.6ZM164.269 182.071V180.678L169.799 177.264V177.229L169.491 177.25C168.902 177.295 168.364 177.316 167.876 177.316H164.269V176.284H171.208V177.662L165.708 181.066V181.093C165.783 181.087 166.047 181.076 166.504 181.058C166.959 181.038 167.319 181.028 167.574 181.028H171.209V182.07H164.269V182.071ZM164.269 188.208L166.195 187.515V184.86L164.269 184.184V182.987L171.238 185.583V186.817L164.269 189.414V188.208ZM167.174 187.215L169.065 186.566C169.191 186.519 169.39 186.453 169.662 186.369C169.934 186.285 170.132 186.226 170.261 186.194C169.873 186.108 169.445 185.985 168.982 185.819L167.174 185.193V187.215ZM171.765 185.511H171.885C172.108 185.692 172.353 185.879 172.624 186.069C172.898 186.259 173.129 186.41 173.324 186.521V187.819H173.225C173.031 187.654 172.783 187.409 172.477 187.081C172.17 186.753 171.934 186.474 171.766 186.251V185.511H171.765ZM166.153 194.332C165.537 194.332 165.052 194.109 164.701 193.663C164.351 193.217 164.174 192.602 164.174 191.817C164.174 191.031 164.295 190.385 164.538 189.887H165.611C165.464 190.203 165.35 190.542 165.265 190.897C165.178 191.255 165.135 191.585 165.135 191.89C165.135 192.34 165.22 192.672 165.39 192.884C165.562 193.098 165.792 193.204 166.076 193.204C166.339 193.204 166.559 193.108 166.739 192.912C166.917 192.715 167.133 192.309 167.379 191.696C167.634 191.063 167.931 190.616 168.259 190.357C168.585 190.096 168.983 189.967 169.447 189.967C170.024 189.967 170.479 190.173 170.815 190.584C171.148 190.995 171.313 191.546 171.313 192.24C171.313 192.904 171.165 193.567 170.875 194.225L169.948 193.865C170.209 193.246 170.336 192.696 170.336 192.211C170.336 191.845 170.257 191.565 170.098 191.376C169.936 191.186 169.725 191.091 169.462 191.091C169.283 191.091 169.129 191.131 169.003 191.207C168.873 191.279 168.752 191.406 168.639 191.581C168.527 191.753 168.375 192.069 168.187 192.52C167.975 193.031 167.779 193.404 167.596 193.642C167.41 193.878 167.203 194.051 166.971 194.164C166.738 194.276 166.467 194.332 166.153 194.332ZM173.323 194.032H173.193C172.781 193.633 172.474 193.354 172.277 193.191C172.082 193.028 171.912 192.902 171.765 192.816V191.583C172.099 191.376 172.573 190.975 173.193 190.377H173.323V191.126C173.039 191.565 172.75 191.921 172.454 192.195C172.772 192.503 173.061 192.863 173.323 193.276V194.032ZM164.269 200.973V199.659L167.411 197.48L166.867 196.809H164.27V195.675H171.209V196.809H167.896C168.276 197.122 168.642 197.429 168.994 197.736L171.209 199.61V200.903C169.786 199.69 168.771 198.822 168.167 198.296L164.269 200.973ZM168.042 203.852L171.208 205.494V206.729L166.961 204.416H164.269V203.275H166.923L171.208 200.972V202.207L168.042 203.852Z" fill="white"/>
<path id="Vector_36" d="M155.898 107.271C156.737 107.271 157.524 107.397 158.253 107.642C158.984 107.885 159.627 108.239 160.173 108.703V109.676C159.581 109.236 158.913 108.898 158.175 108.663C157.435 108.43 156.679 108.31 155.908 108.31C155.131 108.31 154.386 108.429 153.659 108.663C152.936 108.897 152.283 109.23 151.696 109.665V108.703C152.231 108.236 152.86 107.884 153.58 107.639C154.299 107.391 155.072 107.271 155.898 107.271ZM153.234 113.668V112.553H157.715C158.249 112.553 158.675 112.566 158.987 112.591C158.91 112.516 158.827 112.427 158.733 112.322C158.643 112.215 158.351 111.859 157.859 111.256L158.568 110.693L160.172 112.735V113.668H153.234ZM158.58 120.384C158.139 120.384 157.772 120.258 157.481 120C157.185 119.745 156.99 119.384 156.888 118.92H156.853C156.785 119.475 156.609 119.894 156.332 120.171C156.054 120.45 155.687 120.588 155.227 120.588C154.56 120.588 154.043 120.353 153.683 119.882C153.323 119.41 153.14 118.738 153.14 117.868C153.14 117.098 153.264 116.451 153.515 115.923H154.508C154.362 116.217 154.25 116.528 154.168 116.86C154.089 117.187 154.052 117.505 154.052 117.807C154.052 118.344 154.151 118.746 154.352 119.015C154.55 119.278 154.859 119.411 155.278 119.411C155.646 119.411 155.921 119.266 156.091 118.971C156.266 118.677 156.354 118.216 156.354 117.585V116.981H157.26V117.592C157.26 118.7 157.644 119.253 158.41 119.253C158.705 119.253 158.932 119.157 159.096 118.965C159.26 118.773 159.34 118.488 159.34 118.11C159.34 117.85 159.304 117.595 159.229 117.352C159.154 117.108 159.009 116.822 158.794 116.488L159.574 115.942C160.041 116.578 160.277 117.317 160.277 118.158C160.277 118.857 160.125 119.405 159.825 119.798C159.524 120.188 159.107 120.384 158.58 120.384ZM153.234 124.769V123.653H157.715C158.249 123.653 158.675 123.667 158.987 123.692C158.91 123.617 158.827 123.53 158.733 123.422C158.643 123.317 158.351 122.96 157.859 122.357L158.568 121.796L160.172 123.837V124.769H153.234ZM160.173 130.328L153.234 127.747V126.694L160.173 129.278V130.328ZM160.173 136.762H155.683C155.171 136.762 154.721 136.653 154.34 136.435C153.953 136.213 153.658 135.898 153.451 135.482C153.245 135.065 153.139 134.567 153.139 133.989C153.139 133.126 153.368 132.456 153.824 131.979C154.278 131.502 154.907 131.262 155.704 131.262H160.173V132.4H155.782C155.209 132.4 154.786 132.532 154.516 132.8C154.242 133.067 154.107 133.474 154.107 134.027C154.107 135.097 154.67 135.631 155.791 135.631H160.172V136.762H160.173ZM153.234 141.327V140.211H157.715C158.249 140.211 158.675 140.227 158.987 140.249C158.91 140.175 158.827 140.087 158.733 139.983C158.643 139.875 158.351 139.52 157.859 138.916L158.568 138.353L160.172 140.396V141.328L153.234 141.327ZM158.58 148.043C158.139 148.043 157.772 147.916 157.481 147.66C157.185 147.403 156.99 147.042 156.888 146.576H156.853C156.785 147.134 156.609 147.552 156.332 147.831C156.054 148.11 155.687 148.247 155.227 148.247C154.56 148.247 154.043 148.013 153.683 147.542C153.323 147.07 153.14 146.396 153.14 145.526C153.14 144.757 153.264 144.109 153.515 143.581H154.508C154.362 143.876 154.25 144.187 154.168 144.519C154.089 144.847 154.052 145.162 154.052 145.466C154.052 146.002 154.151 146.404 154.352 146.674C154.55 146.937 154.859 147.07 155.278 147.07C155.646 147.07 155.921 146.924 156.091 146.629C156.266 146.334 156.354 145.874 156.354 145.242V144.639H157.26V145.25C157.26 146.357 157.644 146.912 158.41 146.912C158.705 146.912 158.932 146.816 159.096 146.622C159.259 146.43 159.34 146.144 159.34 145.768C159.34 145.505 159.304 145.252 159.229 145.01C159.154 144.764 159.009 144.477 158.794 144.144L159.574 143.599C160.041 144.235 160.277 144.973 160.277 145.815C160.277 146.514 160.125 147.059 159.825 147.456C159.524 147.847 159.107 148.043 158.58 148.043ZM155.898 151.417C155.065 151.417 154.289 151.296 153.57 151.05C152.85 150.805 152.228 150.45 151.697 149.986V149.025C152.288 149.461 152.945 149.793 153.667 150.029C154.387 150.258 155.132 150.375 155.909 150.375C156.68 150.375 157.44 150.259 158.176 150.025C158.912 149.791 159.575 149.453 160.174 149.013V149.986C159.62 150.452 158.978 150.805 158.246 151.05C157.513 151.296 156.729 151.417 155.898 151.417Z" fill="white"/>
<path id="Vector_37" d="M156.393 331.201C155.775 331.201 155.291 330.977 154.94 330.532C154.59 330.084 154.414 329.47 154.414 328.682C154.414 327.899 154.535 327.254 154.778 326.755H155.85C155.704 327.07 155.588 327.41 155.502 327.766C155.415 328.121 155.372 328.452 155.372 328.759C155.372 329.206 155.457 329.541 155.63 329.752C155.8 329.964 156.029 330.072 156.316 330.072C156.578 330.072 156.797 329.976 156.977 329.781C157.157 329.585 157.372 329.179 157.617 328.565C157.875 327.931 158.168 327.484 158.497 327.226C158.826 326.966 159.22 326.835 159.684 326.835C160.264 326.835 160.719 327.044 161.052 327.453C161.385 327.863 161.551 328.415 161.551 329.11C161.551 329.772 161.405 330.436 161.113 331.094L160.188 330.733C160.446 330.115 160.577 329.563 160.577 329.079C160.577 328.712 160.498 328.433 160.337 328.245C160.178 328.054 159.965 327.96 159.704 327.96C159.525 327.96 159.371 328 159.242 328.072C159.114 328.147 158.991 328.273 158.879 328.447C158.768 328.622 158.614 328.934 158.426 329.387C158.214 329.897 158.019 330.272 157.835 330.508C157.65 330.746 157.443 330.918 157.21 331.032C156.976 331.145 156.704 331.201 156.393 331.201ZM163.562 330.899H163.432C163.018 330.5 162.712 330.221 162.516 330.058C162.322 329.897 162.149 329.769 162.004 329.685V328.449C162.337 328.243 162.811 327.844 163.432 327.245H163.562V327.996C163.276 328.434 162.987 328.789 162.692 329.062C163.008 329.371 163.297 329.731 163.562 330.145V330.899ZM154.507 336.851L156.433 336.155V333.502L154.507 332.824V331.628L161.477 334.224V335.459L154.507 338.056V336.851ZM157.412 335.858L159.304 335.208C159.429 335.161 159.627 335.095 159.902 335.013C160.175 334.927 160.373 334.868 160.5 334.835C160.112 334.75 159.684 334.626 159.22 334.46L157.412 333.835V335.858ZM154.507 341.368V340.235H160.475V338.192H161.448V343.409H160.475V341.368H154.507ZM154.507 350.254V348.863L160.038 345.448V345.414L159.729 345.435C159.14 345.479 158.605 345.501 158.115 345.501H154.508V344.469H161.448V345.849L155.946 349.252V349.278C156.02 349.272 156.285 349.261 156.743 349.243C157.197 349.224 157.556 349.214 157.812 349.214H161.448V350.254H154.507ZM154.507 356.393L156.433 355.7V353.044L154.507 352.366V351.169L161.477 353.767V355.001L154.507 357.598V356.393ZM157.412 355.402L159.304 354.752C159.429 354.703 159.627 354.638 159.902 354.556C160.175 354.47 160.373 354.412 160.5 354.379C160.112 354.294 159.684 354.17 159.22 354.005L157.412 353.379V355.402Z" fill="white"/>
<path id="Vector_38" d="M61.4117 312.21V313C61.4117 313.528 61.5117 313.91 61.7057 314.149C61.9027 314.384 62.1927 314.504 62.5787 314.504C62.9717 314.504 63.2527 314.376 63.4237 314.118C63.5957 313.864 63.6807 313.475 63.6807 312.96V312.209H61.4117V312.21ZM60.4727 312.21H57.6997V311.075H64.6397V313.037C64.6397 313.933 64.4707 314.595 64.1367 315.027C63.8007 315.457 63.2957 315.672 62.6197 315.672C61.7547 315.672 61.1367 315.223 60.7697 314.324L57.6987 316.285V314.994L60.4717 313.332L60.4727 312.21ZM57.6987 321.218V317.29H64.6387V321.218H63.6797V318.425H61.7897V321.042H60.8397V318.425H58.6627V321.218H57.6987ZM59.5827 326.721C58.9677 326.721 58.4827 326.499 58.1327 326.051C57.7827 325.605 57.6077 324.989 57.6077 324.204C57.6077 323.419 57.7277 322.773 57.9687 322.275H59.0417C58.8957 322.591 58.7807 322.931 58.6937 323.285C58.6087 323.642 58.5637 323.972 58.5637 324.279C58.5637 324.728 58.6497 325.063 58.8197 325.274C58.9917 325.486 59.2217 325.593 59.5067 325.593C59.7697 325.593 59.9887 325.496 60.1687 325.301C60.3497 325.106 60.5637 324.699 60.8087 324.085C61.0637 323.45 61.3597 323.005 61.6877 322.744C62.0157 322.487 62.4127 322.356 62.8757 322.356C63.4557 322.356 63.9107 322.563 64.2437 322.974C64.5767 323.383 64.7417 323.936 64.7417 324.631C64.7417 325.295 64.5957 325.955 64.3037 326.613L63.3777 326.254C63.6367 325.637 63.7677 325.086 63.7677 324.599C63.7677 324.234 63.6887 323.955 63.5267 323.766C63.3687 323.574 63.1557 323.482 62.8947 323.482C62.7137 323.482 62.5587 323.52 62.4327 323.594C62.3037 323.669 62.1807 323.794 62.0707 323.969C61.9577 324.143 61.8047 324.457 61.6177 324.908C61.4057 325.418 61.2097 325.793 61.0257 326.03C60.8397 326.266 60.6327 326.441 60.4007 326.554C60.1687 326.667 59.8967 326.721 59.5827 326.721ZM57.6987 330.461V329.328H63.6667V327.286H64.6397V332.502H63.6667V330.461H57.6987ZM57.6987 337.874L59.6247 337.179V334.525L57.6987 333.845V332.651L64.6697 335.247V336.482L57.6987 339.079V337.874ZM60.6067 336.88L62.4967 336.23C62.6217 336.182 62.8197 336.118 63.0947 336.035C63.3677 335.948 63.5667 335.89 63.6927 335.858C63.3037 335.772 62.8767 335.649 62.4137 335.484L60.6077 334.857V336.88H60.6067ZM64.6397 345.431H60.1517C59.6357 345.431 59.1867 345.321 58.8057 345.104C58.4187 344.884 58.1227 344.566 57.9177 344.151C57.7107 343.735 57.6067 343.236 57.6067 342.657C57.6067 341.794 57.8337 341.125 58.2887 340.647C58.7437 340.171 59.3727 339.93 60.1687 339.93H64.6397V341.069H60.2497C59.6767 341.069 59.2547 341.202 58.9807 341.469C58.7077 341.736 58.5737 342.143 58.5737 342.696C58.5737 343.763 59.1367 344.299 60.2567 344.299H64.6397V345.431ZM61.4117 348.342V349.13C61.4117 349.66 61.5117 350.041 61.7057 350.279C61.9027 350.517 62.1957 350.635 62.5817 350.635C62.9717 350.635 63.2527 350.507 63.4237 350.251C63.5957 349.993 63.6807 349.606 63.6807 349.09V348.341L61.4117 348.342ZM60.4727 348.342H57.6997V347.206H64.6397V349.168C64.6397 350.064 64.4707 350.727 64.1367 351.158C63.8007 351.589 63.2957 351.803 62.6197 351.803C61.7547 351.803 61.1367 351.355 60.7697 350.456L57.6987 352.414V351.125L60.4717 349.463L60.4727 348.342ZM57.6987 357.729L59.6247 357.036V354.382L57.6987 353.702V352.508L64.6697 355.104V356.337L57.6987 358.935V357.729ZM60.6067 356.737L62.4967 356.086C62.6217 356.041 62.8197 355.974 63.0947 355.892C63.3677 355.806 63.5667 355.748 63.6927 355.716C63.3037 355.629 62.8767 355.506 62.4137 355.34L60.6077 354.715V356.737H60.6067ZM63.7667 362.803C63.7667 362.151 63.5357 361.636 63.0747 361.265C62.6107 360.893 61.9747 360.706 61.1617 360.706C60.3097 360.706 59.6667 360.884 59.2287 361.246C58.7917 361.603 58.5747 362.123 58.5747 362.803C58.5747 363.098 58.6037 363.381 58.6637 363.657C58.7207 363.932 58.7977 364.218 58.8897 364.516H57.9167C57.7097 363.97 57.6077 363.354 57.6077 362.663C57.6077 361.645 57.9167 360.866 58.5287 360.323C59.1447 359.777 60.0247 359.506 61.1707 359.506C61.8927 359.506 62.5227 359.637 63.0667 359.902C63.6067 360.168 64.0187 360.55 64.3107 361.048C64.6007 361.548 64.7427 362.136 64.7427 362.81C64.7427 363.52 64.5937 364.175 64.2947 364.776L63.3517 364.367C63.4607 364.134 63.5597 363.889 63.6447 363.626C63.7237 363.366 63.7667 363.092 63.7667 362.803ZM57.6987 369.939V366.009H64.6387V369.939H63.6797V367.147H61.7897V369.763H60.8397V367.147H58.6627V369.939H57.6987Z" fill="white"/>
<g id="R2">
<path id="Vector_39" d="M88.1331 301.019H58.8221C57.5391 301.019 56.4981 299.866 56.4981 298.447V287.743C56.4981 286.322 57.5391 285.172 58.8221 285.172H88.1331C89.4141 285.172 90.4561 286.322 90.4561 287.743V298.447C90.4561 299.866 89.4141 301.019 88.1331 301.019Z" fill="#EC6963"/>
<path id="Vector_40" d="M72.7659 291.318C72.9129 291.898 73.3989 292.313 74.0319 292.313C74.8309 292.313 75.4629 291.689 75.4629 290.894V288.916H70.6709V289.879H72.7019V290.352L70.6709 291.4V292.48L72.7659 291.318ZM73.4489 290.856V289.879H74.6239V290.856C74.6239 291.184 74.3689 291.438 74.0359 291.438C73.7049 291.438 73.4489 291.191 73.4489 290.856Z" fill="#252525"/>
<path id="Vector_41" d="M70.6702 293.056V296.184H71.4872V294.263C73.0592 295.766 73.4292 296.089 74.1782 296.083C74.9782 296.077 75.5332 295.444 75.5332 294.62C75.5332 293.758 74.9272 293.01 74.0442 293.081L74.0352 293.976C74.4582 293.938 74.7122 294.219 74.7122 294.576C74.7082 294.871 74.5472 295.19 74.0862 295.19C73.6982 295.19 73.4892 295.049 71.3532 293.056H70.6702Z" fill="#252525"/>
</g>
<path id="Vector_42" d="M40.0859 191.107H7.38588H2.68687C1.37487 191.107 1.37387 193.142 2.68687 193.142H35.3879H40.0859C41.3949 193.142 41.3969 191.107 40.0859 191.107Z" fill="#4A4A4A"/>
<path id="Vector_43" d="M208.191 12.134L212.182 6.73398C212.459 6.35898 213.025 6.36998 213.287 6.75498L216.954 12.153C217.262 12.605 216.938 13.214 216.393 13.214H208.736C208.18 13.214 207.862 12.583 208.191 12.134Z" fill="#E95248"/>
<g id="R7">
<path id="Vector_44" d="M166.58 259.69L174.641 259.62L176.231 259.604L185.885 259.52C186.788 259.514 187.516 258.497 187.513 257.247L187.484 246.149C187.48 244.901 186.745 243.896 185.845 243.905L176.191 243.986L174.6 244L166.537 244.071C165.634 244.08 164.906 245.017 164.908 246.166L164.911 246.347L164.939 257.445V257.626C164.941 258.774 165.675 259.698 166.58 259.69Z" fill="#A7D9E2"/>
<g id="Group_2">
<path id="Vector_45" d="M175.894 250.792C176.04 251.373 176.526 251.788 177.159 251.788C177.957 251.788 178.591 251.163 178.591 250.369V248.39H173.799V249.353H175.831V249.826L173.799 250.874V251.954L175.894 250.792ZM176.578 250.331V249.353H177.754V250.331C177.754 250.657 177.497 250.913 177.165 250.913C176.834 250.913 176.578 250.665 176.578 250.331Z" fill="#252525"/>
<path id="Vector_46" d="M173.798 253.128V254.139L177.913 256.35H178.59V253.065H177.779V255.34L173.798 253.128Z" fill="#252525"/>
</g>
</g>
<g id="R8">
<path id="Vector_47" d="M172.011 229.385L171.958 218.855C171.948 217.386 172.955 216.19 174.206 216.184L185.529 216.126C186.778 216.118 187.799 217.305 187.806 218.773L187.858 229.303C187.867 230.769 186.859 231.966 185.61 231.973L174.288 232.032C173.039 232.039 172.019 230.853 172.011 229.385Z" fill="#A7D9E2"/>
<g id="Group_3">
<path id="Vector_48" d="M179.805 222.752C179.948 223.335 180.434 223.75 181.066 223.753C181.865 223.754 182.501 223.131 182.503 222.34L182.509 220.36L177.714 220.344L177.713 221.308L179.745 221.314L179.743 221.788L177.708 222.83L177.704 223.909L179.805 222.752ZM180.491 222.294L180.493 221.316L181.669 221.32L181.667 222.297C181.664 222.625 181.409 222.878 181.075 222.878C180.745 222.877 180.489 222.627 180.491 222.294Z" fill="#252525"/>
<path id="Vector_49" d="M180.367 227.028C180.584 227.298 180.908 227.46 181.285 227.46C182.001 227.463 182.551 226.885 182.553 226.086C182.555 225.286 182.008 224.703 181.293 224.7C180.909 224.7 180.589 224.858 180.364 225.126C180.117 224.684 179.678 224.407 179.147 224.407C178.291 224.403 177.638 225.109 177.633 226.069C177.631 227.032 178.282 227.746 179.135 227.748C179.668 227.749 180.109 227.469 180.367 227.028ZM181.826 226.088C181.826 226.426 181.561 226.689 181.219 226.687C180.87 226.686 180.613 226.422 180.613 226.084C180.615 225.738 180.875 225.478 181.221 225.479C181.566 225.481 181.828 225.745 181.826 226.088ZM178.452 226.072C178.452 225.657 178.792 225.339 179.216 225.339C179.638 225.341 179.942 225.661 179.942 226.077C179.94 226.497 179.633 226.809 179.212 226.808C178.788 226.807 178.451 226.492 178.452 226.072Z" fill="#252525"/>
</g>
</g>
<g id="R6">
<path id="Vector_50" d="M147.856 256.648V246.117C147.856 244.649 148.871 243.458 150.121 243.458H161.441C162.689 243.458 163.704 244.649 163.704 246.117V256.648C163.704 258.116 162.689 259.305 161.441 259.305H150.121C148.871 259.305 147.856 258.116 147.856 256.648Z" fill="#A7D9E2"/>
<g id="Group_4">
<path id="Vector_51" d="M155.618 250.361C155.763 250.943 156.249 251.356 156.884 251.356C157.682 251.356 158.314 250.733 158.314 249.939V247.96H153.522V248.925H155.554V249.396L153.522 250.445V251.524L155.618 250.361ZM156.303 249.901V248.924H157.478V249.901C157.478 250.228 157.222 250.481 156.889 250.481C156.558 250.481 156.303 250.235 156.303 249.901Z" fill="#252525"/>
<path id="Vector_52" d="M155.145 255.631C155.988 255.625 156.706 254.973 156.801 254.112C156.801 254.052 156.808 253.998 156.808 253.932L158.314 255.094V254.033L156.194 252.481C155.88 252.258 155.516 252.089 155.119 252.089C154.179 252.098 153.452 252.898 153.458 253.873C153.472 254.834 154.2 255.631 155.145 255.631ZM154.25 253.876C154.237 253.366 154.628 253.012 155.119 253.012C155.604 253.007 156.006 253.338 156.014 253.851C156.019 254.356 155.638 254.714 155.145 254.727C154.652 254.732 154.257 254.379 154.25 253.876Z" fill="#252525"/>
</g>
</g>
<g id="R11">
<path id="Vector_53" d="M199.259 267.12V256.588C199.259 255.121 200.271 253.929 201.522 253.929H212.842C214.091 253.929 215.105 255.121 215.105 256.588V267.12C215.105 268.587 214.091 269.779 212.842 269.779H201.522C200.271 269.779 199.259 268.586 199.259 267.12Z" fill="#FBED62"/>
<g id="Group_5">
<path id="Vector_54" d="M207.161 259.711C207.307 260.291 207.792 260.706 208.427 260.706C209.226 260.706 209.857 260.082 209.857 259.287V257.308H205.065V258.273H207.097V258.744L205.065 259.794V260.873L207.161 259.711ZM207.845 259.25V258.274H209.02V259.25C209.02 259.577 208.764 259.833 208.432 259.833C208.101 259.833 207.845 259.584 207.845 259.25Z" fill="#252525"/>
<path id="Vector_55" d="M205.065 262.319V263.252H209.857V262.374L209.058 261.321H208.035L208.803 262.319H205.065ZM205.065 265.072V266.005H209.857V265.128L209.058 264.073H208.035L208.803 265.072H205.065Z" fill="#252525"/>
</g>
</g>
<g id="R13">
<path id="Vector_56" d="M166.506 276.701L174.569 276.711L176.16 276.713L185.812 276.724C186.716 276.726 187.455 275.716 187.464 274.466L187.546 263.369C187.553 262.12 186.829 261.108 185.927 261.105L176.273 261.094L174.683 261.092L166.621 261.083C165.718 261.083 164.98 262.014 164.971 263.161V263.342L164.89 274.44V274.621C164.878 275.768 165.602 276.701 166.506 276.701Z" fill="#A7D9E2"/>
<path id="Vector_57" d="M175.946 266.592C176.085 267.176 176.563 267.596 177.198 267.605C177.996 267.616 178.637 267 178.648 266.207L178.673 264.228L173.881 264.165L173.87 265.128L175.902 265.155L175.895 265.627L173.849 266.649L173.835 267.729L175.946 266.592ZM176.637 266.142L176.647 265.163L177.824 265.18L177.813 266.157C177.809 266.483 177.548 266.737 177.215 266.731C176.884 266.727 176.632 266.476 176.637 266.142ZM173.821 268.701L173.811 269.635L178.603 269.698L178.614 268.821L177.828 267.756L176.807 267.742L177.561 268.751L173.821 268.701ZM176.491 272.863C176.682 273.171 176.99 273.369 177.357 273.373C178.061 273.382 178.624 272.782 178.635 272.009C178.646 271.23 178.095 270.614 177.395 270.606L177.364 271.5C177.601 271.505 177.781 271.723 177.779 271.999C177.775 272.312 177.561 272.54 177.274 272.536C176.948 272.531 176.708 272.3 176.711 271.985V271.977L176.717 271.66L175.984 271.653L175.977 272.035C175.973 272.416 175.675 272.692 175.28 272.687C174.877 272.681 174.581 272.396 174.584 272.015C174.59 271.642 174.83 271.353 175.13 271.357V270.443C174.354 270.433 173.727 271.121 173.714 272.003C173.704 272.892 174.385 273.59 175.258 273.602C175.796 273.608 176.234 273.313 176.491 272.863Z" fill="#252525"/>
</g>
<path id="Vector_58" d="M60.7296 90.665C60.8006 90.943 60.8696 91.221 60.9526 91.527H59.9786C59.7846 90.983 59.6726 90.359 59.6726 89.677C59.6726 88.661 59.9786 87.883 60.6056 87.325C60.9116 87.062 61.2866 86.852 61.7166 86.715C62.1616 86.59 62.6626 86.52 63.2466 86.52C63.7886 86.52 64.2766 86.59 64.7216 86.743C64.8616 86.785 64.9986 86.841 65.1396 86.909C65.4026 87.035 65.6386 87.202 65.8486 87.396C65.9036 87.452 65.9596 87.506 66.0006 87.562C66.1536 87.716 66.2776 87.883 66.3766 88.064C66.6686 88.565 66.8076 89.149 66.8076 89.816C66.8076 90.524 66.6686 91.18 66.3636 91.777L65.4166 91.374C65.5286 91.138 65.6266 90.901 65.7086 90.637C65.7936 90.373 65.8356 90.094 65.8356 89.803C65.8356 89.649 65.8206 89.497 65.7936 89.344C65.7376 89.051 65.6266 88.802 65.4446 88.579C65.3616 88.468 65.2496 88.369 65.1396 88.273C64.6806 87.897 64.0406 87.716 63.2346 87.716C62.5946 87.716 62.0646 87.814 61.6636 88.022C61.5226 88.078 61.4116 88.162 61.3006 88.245V88.259C61.2316 88.301 61.1896 88.343 61.1616 88.398C60.9116 88.649 60.7586 88.955 60.6886 89.317C60.6606 89.468 60.6466 89.636 60.6466 89.803C60.6466 90.107 60.6736 90.386 60.7296 90.665Z" fill="#E95248"/>
<path id="Vector_59" d="M66.7109 98.495H59.7719V97.353H62.899V94.155H59.7719V93.014H66.7109V94.155H63.8739V97.353H66.7109V98.495Z" fill="#E95248"/>
<path id="Vector_60" d="M66.7109 101.457V100.315H59.7719V101.457H66.7109Z" fill="#E95248"/>
<path id="Vector_61" d="M60.744 107.368H59.7719V103.292H66.7109V104.418H60.744V107.368Z" fill="#E95248"/>
<path id="Vector_62" d="M60.744 112.625H59.7719V108.563H66.7109V109.689H60.744V112.625Z" fill="#E95248"/>
<path id="Vector_63" d="M65.8888 121.665C66.5148 121.107 66.8228 120.315 66.8228 119.272C66.8228 118.23 66.5147 117.423 65.9037 116.852C65.2927 116.295 64.4018 116.003 63.2608 116.003C62.6908 116.003 62.1908 116.072 61.7448 116.212C61.6338 116.253 61.5218 116.295 61.4248 116.338C61.2168 116.435 61.0218 116.532 60.8568 116.656C60.7578 116.712 60.6888 116.783 60.6058 116.851C59.9948 117.408 59.6728 118.214 59.6728 119.271C59.6728 120.299 59.9938 121.093 60.6198 121.664C61.2448 122.233 62.1208 122.512 63.2468 122.512C64.3878 122.512 65.2638 122.234 65.8888 121.665ZM61.2998 120.789C61.0768 120.622 60.9248 120.413 60.8148 120.163C60.7718 120.064 60.7448 119.969 60.7158 119.856C60.6738 119.674 60.6468 119.48 60.6468 119.272C60.6468 118.59 60.8698 118.076 61.2998 117.728C61.7448 117.381 62.3988 117.214 63.2468 117.214C64.0968 117.214 64.7497 117.381 65.1797 117.728C65.6257 118.076 65.8488 118.59 65.8488 119.272C65.8488 119.954 65.6257 120.455 65.1797 120.802C64.7497 121.136 64.0968 121.303 63.2468 121.303C62.3848 121.303 61.7328 121.136 61.2998 120.789Z" fill="#E95248"/>
<path id="Vector_64" d="M66.7109 129.438H62.2179C61.7039 129.438 61.2599 129.328 60.8829 129.118C60.4929 128.897 60.2009 128.576 59.9939 128.159C59.7839 127.742 59.6729 127.241 59.6729 126.671C59.6729 125.809 59.9089 125.142 60.3549 124.654C60.8149 124.18 61.4399 123.944 62.2469 123.944H66.7119V125.086H62.3169C61.7459 125.086 61.3289 125.211 61.0509 125.476C60.7849 125.753 60.6469 126.157 60.6469 126.7C60.6469 127.77 61.2039 128.313 62.3309 128.313H66.7119V129.438H66.7109Z" fill="#E95248"/>
<path id="Vector_65" d="M66.7109 135.654H65.7369V133.611H59.7719V132.485H65.7369V130.439H66.7109V135.654Z" fill="#E95248"/>
<path id="Vector_66" d="M60.744 143.611H59.7719V138.646H60.5639L65.7369 142.149V138.743H66.7109V143.512H65.9169L60.744 140.007V143.611Z" fill="#E95248"/>
<path id="Vector_67" d="M68.8237 148.06C68.6297 147.949 68.3927 147.797 68.1287 147.601C67.8507 147.407 67.6127 147.226 67.3907 147.045H67.2667V147.783C67.4337 148.003 67.6697 148.282 67.9757 148.616C68.2827 148.935 68.5327 149.186 68.7267 149.353H68.8247V148.06H68.8237ZM65.8887 150.162C66.5147 149.591 66.8227 148.798 66.8227 147.767C66.8227 146.71 66.5147 145.905 65.9037 145.349C65.2927 144.778 64.4017 144.5 63.2607 144.5C62.1207 144.5 61.2307 144.777 60.6057 145.334C59.9947 145.904 59.6727 146.71 59.6727 147.754C59.6727 148.783 59.9937 149.59 60.6197 150.161C61.2447 150.716 62.1207 150.995 63.2467 150.995C64.3877 150.996 65.2637 150.716 65.8887 150.162ZM61.2997 149.283C60.8687 148.936 60.6467 148.437 60.6467 147.755C60.6467 147.073 60.8697 146.573 61.2997 146.226C61.7447 145.877 62.3987 145.711 63.2467 145.711C64.0967 145.711 64.7497 145.877 65.1797 146.226C65.6257 146.574 65.8487 147.088 65.8487 147.768C65.8487 148.438 65.6257 148.952 65.1797 149.284C64.7497 149.633 64.0967 149.8 63.2467 149.8C62.3847 149.798 61.7327 149.618 61.2997 149.283Z" fill="#E95248"/>
<path id="Vector_68" d="M26.8449 208.721V197.606C26.8449 194.579 29.3009 192.125 32.3269 192.125H83.5629C86.5919 192.125 89.0459 194.579 89.0459 197.606V208.721C89.0459 211.748 86.5919 214.201 83.5629 214.201H32.3269C29.3009 214.202 26.8449 211.749 26.8449 208.721Z" stroke="#4A4A4A" stroke-width="2" stroke-miterlimit="10"/>
<path id="Vector_69" d="M92.0648 273.911V244.7C92.0648 242.362 93.9569 240.47 96.2939 240.47H108.4C110.736 240.47 112.631 242.363 112.631 244.7V273.911C112.631 276.246 110.735 278.141 108.4 278.141H96.2939C93.9559 278.141 92.0648 276.246 92.0648 273.911Z" stroke="#414142" stroke-width="2" stroke-miterlimit="10"/>
<path id="Vector_70" d="M107.483 240.541V278.212" stroke="#414142" stroke-width="2" stroke-miterlimit="10"/>
<path id="Vector_71" d="M102.348 240.469V278.139" stroke="#414142" stroke-width="2" stroke-miterlimit="10"/>
<path id="Vector_72" d="M97.189 240.469V278.139" stroke="#414142" stroke-width="2" stroke-miterlimit="10"/>
<path id="Vector_73" d="M16.6787 281.683C16.6787 281.683 13.3537 281.407 11.6897 282.516C10.0257 283.623 8.84869 285.724 9.05469 287.686C9.26169 289.652 15.4987 288.959 15.4987 288.959L16.6787 281.683Z" fill="white"/>
<path id="Vector_74" d="M209.039 378.395H56.6418C52.8298 378.395 49.0058 378.409 45.1958 378.395C41.6068 378.395 38.1308 377.713 34.9048 376.085C31.6498 374.445 28.8408 371.942 26.7978 368.925C25.0298 366.31 24.0708 363.332 23.0978 360.371C17.8558 344.39 13.7808 327.993 10.4138 311.527C9.38483 306.492 8.42485 301.431 7.57585 296.353C6.90885 292.404 5.49085 287.982 7.42485 284.184C8.88385 281.307 11.8328 279.443 15.0308 279.234C16.8938 279.109 18.7998 279.207 20.6638 279.207C21.9718 279.207 21.9718 281.252 20.6638 281.252C18.9678 281.252 17.2568 281.182 15.5598 281.252C11.5968 281.39 8.34183 284.506 8.43883 288.566C8.48183 290.972 9.13483 293.462 9.52483 295.826C9.92683 298.204 10.3578 300.568 10.8028 302.947C11.6798 307.689 12.6398 312.418 13.6678 317.132C17.0068 332.375 20.8578 347.604 25.9058 362.374C28.4368 369.771 34.4878 375.391 42.4558 376.253C43.6938 376.393 44.9458 376.363 46.1838 376.363H209.262C218.858 376.363 227.911 372.359 233.502 364.348C237.202 359.035 238.607 352.956 238.607 346.603L238.607 30.959C238.593 22.101 234.949 13.757 227.954 8.164C222.933 4.16 216.703 2.087 210.319 2.047C209.026 2.032 207.733 2.047 206.453 2.047L106.569 2.047C104.761 2.047 102.967 1.99001 101.188 2.32301C93.6349 3.77001 87.9338 10.418 87.6978 18.109C87.4618 25.41 87.6838 32.753 87.6838 40.068V54.449C87.6978 56.674 87.6978 58.871 87.2088 61.013C87.0578 61.721 86.8488 62.431 86.5558 63.141C86.4578 63.377 86.3628 63.614 86.2378 63.85C83.7058 69.315 78.2118 72.723 72.1898 72.806C69.2278 72.847 66.2788 72.806 63.3308 72.806C54.8338 72.806 46.3228 72.778 37.8248 72.806C31.4698 72.833 25.5998 76.046 22.5548 81.721C21.4128 83.848 20.8718 86.212 20.2178 88.522C19.5078 91.011 18.8258 93.514 18.1588 96.031C17.6868 97.826 17.2278 99.635 16.7688 101.442C15.9888 104.571 15.2378 107.7 14.5148 110.843C10.3418 129.076 7.24183 147.543 5.15483 166.125C4.89183 168.419 4.65585 170.714 4.43285 173.022C3.76385 179.627 3.23585 186.248 2.84685 192.882C2.53985 198.111 2.31783 203.354 2.19283 208.597C2.12383 211.268 2.09683 213.937 2.08083 216.622C2.06783 220.265 2.58283 223.59 5.62883 226.01C9.29983 228.916 14.7788 228.026 19.1608 228.026C20.4688 228.026 20.4688 230.056 19.1608 230.056C15.1128 230.056 10.3139 230.738 6.54585 228.957C3.73685 227.621 1.56683 225.133 0.607834 222.185C-0.241166 219.612 0.0378417 216.748 0.0658417 214.078C0.204842 200.392 0.968825 186.68 2.31783 173.022C4.12683 154.748 6.96383 136.557 10.7328 118.616C12.8748 108.437 15.3358 98.339 18.1588 88.341C19.2578 84.392 20.3138 80.678 22.9988 77.479C25.3078 74.712 28.4658 72.653 31.9138 71.597C34.8358 70.705 37.8668 70.747 40.8848 70.777H70.1038C74.8748 70.777 79.3098 69.83 82.5508 65.95C85.3878 62.557 85.6528 58.636 85.6528 54.476V41.181C85.6528 33.67 85.5558 26.146 85.6528 18.637C85.7368 11.669 89.6028 5.14601 95.8878 2.00301C98.8658 0.501006 102.049 0 105.344 0L210.207 0C215.742 0.042 221.18 1.446 225.936 4.312C235.129 9.833 240.609 19.86 240.637 30.541C240.651 37.12 240.637 43.713 240.637 50.304L240.637 347.227C240.637 355.184 238.064 362.748 232.626 368.66C226.466 375.35 217.996 378.395 209.039 378.395Z" fill="#4A4A4A"/>
<path id="Vector_75" d="M128.422 29.068C130.667 26.718 133.809 25.464 137.05 25.42C137.694 25.408 138.327 25.42 138.971 25.42H154.727L154.658 25.882H144.685L132.001 27.26C132.003 27.259 130.5 28.016 128.422 29.068Z" fill="white"/>
<path id="Vector_76" d="M139.157 35.801V26.436L188.839 26.436V36.723C188.839 41.702 184.802 45.74 179.821 45.74H149.093C143.605 45.74 139.157 41.291 139.157 35.801Z" stroke="#4A4A4A" stroke-width="2" stroke-miterlimit="10"/>
<path id="Vector_77" d="M133.681 92.645L138.062 89.073C138.062 89.073 143.781 90.78 143.716 98.194C143.655 105.61 139.574 107.596 137.11 108.266C134.645 108.939 135.941 101.822 135.941 101.822L133.681 92.645Z" fill="white"/>
<path id="Vector_78" d="M140.642 214.829C137.639 214.829 134.726 214.987 131.913 213.678C127.438 211.588 125.1 207.126 125.1 202.325L125.1 123.791C125.1 122.38 125.077 120.954 125.1 119.531C125.123 118.232 125.338 116.978 125.744 115.794C126.468 113.646 127.778 111.726 129.596 110.281C132.239 108.191 135.243 107.682 138.52 107.682C139.83 107.682 139.83 109.715 138.52 109.715C135.323 109.715 132.409 110.246 130.037 112.584C128.15 114.459 127.167 116.955 127.134 119.608C127.077 124.973 127.134 130.328 127.134 135.693L127.134 202.088C127.134 206.516 129.245 210.605 133.617 212.196C135.988 213.054 138.7 212.796 141.196 212.796H184.718C187.404 212.796 190.083 212.809 192.769 212.796C198.327 212.783 203.003 208.672 203.072 202.969C203.105 200.167 203.072 197.367 203.072 194.554V39.369C203.072 38.669 203.083 37.969 203.072 37.268C202.993 31.438 198.203 27.451 192.589 27.451L140.868 27.451C138.203 27.451 135.401 27.204 132.906 28.333C129.394 29.937 127.156 33.429 127.112 37.269C127.102 37.936 127.112 38.602 127.112 39.268V67.88C127.112 71.029 127.102 74.193 127.112 77.332C127.123 79.931 127.981 82.393 129.788 84.302C132.184 86.81 135.2 87.406 138.521 87.406C139.244 87.406 139.571 88.029 139.491 88.594C139.423 89.034 139.108 89.442 138.521 89.442C135.346 89.442 132.41 88.99 129.799 87.013C126.998 84.89 125.259 81.626 125.089 78.112C124.967 75.492 125.078 72.837 125.078 70.207V40.239C125.078 39.268 125.067 38.307 125.078 37.348C125.101 35.676 125.441 34.037 126.095 32.546C126.614 31.349 127.327 30.232 128.242 29.248C128.296 29.192 128.355 29.125 128.409 29.068H128.423C130.668 26.718 133.81 25.464 137.051 25.42C137.695 25.408 138.328 25.42 138.972 25.42L191.98 25.42C192.928 25.42 193.866 25.408 194.815 25.544C198.453 26.051 201.74 28.243 203.558 31.428C203.681 31.656 203.794 31.868 203.909 32.107C205.568 35.609 205.105 39.833 205.105 43.606V201.003C205.105 202.066 205.151 203.139 205.039 204.191C204.36 210.402 199.041 214.807 192.897 214.83C185.237 214.864 177.569 214.83 169.909 214.83H140.642V214.829Z" fill="#4A4A4A"/>
<path id="Vector_79" d="M108.21 310.59L111.428 315.164C111.428 315.164 109.891 321.131 103.214 321.066C96.5377 321 94.7497 316.741 94.1427 314.17C93.5387 311.598 99.9477 312.949 99.9477 312.949L108.21 310.59Z" fill="white"/>
<path id="Vector_80" d="M10.2227 305.497H41.2968H82.8648C83.9138 305.497 84.9657 305.475 86.0117 305.497C89.2307 305.562 91.8097 307.917 92.7097 310.936C93.2827 312.863 93.0847 314.979 93.0847 316.965C93.0847 318.275 95.1197 318.277 95.1197 316.965C95.1197 315.342 95.2238 313.672 95.0138 312.059C94.6558 309.339 93.2698 306.786 91.0498 305.146C89.1638 303.753 87.0468 303.461 84.8028 303.461H69.7248H45.4538H22.2548H14.2968C13.0078 303.461 11.6808 303.369 10.3938 303.461C10.3398 303.464 10.2797 303.461 10.2227 303.461C8.91375 303.461 8.91175 305.497 10.2227 305.497Z" fill="#4A4A4A"/>
<path id="Vector_81" d="M204.92 377.386V360.979V330.384C204.92 324.77 205.019 319.145 204.92 313.53C204.814 307.543 199.515 303.517 193.81 303.463C191.975 303.442 190.139 303.463 188.302 303.463H161.653H132.456H123.809C120.551 303.463 117.43 303.834 114.76 305.98C112.331 307.932 111.052 310.759 111.037 313.853C111.032 314.981 111.037 316.109 111.037 317.238V324.101V352.983V376.137V377.386C111.037 378.695 113.07 378.696 113.07 377.386V360.812V331.076V315.124C113.07 314.019 113.008 312.896 113.273 311.813C113.697 310.096 114.722 308.594 116.101 307.5C117.849 306.11 120.007 305.507 122.216 305.496C124.102 305.485 125.986 305.496 127.873 305.496H154.053H182.845H191.788C194.597 305.496 197.31 305.566 199.697 307.371C201.707 308.892 202.854 311.148 202.887 313.658C202.896 314.297 202.887 314.938 202.887 315.578V325.018V354.491V376.236V377.385C202.885 378.695 204.92 378.696 204.92 377.386Z" fill="#4A4A4A"/>
<path id="Vector_82" d="M110.977 316.965V337.043V369.029V376.347C110.977 377.731 113.125 377.732 113.125 376.347V356.271V324.284V316.965C113.125 315.586 110.977 315.581 110.977 316.965Z" fill="white"/>
<path id="Vector_83" d="M41.1209 202.945H41.8399C42.3239 202.945 42.6719 202.855 42.8879 202.676C43.1069 202.496 43.2149 202.231 43.2149 201.879C43.2149 201.522 43.0949 201.265 42.8649 201.108C42.6279 200.953 42.2749 200.873 41.8049 200.873H41.1199V202.945H41.1209ZM41.1209 203.802V206.332H40.0859V199.998H41.8759C42.6909 199.998 43.2989 200.151 43.6889 200.459C44.0819 200.764 44.2779 201.228 44.2779 201.844C44.2779 202.633 43.8699 203.194 43.0489 203.531L44.8369 206.333H43.6559L42.1429 203.803L41.1209 203.802Z" fill="#E95248"/>
<path id="Vector_84" d="M41.1209 202.945H41.8399C42.3239 202.945 42.6719 202.855 42.8879 202.676C43.1069 202.496 43.2149 202.231 43.2149 201.879C43.2149 201.522 43.0949 201.265 42.8649 201.108C42.6279 200.953 42.2749 200.873 41.8049 200.873H41.1199V202.945H41.1209ZM41.1209 203.802V206.332H40.0859V199.998H41.8759C42.6909 199.998 43.2989 200.151 43.6889 200.459C44.0819 200.764 44.2779 201.228 44.2779 201.844C44.2779 202.633 43.8699 203.194 43.0489 203.531L44.8369 206.333H43.6559L42.1429 203.803L41.1209 203.802Z" fill="#E95248"/>
<path id="Vector_85" d="M49.3359 206.333H45.756V200.001H49.3359V200.874H46.791V202.598H49.1769V203.464H46.791V205.453H49.3359V206.333Z" fill="#E95248"/>
<path id="Vector_86" d="M49.3359 206.333H45.756V200.001H49.3359V200.874H46.791V202.598H49.1769V203.464H46.791V205.453H49.3359V206.333Z" fill="#E95248"/>
<path id="Vector_87" d="M53.3997 200.797C52.8037 200.797 52.3357 201.007 51.9957 201.43C51.6547 201.849 51.4857 202.432 51.4857 203.174C51.4857 203.95 51.6477 204.538 51.9767 204.938C52.3057 205.335 52.7767 205.536 53.3997 205.536C53.6667 205.536 53.9267 205.507 54.1777 205.455C54.4297 205.401 54.6927 205.332 54.9597 205.249V206.139C54.4647 206.326 53.9017 206.419 53.2717 206.419C52.3477 206.419 51.6337 206.139 51.1367 205.577C50.6417 205.014 50.3937 204.21 50.3937 203.167C50.3937 202.509 50.5147 201.931 50.7537 201.438C50.9977 200.944 51.3447 200.566 51.7997 200.304C52.2557 200.038 52.7927 199.91 53.4047 199.91C54.0537 199.91 54.6517 200.045 55.1997 200.315L54.8257 201.179C54.6137 201.075 54.3867 200.986 54.1487 200.91C53.9137 200.834 53.6627 200.797 53.3997 200.797Z" fill="#E95248"/>
<path id="Vector_88" d="M53.3997 200.797C52.8037 200.797 52.3357 201.007 51.9957 201.43C51.6547 201.849 51.4857 202.432 51.4857 203.174C51.4857 203.95 51.6477 204.538 51.9767 204.938C52.3057 205.335 52.7767 205.536 53.3997 205.536C53.6667 205.536 53.9267 205.507 54.1777 205.455C54.4297 205.401 54.6927 205.332 54.9597 205.249V206.139C54.4647 206.326 53.9017 206.419 53.2717 206.419C52.3477 206.419 51.6337 206.139 51.1367 205.577C50.6417 205.014 50.3937 204.21 50.3937 203.167C50.3937 202.509 50.5147 201.931 50.7537 201.438C50.9977 200.944 51.3447 200.566 51.7997 200.304C52.2557 200.038 52.7927 199.91 53.4047 199.91C54.0537 199.91 54.6517 200.045 55.1997 200.315L54.8257 201.179C54.6137 201.075 54.3867 200.986 54.1487 200.91C53.9137 200.834 53.6627 200.797 53.3997 200.797Z" fill="#E95248"/>
<path id="Vector_89" d="M59.9067 206.333H56.3277V200.001H59.9067V200.874H57.3617V202.598H59.7487V203.464H57.3617V205.453H59.9067V206.333Z" fill="#E95248"/>
<path id="Vector_90" d="M59.9067 206.333H56.3277V200.001H59.9067V200.874H57.3617V202.598H59.7487V203.464H57.3617V205.453H59.9067V206.333Z" fill="#E95248"/>
<path id="Vector_91" d="M62.3127 203.091H62.8617C63.3937 203.091 63.7827 202.999 64.0317 202.816C64.2817 202.63 64.4057 202.341 64.4057 201.949C64.4057 201.585 64.2927 201.314 64.0707 201.135C63.8477 200.956 63.5017 200.867 63.0317 200.867H62.3127V203.091ZM65.4697 201.914C65.4697 202.576 65.2537 203.081 64.8187 203.435C64.3867 203.789 63.7717 203.963 62.9707 203.963H62.3127V206.333H61.2787V200.002H63.1017C63.8897 200.002 64.4837 200.163 64.8757 200.486C65.2717 200.808 65.4697 201.286 65.4697 201.914Z" fill="#E95248"/>
<path id="Vector_92" d="M62.3127 203.091H62.8617C63.3937 203.091 63.7827 202.999 64.0317 202.816C64.2817 202.63 64.4057 202.341 64.4057 201.949C64.4057 201.585 64.2927 201.314 64.0707 201.135C63.8477 200.956 63.5017 200.867 63.0317 200.867H62.3127V203.091ZM65.4697 201.914C65.4697 202.576 65.2537 203.081 64.8187 203.435C64.3867 203.789 63.7717 203.963 62.9707 203.963H62.3127V206.333H61.2787V200.002H63.1017C63.8897 200.002 64.4837 200.163 64.8757 200.486C65.2717 200.808 65.4697 201.286 65.4697 201.914Z" fill="#E95248"/>
<path id="Vector_93" d="M69.427 200.797C68.832 200.797 68.364 201.007 68.025 201.43C67.683 201.849 67.513 202.432 67.513 203.174C67.513 203.95 67.678 204.538 68.006 204.938C68.334 205.335 68.808 205.536 69.427 205.536C69.698 205.536 69.957 205.507 70.207 205.455C70.458 205.401 70.72 205.332 70.989 205.249V206.139C70.496 206.326 69.93 206.419 69.302 206.419C68.375 206.419 67.662 206.139 67.165 205.577C66.669 205.014 66.422 204.21 66.422 203.167C66.422 202.509 66.5411 201.931 66.7831 201.438C67.0231 200.944 67.373 200.566 67.829 200.304C68.284 200.038 68.82 199.91 69.435 199.91C70.083 199.91 70.6791 200.045 71.2271 200.315L70.856 201.179C70.641 201.075 70.417 200.986 70.178 200.91C69.942 200.834 69.691 200.797 69.427 200.797Z" fill="#E95248"/>
<path id="Vector_94" d="M69.427 200.797C68.832 200.797 68.364 201.007 68.025 201.43C67.683 201.849 67.513 202.432 67.513 203.174C67.513 203.95 67.678 204.538 68.006 204.938C68.334 205.335 68.808 205.536 69.427 205.536C69.698 205.536 69.957 205.507 70.207 205.455C70.458 205.401 70.72 205.332 70.989 205.249V206.139C70.496 206.326 69.93 206.419 69.302 206.419C68.375 206.419 67.662 206.139 67.165 205.577C66.669 205.014 66.422 204.21 66.422 203.167C66.422 202.509 66.5411 201.931 66.7831 201.438C67.0231 200.944 67.373 200.566 67.829 200.304C68.284 200.038 68.82 199.91 69.435 199.91C70.083 199.91 70.6791 200.045 71.2271 200.315L70.856 201.179C70.641 201.075 70.417 200.986 70.178 200.91C69.942 200.834 69.691 200.797 69.427 200.797Z" fill="#E95248"/>
<path id="Vector_95" d="M75.938 206.333H72.356V200.001H75.938V200.874H73.391V202.598H75.776V203.464H73.391V205.453H75.938V206.333Z" fill="#E95248"/>
<path id="Vector_96" d="M75.938 206.333H72.356V200.001H75.938V200.874H73.391V202.598H75.776V203.464H73.391V205.453H75.938V206.333Z" fill="#E95248"/>
<path id="Vector_97" d="M150.6 32.916H151.676L149.458 39.249H148.366L146.158 32.916H147.225L148.546 36.854C148.614 37.042 148.688 37.284 148.766 37.578C148.843 37.875 148.893 38.095 148.918 38.241C148.957 38.019 149.014 37.766 149.09 37.478C149.168 37.189 149.232 36.975 149.279 36.837L150.6 32.916Z" fill="white"/>
<path id="Vector_98" d="M154.584 32.409V32.303C154.747 32.101 154.917 31.874 155.092 31.626C155.268 31.377 155.405 31.164 155.507 30.991H156.687V31.081C156.538 31.257 156.315 31.483 156.015 31.762C155.715 32.041 155.465 32.257 155.26 32.409H154.584ZM155.259 35.804L156.757 32.915H157.882L155.775 36.791V39.247H154.734V36.826L152.634 32.915H153.76L155.259 35.804Z" fill="white"/>
<path id="Vector_99" d="M161.602 39.248H160.567V33.804H158.705V32.916H163.466V33.804H161.602V39.248Z" fill="white"/>
<path id="Vector_100" d="M166.762 36.597L166.167 34.872C166.125 34.757 166.064 34.573 165.988 34.328C165.913 34.078 165.858 33.897 165.832 33.782C165.752 34.137 165.638 34.525 165.49 34.947L164.918 36.596L166.762 36.597ZM167.666 39.249L167.033 37.49H164.613L163.994 39.249H162.902L165.27 32.889H166.397L168.767 39.249H167.666Z" fill="white"/>
<path id="Vector_101" d="M174.597 39.248H173.556V36.395H170.636V39.248H169.604V32.916H170.636V35.506H173.556V32.916H174.597V39.248Z" fill="white"/>
<path id="Vector_102" d="M178.053 35.805L179.551 32.916H180.676L178.567 36.792V39.248H177.527V36.827L175.428 32.916H176.552L178.053 35.805Z" fill="white"/>
<path id="Vector_103" d="M29.7219 264.383L42.5619 254.897C43.4539 254.238 43.4269 252.895 42.5079 252.27L29.6719 243.549C28.6019 242.821 27.1559 243.586 27.1559 244.877V263.09C27.1559 264.411 28.6579 265.169 29.7219 264.383Z" fill="#E95248"/>
<path id="Vector_104" d="M216.819 367.249L212.831 372.649C212.552 373.022 211.986 373.013 211.723 372.626L208.057 367.228C207.75 366.777 208.072 366.169 208.617 366.169H216.277C216.831 366.168 217.15 366.803 216.819 367.249Z" fill="#E95248"/>
<path id="Vector_105" d="M127.149 104.261L134.211 99.0429C134.702 98.6799 134.688 97.9409 134.183 97.5979L127.123 92.7999C126.534 92.3999 125.738 92.8209 125.738 93.5319V103.549C125.737 104.276 126.564 104.695 127.149 104.261Z" fill="#E95248"/>
<path id="Vector_106" d="M97.1779 307.163L102.397 314.224C102.758 314.717 103.497 314.702 103.841 314.197L108.64 307.136C109.038 306.548 108.619 305.75 107.907 305.75H97.8889C97.1629 305.75 96.7459 306.578 97.1779 307.163Z" fill="#E95248"/>
<g id="R12">
<path id="Vector_107" d="M199.126 286.412V275.881C199.126 274.414 200.138 273.224 201.39 273.224H212.709C213.96 273.224 214.972 274.414 214.972 275.881V286.412C214.972 287.88 213.96 289.071 212.709 289.071H201.39C200.138 289.071 199.126 287.879 199.126 286.412Z" fill="#A7D9E2"/>
<path id="Vector_108" d="M206.554 279.146C206.7 279.729 207.185 280.145 207.819 280.145C208.617 280.145 209.25 279.52 209.25 278.726V276.747H204.458V277.71H206.49V278.183L204.458 279.232V280.312L206.552 279.147H206.554V279.146ZM207.238 278.688V277.709H208.414V278.688C208.414 279.013 208.158 279.269 207.825 279.269C207.494 279.269 207.238 279.022 207.238 278.688Z" fill="#252525"/>
<path id="Vector_109" d="M204.458 281.755V282.688H209.25V281.813L208.452 280.758H207.429L208.197 281.755H204.458ZM204.458 283.639V286.769H205.277V284.848C206.845 286.348 207.218 286.672 207.966 286.668C208.764 286.66 209.32 286.027 209.32 285.203C209.32 284.344 208.714 283.593 207.831 283.664L207.824 284.559C208.246 284.521 208.502 284.801 208.502 285.16C208.496 285.454 208.335 285.772 207.876 285.772C207.485 285.772 207.276 285.63 205.141 283.639H204.458Z" fill="#252525"/>
</g>
<g id="R9">
<path id="Vector_110" d="M199.25 228.825V218.293C199.25 216.826 200.263 215.635 201.516 215.635H212.836C214.085 215.635 215.099 216.826 215.099 218.293V228.824C215.099 230.292 214.085 231.482 212.836 231.482H201.516C200.262 231.483 199.25 230.292 199.25 228.825Z" fill="#FBED62"/>
<path id="Vector_111" d="M207.004 222.135C207.15 222.717 207.635 223.131 208.268 223.131C209.067 223.131 209.7 222.508 209.7 221.713V219.734H204.908V220.698H206.94V221.17L204.908 222.219V223.298L207.004 222.135ZM207.688 221.675V220.698H208.864V221.675C208.864 222.002 208.608 222.256 208.275 222.256C207.944 222.256 207.688 222.01 207.688 221.675Z" fill="#252525"/>
<path id="Vector_112" d="M208.103 227.409C209.046 227.401 209.77 226.602 209.764 225.626C209.751 224.675 209.027 223.862 208.077 223.867C207.241 223.876 206.519 224.526 206.429 225.388C206.422 225.446 206.418 225.516 206.422 225.58L204.909 224.405V225.464L207.029 227.024C207.341 227.242 207.706 227.409 208.103 227.409ZM207.214 225.649C207.207 225.14 207.591 224.782 208.083 224.776C208.568 224.762 208.965 225.122 208.976 225.626C208.985 226.131 208.588 226.481 208.107 226.495C207.617 226.501 207.214 226.155 207.214 225.649Z" fill="#252525"/>
</g>
<g id="R10">
<path id="Vector_113" d="M199.221 247.784V237.254C199.221 235.787 200.235 234.597 201.487 234.597H212.806C214.055 234.597 215.069 235.787 215.069 237.254V247.784C215.069 249.253 214.055 250.442 212.806 250.442H201.487C200.235 250.442 199.221 249.252 199.221 247.784Z" fill="#FBED62"/>
<path id="Vector_114" d="M206.976 239.288C207.121 239.868 207.607 240.282 208.242 240.282C209.041 240.282 209.672 239.657 209.672 238.866V236.886H204.88V237.851H206.912V238.322L204.88 239.371V240.452L206.976 239.288ZM207.66 238.827V237.85H208.835V238.827C208.835 239.153 208.58 239.409 208.246 239.409C207.916 239.409 207.66 239.159 207.66 238.827Z" fill="#252525"/>
<path id="Vector_115" d="M204.879 241.895V242.828H209.671V241.95L208.873 240.897H207.849L208.617 241.895H204.879ZM204.816 245.619C204.816 246.661 205.824 247.392 207.276 247.392C208.727 247.392 209.735 246.661 209.735 245.619C209.735 244.564 208.726 243.837 207.276 243.837C205.824 243.836 204.816 244.564 204.816 245.619ZM205.632 245.619C205.632 245.121 206.31 244.77 207.276 244.77C208.246 244.77 208.923 245.121 208.923 245.619C208.923 246.108 208.246 246.46 207.276 246.46C206.31 246.459 205.632 246.108 205.632 245.619Z" fill="#252525"/>
</g>
<g id="R3">
<path id="Vector_116" d="M108.827 212.626L113.436 219.239L114.346 220.547L119.867 228.465C120.384 229.205 121.635 229.233 122.663 228.526L131.807 222.234C132.835 221.526 133.249 220.354 132.734 219.614L127.213 211.693L126.303 210.387L121.694 203.776C121.178 203.035 119.993 202.962 119.044 203.612L118.897 203.716L109.753 210.006L109.605 210.11C108.658 210.756 108.309 211.884 108.827 212.626Z" fill="#FBED62"/>
<path id="Vector_117" d="M119.472 215.421C119.92 215.819 120.553 215.891 121.077 215.535C121.74 215.088 121.913 214.217 121.468 213.558L120.358 211.919L116.388 214.605L116.929 215.402L118.612 214.264L118.878 214.657L117.781 216.665L118.387 217.559L119.472 215.421ZM119.78 214.657L119.233 213.847L120.207 213.189L120.754 213.999C120.936 214.269 120.868 214.622 120.593 214.811C120.32 214.996 119.968 214.932 119.78 214.657Z" fill="#252525"/>
<path id="Vector_118" d="M122.31 218.495C122.642 218.639 123.006 218.624 123.31 218.418C123.893 218.022 124.014 217.209 123.582 216.569C123.143 215.923 122.342 215.731 121.759 216.126L122.246 216.876C122.44 216.744 122.716 216.82 122.871 217.048C123.045 217.308 123.001 217.618 122.762 217.778C122.493 217.961 122.163 217.905 121.987 217.646L121.985 217.641L121.805 217.377L121.199 217.79L121.412 218.105C121.627 218.419 121.539 218.818 121.213 219.04C120.877 219.268 120.473 219.201 120.26 218.886C120.052 218.579 120.08 218.204 120.33 218.035L119.808 217.283C119.168 217.718 119.044 218.642 119.539 219.373C120.038 220.106 120.995 220.292 121.72 219.803C122.164 219.502 122.356 219.009 122.31 218.495Z" fill="#252525"/>
</g>
<g id="R15">
<path id="Vector_119" d="M146.828 263.515L146.811 273.802C146.81 275.236 145.817 276.398 144.595 276.397L133.529 276.389C132.305 276.389 131.317 275.226 131.32 273.792L131.335 263.506C131.338 262.07 132.331 260.91 133.552 260.91L144.621 260.916C145.842 260.917 146.828 262.079 146.828 263.515Z" fill="#FBED62"/>
<path id="Vector_120" d="M139.481 266.415C139.63 266.981 140.107 267.383 140.73 267.379C141.511 267.372 142.126 266.756 142.12 265.981L142.104 264.041L137.412 264.079L137.419 265.023L139.409 265.006L139.413 265.47L137.433 266.511L137.441 267.57L139.481 266.415ZM140.149 265.957L140.139 264.999L141.291 264.991L141.298 265.948C141.3 266.268 141.053 266.52 140.726 266.521C140.403 266.526 140.151 266.284 140.149 265.957ZM137.449 268.671L137.456 269.585L142.148 269.546L142.141 268.688L141.349 267.663L140.347 267.671L141.109 268.643L137.449 268.671ZM137.414 272.181C137.422 273.129 138.115 273.807 139.086 273.8C139.993 273.791 140.651 273.179 140.644 272.334C140.641 271.985 140.527 271.629 140.348 271.423L141.356 271.521L141.374 273.474L142.168 273.467L142.147 270.81L139.83 270.603L139.506 271.336C139.712 271.524 139.846 271.827 139.847 272.1C139.853 272.549 139.504 272.883 139.041 272.886C138.584 272.891 138.25 272.573 138.246 272.11C138.244 271.768 138.423 271.401 138.703 271.2L138.066 270.631C137.671 270.971 137.408 271.584 137.414 272.181Z" fill="#252525"/>
</g>
<g id="R16">
<path id="Vector_121" d="M130.024 263.512L130.01 273.8C130.009 275.235 129.016 276.393 127.794 276.396L116.725 276.389C115.505 276.391 114.514 275.227 114.517 273.795L114.53 263.506C114.53 262.072 115.522 260.91 116.747 260.91L127.815 260.913C129.035 260.916 130.024 262.077 130.024 263.512Z" fill="#FBED62"/>
<path id="Vector_122" d="M121.731 265.957C121.879 266.526 122.356 266.929 122.978 266.926C123.759 266.922 124.374 266.307 124.37 265.53L124.361 263.592L119.669 263.617L119.674 264.559L121.664 264.549L121.665 265.013L119.682 266.05L119.686 267.107L121.731 265.957ZM122.399 265.502L122.395 264.545L123.546 264.538L123.55 265.496C123.552 265.814 123.303 266.065 122.977 266.068C122.653 266.071 122.402 265.829 122.399 265.502ZM119.692 268.209L119.697 269.121L124.389 269.098L124.384 268.24L123.596 267.212L122.595 267.218L123.351 268.19L119.692 268.209ZM121.31 273.505C122.137 273.492 122.834 272.85 122.922 272.005C122.922 271.949 122.928 271.895 122.928 271.83L124.412 272.961L124.406 271.924L122.321 270.412C122.014 270.196 121.654 270.035 121.266 270.038C120.347 270.049 119.639 270.836 119.651 271.792C119.667 272.733 120.384 273.511 121.31 273.505ZM120.426 271.788C120.409 271.29 120.79 270.943 121.272 270.938C121.747 270.931 122.141 271.253 122.151 271.753C122.158 272.248 121.788 272.602 121.305 272.616C120.822 272.624 120.434 272.282 120.426 271.788Z" fill="#252525"/>
</g>
<g id="R14">
<path id="Vector_123" d="M147.856 274.177V263.648C147.856 262.18 148.871 260.988 150.121 260.988H161.441C162.689 260.988 163.704 262.18 163.704 263.648V274.177C163.704 275.645 162.689 276.835 161.441 276.835H150.121C148.871 276.835 147.856 275.645 147.856 274.177Z" fill="#FBED62"/>
<path id="Vector_124" d="M155.586 266.386C155.732 266.955 156.209 267.36 156.829 267.36C157.613 267.358 158.229 266.744 158.227 265.967L158.224 264.029L153.531 264.04L153.532 264.983L155.522 264.979V265.44L153.535 266.473L153.537 267.53L155.586 266.386ZM156.256 265.935L156.255 264.977L157.407 264.975V265.932C157.408 266.25 157.16 266.501 156.832 266.501C156.507 266.502 156.256 266.262 156.256 265.935ZM153.541 268.633V269.546L158.235 269.534L158.233 268.676L157.447 267.647L156.447 267.649L157.201 268.624L153.541 268.633ZM155.341 273.831V273.419L158.242 273.412L158.24 272.27L155.107 270.286L154.531 270.287L154.535 272.514L153.547 272.517L153.548 273.423L154.537 273.419V273.833L155.341 273.831ZM155.334 271.324L157.344 272.509L155.337 272.513L155.334 271.324Z" fill="#252525"/>
</g>
<g id="Group_6">
<path id="Vector_125" d="M15.1617 119.711C15.1617 119.489 15.1617 119.27 15.2357 119.049H16.1897C16.1897 119.122 16.1897 119.195 16.1167 119.27C16.0437 119.343 16.1167 119.418 16.1167 119.49C16.1167 119.712 16.1897 119.856 16.3347 119.93C16.4837 120.001 16.7037 120.076 16.9967 120.076H21.3257V121.323H17.1437C16.4837 121.323 16.0407 121.177 15.6747 120.884C15.3097 120.589 15.1617 120.295 15.1617 119.711Z" fill="white"/>
<path id="Vector_126" d="M20.6626 126.17C21.0376 125.794 21.2466 125.21 21.2466 124.473C21.2466 123.75 21.0376 123.152 20.6626 122.79C20.3016 122.428 19.7166 122.205 18.8966 122.205C18.1716 122.205 17.5056 122.428 17.1426 122.79C16.7826 123.151 16.5596 123.75 16.5596 124.473C16.5596 125.21 16.7826 125.794 17.1426 126.17C17.5056 126.532 18.1036 126.754 18.8966 126.754C19.7166 126.754 20.3016 126.601 20.6626 126.17ZM17.8816 125.21C17.6586 125.071 17.5886 124.779 17.5886 124.473C17.5886 123.82 18.0196 123.527 18.8976 123.527C19.8566 123.527 20.3016 123.889 20.3016 124.473C20.3016 124.849 20.1476 125.072 19.9246 125.21C19.7166 125.363 19.3416 125.434 18.8976 125.434C18.4646 125.434 18.1046 125.364 17.8816 125.21Z" fill="white"/>
<path id="Vector_127" d="M18.6886 131.01C18.8266 130.856 18.9806 130.649 19.0486 130.343C19.1186 130.565 19.2716 130.717 19.4106 130.856C19.5636 131.01 19.7866 131.079 20.0786 131.079C20.4396 131.079 20.7316 130.94 20.9536 130.649C21.1776 130.343 21.2466 129.911 21.2466 129.244V127.631H16.6286V129.466C16.6286 130.051 16.6986 130.495 16.9916 130.788C17.2966 131.079 17.5886 131.233 18.0186 131.233C18.2416 131.233 18.5346 131.148 18.6886 131.01ZM20.2176 128.882V129.243C20.2176 129.618 20.1476 129.841 19.8566 129.841C19.7876 129.841 19.6336 129.758 19.5646 129.688C19.5646 129.537 19.4946 129.465 19.4946 129.244V128.883H20.2176V128.882ZM17.5886 129.328V128.883H18.6036V129.328C18.6036 129.466 18.5356 129.688 18.4646 129.759C18.3956 129.842 18.2416 129.911 18.1046 129.911C17.7276 129.911 17.5886 129.688 17.5886 129.328Z" fill="white"/>
</g>
<g id="Group_7">
<path id="Vector_128" d="M20.2979 135.483C20.2979 135.19 20.1519 134.968 19.9309 134.75C19.7109 134.603 19.3439 134.53 18.9059 134.53C18.0229 134.53 17.5849 134.896 17.5849 135.557C17.5849 135.778 17.585 135.923 17.658 136.144C17.73 136.364 17.8039 136.51 17.8779 136.729H16.851C16.705 136.364 16.5569 135.923 16.5569 135.411C16.5569 134.678 16.779 134.162 17.144 133.796C17.585 133.429 18.1719 133.208 18.9039 133.208C19.4189 133.208 19.7849 133.284 20.1539 133.503C20.5199 133.724 20.813 133.943 20.959 134.31C21.18 134.678 21.2529 135.044 21.2529 135.484C21.2529 135.999 21.18 136.436 20.959 136.952L19.933 136.587C20.003 136.437 20.0789 136.219 20.1549 136.072C20.2979 135.85 20.2979 135.704 20.2979 135.483Z" fill="white"/>
<path id="Vector_129" d="M16.6292 140.398V137.611H21.3262V140.398H20.2982V138.857H19.5662V140.252H18.5381V138.857H17.6572V140.398H16.6292Z" fill="white"/>
<path id="Vector_130" d="M16.6292 145.682V143.994L19.9312 142.305C19.4172 142.305 19.0511 142.381 18.7581 142.381H16.6292V141.279H21.3262V142.964L18.0981 144.654C18.5371 144.654 18.9782 144.58 19.1982 144.58H21.3262V145.683L16.6292 145.682Z" fill="white"/>
<path id="Vector_131" d="M16.6292 148.76V147.514H20.2982V146.416H21.3262V149.934H20.2982V148.834L16.6292 148.76Z" fill="white"/>
<path id="Vector_132" d="M18.6891 153.234C18.9811 153.748 19.4121 154.042 19.9251 154.042C20.8861 154.042 21.3311 153.388 21.3311 152.136V150.593H16.6291V151.845H18.3131V152.136L16.6291 153.164V154.626L18.6891 153.234ZM19.2721 152.066V151.844H20.3711V152.066C20.3711 152.498 20.1481 152.72 19.8571 152.72C19.4941 152.72 19.2721 152.498 19.2721 152.066Z" fill="white"/>
<path id="Vector_133" d="M21.2512 158.959H18.4642C17.8772 158.959 17.3632 158.813 17.0712 158.445C16.7042 158.079 16.5551 157.638 16.5551 156.979C16.5551 156.317 16.7032 155.877 17.0712 155.512C17.3632 155.142 17.8772 154.995 18.4642 154.995H21.3262V156.244H18.6092C18.3182 156.244 18.0222 156.316 17.8772 156.463C17.7312 156.61 17.6572 156.757 17.6572 156.979C17.6572 157.272 17.7312 157.417 17.8772 157.563C18.0232 157.71 18.2442 157.71 18.6092 157.71H21.3262L21.2512 158.959Z" fill="white"/>
<path id="Vector_134" d="M16.6292 161.967L20.0042 161.014C19.4172 161.086 18.9792 161.086 18.6852 161.086H16.6292V159.985H21.3262V161.673L18.0222 162.623L21.3262 163.58V165.267H16.6292V164.092H18.6852C18.7582 164.092 18.9031 164.092 19.0511 164.092C19.1981 164.092 19.4902 164.092 20.0042 164.168L16.6292 163.211V161.967Z" fill="white"/>
</g>
<path id="Vector_135" d="M2.31772 173.024H3.20874H4.43372H27.4627H87.5847H88.6147H89.6157" stroke="#4A4A4A" stroke-width="2" stroke-miterlimit="10"/>
<path id="Vector_136" d="M27.4629 173.024L27.4629 116.671C27.4629 109.647 23.0139 103.681 16.7699 101.442C16.2539 101.247 15.7269 101.094 15.1979 100.954" stroke="#4A4A4A" stroke-width="2" stroke-miterlimit="10"/>
</g>
</g>
</svg>
