<svg width="842" height="596" viewBox="0 0 842 596" fill="none" xmlns="http://www.w3.org/2000/svg">
<g id="Knihovna0Mobile" clipPath="url(#clip0_813_3186)">
<path id="Vector" d="M169.96 247.94L172.08 240.76L201.26 217.2L247.62 187.38C247.62 187.38 334.33 144.06 412.94 144.06C491.55 144.05 584.16 167.58 664.35 235.19C673.83 244.78 676.33 248.65 676.33 248.65L647.82 240.35L611.11 228.93L556.39 219.67L505.14 212.65L478.68 210.32L458.19 209.69L448.42 208.89L446.53 206.24L444.4 198.64L444.86 194.59C429.34 194.73 413.82 194.86 398.31 195C398.01 197.74 397.71 200.49 397.42 203.23C395.38 205.38 393.34 207.54 391.3 209.69H383.1H366.25L330.64 213.18L292.17 218.44L265.61 223.19L223.01 232.61L182.83 242.74L169.96 247.94Z" fill="#2CAAB9"/>
<path id="Vector_2" d="M175.88 355.42L246.17 373.91L315 385.77C315 385.77 426.62 401.6 538.19 382.58C560.66 379 639.38 365.34 671.69 352.66C671.69 352.66 622 402.47 538 431.13C453.99 459.79 390.59 449.85 390.59 449.85C390.59 449.85 336.16 444.19 320.07 436.19C303.98 428.18 308.2 432.3 308.2 432.3L293.84 427.01L260.4 412.14L236.5 399.21L210.25 382.56L191.37 368.28L180.05 359.79" fill="#2CAAB9"/>
<path id="Vector_3" d="M447.64 197.39C447.64 197.39 447.64 201.19 448.35 202.92C449.06 204.64 451.89 206.99 454.28 206.94C456.67 206.89 453.44 198.94 453.44 198.94" fill="#2CAAB9"/>
<path id="Vector_4" d="M163.46 274.91H178.58C183.18 274.91 186.92 278.71 186.92 283.4V312.5C186.92 317.19 183.19 320.99 178.58 320.99H163.03" fill="#2CAAB9"/>
<path id="Vector_5" d="M386.39 199.34H370.12V207.34H386.39V199.34Z" fill="#2CAAB9"/>
<path id="Vector_6" d="M443.69 355.92H404.17C397.03 355.92 391.24 350.13 391.24 342.99V258.13C391.24 250.99 397.03 245.2 404.17 245.2H443.69C450.83 245.2 456.62 250.99 456.62 258.13V342.99C456.62 350.13 450.83 355.92 443.69 355.92Z" stroke="#3A3A3A" stroke-width="1.319" stroke-miterlimit="10"/>
<path id="Vector_7" d="M392.7 252.02H455.16" stroke="#3A3A3A" stroke-width="1.319" stroke-miterlimit="10"/>
<path id="Vector_8" d="M391.24 258.81H456.62" stroke="#3A3A3A" stroke-width="1.319" stroke-miterlimit="10"/>
<path id="Vector_9" d="M391.24 265.64H456.62" stroke="#3A3A3A" stroke-width="1.319" stroke-miterlimit="10"/>
<g id="Group">
<path id="Vector_10" d="M411.35 223.76H412.72L409.89 231.84H408.5L405.68 223.76H407.04L408.73 228.78C408.82 229.02 408.91 229.33 409.01 229.71C409.11 230.09 409.17 230.37 409.2 230.55C409.25 230.27 409.32 229.95 409.42 229.58C409.52 229.21 409.6 228.94 409.66 228.76L411.35 223.76Z" fill="#3A3A3A"/>
<path id="Vector_11" d="M418.45 229.65C418.45 230.37 418.19 230.93 417.67 231.34C417.15 231.75 416.43 231.95 415.52 231.95C414.61 231.95 413.86 231.81 413.28 231.52V230.27C413.65 230.44 414.04 230.58 414.45 230.68C414.86 230.78 415.25 230.83 415.61 230.83C416.13 230.83 416.52 230.73 416.77 230.53C417.02 230.33 417.14 230.06 417.14 229.73C417.14 229.43 417.03 229.17 416.8 228.96C416.57 228.75 416.1 228.5 415.38 228.21C414.64 227.91 414.12 227.57 413.82 227.19C413.52 226.81 413.37 226.35 413.37 225.81C413.37 225.14 413.61 224.6 414.09 224.22C414.57 223.83 415.21 223.64 416.02 223.64C416.79 223.64 417.56 223.81 418.33 224.15L417.91 225.23C417.19 224.93 416.55 224.78 415.99 224.78C415.56 224.78 415.24 224.87 415.02 225.06C414.8 225.25 414.69 225.49 414.69 225.8C414.69 226.01 414.73 226.19 414.82 226.34C414.91 226.49 415.05 226.63 415.26 226.76C415.46 226.89 415.83 227.07 416.35 227.29C416.94 227.54 417.38 227.77 417.65 227.98C417.92 228.19 418.13 228.44 418.26 228.7C418.39 228.96 418.45 229.28 418.45 229.65Z" fill="#3A3A3A"/>
<path id="Vector_12" d="M422.81 231.84H421.49V224.89H419.11V223.76H425.19V224.89H422.81V231.84Z" fill="#3A3A3A"/>
<path id="Vector_13" d="M432.76 223.76V228.99C432.76 229.59 432.63 230.11 432.38 230.56C432.13 231.01 431.75 231.35 431.27 231.59C430.79 231.83 430.21 231.95 429.53 231.95C428.53 231.95 427.75 231.68 427.19 231.15C426.63 230.62 426.36 229.89 426.36 228.96V223.75H427.69V228.86C427.69 229.53 427.85 230.02 428.15 230.34C428.45 230.66 428.94 230.82 429.58 230.82C430.83 230.82 431.45 230.17 431.45 228.86V223.76H432.76V223.76Z" fill="#3A3A3A"/>
<path id="Vector_14" d="M440.18 226.2C440.18 227.04 439.9 227.69 439.35 228.14C438.8 228.59 438.01 228.81 436.99 228.81H436.15V231.83H434.83V223.75H437.16C438.17 223.75 438.93 223.96 439.43 224.37C439.92 224.79 440.18 225.4 440.18 226.2ZM436.15 227.71H436.85C437.53 227.71 438.03 227.59 438.34 227.36C438.66 227.12 438.81 226.76 438.81 226.25C438.81 225.79 438.67 225.44 438.39 225.21C438.11 224.98 437.66 224.87 437.06 224.87H436.14V227.71H436.15Z" fill="#3A3A3A"/>
</g>
<path id="Vector_15" d="M391.24 272.66H456.62" stroke="#3A3A3A" stroke-width="1.319" stroke-miterlimit="10"/>
<path id="Vector_16" d="M391.24 279.49H456.62" stroke="#3A3A3A" stroke-width="1.319" stroke-miterlimit="10"/>
<path id="Vector_17" d="M391.24 286.62H456.62" stroke="#3A3A3A" stroke-width="1.319" stroke-miterlimit="10"/>
<path id="Vector_18" d="M391.24 293.45H456.62" stroke="#3A3A3A" stroke-width="1.319" stroke-miterlimit="10"/>
<path id="Vector_19" d="M391.24 300.47H456.62" stroke="#3A3A3A" stroke-width="1.319" stroke-miterlimit="10"/>
<path id="Vector_20" d="M391.24 307.3H456.62" stroke="#3A3A3A" stroke-width="1.319" stroke-miterlimit="10"/>
<path id="Vector_21" d="M391.24 314.19H456.62" stroke="#3A3A3A" stroke-width="1.319" stroke-miterlimit="10"/>
<path id="Vector_22" d="M391.24 321.01H456.62" stroke="#3A3A3A" stroke-width="1.319" stroke-miterlimit="10"/>
<path id="Vector_23" d="M391.24 328.03H456.62" stroke="#3A3A3A" stroke-width="1.319" stroke-miterlimit="10"/>
<path id="Vector_24" d="M391.24 334.86H456.62" stroke="#3A3A3A" stroke-width="1.319" stroke-miterlimit="10"/>
<path id="Vector_25" d="M391.24 341.79H456.62" stroke="#3A3A3A" stroke-width="1.319" stroke-miterlimit="10"/>
<path id="Vector_26" d="M392.23 348.81H455.23" stroke="#3A3A3A" stroke-width="1.319" stroke-miterlimit="10"/>
<path id="Vector_27" d="M173.83 353.8C181.31 356.99 189.09 359.55 196.82 362.03C217.93 368.79 239.5 374.12 261.22 378.46C294.55 385.12 328.36 389.37 362.28 391.49C406.11 394.24 450.15 393.4 493.86 389.25C547.06 384.2 599.76 374.27 651.24 359.96C658.19 358.03 665.12 356.01 672.03 353.93C673.67 353.44 672.97 350.87 671.32 351.36C619.01 367.15 565.36 378.54 511.07 384.78C466.56 389.89 421.65 391.6 376.9 389.61C341.88 388.05 306.94 384.25 272.46 377.91C249.13 373.62 225.98 368.21 203.3 361.27C193.84 358.38 184.39 355.29 175.24 351.53C174.98 351.42 174.75 351.32 175.17 351.5C173.62 350.84 172.26 353.13 173.83 353.8Z" fill="#424242"/>
<path id="Vector_28" d="M169.16 258.33H131.99L131.99 338.43H169.16V258.33Z" fill="white"/>
<path id="Vector_29" d="M710.45 261.27H671.69V340.62H710.45V261.27Z" fill="white"/>
<path id="Vector_30" d="M676.35 340.77L676.73 339.74L677.13 340.9L676.73 341.83" fill="#424242"/>
<path id="Vector_31" d="M677.73 258.07C679 263.28 679.76 268.65 680.4 273.97C681.94 286.85 682.3 299.91 681.32 312.85C680.62 322.04 679.2 331.16 676.96 340.1C676.54 341.76 679.11 342.47 679.53 340.81C685.84 315.56 686.02 288.58 681.44 263C681.1 261.12 680.75 259.23 680.3 257.37C679.89 255.7 677.32 256.4 677.73 258.07Z" fill="#424242"/>
<path id="Vector_32" d="M680.03 340.1C680.03 340.1 679.37 343.06 676.36 348.94C673.35 354.82 681.7 342.35 681.7 342.35" fill="white"/>
<path id="Vector_33" d="M203.31 347.63L199.59 346.89L199.49 341.6C199.48 341.38 199.48 340.94 199.49 340.28C199.5 339.62 199.52 339.08 199.56 338.64C199.45 338.98 199.29 339.39 199.1 339.89C198.9 340.38 198.71 340.83 198.53 341.25C198.35 341.66 197.62 343.33 196.33 346.24L192.61 345.5L192.05 333.29L195.08 333.9L195.18 339.99C195.21 341.34 195.2 342.4 195.15 343.19C195.33 342.66 195.6 341.95 195.96 341.06C196.32 340.17 196.64 339.43 196.92 338.85L198.83 334.65L201.74 335.23L201.86 339.83C201.89 340.57 201.9 341.42 201.89 342.38C201.88 343.34 201.86 344.05 201.83 344.52C202.02 343.94 202.41 342.96 203.01 341.57L205.47 335.98L208.5 336.59L203.31 347.63Z" fill="#3A3A3A"/>
<path id="Vector_34" d="M214.7 340.31C213.95 340.16 213.31 340.35 212.77 340.88C212.23 341.41 211.85 342.21 211.64 343.29C211.19 345.53 211.82 346.82 213.53 347.16C214.04 347.26 214.56 347.29 215.07 347.24C215.58 347.19 216.1 347.12 216.63 347.01L216.1 349.67C215.04 349.91 213.9 349.9 212.68 349.66C210.92 349.31 209.68 348.53 208.95 347.32C208.22 346.11 208.04 344.55 208.43 342.62C208.67 341.42 209.11 340.4 209.74 339.58C210.38 338.76 211.17 338.19 212.12 337.87C213.07 337.55 214.12 337.5 215.27 337.73C216.53 337.98 217.68 338.5 218.71 339.27L217.25 341.55C216.86 341.26 216.46 341.01 216.06 340.78C215.64 340.57 215.2 340.41 214.7 340.31Z" fill="#3A3A3A"/>
<path id="Vector_35" d="M642.96 348.26L639.27 349.14L636.97 344.37C636.87 344.17 636.69 343.77 636.42 343.17C636.16 342.57 635.95 342.07 635.8 341.66C635.84 342.01 635.87 342.46 635.9 342.98C635.93 343.51 635.94 344 635.95 344.45C635.96 344.9 635.99 346.72 636.03 349.9L632.34 350.78L626.74 339.91L629.75 339.19L632.38 344.68C632.97 345.89 633.4 346.86 633.69 347.6C633.63 347.05 633.58 346.29 633.54 345.33C633.5 344.37 633.48 343.56 633.49 342.92L633.47 338.31L636.36 337.62L638.38 341.75C638.72 342.41 639.08 343.18 639.47 344.05C639.86 344.92 640.14 345.58 640.31 346.02C640.24 345.42 640.19 344.36 640.15 342.85L640.05 336.74L643.06 336.02L642.96 348.26Z" fill="#3A3A3A"/>
<path id="Vector_36" d="M650.26 336.86C649.52 337.04 649.01 337.48 648.74 338.18C648.47 338.89 648.46 339.78 648.71 340.84C649.24 343.06 650.35 343.97 652.04 343.57C652.55 343.45 653.03 343.26 653.47 343C653.91 342.74 654.36 342.46 654.79 342.14L655.42 344.78C654.56 345.44 653.52 345.91 652.3 346.2C650.56 346.62 649.1 346.43 647.93 345.64C646.76 344.85 645.95 343.5 645.5 341.59C645.22 340.39 645.19 339.29 645.43 338.28C645.66 337.27 646.15 336.42 646.88 335.73C647.61 335.04 648.54 334.56 649.69 334.29C650.94 333.99 652.2 333.98 653.46 334.25L653.09 336.93C652.62 336.83 652.15 336.76 651.69 336.73C651.22 336.71 650.75 336.75 650.26 336.86Z" fill="#3A3A3A"/>
<path id="Vector_37" d="M398.83 195.24C398.83 195.24 400.57 184.97 421.03 184.97C441.48 184.97 445.06 194.51 445.06 194.51L436.71 197.39H413.99L398.83 195.24Z" fill="white"/>
<path id="Vector_38" d="M170.66 249.5C175.08 247.9 179.57 246.47 184.06 245.05C196.24 241.21 208.54 237.75 220.9 234.57C239.09 229.9 257.44 225.84 275.9 222.42C298.69 218.19 321.67 214.92 344.75 212.77C357.27 211.6 369.82 210.76 382.38 210.29C387.33 210.1 393.44 211.07 397.01 206.82C399.34 204.05 399.16 200.79 399.16 197.42V194.21C399.16 192.5 396.5 192.5 396.5 194.21C396.5 196.45 396.57 198.69 396.5 200.93C396.43 203.18 395.38 205.23 393.44 206.43C391.09 207.89 387.86 207.43 385.22 207.52C372.72 207.94 360.23 208.72 347.77 209.83C325.01 211.86 302.34 214.97 279.84 219.01C261.26 222.35 242.79 226.32 224.47 230.92C211.63 234.14 198.87 237.67 186.23 241.58C180.89 243.23 175.35 244.73 170.16 246.85C170.09 246.88 170.02 246.9 169.95 246.92C168.35 247.51 169.04 250.08 170.66 249.5Z" fill="#424242"/>
<path id="Vector_39" d="M170.75 275.3H164.57C164.57 275.3 161.71 300.8 164.94 320.6C165.14 320.83 170.75 320.6 170.75 320.6V275.3Z" fill="#2CAAB9"/>
<g id="Group_2">
<path id="Vector_40" d="M387.94 174.03H385.64L381.83 168.54L380.66 169.49V174.03H378.68V161.9H380.66V167.69C381.2 167.03 381.74 166.39 382.28 165.77L385.56 161.9H387.81C385.69 164.39 384.18 166.16 383.26 167.22L387.94 174.03Z" fill="white"/>
<path id="Vector_41" d="M399.64 174.03H397.21L391.25 164.37H391.18L391.22 164.91C391.3 165.94 391.34 166.88 391.34 167.73V174.03H389.54V161.9H391.94L397.89 171.51H397.94C397.93 171.38 397.91 170.92 397.87 170.12C397.83 169.32 397.82 168.7 397.82 168.25V161.9H399.64V174.03Z" fill="white"/>
<path id="Vector_42" d="M402.84 174.03V161.9H404.82V174.02H402.84V174.03Z" fill="white"/>
<path id="Vector_43" d="M417.58 174.03H415.59V168.57H410V174.03H408.02V161.9H410V166.86H415.59V161.9H417.58V174.03Z" fill="white"/>
<path id="Vector_44" d="M431.54 167.95C431.54 169.92 431.05 171.46 430.06 172.55C429.07 173.64 427.68 174.19 425.87 174.19C424.04 174.19 422.63 173.65 421.65 172.56C420.67 171.47 420.18 169.93 420.18 167.93C420.18 165.93 420.67 164.39 421.66 163.32C422.65 162.25 424.06 161.71 425.88 161.71C427.68 161.71 429.08 162.25 430.06 163.34C431.04 164.44 431.54 165.97 431.54 167.95ZM422.28 167.95C422.28 169.44 422.58 170.57 423.18 171.35C423.78 172.12 424.68 172.51 425.86 172.51C427.04 172.51 427.93 172.13 428.53 171.37C429.13 170.61 429.43 169.47 429.43 167.96C429.43 166.47 429.13 165.35 428.54 164.58C427.95 163.81 427.06 163.43 425.88 163.43C424.69 163.43 423.8 163.81 423.19 164.58C422.59 165.33 422.28 166.46 422.28 167.95Z" fill="white"/>
<path id="Vector_45" d="M441.05 161.9H443.11L438.86 174.02H436.77L432.54 161.9H434.58L437.11 169.44C437.24 169.8 437.38 170.26 437.53 170.83C437.68 171.4 437.78 171.82 437.82 172.09C437.89 171.67 438 171.18 438.15 170.63C438.3 170.08 438.42 169.67 438.52 169.4L441.05 161.9Z" fill="white"/>
<path id="Vector_46" d="M454.8 174.03H452.37L446.41 164.37H446.34L446.38 164.91C446.46 165.94 446.5 166.88 446.5 167.73V174.03H444.7V161.9H447.1L453.05 171.51H453.1C453.09 171.38 453.07 170.92 453.03 170.12C452.99 169.32 452.98 168.7 452.98 168.25V161.9H454.8V174.03Z" fill="white"/>
<path id="Vector_47" d="M465.53 174.03L464.32 170.66H459.69L458.5 174.03H456.41L460.95 161.86H463.11L467.65 174.03H465.53ZM463.79 168.95L462.65 165.65C462.57 165.43 462.45 165.08 462.31 164.61C462.16 164.13 462.06 163.79 462.01 163.57C461.86 164.25 461.64 164.99 461.35 165.8L460.26 168.96H463.79V168.95Z" fill="white"/>
</g>
<g id="Group_3">
<path id="Vector_48" d="M382.61 422.33V427.17H380.63V415.05H384.05C385.61 415.05 386.77 415.34 387.52 415.93C388.27 416.52 388.65 417.4 388.65 418.58C388.65 420.09 387.86 421.16 386.3 421.81L389.72 427.17H387.47L384.57 422.33H382.61ZM382.61 420.69H383.99C384.91 420.69 385.58 420.52 386 420.18C386.42 419.84 386.62 419.33 386.62 418.65C386.62 417.96 386.4 417.47 385.95 417.17C385.5 416.87 384.83 416.72 383.93 416.72H382.62V420.69H382.61Z" fill="white"/>
<path id="Vector_49" d="M398.34 427.17H391.48V415.05H398.34V416.73H393.46V420.03H398.03V421.69H393.46V425.5H398.34V427.17Z" fill="white"/>
<path id="Vector_50" d="M410.22 427.17H407.92L404.11 421.68L402.94 422.63V427.17H400.96V415.05H402.94V420.84C403.48 420.18 404.02 419.54 404.56 418.92L407.84 415.05H410.09C407.97 417.54 406.46 419.31 405.54 420.37L410.22 427.17Z" fill="white"/>
<path id="Vector_51" d="M416.01 427.17H414.03V416.75H410.46V415.05H419.57V416.75H416V427.17H416.01Z" fill="white"/>
<path id="Vector_52" d="M432.19 421.09C432.19 423.06 431.7 424.6 430.71 425.69C429.72 426.78 428.33 427.33 426.52 427.33C424.69 427.33 423.28 426.79 422.3 425.7C421.32 424.61 420.83 423.07 420.83 421.07C420.83 419.07 421.32 417.53 422.31 416.46C423.3 415.39 424.71 414.85 426.53 414.85C428.33 414.85 429.73 415.39 430.71 416.48C431.7 417.58 432.19 419.12 432.19 421.09ZM422.94 421.09C422.94 422.58 423.24 423.71 423.84 424.49C424.44 425.26 425.34 425.65 426.52 425.65C427.7 425.65 428.59 425.27 429.19 424.51C429.79 423.75 430.09 422.61 430.09 421.1C430.09 419.61 429.79 418.49 429.2 417.72C428.61 416.95 427.72 416.57 426.54 416.57C425.35 416.57 424.46 416.95 423.85 417.72C423.24 418.48 422.94 419.61 422.94 421.09Z" fill="white"/>
<path id="Vector_53" d="M436.78 422.33V427.17H434.8V415.05H438.22C439.78 415.05 440.94 415.34 441.69 415.93C442.44 416.52 442.82 417.4 442.82 418.58C442.82 420.09 442.03 421.16 440.47 421.81L443.89 427.17H441.64L438.74 422.33H436.78ZM436.78 420.69H438.16C439.08 420.69 439.75 420.52 440.17 420.18C440.59 419.84 440.79 419.33 440.79 418.65C440.79 417.96 440.57 417.47 440.12 417.17C439.67 416.87 439 416.72 438.1 416.72H436.79V420.69H436.78Z" fill="white"/>
<path id="Vector_54" d="M453.17 427.17L451.96 423.8H447.33L446.14 427.17H444.05L448.59 415H450.75L455.29 427.17H453.17ZM451.44 422.1L450.3 418.8C450.22 418.58 450.1 418.23 449.96 417.76C449.81 417.28 449.71 416.94 449.66 416.72C449.51 417.4 449.29 418.14 449 418.95L447.91 422.11H451.44V422.1ZM448.46 414.08V413.87C448.78 413.48 449.1 413.05 449.43 412.58C449.76 412.1 450.03 411.7 450.22 411.36H452.48V411.53C452.19 411.87 451.76 412.3 451.19 412.84C450.62 413.37 450.14 413.79 449.74 414.08H448.46Z" fill="white"/>
<path id="Vector_55" d="M461.06 427.17H459.08V416.75H455.51V415.05H464.62V416.75H461.05V427.17H461.06Z" fill="white"/>
</g>
<path id="Vector_56" d="M384.57 422.33L387.47 427.17H389.73L386.3 421.8C387.87 421.16 388.65 420.08 388.65 418.57C388.65 417.39 388.27 416.5 387.52 415.92C386.77 415.33 385.61 415.04 384.05 415.04H380.63V427.16H382.61V422.32H384.57V422.33ZM382.61 416.72H383.92C384.82 416.72 385.5 416.87 385.94 417.17C386.39 417.47 386.61 417.96 386.61 418.65C386.61 419.32 386.4 419.83 385.99 420.18C385.57 420.52 384.91 420.69 383.98 420.69H382.6V416.72H382.61Z" stroke="white" stroke-width="0.278" stroke-miterlimit="10"/>
<path id="Vector_57" d="M398.34 425.49H393.47V421.68H398.04V420.03H393.47V416.73H398.34V415.05H391.49V427.17H398.34V425.49Z" stroke="white" stroke-width="0.278" stroke-miterlimit="10"/>
<path id="Vector_58" d="M405.54 420.37C406.46 419.32 407.98 417.54 410.09 415.05H407.84L404.56 418.92C404.02 419.53 403.48 420.17 402.94 420.83V415.04H400.96V427.16H402.94V422.62L404.11 421.67L407.92 427.16H410.22L405.54 420.37Z" stroke="white" stroke-width="0.278" stroke-miterlimit="10"/>
<path id="Vector_59" d="M416 416.75H419.57V415.05H410.46V416.75H414.02V427.17H416V416.75Z" stroke="white" stroke-width="0.278" stroke-miterlimit="10"/>
<path id="Vector_60" d="M423.84 417.71C424.45 416.94 425.34 416.56 426.53 416.56C427.71 416.56 428.59 416.94 429.19 417.71C429.79 418.48 430.08 419.61 430.08 421.09C430.08 422.6 429.78 423.73 429.18 424.5C428.58 425.26 427.69 425.64 426.51 425.64C425.33 425.64 424.43 425.25 423.83 424.48C423.23 423.71 422.93 422.58 422.93 421.08C422.94 419.61 423.24 418.48 423.84 417.71ZM430.71 416.49C429.73 415.4 428.33 414.86 426.53 414.86C424.7 414.86 423.29 415.4 422.31 416.47C421.32 417.54 420.83 419.08 420.83 421.08C420.83 423.08 421.32 424.62 422.3 425.71C423.28 426.8 424.69 427.34 426.52 427.34C428.33 427.34 429.72 426.79 430.71 425.7C431.7 424.61 432.19 423.07 432.19 421.1C432.19 419.12 431.7 417.58 430.71 416.49Z" stroke="white" stroke-width="0.278" stroke-miterlimit="10"/>
<path id="Vector_61" d="M438.73 422.33L441.63 427.17H443.89L440.46 421.8C442.03 421.16 442.81 420.08 442.81 418.57C442.81 417.39 442.43 416.5 441.68 415.92C440.93 415.33 439.77 415.04 438.21 415.04H434.79V427.16H436.77V422.32H438.73V422.33ZM436.78 416.72H438.09C438.99 416.72 439.67 416.87 440.11 417.17C440.56 417.47 440.78 417.96 440.78 418.65C440.78 419.32 440.57 419.83 440.16 420.18C439.74 420.52 439.08 420.69 438.15 420.69H436.77V416.72H436.78Z" stroke="white" stroke-width="0.278" stroke-miterlimit="10"/>
<path id="Vector_62" d="M449.75 414.08C450.14 413.79 450.62 413.37 451.2 412.84C451.77 412.31 452.2 411.87 452.49 411.53V411.36H450.23C450.04 411.7 449.77 412.1 449.44 412.58C449.1 413.05 448.78 413.49 448.46 413.87V414.08H449.75ZM447.9 422.1L448.99 418.94C449.28 418.13 449.5 417.39 449.64 416.71C449.69 416.93 449.8 417.28 449.94 417.75C450.09 418.23 450.2 418.57 450.28 418.8L451.42 422.1H447.9ZM455.27 427.17L450.74 415H448.58L444.04 427.17H446.13L447.32 423.8H451.96L453.17 427.17H455.27Z" stroke="white" stroke-width="0.278" stroke-miterlimit="10"/>
<path id="Vector_63" d="M461.06 416.75H464.63V415.05H455.51V416.75H459.08V427.17H461.06V416.75Z" stroke="white" stroke-width="0.278" stroke-miterlimit="10"/>
<path id="Vector_64" d="M171.32 311.56V310.36L178.4 312.84V314.06L171.32 316.53V315.34L175.72 313.86C175.93 313.78 176.2 313.7 176.53 313.61C176.86 313.52 177.11 313.47 177.27 313.44C177.03 313.4 176.74 313.33 176.42 313.25C176.1 313.16 175.86 313.09 175.7 313.04L171.32 311.56Z" fill="white"/>
<path id="Vector_65" d="M171.32 311.56V310.36L178.4 312.84V314.06L171.32 316.53V315.34L175.72 313.86C175.93 313.78 176.2 313.7 176.53 313.61C176.86 313.52 177.11 313.47 177.27 313.44C177.03 313.4 176.74 313.33 176.42 313.25C176.1 313.16 175.86 313.09 175.7 313.04L171.32 311.56Z" stroke="white" stroke-width="0.276" stroke-miterlimit="10"/>
<path id="Vector_66" d="M174.55 307.42L171.32 305.74V304.48L175.65 306.84H178.4V308H175.69L171.32 310.35V309.09L174.55 307.42ZM170.75 308.18H170.63C170.4 308 170.15 307.81 169.87 307.61C169.59 307.41 169.35 307.26 169.16 307.15V305.83H169.26C169.46 306 169.71 306.25 170.02 306.58C170.33 306.91 170.57 307.19 170.74 307.42V308.18H170.75Z" fill="white"/>
<path id="Vector_67" d="M174.55 307.42L171.32 305.74V304.48L175.65 306.84H178.4V308H175.69L171.32 310.35V309.09L174.55 307.42ZM170.75 308.18H170.63C170.4 308 170.15 307.81 169.87 307.61C169.59 307.41 169.35 307.26 169.16 307.15V305.83H169.26C169.46 306 169.71 306.25 170.02 306.58C170.33 306.91 170.57 307.19 170.74 307.42V308.18H170.75Z" stroke="white" stroke-width="0.276" stroke-miterlimit="10"/>
<path id="Vector_68" d="M178.39 300.46V301.62H172.3V303.71H171.31V298.38H172.3V300.46H178.39Z" fill="white"/>
<path id="Vector_69" d="M178.39 300.46V301.62H172.3V303.71H171.31V298.38H172.3V300.46H178.39Z" stroke="white" stroke-width="0.276" stroke-miterlimit="10"/>
<path id="Vector_70" d="M178.4 293.55L176.43 294.26V296.97L178.4 297.66V298.88L171.29 296.23V294.97L178.4 292.32V293.55ZM175.44 294.56L173.51 295.22C173.38 295.27 173.18 295.34 172.9 295.42C172.62 295.51 172.42 295.57 172.29 295.6C172.69 295.69 173.12 295.82 173.59 295.98L175.44 296.62V294.56V294.56Z" fill="white"/>
<path id="Vector_71" d="M178.4 293.55L176.43 294.26V296.97L178.4 297.66V298.88L171.29 296.23V294.97L178.4 292.32V293.55ZM175.44 294.56L173.51 295.22C173.38 295.27 173.18 295.34 172.9 295.42C172.62 295.51 172.42 295.57 172.29 295.6C172.69 295.69 173.12 295.82 173.59 295.98L175.44 296.62V294.56V294.56Z" stroke="white" stroke-width="0.276" stroke-miterlimit="10"/>
<path id="Vector_72" d="M178.4 285.8V286.96H175.21V290.22H178.4V291.38H171.32V290.22H174.22V286.96H171.32V285.8H178.4Z" fill="white"/>
<path id="Vector_73" d="M178.4 285.8V286.96H175.21V290.22H178.4V291.38H171.32V290.22H174.22V286.96H171.32V285.8H178.4Z" stroke="white" stroke-width="0.276" stroke-miterlimit="10"/>
<path id="Vector_74" d="M174.55 281.93L171.32 280.26V279L175.65 281.35H178.4V282.52H175.69L171.32 284.87V283.61L174.55 281.93Z" fill="white"/>
<path id="Vector_75" d="M174.55 281.93L171.32 280.26V279L175.65 281.35H178.4V282.52H175.69L171.32 284.87V283.61L174.55 281.93Z" stroke="white" stroke-width="0.276" stroke-miterlimit="10"/>
<path id="Vector_76" d="M433.47 213.97L422.79 199.52C422.05 198.52 420.54 198.54 419.83 199.58L410.01 214.03C409.19 215.23 410.05 216.86 411.51 216.86H432.01C433.5 216.86 434.35 215.17 433.47 213.97Z" fill="#E94C41"/>
<path id="Vector_77" d="M186.76 330.95L177.12 335.48C176.45 335.8 176.29 336.68 176.81 337.21L184.07 344.6C184.67 345.22 185.72 344.9 185.89 344.06L188.27 332.14C188.44 331.27 187.56 330.58 186.76 330.95Z" fill="#E94C41"/>
<path id="Vector_78" d="M658.2 331.17L668 335.35C668.68 335.64 668.87 336.52 668.37 337.06L661.38 344.71C660.8 345.35 659.74 345.07 659.54 344.23L656.73 332.4C656.53 331.54 657.39 330.82 658.2 331.17Z" fill="#E94C41"/>
<g id="R29">
<path id="Vector_79" d="M270.92 254.18L283.92 252.2C285.73 251.92 287.4 252.95 287.63 254.5L289.78 268.49C290.02 270.04 288.74 271.51 286.93 271.79L273.93 273.78C272.12 274.06 270.45 273.03 270.22 271.48L268.07 257.49C267.83 255.93 269.11 254.45 270.92 254.18Z" fill="#A8D9E2"/>
<g id="Group_4">
<path id="Vector_80" d="M276.98 265.72L275.64 265.91L273.98 263.58L273.39 263.66L273.75 266.18L272.55 266.35L271.7 260.41L274.15 260.06C275.13 259.92 276.02 260.59 276.16 261.58C276.27 262.36 275.84 263.04 275.15 263.32L276.98 265.72ZM275.09 261.73C275.03 261.32 274.67 261.05 274.27 261.11L273.06 261.28L273.27 262.74L274.48 262.57C274.89 262.5 275.15 262.14 275.09 261.73Z" fill="#121212"/>
<path id="Vector_81" d="M277.17 264.82C279.26 261.82 279.4 261.54 279.33 261.06C279.25 260.49 278.82 260.35 278.46 260.39C278.02 260.45 277.71 260.82 277.84 261.33L276.73 261.48C276.49 260.4 277.31 259.52 278.37 259.36C279.39 259.21 280.27 259.79 280.42 260.78C280.56 261.7 280.22 262.22 278.64 264.43L281.02 264.09L281.16 265.1L277.28 265.65L277.17 264.82Z" fill="#121212"/>
<path id="Vector_82" d="M285.34 261.84L283.78 264.74L282.47 264.93L283.66 262.85C283.58 262.87 283.49 262.87 283.42 262.88C282.34 262.92 281.4 262.14 281.25 261.11C281.07 259.93 281.95 258.89 283.13 258.71C284.34 258.53 285.46 259.28 285.63 260.45C285.69 260.94 285.55 261.42 285.34 261.84ZM284.49 260.6C284.39 260.01 283.88 259.58 283.26 259.68C282.64 259.78 282.26 260.34 282.36 260.94C282.45 261.55 282.97 261.96 283.6 261.86C284.23 261.77 284.59 261.21 284.49 260.6Z" fill="#121212"/>
</g>
</g>
<g id="R30">
<path id="Vector_83" d="M301.49 249.34L314.54 247.67C316.36 247.44 318 248.51 318.2 250.06L320.01 264.09C320.21 265.64 318.9 267.09 317.08 267.32L304.03 268.99C302.21 269.22 300.57 268.15 300.37 266.6L298.56 252.57C298.36 251.01 299.67 249.57 301.49 249.34Z" fill="#A8D9E2"/>
<g id="Group_5">
<path id="Vector_84" d="M306.74 261.39L305.4 261.56L303.78 259.2L303.19 259.27L303.5 261.79L302.3 261.94L301.56 255.99L304.02 255.68C305 255.56 305.88 256.25 306 257.24C306.1 258.03 305.66 258.69 304.96 258.97L306.74 261.39ZM304.92 257.37C304.87 256.96 304.51 256.68 304.11 256.73L302.9 256.88L303.08 258.34L304.29 258.19C304.7 258.14 304.97 257.78 304.92 257.37Z" fill="#121212"/>
<path id="Vector_85" d="M310.74 259C310.87 260.09 310.12 261.05 309.02 261.19C307.93 261.33 306.97 260.67 306.85 259.7L307.98 259.54C308.03 259.91 308.43 260.16 308.89 260.1C309.37 260.04 309.67 259.63 309.61 259.13C309.55 258.64 309.15 258.32 308.68 258.38L308.21 258.44L308.09 257.53L308.49 257.48H308.5C308.89 257.43 309.14 257.09 309.09 256.69C309.05 256.33 308.73 256.11 308.34 256.16C308 256.2 307.76 256.47 307.79 256.76L306.68 256.87C306.57 256 307.24 255.21 308.21 255.09C309.17 254.97 310.01 255.57 310.12 256.44C310.18 256.9 309.99 257.31 309.64 257.61C310.21 257.84 310.65 258.33 310.74 259Z" fill="#121212"/>
<path id="Vector_86" d="M311.46 257.78C311.24 255.98 311.98 254.61 313.29 254.45C314.58 254.29 315.65 255.43 315.88 257.23C316.1 259.03 315.35 260.4 314.05 260.56C312.74 260.72 311.68 259.58 311.46 257.78ZM314.72 257.38C314.57 256.17 314.03 255.39 313.42 255.46C312.8 255.54 312.47 256.43 312.62 257.64C312.77 258.84 313.31 259.62 313.93 259.55C314.53 259.47 314.87 258.57 314.72 257.38Z" fill="#121212"/>
</g>
</g>
<g id="R31">
<path id="Vector_87" d="M333.23 246.02L346.38 245.54C348.21 245.47 349.75 246.69 349.8 248.25L350.32 262.39C350.38 263.95 348.94 265.27 347.11 265.34L333.96 265.82C332.13 265.89 330.59 264.67 330.54 263.11L330.02 248.97C329.96 247.41 331.39 246.09 333.23 246.02Z" fill="#A8D9E2"/>
<g id="Group_6">
<path id="Vector_88" d="M338.76 258.56L337.41 258.64L335.95 256.18L335.36 256.21L335.51 258.75L334.3 258.82L333.95 252.83L336.42 252.68C337.41 252.62 338.24 253.37 338.3 254.36C338.35 255.15 337.86 255.79 337.15 256.01L338.76 258.56ZM337.21 254.44C337.19 254.02 336.85 253.72 336.44 253.75L335.22 253.82L335.31 255.29L336.53 255.22C336.94 255.19 337.23 254.85 337.21 254.44Z" fill="#121212"/>
<path id="Vector_89" d="M342.9 256.44C342.96 257.53 342.15 258.45 341.04 258.51C339.94 258.57 339.02 257.85 338.96 256.89L340.1 256.81C340.12 257.19 340.51 257.46 340.97 257.43C341.45 257.4 341.78 257.01 341.75 256.5C341.72 256 341.35 255.66 340.87 255.69L340.4 255.72L340.34 254.8L340.74 254.78H340.75C341.14 254.76 341.41 254.44 341.39 254.03C341.37 253.67 341.06 253.43 340.67 253.45C340.33 253.47 340.07 253.72 340.09 254.01L338.97 254.05C338.92 253.17 339.64 252.43 340.61 252.38C341.58 252.32 342.37 252.97 342.43 253.85C342.46 254.31 342.24 254.71 341.87 254.98C342.45 255.25 342.86 255.77 342.9 256.44Z" fill="#121212"/>
<path id="Vector_90" d="M344.62 253.53L343.43 254.56L343.35 253.28L344.61 252.2L345.7 252.14L346.05 258.13L344.88 258.2L344.62 253.53Z" fill="#121212"/>
</g>
</g>
<g id="R32">
<path id="Vector_91" d="M224.94 242.13L238.09 242.1C239.92 242.1 241.42 243.36 241.42 244.92L241.47 259.07C241.48 260.63 239.99 261.9 238.16 261.91L225.01 261.94C223.18 261.94 221.68 260.68 221.68 259.12L221.63 244.97C221.62 243.4 223.11 242.13 224.94 242.13Z" fill="#A8D9E2"/>
<g id="Group_7">
<path id="Vector_92" d="M229.59 254.97H228.24L226.93 252.43H226.34V254.97H225.13V248.97H227.61C228.6 248.97 229.39 249.76 229.39 250.76C229.39 251.55 228.87 252.16 228.14 252.34L229.59 254.97ZM228.28 250.75C228.28 250.33 227.96 250.01 227.55 250.01H226.33V251.48H227.55C227.97 251.49 228.28 251.17 228.28 250.75Z" fill="#121212"/>
<path id="Vector_93" d="M233.26 253.09C233.26 254.19 232.4 255.05 231.29 255.05C230.19 255.05 229.31 254.27 229.31 253.31L230.45 253.29C230.45 253.67 230.82 253.96 231.28 253.96C231.76 253.96 232.11 253.58 232.11 253.08C232.11 252.58 231.76 252.22 231.28 252.22H230.81L230.8 251.3H231.2H231.21C231.6 251.3 231.89 251 231.89 250.59C231.89 250.23 231.6 249.97 231.21 249.97C230.87 249.97 230.59 250.2 230.59 250.5L229.47 250.48C229.47 249.6 230.23 248.9 231.21 248.9C232.18 248.9 232.94 249.6 232.94 250.48C232.94 250.94 232.7 251.33 232.32 251.58C232.88 251.87 233.26 252.42 233.26 253.09Z" fill="#121212"/>
<path id="Vector_94" d="M233.46 254.11C235.96 251.44 236.13 251.18 236.13 250.69C236.13 250.11 235.73 249.91 235.36 249.91C234.91 249.91 234.56 250.23 234.61 250.76L233.49 250.75C233.4 249.65 234.34 248.89 235.42 248.89C236.45 248.89 237.24 249.59 237.25 250.58C237.26 251.52 236.85 251.98 234.97 253.95H237.38V254.97H233.46V254.11Z" fill="#121212"/>
</g>
</g>
<path id="Vector_95" d="M164.38 276.24C169.15 276.24 173.94 276.15 178.71 276.24C182.7 276.31 185.5 279.5 185.59 283.42C185.62 284.89 185.59 286.36 185.59 287.82V306.65C185.59 308.51 185.6 310.37 185.59 312.23C185.56 315.86 183.21 319.37 179.35 319.65C174.28 320.02 169.06 319.66 163.97 319.66C162.26 319.66 162.26 322.32 163.97 322.32C168.93 322.32 173.91 322.43 178.87 322.32C183.31 322.22 187.11 319.04 188.02 314.67C188.39 312.87 188.25 310.95 188.25 309.12V289.24C188.25 287.33 188.28 285.42 188.25 283.52C188.18 279.51 186.01 275.72 182.19 274.21C179.45 273.12 176.01 273.58 173.12 273.58H164.38C162.66 273.58 162.66 276.24 164.38 276.24Z" fill="#424242"/>
<path id="Vector_96" d="M389.62 207.48C389.67 207.48 392.38 207.73 394.6 205.63C396.82 203.53 396.7 199.15 396.7 199.15" fill="#2CAAB9"/>
<path id="Vector_97" d="M672.82 249.72L676.23 250.96L675.15 249.05L673.52 248.68L672.82 249.72Z" fill="#424242"/>
<path id="Vector_98" d="M681.22 261.44C681.22 261.44 681.05 256.78 677.56 249.3C674.07 241.82 687.75 257.71 687.75 257.71L685.42 262.73" fill="white"/>
<path id="Vector_99" d="M677.13 339.05C677.13 339.05 676.85 341.49 676.05 342.76C675.25 344.04 675.03 339.96 675.03 339.96" fill="white"/>
<path id="Vector_100" d="M679.73 339.74C679.73 339.74 679.37 342.15 678.09 344.68C676.81 347.2 683.55 340.25 683.55 340.25L683.33 339.49" fill="white"/>
<path id="Vector_101" d="M294.61 227.32C316.98 223.02 339.79 220.18 362.52 218.76C372.08 218.17 381.67 217.89 391.25 218.19C392.96 218.24 392.96 215.58 391.25 215.53C374.07 214.99 356.84 216.22 339.77 218.07C326.89 219.47 314.05 221.26 301.28 223.44C298.82 223.86 296.36 224.28 293.9 224.76C292.22 225.08 292.93 227.64 294.61 227.32Z" fill="#424242"/>
<g id="Group_8">
<path id="Vector_102" d="M317.43 237.3C317.06 237.34 316.75 237.32 316.49 237.25L316.37 236.12C316.69 236.17 316.97 236.18 317.2 236.15C317.94 236.07 318.26 235.57 318.16 234.64L317.34 226.65L318.69 226.51L319.51 234.45C319.6 235.29 319.46 235.96 319.11 236.44C318.76 236.94 318.2 237.22 317.43 237.3Z" fill="#3A3A3A"/>
<path id="Vector_103" d="M328.58 229.66C328.72 231 328.49 232.08 327.9 232.89C327.31 233.7 326.39 234.17 325.16 234.3C323.92 234.43 322.92 234.16 322.18 233.49C321.44 232.82 321 231.81 320.86 230.44C320.72 229.08 320.95 228 321.54 227.2C322.14 226.4 323.06 225.94 324.3 225.81C325.52 225.68 326.51 225.96 327.26 226.63C328.01 227.3 328.44 228.31 328.58 229.66ZM322.29 230.3C322.39 231.31 322.68 232.06 323.14 232.54C323.6 233.02 324.24 233.22 325.04 233.14C325.84 233.06 326.42 232.74 326.77 232.18C327.12 231.62 327.25 230.83 327.14 229.8C327.04 228.79 326.76 228.04 326.3 227.56C325.84 227.08 325.21 226.88 324.41 226.96C323.6 227.04 323.02 227.37 322.66 227.93C322.31 228.51 322.18 229.29 322.29 230.3Z" fill="#3A3A3A"/>
<path id="Vector_104" d="M329.93 225.37L332.38 225.12C333.52 225 334.35 225.08 334.89 225.36C335.43 225.64 335.74 226.14 335.81 226.85C335.86 227.33 335.78 227.74 335.56 228.09C335.34 228.44 335.01 228.67 334.55 228.8L334.56 228.86C335.15 228.91 335.6 229.08 335.9 229.37C336.2 229.66 336.39 230.08 336.44 230.63C336.52 231.37 336.32 231.98 335.84 232.45C335.36 232.92 334.67 233.21 333.75 233.3L330.77 233.61L329.93 225.37ZM331.62 228.63L332.92 228.5C333.48 228.44 333.89 228.31 334.13 228.11C334.37 227.9 334.47 227.59 334.42 227.16C334.38 226.77 334.21 226.51 333.91 226.36C333.61 226.21 333.16 226.17 332.55 226.24L331.38 226.36L331.62 228.63ZM331.74 229.73L332.01 232.34L333.44 232.19C334 232.13 334.42 231.98 334.68 231.73C334.94 231.49 335.05 231.13 335.01 230.66C334.97 230.23 334.79 229.93 334.47 229.75C334.16 229.57 333.7 229.52 333.1 229.58L331.74 229.73Z" fill="#3A3A3A"/>
<path id="Vector_105" d="M346 232.04L344.54 232.19L342.64 227.42C342.56 227.21 342.45 226.91 342.32 226.52C342.19 226.13 342.11 225.85 342.07 225.69C342.06 225.93 342.03 226.25 341.98 226.64C341.94 227.03 341.89 227.33 341.86 227.52L341 232.55L339.53 232.7L338.04 228.68L336.54 224.68L337.92 224.54L339.59 229.22C339.85 229.97 340.06 230.64 340.2 231.22C340.21 230.9 340.23 230.53 340.28 230.13C340.32 229.73 340.36 229.4 340.41 229.15L341.26 224.2L342.6 224.06L344.47 228.75C344.65 229.18 344.85 229.84 345.09 230.71C345.09 230.17 345.16 229.47 345.29 228.62L345.97 223.71L347.34 223.57L346 232.04Z" fill="#3A3A3A"/>
<path id="Vector_106" d="M354.43 231.17L353.37 228.97L350.22 229.29L349.65 231.66L348.23 231.81L350.46 223.22L351.93 223.07L355.86 231.03L354.43 231.17ZM352.89 227.85L351.89 225.68C351.82 225.54 351.72 225.31 351.58 224.99C351.45 224.68 351.35 224.45 351.3 224.3C351.25 224.77 351.15 225.29 351.01 225.86L350.49 228.08L352.89 227.85Z" fill="#3A3A3A"/>
<path id="Vector_107" d="M356.95 230.92L356.1 222.68L357.45 222.54L358.18 229.62L361.67 229.26L361.79 230.42L356.95 230.92Z" fill="#3A3A3A"/>
<path id="Vector_108" d="M363.2 230.27L362.35 222.03L363.7 221.89L364.43 228.97L367.92 228.61L368.04 229.77L363.2 230.27Z" fill="#3A3A3A"/>
</g>
<path id="Vector_109" d="M548.73 224.09C526.3 219.78 503.43 216.92 480.65 215.47C470.91 214.85 461.15 214.56 451.39 214.86C449.68 214.91 449.68 217.57 451.39 217.52C468.41 216.99 485.46 218.19 502.37 220.01C515.26 221.4 528.11 223.2 540.89 225.38C543.27 225.79 545.65 226.2 548.02 226.65C549.7 226.98 550.42 224.41 548.73 224.09Z" fill="#424242"/>
<g id="Group_9">
<path id="Vector_110" d="M471.07 231.91C470.7 231.88 470.4 231.8 470.16 231.69L470.26 230.56C470.57 230.67 470.84 230.73 471.07 230.75C471.81 230.81 472.22 230.38 472.3 229.45L473 221.45L474.36 221.57L473.67 229.52C473.6 230.36 473.34 230.99 472.9 231.4C472.44 231.81 471.84 231.98 471.07 231.91Z" fill="#3A3A3A"/>
<path id="Vector_111" d="M483.46 226.5C483.34 227.84 482.92 228.86 482.18 229.55C481.44 230.24 480.46 230.53 479.23 230.42C477.98 230.31 477.06 229.86 476.46 229.06C475.86 228.26 475.61 227.18 475.73 225.82C475.85 224.46 476.28 223.44 477.01 222.77C477.74 222.1 478.74 221.82 479.98 221.93C481.21 222.04 482.12 222.49 482.73 223.29C483.33 224.08 483.57 225.16 483.46 226.5ZM477.15 225.95C477.06 226.97 477.2 227.76 477.56 228.32C477.92 228.88 478.51 229.2 479.31 229.27C480.11 229.34 480.74 229.13 481.19 228.65C481.64 228.17 481.91 227.41 482 226.38C482.09 225.37 481.95 224.58 481.59 224.02C481.23 223.46 480.65 223.15 479.85 223.08C479.04 223.01 478.41 223.22 477.95 223.71C477.52 224.19 477.24 224.94 477.15 225.95Z" fill="#3A3A3A"/>
<path id="Vector_112" d="M485.59 222.54L488.04 222.75C489.18 222.85 489.98 223.09 490.46 223.46C490.94 223.83 491.14 224.38 491.08 225.09C491.04 225.57 490.88 225.96 490.6 226.26C490.32 226.56 489.95 226.73 489.48 226.77V226.83C490.05 226.99 490.46 227.24 490.7 227.59C490.95 227.94 491.04 228.38 490.99 228.93C490.93 229.67 490.62 230.23 490.06 230.6C489.51 230.98 488.77 231.12 487.85 231.04L484.87 230.78L485.59 222.54ZM486.54 227.17L486.31 229.78L487.74 229.91C488.3 229.96 488.74 229.89 489.05 229.7C489.36 229.51 489.53 229.18 489.57 228.71C489.61 228.28 489.49 227.95 489.21 227.72C488.93 227.49 488.5 227.34 487.9 227.29L486.54 227.17ZM486.64 226.07L487.94 226.18C488.51 226.23 488.92 226.18 489.2 226.02C489.48 225.86 489.63 225.57 489.67 225.14C489.7 224.75 489.59 224.46 489.32 224.26C489.06 224.06 488.62 223.94 488.01 223.88L486.84 223.78L486.64 226.07Z" fill="#3A3A3A"/>
<path id="Vector_113" d="M500.12 232.12L498.65 231.99L497.68 226.95C497.64 226.73 497.59 226.41 497.54 226C497.48 225.59 497.45 225.3 497.45 225.14C497.39 225.38 497.3 225.68 497.19 226.06C497.07 226.44 496.98 226.72 496.9 226.9L495.11 231.68L493.64 231.55L492.93 227.32L492.2 223.1L493.58 223.22L494.34 228.13C494.46 228.92 494.53 229.61 494.56 230.21C494.63 229.89 494.72 229.54 494.84 229.15C494.96 228.76 495.06 228.45 495.15 228.21L496.91 223.51L498.25 223.63L499.21 228.59C499.3 229.05 499.38 229.73 499.45 230.64C499.55 230.11 499.75 229.43 500.03 228.62L501.62 223.92L502.99 224.04L500.12 232.12Z" fill="#3A3A3A"/>
<path id="Vector_114" d="M508.55 232.86L507.92 230.5L504.76 230.23L503.75 232.45L502.33 232.33L506.14 224.31L507.61 224.44L509.98 233L508.55 232.86ZM507.68 229.3L507.1 226.99C507.06 226.83 507 226.59 506.93 226.26C506.86 225.93 506.81 225.68 506.79 225.53C506.65 225.98 506.46 226.48 506.21 227.01L505.28 229.1L507.68 229.3Z" fill="#3A3A3A"/>
<path id="Vector_115" d="M511.08 233.08L511.8 224.83L513.15 224.95L512.53 232.05L516.02 232.35L515.92 233.51L511.08 233.08Z" fill="#3A3A3A"/>
<path id="Vector_116" d="M517.34 233.63L518.06 225.38L519.41 225.5L518.79 232.6L522.28 232.9L522.18 234.06L517.34 233.63Z" fill="#3A3A3A"/>
</g>
<g id="R24">
<path id="Vector_117" d="M378.72 315.67L378.61 300.53L378.59 297.54L378.45 279.41C378.44 277.72 377.16 276.35 375.6 276.37L361.69 276.5C360.13 276.51 358.87 277.9 358.88 279.59L359.01 297.72L359.03 300.71L359.14 315.85C359.15 317.54 360.33 318.91 361.77 318.89H362L375.91 318.76H376.14C377.57 318.75 378.73 317.37 378.72 315.67Z" fill="#A8D9E2"/>
<g id="Group_10">
<path id="Vector_118" d="M367.27 300.08L365.92 300.1L364.57 297.58L363.98 297.59L364.01 300.13L362.8 300.15L362.72 294.15L365.2 294.12C366.19 294.11 366.99 294.89 367 295.89C367.01 296.68 366.5 297.3 365.77 297.49L367.27 300.08ZM365.91 295.88C365.9 295.46 365.58 295.15 365.17 295.15L363.95 295.17L363.97 296.64L365.19 296.62C365.61 296.62 365.92 296.3 365.91 295.88Z" fill="#121212"/>
<path id="Vector_119" d="M367.59 299.22C370.05 296.52 370.22 296.25 370.22 295.76C370.21 295.18 369.81 294.99 369.44 294.99C368.99 295 368.64 295.32 368.7 295.85L367.58 295.86C367.48 294.76 368.4 293.99 369.48 293.97C370.51 293.96 371.31 294.64 371.33 295.64C371.35 296.58 370.95 297.04 369.1 299.04L371.51 299.01L371.52 300.03L367.6 300.08L367.59 299.22Z" fill="#121212"/>
<path id="Vector_120" d="M376.43 298.69L375.9 298.7L375.92 299.96L374.76 299.98L374.74 298.72L371.89 298.76L371.88 298.02L374.37 293.99L375.83 293.97L375.88 297.68L376.41 297.67L376.43 298.69ZM374.73 297.69L374.7 295.12L373.21 297.71L374.73 297.69Z" fill="#121212"/>
</g>
</g>
<g id="Group_11">
<path id="Vector_121" d="M341.48 339.42L339.74 339.43L338.04 336.17H337.28L337.29 339.44L335.74 339.45L335.71 331.75L338.89 331.74C340.16 331.74 341.17 332.75 341.18 334.03C341.18 335.05 340.52 335.83 339.59 336.07L341.48 339.42ZM339.79 334.01C339.79 333.48 339.38 333.07 338.85 333.07L337.28 333.08L337.29 334.97L338.86 334.96C339.39 334.96 339.79 334.54 339.79 334.01Z" fill="#121212"/>
<path id="Vector_122" d="M341.89 338.32C345.08 334.88 345.31 334.54 345.31 333.91C345.31 333.17 344.79 332.92 344.32 332.91C343.74 332.91 343.29 333.32 343.36 334L341.92 333.99C341.8 332.57 343 331.59 344.39 331.59C345.71 331.59 346.73 332.48 346.75 333.76C346.76 334.96 346.24 335.56 343.84 338.09L346.93 338.08V339.39L341.9 339.41L341.89 338.32Z" fill="#121212"/>
<path id="Vector_123" d="M347.83 335.54C347.82 333.21 348.99 331.58 350.68 331.58C352.35 331.57 353.54 333.19 353.55 335.52C353.56 337.85 352.38 339.48 350.71 339.48C349.01 339.49 347.84 337.88 347.83 335.54ZM352.05 335.53C352.04 333.97 351.48 332.88 350.69 332.88C349.89 332.88 349.33 333.97 349.33 335.53C349.33 337.08 349.9 338.17 350.71 338.16C351.49 338.17 352.05 337.08 352.05 335.53Z" fill="#121212"/>
</g>
<g id="R28">
<path id="Vector_124" d="M213.45 310.02L213.34 299.93L213.32 297.94L213.18 285.86C213.17 284.73 211.89 283.82 210.33 283.83L196.42 283.92C194.86 283.93 193.6 284.85 193.61 285.98L193.74 298.06L193.76 300.05L193.87 310.14C193.88 311.27 195.06 312.18 196.5 312.17H196.73L210.64 312.08H210.87C212.3 312.07 213.46 311.15 213.45 310.02Z" fill="#A8D9E2"/>
<g id="Group_12">
<path id="Vector_125" d="M206.25 300.86L206.27 302.21L203.75 303.56L203.76 304.15L206.3 304.12L206.32 305.33L200.32 305.41L200.29 302.93C200.28 301.94 201.06 301.14 202.06 301.13C202.85 301.12 203.47 301.63 203.66 302.36L206.25 300.86ZM202.06 302.22C201.64 302.23 201.33 302.55 201.33 302.96L201.35 304.18L202.82 304.16L202.8 302.94C202.8 302.53 202.47 302.22 202.06 302.22Z" fill="#121212"/>
<path id="Vector_126" d="M205.39 300.55C202.69 298.09 202.42 297.92 201.93 297.93C201.35 297.94 201.16 298.34 201.16 298.71C201.17 299.16 201.49 299.51 202.02 299.45L202.03 300.57C200.93 300.67 200.16 299.75 200.14 298.67C200.13 297.64 200.81 296.84 201.81 296.82C202.75 296.8 203.21 297.2 205.21 299.05L205.18 296.64L206.2 296.63L206.25 300.55H205.39Z" fill="#121212"/>
<path id="Vector_127" d="M204.33 291.93C205.4 291.92 206.23 292.79 206.25 294C206.27 295.2 205.46 296.1 204.39 296.11C203.73 296.12 203.17 295.78 202.85 295.23C202.57 295.57 202.18 295.77 201.7 295.78C200.8 295.79 200.11 295.07 200.09 294.07C200.07 293.07 200.75 292.33 201.65 292.32C202.12 292.31 202.53 292.51 202.81 292.84C203.12 292.3 203.66 291.94 204.33 291.93ZM201.77 294.81C202.2 294.8 202.52 294.47 202.52 294.04C202.51 293.62 202.18 293.29 201.75 293.3C201.32 293.31 201 293.64 201 294.06C201 294.49 201.34 294.82 201.77 294.81ZM204.25 293.11C203.72 293.12 203.34 293.51 203.35 294.04C203.36 294.56 203.75 294.96 204.27 294.95C204.8 294.94 205.22 294.54 205.21 294.02C205.21 293.48 204.78 293.1 204.25 293.11Z" fill="#121212"/>
</g>
</g>
<path id="Vector_128" d="M484.08 151.25C484.08 151.25 484.21 148.47 510.86 155.52C537.52 162.57 576.92 178.76 576.92 178.76L574.01 222.95L531.4 215.22L484.55 211.6L486.57 186.16L484.08 151.25Z" fill="#E94C41"/>
<path id="Vector_129" d="M572.73 222.04C574.41 213.1 574.82 203.92 575 194.85C575.1 189.91 575.12 184.97 574.96 180.04C574.9 178.33 577.56 178.33 577.62 180.04C577.78 185.12 577.76 190.21 577.65 195.29C577.45 204.46 576.99 213.73 575.29 222.76C574.98 224.43 572.41 223.72 572.73 222.04Z" fill="#424242"/>
<path id="Vector_130" d="M485.92 150.69C487.19 164.32 487.48 178.12 487.1 191.79C486.92 198.18 486.54 204.57 485.88 210.94C485.7 212.63 483.04 212.64 483.22 210.94C485.14 192.4 484.92 173.58 483.6 155C483.5 153.56 483.39 152.13 483.26 150.7C483.1 148.98 485.76 149 485.92 150.69Z" fill="#424242"/>
<path id="Vector_131" d="M673.96 246.6C669.67 245.05 665.33 243.66 660.98 242.28C649.16 238.55 637.23 235.17 625.24 232.07C607.56 227.49 589.72 223.5 571.77 220.1C549.68 215.91 527.42 212.62 505.05 210.35C492.74 209.1 480.39 208.16 468.03 207.57C464.88 207.42 461.74 207.29 458.59 207.19C456.01 207.1 452.84 207.57 450.55 206.15C447.34 204.16 447.66 200.69 447.66 197.43V194.22C447.66 192.06 444.3 192.06 444.3 194.22C444.3 196.46 444.24 198.72 444.3 200.96C444.41 205.49 447.59 209.52 452.16 210.26C455.17 210.74 458.39 210.53 461.44 210.65C464.68 210.77 467.92 210.92 471.16 211.09C477.44 211.42 483.71 211.84 489.98 212.34C513.46 214.23 536.84 217.29 560.04 221.37C579.14 224.72 598.13 228.75 616.95 233.44C630.17 236.73 643.31 240.34 656.32 244.36C660.13 245.54 663.94 246.75 667.72 248.01C669.43 248.58 671.12 249.29 672.86 249.77C672.93 249.79 673 249.82 673.07 249.85C675.1 250.57 675.98 247.33 673.96 246.6Z" fill="#424242"/>
<path id="Vector_132" d="M666.64 235.48C640.68 213.8 611.81 195.47 581.34 180.8C535.97 158.97 486.54 145.54 436.13 143.2C406.45 141.82 376.61 144.27 347.54 150.4C319.19 156.38 291.73 166.13 265.58 178.53C244.11 188.71 223.52 200.73 204.09 214.38C193.68 221.69 183.7 229.7 174.21 238.17C166.29 245.24 162.75 257.4 162.71 267.66C162.66 280.12 162.71 292.58 162.71 305.04V324.41C162.71 331.45 163.36 338.28 166.15 344.86C168.55 350.53 171.96 355.21 176.57 359.25C181.35 363.43 186.26 367.46 191.26 371.37C200.68 378.73 210.48 385.56 220.58 391.96C242.32 405.74 265.31 417.56 289.22 427.1C343.76 448.86 403.07 456.99 461.46 450.02C509.71 444.26 556.42 428.55 599.07 405.46C614.99 396.84 630.37 387.19 645.04 376.6C650.6 372.59 656.06 368.43 661.41 364.14C664.21 361.89 667.09 359.67 669.61 357.12C673.87 352.79 677.16 347.59 679.3 341.91C681.68 335.59 682.05 329.14 682.05 322.5V302.27C682.05 290.55 682.47 278.74 682.02 267.03C681.55 254.84 675.91 243.39 666.64 235.48C665.34 234.37 663.44 236.24 664.75 237.36C674.01 245.26 679.29 256.56 679.38 268.71C679.41 272.86 679.38 277.01 679.38 281.16V323.29C679.38 330.64 678.58 337.77 675.29 344.49C671.25 352.76 664.45 358.33 657.4 363.92C645.28 373.52 632.56 382.38 619.42 390.54C581.64 414 540.11 431.62 496.63 441.31C441.57 453.58 384.02 452.45 329.53 437.86C302.42 430.6 276.16 419.75 251.36 406.69C230.32 395.61 210.06 382.85 191.42 368.11C186.84 364.49 182.36 360.77 177.97 356.92C172.99 352.55 169.5 347.01 167.43 340.72C165.48 334.8 165.37 328.83 165.37 322.71V279.56C165.37 275.53 165.34 271.5 165.37 267.46C165.41 261.81 166.5 256.22 168.78 251.03C170 248.25 171.54 245.6 173.34 243.16C175.15 240.71 177.43 238.83 179.72 236.84C197.6 221.38 217.11 207.96 237.6 196.17C286.21 168.2 340.24 150.06 396.4 146.26C449.5 142.66 502.83 151.67 552.3 171.02C587.42 184.75 620.67 203.5 650.73 226.21C655.49 229.81 660.17 233.52 664.76 237.35C666.06 238.46 667.96 236.58 666.64 235.48Z" fill="#424242"/>
<g id="Group_13">
<path id="Vector_133" d="M500.76 179.54L499.3 179.25L500.83 171.59L498.21 171.07L498.46 169.82L505.15 171.16L504.9 172.41L502.28 171.89L500.76 179.54Z" fill="white"/>
<path id="Vector_134" d="M509.78 181.34L504.74 180.33L506.52 171.43L511.56 172.43L511.31 173.66L507.73 172.95L507.25 175.37L510.61 176.04L510.37 177.26L507 176.6L506.44 179.4L510.02 180.11L509.78 181.34Z" fill="white"/>
<path id="Vector_135" d="M517.32 180.33C517.16 181.12 516.75 181.69 516.09 182.02C515.43 182.36 514.59 182.42 513.59 182.22C512.59 182.02 511.79 181.7 511.21 181.26L511.48 179.88C511.85 180.15 512.25 180.39 512.69 180.59C513.12 180.79 513.54 180.93 513.93 181.01C514.51 181.13 514.95 181.1 515.27 180.94C515.59 180.78 515.78 180.51 515.86 180.14C515.93 179.81 515.86 179.5 515.65 179.22C515.44 178.94 514.98 178.56 514.25 178.09C513.5 177.6 513.01 177.11 512.76 176.62C512.51 176.13 512.45 175.59 512.56 175C512.71 174.26 513.09 173.72 513.7 173.4C514.31 173.08 515.07 173.01 515.95 173.18C516.8 173.35 517.61 173.71 518.38 174.25L517.68 175.35C516.95 174.86 516.28 174.55 515.66 174.43C515.19 174.34 514.81 174.37 514.53 174.52C514.24 174.68 514.07 174.92 514 175.26C513.95 175.49 513.96 175.7 514.03 175.88C514.09 176.06 514.22 176.25 514.42 176.44C514.61 176.63 514.98 176.9 515.51 177.26C516.11 177.66 516.54 178.01 516.8 178.31C517.06 178.61 517.23 178.92 517.31 179.24C517.4 179.57 517.4 179.93 517.32 180.33Z" fill="white"/>
<path id="Vector_136" d="M521.64 183.71L520.18 183.42L521.71 175.76L519.09 175.24L519.34 173.99L526.03 175.33L525.78 176.58L523.16 176.06L521.64 183.71Z" fill="white"/>
<path id="Vector_137" d="M534.42 181.62C534.13 183.07 533.54 184.12 532.66 184.78C531.77 185.44 530.67 185.64 529.34 185.37C528 185.1 527.04 184.5 526.48 183.55C525.92 182.61 525.78 181.4 526.08 179.93C526.37 178.46 526.96 177.4 527.84 176.76C528.72 176.12 529.83 175.93 531.18 176.2C532.5 176.46 533.45 177.07 534.01 178.01C534.57 178.97 534.71 180.17 534.42 181.62ZM527.62 180.26C527.4 181.36 527.46 182.23 527.79 182.89C528.12 183.55 528.72 183.96 529.59 184.13C530.45 184.3 531.16 184.15 531.72 183.68C532.27 183.21 532.66 182.42 532.88 181.31C533.1 180.22 533.05 179.35 532.72 178.69C532.4 178.04 531.8 177.63 530.94 177.45C530.07 177.28 529.35 177.43 528.79 177.9C528.23 178.39 527.84 179.17 527.62 180.26Z" fill="white"/>
<path id="Vector_138" d="M542.29 178.57L543.8 178.87L538.9 187.15L537.36 186.84L536.03 177.31L537.53 177.61L538.28 183.52C538.32 183.8 538.36 184.16 538.39 184.6C538.42 185.04 538.43 185.36 538.42 185.57C538.53 185.27 538.69 184.93 538.88 184.55C539.07 184.17 539.22 183.88 539.33 183.7L542.29 178.57Z" fill="white"/>
<path id="Vector_139" d="M548.73 189.12L548.33 186.47L544.93 185.79L543.56 188.09L542.02 187.78L547.14 179.5L548.72 179.82L550.27 189.43L548.73 189.12ZM548.2 185.13L547.85 182.54C547.82 182.37 547.79 182.09 547.75 181.72C547.71 181.35 547.69 181.08 547.68 180.91C547.47 181.39 547.2 181.9 546.87 182.45L545.6 184.61L548.2 185.13ZM547.19 178.81L547.22 178.66C547.51 178.42 547.81 178.15 548.12 177.85C548.44 177.55 548.69 177.29 548.88 177.07L550.54 177.4L550.51 177.53C550.25 177.74 549.87 177.99 549.37 178.3C548.87 178.61 548.46 178.84 548.12 179L547.19 178.81Z" fill="white"/>
<path id="Vector_140" d="M558.87 191.14L557.08 190.78L554.12 182.81L554.07 182.8L554.02 183.2C553.93 183.97 553.82 184.66 553.69 185.29L552.77 189.92L551.45 189.66L553.23 180.75L555 181.1L557.96 189.03L558 189.04C558.01 188.95 558.06 188.6 558.15 188.01C558.24 187.42 558.32 186.96 558.39 186.63L559.32 181.96L560.65 182.23L558.87 191.14Z" fill="white"/>
<path id="Vector_141" d="M561.22 191.61L563 182.7L564.46 182.99L562.68 191.9L561.22 191.61ZM563.05 181.98L563.08 181.83C563.37 181.59 563.67 181.32 563.99 181.02C564.31 180.72 564.56 180.46 564.75 180.24L566.41 180.57L566.38 180.7C566.12 180.91 565.74 181.16 565.24 181.47C564.74 181.78 564.33 182.01 563.99 182.17L563.05 181.98Z" fill="white"/>
</g>
<path id="Vector_142" d="M502.28 171.94L504.9 172.46L505.15 171.22L498.45 169.88L498.2 171.13L500.82 171.65L499.29 179.31L500.75 179.6L502.28 171.94Z" stroke="white" stroke-width="0.273" stroke-miterlimit="10"/>
<path id="Vector_143" d="M510.02 180.16L506.44 179.45L506.99 176.65L510.35 177.32L510.59 176.1L507.24 175.43L507.72 173.01L511.3 173.72L511.55 172.5L506.51 171.49L504.73 180.39L509.77 181.4L510.02 180.16Z" stroke="white" stroke-width="0.273" stroke-miterlimit="10"/>
<path id="Vector_144" d="M517.31 179.3C517.23 178.98 517.06 178.66 516.8 178.37C516.54 178.07 516.11 177.72 515.51 177.32C514.98 176.97 514.61 176.69 514.42 176.5C514.23 176.31 514.1 176.12 514.03 175.94C513.96 175.76 513.96 175.55 514 175.32C514.07 174.98 514.24 174.73 514.53 174.58C514.81 174.42 515.19 174.39 515.66 174.49C516.28 174.61 516.95 174.92 517.68 175.41L518.38 174.32C517.61 173.78 516.8 173.42 515.95 173.25C515.06 173.07 514.31 173.14 513.7 173.47C513.09 173.79 512.71 174.32 512.56 175.07C512.44 175.66 512.51 176.2 512.75 176.69C513 177.18 513.5 177.67 514.24 178.16C514.96 178.63 515.43 179.01 515.63 179.29C515.84 179.57 515.91 179.88 515.84 180.21C515.77 180.58 515.57 180.85 515.25 181.01C514.93 181.18 514.49 181.2 513.91 181.09C513.52 181.01 513.1 180.87 512.67 180.67C512.24 180.47 511.83 180.23 511.47 179.96L511.2 181.34C511.78 181.78 512.57 182.1 513.58 182.3C514.59 182.5 515.42 182.43 516.08 182.1C516.74 181.76 517.15 181.2 517.31 180.41C517.39 179.99 517.39 179.62 517.31 179.3Z" stroke="white" stroke-width="0.273" stroke-miterlimit="10"/>
<path id="Vector_145" d="M523.16 176.11L525.78 176.63L526.03 175.38L519.33 174.05L519.08 175.3L521.7 175.82L520.18 183.48L521.63 183.77L523.16 176.11Z" stroke="white" stroke-width="0.273" stroke-miterlimit="10"/>
<path id="Vector_146" d="M528.78 177.97C529.34 177.49 530.05 177.34 530.93 177.52C531.8 177.69 532.39 178.1 532.71 178.76C533.03 179.41 533.09 180.28 532.87 181.38C532.65 182.49 532.26 183.28 531.71 183.75C531.16 184.22 530.45 184.37 529.58 184.2C528.71 184.03 528.11 183.61 527.78 182.96C527.45 182.31 527.4 181.43 527.61 180.33C527.83 179.23 528.22 178.44 528.78 177.97ZM534 178.08C533.44 177.14 532.49 176.53 531.17 176.27C529.83 176 528.71 176.19 527.83 176.83C526.95 177.47 526.36 178.53 526.07 180C525.78 181.47 525.91 182.68 526.47 183.62C527.03 184.56 527.98 185.17 529.33 185.44C530.66 185.7 531.76 185.51 532.65 184.85C533.53 184.19 534.12 183.14 534.41 181.69C534.7 180.22 534.57 179.02 534 178.08Z" stroke="white" stroke-width="0.273" stroke-miterlimit="10"/>
<path id="Vector_147" d="M539.33 183.77C539.22 183.95 539.07 184.23 538.88 184.62C538.69 185.01 538.54 185.35 538.42 185.64C538.43 185.43 538.42 185.11 538.39 184.67C538.36 184.23 538.33 183.87 538.28 183.59L537.52 177.68L536.02 177.38L537.35 186.91L538.88 187.22L543.78 178.94L542.27 178.64L539.33 183.77Z" stroke="white" stroke-width="0.273" stroke-miterlimit="10"/>
<path id="Vector_148" d="M548.13 179.05C548.46 178.89 548.88 178.66 549.37 178.35C549.87 178.04 550.25 177.78 550.51 177.58L550.54 177.45L548.88 177.12C548.69 177.34 548.43 177.6 548.12 177.9C547.8 178.2 547.5 178.47 547.21 178.71L547.18 178.86L548.13 179.05ZM545.59 184.67L546.86 182.51C547.19 181.96 547.46 181.44 547.67 180.97C547.68 181.14 547.7 181.41 547.74 181.78C547.78 182.15 547.81 182.42 547.84 182.6L548.19 185.19L545.59 184.67ZM550.27 189.48L548.72 179.87L547.14 179.55L542.02 187.83L543.56 188.14L544.92 185.84L548.33 186.52L548.73 189.17L550.27 189.48Z" stroke="white" stroke-width="0.273" stroke-miterlimit="10"/>
<path id="Vector_149" d="M560.64 182.29L559.31 182.02L558.38 186.69C558.31 187.02 558.23 187.48 558.14 188.07C558.05 188.66 558 189 557.99 189.1L557.95 189.09L554.99 181.16L553.22 180.81L551.44 189.72L552.76 189.98L553.68 185.35C553.8 184.72 553.91 184.03 554.01 183.26L554.06 182.86L554.11 182.87L557.07 190.84L558.85 191.2L560.64 182.29Z" stroke="white" stroke-width="0.273" stroke-miterlimit="10"/>
<path id="Vector_150" d="M564 182.22C564.33 182.06 564.74 181.83 565.24 181.52C565.74 181.21 566.12 180.95 566.38 180.75L566.4 180.62L564.74 180.29C564.55 180.51 564.29 180.77 563.98 181.07C563.66 181.37 563.36 181.64 563.07 181.88L563.04 182.03L564 182.22ZM562.67 191.96L564.45 183.06L562.99 182.77L561.21 191.68L562.67 191.96Z" stroke="white" stroke-width="0.273" stroke-miterlimit="10"/>
<g id="Group_14">
<path id="Vector_151" d="M503.61 185.58L502.46 191.34C502.33 192 502.07 192.55 501.69 192.98C501.31 193.41 500.83 193.72 500.24 193.88C499.65 194.04 498.99 194.04 498.24 193.9C497.14 193.68 496.33 193.22 495.84 192.51C495.34 191.8 495.2 190.94 495.4 189.91L496.55 184.17L498.01 184.46L496.88 190.09C496.73 190.83 496.8 191.4 497.07 191.82C497.34 192.24 497.83 192.52 498.54 192.66C499.91 192.93 500.74 192.35 501.03 190.91L502.15 185.29L503.61 185.58ZM499.25 183.97L499.28 183.82C499.57 183.58 499.87 183.31 500.19 183.01C500.51 182.71 500.76 182.45 500.95 182.23L502.61 182.56L502.58 182.69C502.32 182.9 501.94 183.15 501.44 183.46C500.94 183.77 500.53 184 500.2 184.16L499.25 183.97Z" fill="white"/>
<path id="Vector_152" d="M506.28 191.67L505.57 195.23L504.11 194.94L505.89 186.03L508.41 186.53C509.56 186.76 510.37 187.15 510.83 187.69C511.3 188.23 511.44 188.94 511.27 189.8C511.05 190.91 510.31 191.58 509.07 191.82L510.8 196.26L509.14 195.93L507.72 191.95L506.28 191.67ZM506.52 190.47L507.53 190.67C508.21 190.81 508.73 190.78 509.08 190.59C509.43 190.4 509.66 190.06 509.76 189.56C509.86 189.06 509.77 188.66 509.48 188.38C509.19 188.09 508.72 187.89 508.06 187.75L507.1 187.56L506.52 190.47Z" fill="white"/>
<path id="Vector_153" d="M520.88 193.65C520.59 195.1 520 196.15 519.12 196.81C518.24 197.47 517.13 197.67 515.8 197.4C514.46 197.13 513.5 196.53 512.94 195.58C512.38 194.63 512.24 193.43 512.54 191.96C512.83 190.49 513.42 189.43 514.3 188.79C515.18 188.15 516.3 187.96 517.64 188.23C518.96 188.49 519.91 189.1 520.47 190.04C521.04 190.99 521.17 192.19 520.88 193.65ZM514.09 192.29C513.87 193.39 513.93 194.26 514.26 194.92C514.59 195.58 515.19 195.99 516.06 196.16C516.92 196.33 517.63 196.18 518.19 195.71C518.75 195.24 519.13 194.45 519.35 193.34C519.57 192.25 519.52 191.37 519.19 190.72C518.87 190.07 518.27 189.66 517.41 189.48C516.54 189.31 515.82 189.46 515.26 189.93C514.69 190.41 514.3 191.2 514.09 192.29Z" fill="white"/>
<path id="Vector_154" d="M528.76 190.6L530.27 190.9L525.37 199.18L523.83 198.87L522.5 189.34L524 189.64L524.75 195.55C524.79 195.83 524.83 196.19 524.86 196.63C524.89 197.07 524.9 197.39 524.89 197.6C525 197.3 525.16 196.96 525.35 196.58C525.54 196.2 525.69 195.91 525.8 195.73L528.76 190.6Z" fill="white"/>
<path id="Vector_155" d="M537.09 201.52L535.3 201.16L532.34 193.19L532.29 193.18L532.24 193.58C532.15 194.35 532.04 195.04 531.91 195.67L530.99 200.3L529.67 200.04L531.45 191.13L533.22 191.48L536.18 199.41L536.22 199.42C536.23 199.32 536.28 198.98 536.38 198.39C536.47 197.8 536.55 197.34 536.62 197.01L537.55 192.34L538.88 192.61L537.09 201.52Z" fill="white"/>
<path id="Vector_156" d="M544.48 203L539.44 201.99L541.22 193.08L546.26 194.09L546.01 195.32L542.43 194.61L541.95 197.03L545.31 197.7L545.07 198.92L541.71 198.25L541.15 201.05L544.73 201.76L544.48 203ZM546.67 191.35L546.64 191.52C546.02 191.95 545.58 192.27 545.32 192.48C545.06 192.69 544.86 192.88 544.71 193.04L543.13 192.72C542.95 192.24 542.56 191.53 541.95 190.58L541.98 190.41L542.94 190.6C543.43 191.08 543.81 191.54 544.09 191.99C544.56 191.66 545.1 191.38 545.7 191.15L546.67 191.35Z" fill="white"/>
<path id="Vector_157" d="M555.17 205.13L554.77 202.48L551.36 201.8L549.99 204.1L548.45 203.79L553.57 195.51L555.15 195.83L556.7 205.44L555.17 205.13ZM554.64 201.15L554.29 198.56C554.26 198.38 554.23 198.11 554.19 197.74C554.15 197.37 554.13 197.1 554.12 196.93C553.91 197.41 553.64 197.92 553.31 198.47L552.04 200.63L554.64 201.15Z" fill="white"/>
<path id="Vector_158" d="M556.27 207.93C555.87 207.85 555.55 207.73 555.3 207.58L555.54 206.36C555.86 206.51 556.15 206.61 556.4 206.66C557.2 206.82 557.69 206.4 557.9 205.39L559.62 196.76L561.08 197.05L559.37 205.63C559.19 206.54 558.83 207.19 558.3 207.59C557.78 207.98 557.1 208.1 556.27 207.93Z" fill="white"/>
</g>
<path id="Vector_159" d="M500.2 184.22C500.53 184.06 500.95 183.83 501.44 183.52C501.94 183.21 502.32 182.95 502.58 182.75L502.61 182.62L500.95 182.29C500.76 182.51 500.51 182.77 500.19 183.07C499.87 183.37 499.57 183.64 499.28 183.88L499.25 184.03L500.2 184.22ZM502.15 185.35L501.03 190.97C500.74 192.41 499.91 193 498.54 192.72C497.83 192.58 497.34 192.3 497.07 191.88C496.8 191.46 496.73 190.89 496.88 190.15L498 184.51L496.54 184.22L495.39 189.96C495.19 190.98 495.33 191.85 495.83 192.56C496.33 193.27 497.13 193.73 498.23 193.95C498.97 194.1 499.64 194.09 500.22 193.93C500.81 193.77 501.29 193.47 501.67 193.04C502.05 192.6 502.31 192.06 502.44 191.4L503.59 185.64L502.15 185.35Z" stroke="white" stroke-width="0.273" stroke-miterlimit="10"/>
<path id="Vector_160" d="M507.71 192.02L509.13 196L510.79 196.33L509.06 191.89C510.31 191.65 511.04 190.98 511.26 189.87C511.43 189 511.29 188.3 510.82 187.75C510.35 187.21 509.55 186.82 508.4 186.6L505.89 186.1L504.11 195.01L505.57 195.3L506.28 191.74L507.71 192.02ZM507.09 187.61L508.05 187.8C508.71 187.93 509.19 188.14 509.47 188.43C509.75 188.71 509.85 189.11 509.75 189.61C509.65 190.11 509.42 190.45 509.07 190.64C508.72 190.83 508.2 190.86 507.52 190.72L506.51 190.52L507.09 187.61Z" stroke="white" stroke-width="0.273" stroke-miterlimit="10"/>
<path id="Vector_161" d="M515.24 189.99C515.8 189.52 516.51 189.36 517.39 189.54C518.25 189.71 518.85 190.12 519.17 190.78C519.49 191.43 519.55 192.3 519.33 193.4C519.11 194.51 518.72 195.3 518.17 195.77C517.62 196.24 516.91 196.39 516.04 196.22C515.17 196.05 514.57 195.63 514.24 194.98C513.91 194.33 513.86 193.45 514.07 192.35C514.3 191.25 514.68 190.47 515.24 189.99ZM520.47 190.1C519.91 189.16 518.96 188.55 517.64 188.29C516.3 188.02 515.18 188.21 514.3 188.85C513.42 189.49 512.83 190.55 512.54 192.02C512.25 193.49 512.38 194.7 512.94 195.64C513.5 196.58 514.46 197.19 515.8 197.46C517.13 197.72 518.23 197.53 519.12 196.87C520 196.21 520.59 195.16 520.88 193.71C521.17 192.25 521.03 191.05 520.47 190.1Z" stroke="white" stroke-width="0.273" stroke-miterlimit="10"/>
<path id="Vector_162" d="M525.79 195.8C525.68 195.98 525.53 196.26 525.34 196.65C525.15 197.03 525 197.38 524.88 197.67C524.89 197.46 524.88 197.14 524.85 196.7C524.82 196.26 524.79 195.9 524.74 195.62L523.99 189.71L522.49 189.41L523.82 198.94L525.35 199.25L530.25 190.97L528.74 190.67L525.79 195.8Z" stroke="white" stroke-width="0.273" stroke-miterlimit="10"/>
<path id="Vector_163" d="M538.85 192.67L537.52 192.4L536.59 197.07C536.52 197.4 536.44 197.86 536.35 198.45C536.26 199.04 536.21 199.38 536.19 199.48L536.15 199.47L533.19 191.54L531.42 191.19L529.64 200.1L530.96 200.36L531.88 195.73C532 195.1 532.11 194.41 532.21 193.64L532.26 193.24L532.31 193.25L535.27 201.22L537.06 201.58L538.85 192.67Z" stroke="white" stroke-width="0.273" stroke-miterlimit="10"/>
<path id="Vector_164" d="M545.69 191.22C545.09 191.45 544.55 191.73 544.08 192.06C543.8 191.61 543.42 191.15 542.93 190.67L541.97 190.48L541.94 190.64C542.55 191.59 542.94 192.3 543.12 192.78L544.7 193.1C544.85 192.94 545.05 192.75 545.31 192.54C545.57 192.33 546.01 192.01 546.63 191.58L546.66 191.42L545.69 191.22ZM544.71 201.82L541.13 201.11L541.69 198.31L545.05 198.98L545.29 197.76L541.93 197.09L542.41 194.67L545.99 195.38L546.24 194.15L541.2 193.14L539.42 202.05L544.46 203.06L544.71 201.82Z" stroke="white" stroke-width="0.273" stroke-miterlimit="10"/>
<path id="Vector_165" d="M552.03 200.69L553.3 198.53C553.63 197.98 553.9 197.46 554.11 196.99C554.12 197.16 554.14 197.43 554.18 197.8C554.22 198.17 554.25 198.44 554.28 198.62L554.63 201.21L552.03 200.69ZM556.7 205.49L555.15 195.88L553.57 195.56L548.45 203.84L549.99 204.15L551.35 201.85L554.76 202.53L555.16 205.18L556.7 205.49Z" stroke="white" stroke-width="0.273" stroke-miterlimit="10"/>
<path id="Vector_166" d="M558.3 207.65C558.83 207.26 559.18 206.6 559.37 205.69L561.08 197.11L559.62 196.82L557.9 205.45C557.7 206.46 557.2 206.88 556.4 206.72C556.15 206.67 555.86 206.57 555.53 206.41L555.29 207.63C555.54 207.79 555.86 207.9 556.26 207.98C557.09 208.16 557.77 208.04 558.3 207.65Z" stroke="white" stroke-width="0.273" stroke-miterlimit="10"/>
<g id="R25">
<path id="Vector_167" d="M338.24 325.31L351.37 326.18C353.2 326.3 354.6 327.66 354.5 329.22L353.58 343.34C353.48 344.9 351.91 346.07 350.08 345.95L336.95 345.09C335.12 344.97 333.72 343.61 333.82 342.05L334.74 327.93C334.85 326.36 336.41 325.19 338.24 325.31Z" fill="#A8D9E2"/>
<g id="Group_15">
<path id="Vector_168" d="M342.39 338.39L341.04 338.33L339.84 335.73L339.25 335.7L339.14 338.24L337.93 338.19L338.19 332.2L340.67 332.31C341.66 332.35 342.41 333.18 342.37 334.18C342.33 334.97 341.79 335.56 341.06 335.71L342.39 338.39ZM341.27 334.13C341.29 333.71 340.98 333.38 340.58 333.36L339.36 333.31L339.3 334.78L340.52 334.83C340.93 334.85 341.25 334.54 341.27 334.13Z" fill="#121212"/>
<path id="Vector_169" d="M342.75 337.55C345.36 334.99 345.54 334.73 345.57 334.25C345.59 333.67 345.2 333.46 344.84 333.43C344.39 333.41 344.03 333.72 344.05 334.24L342.93 334.18C342.89 333.07 343.86 332.36 344.94 332.4C345.97 332.44 346.73 333.17 346.7 334.17C346.67 335.11 346.24 335.55 344.28 337.44L346.68 337.54L346.64 338.56L342.73 338.39L342.75 337.55Z" fill="#121212"/>
<path id="Vector_170" d="M347.46 337.85L348.23 337.07C348.47 337.44 348.92 337.69 349.36 337.71C349.95 337.74 350.38 337.33 350.4 336.75C350.43 336.16 350.02 335.69 349.45 335.67C349.11 335.66 348.71 335.81 348.46 336.06L347.54 335.6L347.96 332.66L351.36 332.81L351.32 333.82L348.83 333.71L348.64 334.99C348.91 334.78 349.38 334.65 349.82 334.67C350.9 334.72 351.64 335.6 351.59 336.75C351.54 337.99 350.63 338.83 349.41 338.78C348.63 338.75 347.87 338.37 347.46 337.85Z" fill="#121212"/>
</g>
</g>
<g id="R26">
<path id="Vector_171" d="M303.85 320.26L316.92 321.74C318.74 321.95 320.08 323.37 319.9 324.93L318.32 338.99C318.15 340.54 316.53 341.64 314.71 341.43L301.64 339.95C299.82 339.74 298.48 338.32 298.66 336.76L300.24 322.7C300.41 321.15 302.03 320.06 303.85 320.26Z" fill="#A8D9E2"/>
<g id="Group_16">
<path id="Vector_172" d="M306.08 333.19L304.74 333.03L303.73 330.35L303.14 330.28L302.85 332.81L301.65 332.67L302.35 326.71L304.81 327C305.79 327.11 306.48 327.99 306.37 328.98C306.28 329.77 305.69 330.31 304.95 330.41L306.08 333.19ZM305.27 328.85C305.32 328.44 305.04 328.08 304.63 328.04L303.42 327.9L303.25 329.36L304.46 329.5C304.88 329.55 305.22 329.27 305.27 328.85Z" fill="#121212"/>
<path id="Vector_173" d="M306.5 332.38C309.29 330.02 309.49 329.77 309.55 329.29C309.62 328.72 309.24 328.47 308.88 328.42C308.43 328.37 308.05 328.65 308.04 329.17L306.93 329.03C306.97 327.92 307.99 327.28 309.06 327.4C310.09 327.52 310.79 328.3 310.68 329.3C310.58 330.23 310.12 330.64 308.03 332.38L310.42 332.66L310.3 333.68L306.41 333.23L306.5 332.38Z" fill="#121212"/>
<path id="Vector_174" d="M313.13 334.09C311.91 333.96 311.03 332.93 311.15 331.77C311.21 331.28 311.47 330.85 311.79 330.49L314.03 328.08L315.35 328.23L313.68 329.94C313.76 329.95 313.83 329.97 313.9 329.97C314.96 330.21 315.66 331.2 315.55 332.25C315.42 333.43 314.32 334.22 313.13 334.09ZM314.43 332.12C314.48 331.51 314.1 330.98 313.47 330.91C312.83 330.84 312.36 331.3 312.3 331.9C312.23 332.51 312.61 333.05 313.25 333.11C313.87 333.17 314.36 332.73 314.43 332.12Z" fill="#121212"/>
</g>
</g>
<g id="R27">
<path id="Vector_175" d="M270.71 313.2L283.64 315.64C285.44 315.98 286.67 317.5 286.38 319.04L283.77 332.95C283.48 334.49 281.79 335.46 279.99 335.12L267.06 332.68C265.26 332.34 264.03 330.82 264.32 329.28L266.93 315.37C267.22 313.83 268.91 312.86 270.71 313.2Z" fill="#A8D9E2"/>
<g id="Group_17">
<path id="Vector_176" d="M271.93 326.34L270.6 326.09L269.79 323.34L269.21 323.23L268.73 325.73L267.54 325.5L268.67 319.61L271.11 320.08C272.08 320.27 272.7 321.19 272.51 322.17C272.36 322.95 271.73 323.45 270.99 323.49L271.93 326.34ZM271.45 321.96C271.53 321.55 271.27 321.18 270.87 321.1L269.67 320.87L269.39 322.31L270.59 322.54C271 322.62 271.37 322.37 271.45 321.96Z" fill="#121212"/>
<path id="Vector_177" d="M272.41 325.56C275.36 323.41 275.59 323.18 275.68 322.7C275.79 322.13 275.43 321.86 275.07 321.78C274.63 321.7 274.22 321.94 274.17 322.47L273.07 322.25C273.19 321.15 274.25 320.58 275.31 320.78C276.32 320.97 276.97 321.81 276.79 322.79C276.62 323.71 276.13 324.09 273.92 325.67L276.28 326.13L276.09 327.13L272.24 326.39L272.41 325.56Z" fill="#121212"/>
<path id="Vector_178" d="M280.38 322.9L277.59 322.36L277.78 321.36L281.82 322.14L281.66 322.97L277.97 327.5L276.73 327.26L280.38 322.9Z" fill="#121212"/>
</g>
</g>
<g id="R21">
<path id="Vector_179" d="M481.32 294.75L481.21 284.66L481.19 282.67L481.05 270.59C481.04 269.46 479.76 268.55 478.2 268.56L464.29 268.65C462.73 268.66 461.47 269.58 461.48 270.71L461.61 282.79L461.63 284.78L461.74 294.87C461.75 296 462.93 296.91 464.37 296.9H464.6L478.51 296.81H478.74C480.17 296.8 481.33 295.88 481.32 294.75Z" fill="#A8D9E2"/>
<g id="Group_18">
<path id="Vector_180" d="M474.05 284.73L474.07 286.08L471.55 287.43L471.56 288.02L474.1 287.99L474.12 289.2L468.12 289.28L468.09 286.8C468.08 285.81 468.86 285.01 469.86 285C470.65 284.99 471.27 285.5 471.46 286.23L474.05 284.73ZM469.85 286.09C469.43 286.1 469.12 286.42 469.12 286.83L469.14 288.05L470.61 288.03L470.59 286.81C470.59 286.39 470.27 286.08 469.85 286.09Z" fill="#121212"/>
<path id="Vector_181" d="M473.19 284.42C470.49 281.96 470.22 281.79 469.73 281.79C469.15 281.8 468.96 282.2 468.96 282.57C468.97 283.02 469.29 283.37 469.82 283.31L469.83 284.43C468.73 284.53 467.96 283.61 467.94 282.53C467.93 281.5 468.61 280.7 469.61 280.68C470.55 280.66 471.02 281.06 473.01 282.91L472.98 280.5L474 280.49L474.05 284.41L473.19 284.42Z" fill="#121212"/>
<path id="Vector_182" d="M469.29 278.82L470.27 280.05L468.99 280.07L467.97 278.76L467.96 277.67L473.96 277.59L473.98 278.76L469.29 278.82Z" fill="#121212"/>
</g>
</g>
<g id="R22">
<path id="Vector_183" d="M481.61 318.98L481.5 311.92L481.48 310.53L481.34 302.07C481.33 301.28 480.05 300.64 478.49 300.65L464.58 300.71C463.02 300.72 461.76 301.36 461.77 302.15L461.9 310.61L461.92 312L462.03 319.07C462.04 319.86 463.22 320.5 464.66 320.49H464.89L478.8 320.43H479.03C480.47 320.42 481.63 319.77 481.61 318.98Z" fill="#A8D9E2"/>
<g id="Group_19">
<path id="Vector_184" d="M474.51 313.13L474.53 314.48L472.01 315.83L472.02 316.42L474.56 316.39L474.58 317.6L468.58 317.68L468.55 315.2C468.54 314.21 469.32 313.41 470.32 313.4C471.11 313.39 471.73 313.9 471.92 314.63L474.51 313.13ZM470.31 314.49C469.89 314.5 469.58 314.82 469.58 315.23L469.6 316.45L471.07 316.43L471.05 315.21C471.05 314.79 470.73 314.49 470.31 314.49Z" fill="#121212"/>
<path id="Vector_185" d="M473.65 312.82C470.95 310.36 470.68 310.19 470.19 310.19C469.61 310.2 469.42 310.6 469.42 310.97C469.43 311.42 469.75 311.77 470.28 311.71L470.29 312.83C469.19 312.93 468.42 312.01 468.4 310.93C468.39 309.9 469.07 309.1 470.07 309.08C471.01 309.06 471.48 309.46 473.47 311.31L473.44 308.9L474.46 308.89L474.51 312.81L473.65 312.82Z" fill="#121212"/>
<path id="Vector_186" d="M473.59 308.26C470.89 305.8 470.62 305.63 470.13 305.63C469.55 305.64 469.36 306.04 469.36 306.41C469.37 306.86 469.69 307.21 470.22 307.15L470.23 308.27C469.13 308.37 468.36 307.45 468.34 306.37C468.33 305.34 469.01 304.54 470.01 304.52C470.94 304.5 471.41 304.9 473.41 306.75L473.38 304.34L474.4 304.33L474.45 308.25L473.59 308.26Z" fill="#121212"/>
</g>
</g>
<g id="R20">
<path id="Vector_187" d="M500.92 244.91L514.07 245.25C515.9 245.3 517.36 246.6 517.32 248.17L516.97 262.32C516.93 263.88 515.41 265.11 513.58 265.06L500.43 264.72C498.6 264.67 497.14 263.37 497.18 261.8L497.53 247.65C497.57 246.09 499.09 244.86 500.92 244.91Z" fill="#A8D9E2"/>
<g id="Group_20">
<path id="Vector_188" d="M504.83 257.43L503.48 257.38L502.26 254.79L501.67 254.77L501.58 257.31L500.37 257.27L500.58 251.28L503.06 251.37C504.05 251.41 504.81 252.22 504.77 253.22C504.74 254.01 504.2 254.6 503.47 254.76L504.83 257.43ZM503.68 253.17C503.69 252.75 503.39 252.42 502.98 252.41L501.76 252.37L501.71 253.84L502.93 253.88C503.34 253.89 503.67 253.58 503.68 253.17Z" fill="#121212"/>
<path id="Vector_189" d="M505.19 256.58C507.78 254 507.96 253.74 507.98 253.26C508 252.68 507.61 252.47 507.24 252.45C506.79 252.43 506.43 252.74 506.46 253.27L505.34 253.22C505.29 252.11 506.25 251.39 507.33 251.43C508.36 251.47 509.13 252.19 509.1 253.19C509.07 254.12 508.65 254.57 506.7 256.47L509.11 256.56L509.07 257.58L505.15 257.44L505.19 256.58Z" fill="#121212"/>
<path id="Vector_190" d="M509.89 254.61C509.95 252.8 510.91 251.57 512.23 251.61C513.53 251.66 514.41 252.95 514.34 254.77C514.28 256.58 513.31 257.81 512.01 257.77C510.69 257.72 509.83 256.42 509.89 254.61ZM513.18 254.73C513.22 253.52 512.81 252.65 512.2 252.63C511.58 252.61 511.11 253.44 511.06 254.65C511.02 255.86 511.43 256.72 512.05 256.74C512.66 256.76 513.13 255.93 513.18 254.73Z" fill="#121212"/>
</g>
</g>
<g id="R19">
<path id="Vector_191" d="M531.86 245.54L545 246.2C546.83 246.29 548.25 247.63 548.18 249.19L547.48 263.32C547.4 264.88 545.86 266.07 544.02 265.98L530.88 265.32C529.05 265.23 527.63 263.89 527.7 262.33L528.4 248.2C528.48 246.64 530.03 245.45 531.86 245.54Z" fill="#A8D9E2"/>
<g id="Group_21">
<path id="Vector_192" d="M534.87 258.43L533.52 258.36L532.35 255.75L531.76 255.72L531.62 258.26L530.41 258.2L530.73 252.21L533.2 252.34C534.19 252.39 534.93 253.23 534.88 254.22C534.84 255.01 534.29 255.59 533.55 255.73L534.87 258.43ZM533.79 254.16C533.81 253.74 533.51 253.41 533.1 253.39L531.88 253.32L531.8 254.79L533.02 254.86C533.44 254.88 533.77 254.57 533.79 254.16Z" fill="#121212"/>
<path id="Vector_193" d="M536.53 253.84L535.23 254.73L535.3 253.45L536.67 252.52L537.76 252.58L537.44 258.57L536.27 258.51L536.53 253.84Z" fill="#121212"/>
<path id="Vector_194" d="M542.71 256.2L540.62 258.75L539.29 258.68L540.86 256.87C540.78 256.87 540.69 256.86 540.62 256.85C539.55 256.68 538.78 255.73 538.83 254.69C538.89 253.5 539.95 252.65 541.14 252.7C542.36 252.76 543.31 253.71 543.26 254.89C543.24 255.38 543.01 255.82 542.71 256.2ZM542.12 254.81C542.14 254.21 541.72 253.69 541.09 253.67C540.46 253.65 539.98 254.12 539.97 254.73C539.94 255.34 540.37 255.85 541.01 255.87C541.64 255.91 542.1 255.43 542.12 254.81Z" fill="#121212"/>
</g>
</g>
<g id="R18">
<path id="Vector_195" d="M583.57 260.87L593.44 269.56C594.82 270.77 595.1 272.71 594.06 273.88L584.72 284.51C583.69 285.69 581.74 285.65 580.36 284.44L570.48 275.75C569.1 274.54 568.82 272.6 569.85 271.43L579.19 260.8C580.24 259.63 582.19 259.66 583.57 260.87Z" fill="#A8D9E2"/>
<g id="Group_22">
<path id="Vector_196" d="M579.01 273.74L577.98 272.87L578.61 270.08L578.16 269.7L576.52 271.65L575.6 270.87L579.46 266.28L581.36 267.87C582.12 268.51 582.21 269.62 581.57 270.38C581.06 270.99 580.27 271.12 579.6 270.79L579.01 273.74ZM580.72 269.68C580.99 269.36 580.95 268.91 580.64 268.65L579.7 267.86L578.75 268.99L579.69 269.78C580.01 270.04 580.45 270 580.72 269.68Z" fill="#121212"/>
<path id="Vector_197" d="M583.09 271.07L581.52 271L582.34 270.02L583.99 270.1L584.83 270.81L580.97 275.4L580.08 274.65L583.09 271.07Z" fill="#121212"/>
<path id="Vector_198" d="M586.18 277.41C585.49 278.23 584.29 278.28 583.36 277.51C582.44 276.74 582.29 275.54 582.98 274.72C583.41 274.21 584.02 274.01 584.65 274.13C584.57 273.7 584.68 273.26 584.99 272.9C585.57 272.21 586.57 272.16 587.33 272.8C588.09 273.44 588.21 274.44 587.63 275.12C587.33 275.48 586.91 275.66 586.48 275.66C586.69 276.25 586.6 276.9 586.18 277.41ZM585.33 276.59C585.67 276.19 585.62 275.64 585.21 275.3C584.81 274.97 584.26 275 583.92 275.41C583.58 275.81 583.62 276.4 584.01 276.73C584.42 277.06 584.99 276.99 585.33 276.59ZM585.67 273.59C585.39 273.92 585.43 274.38 585.76 274.66C586.08 274.93 586.55 274.89 586.82 274.56C587.1 274.23 587.06 273.77 586.73 273.49C586.41 273.22 585.95 273.26 585.67 273.59Z" fill="#121212"/>
</g>
</g>
<g id="R23">
<path id="Vector_199" d="M631.58 241.93L644.08 246.04C645.82 246.61 646.84 248.28 646.35 249.77L641.94 263.21C641.45 264.7 639.65 265.43 637.9 264.86L625.4 260.75C623.66 260.18 622.64 258.51 623.13 257.02L627.54 243.58C628.03 242.1 629.83 241.36 631.58 241.93Z" fill="#A8D9E2"/>
<g id="Group_23">
<path id="Vector_200" d="M631.61 255.07L630.33 254.64L629.89 251.81L629.33 251.62L628.53 254.03L627.38 253.65L629.27 247.96L631.62 248.74C632.56 249.05 633.05 250.05 632.74 251C632.49 251.75 631.81 252.17 631.06 252.11L631.61 255.07ZM631.71 250.66C631.84 250.27 631.64 249.86 631.25 249.73L630.09 249.34L629.63 250.74L630.79 251.13C631.18 251.26 631.57 251.06 631.71 250.66Z" fill="#121212"/>
<path id="Vector_201" d="M632.19 254.36C635.4 252.61 635.65 252.42 635.81 251.96C635.99 251.41 635.68 251.1 635.33 250.97C634.9 250.83 634.47 251.02 634.35 251.54L633.29 251.18C633.55 250.11 634.68 249.68 635.71 250.02C636.69 250.35 637.22 251.26 636.91 252.21C636.62 253.1 636.09 253.41 633.69 254.68L635.97 255.44L635.65 256.41L631.93 255.17L632.19 254.36Z" fill="#121212"/>
<path id="Vector_202" d="M640.58 256.08C640.23 257.12 639.14 257.67 638.09 257.32C637.04 256.97 636.46 255.96 636.77 255.04L637.86 255.39C637.74 255.75 638 256.14 638.44 256.29C638.9 256.44 639.35 256.2 639.51 255.72C639.67 255.25 639.45 254.79 638.99 254.64L638.54 254.49L638.82 253.61L639.2 253.74H639.21C639.58 253.86 639.95 253.67 640.08 253.28C640.19 252.94 640 252.6 639.63 252.47C639.3 252.36 638.97 252.5 638.88 252.78L637.83 252.4C638.11 251.57 639.05 251.15 639.97 251.45C640.89 251.75 641.39 252.65 641.11 253.49C640.96 253.93 640.61 254.22 640.17 254.33C640.61 254.8 640.79 255.44 640.58 256.08Z" fill="#121212"/>
</g>
</g>
<g id="R17">
<g id="Group 33">
<path id="Vector_203" d="M643.29 291.39L643.32 304.54C643.32 306.37 642.06 307.87 640.5 307.87L626.35 307.92C624.79 307.93 623.52 306.44 623.51 304.61L623.48 291.46C623.48 289.63 624.74 288.13 626.3 288.13L640.45 288.08C642.02 288.07 643.29 289.55 643.29 291.39Z" fill="#A8D9E2"/>
<g id="Group_24">
<path id="Vector_204" d="M630.75 296.18V294.83L633.29 293.52V292.93H630.75V291.72L636.75 291.73V294.21C636.75 295.2 635.96 295.98 634.96 295.98C634.17 295.98 633.56 295.46 633.38 294.73L630.75 296.18ZM634.96 294.89C635.38 294.89 635.7 294.57 635.7 294.16V292.94H634.23V294.16C634.23 294.57 634.55 294.88 634.96 294.89Z" fill="#121212"/>
<path id="Vector_205" d="M635.42 297.6L634.46 296.35H635.74L636.74 297.67V298.77L630.74 298.76V297.59L635.42 297.6Z" fill="#121212"/>
<path id="Vector_206" d="M635.72 302.73V299.88H636.74V303.99H635.89L630.74 301.22V299.96L635.72 302.73Z" fill="#121212"/>
</g>
</g>
</g>
<g id="R14">
<path id="Vector_207" d="M491.61 356.74L501.69 356.22L503.68 356.12L515.75 355.5C516.88 355.44 517.73 354.13 517.66 352.57L517.01 338.68C516.94 337.12 515.96 335.9 514.84 335.96L502.77 336.58L500.78 336.68L490.7 337.2C489.57 337.26 488.71 338.47 488.78 339.91L488.79 340.14L489.44 354.03L489.45 354.26C489.52 355.68 490.48 356.8 491.61 356.74Z" fill="#A8D9E2"/>
<g id="Group_25">
<path id="Vector_208" d="M501.14 348.95L499.79 349.06L498.28 346.63L497.69 346.68L497.9 349.21L496.7 349.31L496.21 343.33L498.68 343.13C499.67 343.05 500.51 343.77 500.6 344.77C500.66 345.56 500.2 346.21 499.49 346.45L501.14 348.95ZM499.49 344.85C499.46 344.44 499.11 344.14 498.71 344.18L497.49 344.28L497.61 345.75L498.83 345.65C499.24 345.61 499.53 345.27 499.49 344.85Z" fill="#121212"/>
<path id="Vector_209" d="M502.16 344.17L500.99 345.23L500.89 343.96L502.12 342.86L503.21 342.77L503.7 348.75L502.54 348.84L502.16 344.17Z" fill="#121212"/>
<path id="Vector_210" d="M509.07 347.03L508.54 347.07L508.64 348.33L507.48 348.42L507.38 347.16L504.54 347.39L504.48 346.66L506.69 342.47L508.15 342.35L508.45 346.05L508.98 346.01L509.07 347.03ZM507.31 346.15L507.1 343.59L505.79 346.27L507.31 346.15Z" fill="#121212"/>
</g>
</g>
<g id="R15">
<path id="Vector_211" d="M528.69 334.4L541.74 332.78C543.56 332.55 545.19 333.63 545.39 335.18L547.15 349.22C547.35 350.77 546.03 352.21 544.21 352.44L531.16 354.06C529.34 354.29 527.71 353.21 527.51 351.66L525.75 337.62C525.55 336.07 526.87 334.63 528.69 334.4Z" fill="#A8D9E2"/>
<g id="Group_26">
<path id="Vector_212" d="M535.35 345.68L534.01 345.86L532.37 343.51L531.79 343.59L532.13 346.11L530.93 346.27L530.13 340.33L532.59 340C533.57 339.87 534.46 340.55 534.59 341.54C534.7 342.32 534.26 343 533.56 343.27L535.35 345.68ZM533.5 341.68C533.44 341.27 533.09 340.99 532.68 341.05L531.47 341.21L531.67 342.67L532.88 342.51C533.29 342.45 533.55 342.09 533.5 341.68Z" fill="#121212"/>
<path id="Vector_213" d="M536.12 340.86L535.01 341.98L534.84 340.71L536.01 339.54L537.09 339.39L537.89 345.33L536.73 345.49L536.12 340.86Z" fill="#121212"/>
<path id="Vector_214" d="M539.13 344.4L539.75 343.5C540.05 343.82 540.54 343.99 540.98 343.93C541.57 343.85 541.91 343.38 541.84 342.8C541.76 342.21 541.28 341.83 540.71 341.9C540.37 341.95 540 342.16 539.8 342.46L538.82 342.16L538.71 339.19L542.08 338.74L542.21 339.75L539.74 340.08L539.78 341.37C540.01 341.11 540.44 340.91 540.89 340.85C541.96 340.71 542.84 341.44 543 342.59C543.17 343.82 542.42 344.81 541.21 344.97C540.45 345.08 539.63 344.84 539.13 344.4Z" fill="#121212"/>
</g>
</g>
<g id="R16">
<path id="Vector_215" d="M562.65 328.62L575.59 326.25C577.39 325.92 579.09 326.9 579.37 328.44L581.93 342.36C582.21 343.9 580.98 345.41 579.18 345.74L566.24 348.11C564.44 348.44 562.74 347.46 562.46 345.92L559.9 332C559.62 330.46 560.85 328.95 562.65 328.62Z" fill="#A8D9E2"/>
<g id="Group_27">
<path id="Vector_216" d="M569.59 340.81L568.26 341.06L566.5 338.81L565.92 338.92L566.39 341.42L565.2 341.65L564.08 335.76L566.51 335.3C567.49 335.12 568.4 335.75 568.59 336.73C568.74 337.51 568.34 338.2 567.66 338.52L569.59 340.81ZM567.52 336.91C567.44 336.5 567.07 336.25 566.67 336.32L565.47 336.55L565.74 338L566.94 337.77C567.35 337.69 567.6 337.32 567.52 336.91Z" fill="#121212"/>
<path id="Vector_217" d="M570.1 335.95L569.05 337.12L568.81 335.86L569.92 334.63L571 334.43L572.12 340.32L570.97 340.54L570.1 335.95Z" fill="#121212"/>
<path id="Vector_218" d="M575.49 339.77C574.29 340.01 573.14 339.3 572.91 338.14C572.82 337.65 572.94 337.17 573.14 336.73L574.56 333.76L575.86 333.51L574.78 335.64C574.86 335.62 574.93 335.62 575 335.61C576.08 335.53 577.05 336.25 577.26 337.29C577.48 338.45 576.67 339.53 575.49 339.77ZM576.14 337.5C576.01 336.9 575.48 336.51 574.86 336.64C574.23 336.77 573.92 337.34 574.04 337.93C574.15 338.53 574.68 338.93 575.3 338.8C575.93 338.67 576.27 338.1 576.14 337.5Z" fill="#121212"/>
</g>
</g>
</g>
<defs>
<clipPath id="clip0_813_3186">
<rect width="841.89" height="595.28" fill="white"/>
</clipPath>
</defs>
</svg>
