<svg width="35" height="40" viewBox="0 0 35 40" fill="none" xmlns="http://www.w3.org/2000/svg">
<path d="M34.0157 8.20046C33.8866 8.09675 33.7317 8.03011 33.5676 8.00768C33.4035 7.98524 33.2365 8.00785 33.0842 8.07309L18.2608 14.492C17.6163 14.7728 16.8091 14.9063 15.9805 14.9063C14.825 14.9109 13.6296 14.6424 12.7964 14.2772C12.5424 14.1702 12.3007 14.0365 12.0751 13.8782C12.1365 13.8475 12.2132 13.8137 12.2976 13.78L25.7799 7.94266L27.7901 8.80199V6.28998C27.7932 6.11084 27.7557 5.93334 27.6805 5.77072C27.6053 5.6081 27.4943 5.46457 27.3559 5.35086C27.2273 5.24726 27.0729 5.18067 26.9094 5.15823C26.7458 5.13579 26.5792 5.15835 26.4275 5.22349L11.604 11.6424C11.1467 11.8265 10.7539 12.0536 10.4225 12.3836C10.0386 12.7622 9.82065 13.2776 9.81632 13.8168C9.81632 13.8321 9.82092 13.8582 9.82092 13.8582V36.4617L9.81786 36.4924C9.81786 36.4985 9.82246 36.5016 9.82246 36.5077V36.5323H9.82553C9.85622 37.3226 10.2552 37.8259 10.6358 38.1819C11.8327 39.2377 13.8429 39.8284 15.982 39.8591C16.9948 39.8591 18.0229 39.7057 18.9743 39.2975L33.8024 32.8771C34.1937 32.7083 34.45 32.2893 34.45 31.8152V9.13958C34.4523 8.96055 34.4145 8.78326 34.3394 8.62074C34.2642 8.45823 34.1536 8.31461 34.0157 8.20046V8.20046ZM24.6137 3.9038C24.5876 3.56621 24.448 3.24396 24.1994 3.05061C24.0703 2.9469 23.9154 2.88027 23.7513 2.85783C23.5872 2.8354 23.4201 2.85801 23.2679 2.92325L8.44446 9.33907C7.79996 9.61835 6.99127 9.75339 6.16416 9.75339C5.00867 9.75646 3.81328 9.48792 2.98004 9.12117C2.72586 9.01601 2.484 8.88324 2.25881 8.72526C2.32019 8.69457 2.39692 8.66081 2.48132 8.62705L15.9651 2.78974L17.9754 3.64907V1.14013C17.9781 0.960889 17.9403 0.78334 17.8649 0.620729C17.7894 0.458119 17.6782 0.314645 17.5396 0.201008C17.4107 0.0974354 17.2561 0.0308672 17.0923 0.00843141C16.9284 -0.0140044 16.7616 0.00853747 16.6096 0.0736427L1.78618 6.49407C1.32889 6.67821 0.937591 6.90379 0.604601 7.23525C0.221341 7.61416 0.00392577 8.12955 0 8.66849C0 8.6869 0.00460322 8.71145 0.00460322 8.71145V31.387H0.00767277C0.0383632 32.1773 0.437338 32.6806 0.817899 33.0367C2.01482 34.0924 4.02504 34.6817 6.1657 34.7124C6.74703 34.7089 7.3265 34.6462 7.8951 34.5251V13.8567C7.87976 12.7825 8.30942 11.7513 9.06441 11.0086C9.58746 10.5013 10.2089 10.1064 10.8905 9.84853L24.6137 3.9038V3.9038Z" fill="black"/>
</svg>
