<svg width="235" height="439" viewBox="0 0 235 439" fill="none" xmlns="http://www.w3.org/2000/svg">
<g id="knihovna-0-mob">
<g id="Group">
<g id="R33">
<path id="Vector" d="M140.686 264.751L140.708 275.734C140.713 277.264 139.754 278.507 138.571 278.511L127.847 278.55C126.662 278.557 125.7 277.318 125.697 275.788L125.672 264.807C125.672 263.276 126.629 262.032 127.811 262.026L138.536 261.988C139.719 261.984 140.681 263.221 140.686 264.751Z" fill="#A7D9E2"/>
<path id="Vector_2" d="M130.824 264.15L130.821 265.349L132.734 265.409L132.731 265.772C132.723 266.264 132.556 266.489 131.948 266.612C131.348 266.751 130.952 266.862 130.813 266.946L130.81 268.181C130.997 268.085 131.635 267.939 132.182 267.79C132.631 267.669 132.957 267.476 133.094 267.106L133.116 267.108C133.264 267.57 133.691 268.067 134.31 268.089C134.759 268.104 135.099 267.939 135.331 267.631C135.604 267.261 135.715 266.709 135.719 265.916C135.724 265.275 135.682 264.695 135.624 264.305L130.824 264.15ZM134.867 265.48C134.881 265.566 134.903 265.734 134.903 266.027C134.892 266.581 134.669 266.905 134.219 266.892C133.792 266.877 133.522 266.509 133.522 265.911L133.524 265.433L134.867 265.48ZM131.061 268.632C130.888 268.929 130.726 269.486 130.724 270.152C130.718 271.457 131.324 272.277 132.151 272.304C132.765 272.324 133.194 271.839 133.295 271.226H133.312C133.513 271.865 133.9 272.187 134.397 272.202C135.041 272.223 135.568 271.632 135.574 270.532C135.576 269.865 135.404 269.241 135.225 268.927L134.431 269.147C134.545 269.367 134.71 269.813 134.707 270.233C134.707 270.739 134.495 270.989 134.216 270.978C133.82 270.967 133.68 270.445 133.678 270.043V269.572L132.891 269.55V270.039C132.889 270.569 132.677 271.07 132.217 271.057C131.86 271.045 131.59 270.717 131.592 270.093C131.592 269.604 131.781 269.116 131.884 268.905L131.061 268.632ZM131.005 272.734C130.83 273.029 130.671 273.588 130.668 274.253C130.662 275.557 131.265 276.379 132.096 276.405C132.709 276.423 133.136 275.937 133.239 275.325H133.256C133.456 275.963 133.844 276.287 134.344 276.303C134.982 276.325 135.511 275.731 135.517 274.63C135.52 273.965 135.35 273.342 135.168 273.027L134.375 273.246C134.488 273.463 134.653 273.914 134.653 274.334C134.65 274.839 134.439 275.088 134.16 275.079C133.764 275.065 133.619 274.544 133.621 274.141L133.624 273.674L132.835 273.646V274.139C132.832 274.67 132.62 275.169 132.16 275.154C131.806 275.142 131.533 274.816 131.533 274.191C131.535 273.7 131.725 273.218 131.828 273.005L131.005 272.734Z" fill="#010202"/>
</g>
<path id="Vector_3" d="M154.96 6.08118L160.4 7.84917L178.248 32.2082L200.844 70.9072C200.844 70.9072 233.665 143.292 233.671 208.913C233.675 274.533 215.847 351.844 164.619 418.78C157.353 426.693 154.419 428.783 154.419 428.783L160.709 404.981L169.368 374.336L176.381 328.664L181.701 285.886L183.466 263.797L183.945 246.694L184.548 238.542L186.558 236.963L192.316 235.187L195.387 235.568C195.286 222.614 195.183 209.661 195.079 196.707C192.999 196.457 190.92 196.209 188.839 195.963C187.207 194.258 185.576 192.557 183.945 190.856V184.007V169.938L181.299 140.211L177.315 108.098L173.712 85.9212L166.576 50.3612L158.902 16.8212L154.96 6.08118Z" fill="#35ABB9"/>
<path id="Vector_4" d="M73.5197 11.0221L59.5077 69.7021L50.5257 127.154C50.5257 127.154 38.5277 220.326 52.9437 313.462C55.6577 332.221 66.0047 397.932 75.6177 424.903C75.6177 424.903 37.8737 383.425 16.1597 313.3C-5.56033 243.176 1.97067 190.252 1.97067 190.252C1.97067 190.252 6.25767 144.815 12.3237 131.384C18.3907 117.956 15.2717 121.477 15.2717 121.477L19.2807 109.49L30.5437 81.5741L40.3457 61.6211L52.9617 39.7061L63.7837 23.9431L70.2187 14.4921L73.5197 11.0221Z" fill="#35ABB9"/>
<path id="Vector_5" d="M193.262 237.873C193.262 237.873 190.382 237.873 189.074 238.466C187.766 239.053 185.99 241.417 186.026 243.411C186.059 245.403 192.088 242.707 192.088 242.707L193.262 237.873Z" fill="#35ABB9"/>
<path id="Vector_6" d="M134.521 0.651115V13.2701C134.521 17.1161 131.64 20.2281 128.088 20.2281L106.041 20.2281C102.487 20.2281 99.6075 17.1161 99.6075 13.2701V0.292114L134.521 0.651115Z" fill="#35ABB9"/>
<path id="Vector_7" d="M185.731 186.745V173.165H191.787V186.745H185.731Z" fill="#35ABB9"/>
<path id="Vector_8" d="M73.1427 234.579L73.1427 201.589C73.1427 195.627 77.5287 190.798 82.9417 190.798H147.237C152.647 190.798 157.033 195.627 157.033 201.589V234.579C157.033 240.539 152.647 245.371 147.237 245.371H82.9417C77.5287 245.371 73.1427 240.539 73.1427 234.579Z" stroke="#414142" stroke-width="2" stroke-miterlimit="22.9256"/>
<path id="Vector_9" d="M151.871 192.015V244.153" stroke="#414142" stroke-width="2" stroke-miterlimit="22.9256"/>
<path id="Vector_10" d="M146.721 190.798V245.369" stroke="#414142" stroke-width="2" stroke-miterlimit="22.9256"/>
<path id="Vector_11" d="M141.547 190.798V245.369" stroke="#414142" stroke-width="2" stroke-miterlimit="22.9256"/>
<path id="Vector_12" d="M173.283 207.585V208.731L167.16 206.369V205.203L173.283 202.85V203.986L169.477 205.391C169.293 205.464 169.059 205.545 168.772 205.626C168.484 205.711 168.273 205.766 168.133 205.789C168.345 205.827 168.592 205.893 168.871 205.977C169.153 206.059 169.356 206.125 169.491 206.177L173.283 207.585ZM168.822 213.514C168.279 213.514 167.849 213.298 167.539 212.862C167.23 212.428 167.077 211.831 167.077 211.068C167.077 210.304 167.183 209.676 167.398 209.192H168.343C168.215 209.5 168.111 209.831 168.036 210.174C167.961 210.521 167.921 210.842 167.921 211.139C167.921 211.577 167.996 211.901 168.147 212.106C168.298 212.313 168.501 212.417 168.755 212.417C168.984 212.417 169.179 212.325 169.338 212.133C169.496 211.944 169.686 211.549 169.901 210.952C170.126 210.336 170.389 209.903 170.678 209.651C170.966 209.397 171.317 209.272 171.723 209.272C172.233 209.272 172.635 209.473 172.931 209.875C173.224 210.271 173.372 210.808 173.372 211.482C173.372 212.129 173.24 212.771 172.984 213.411L172.168 213.06C172.397 212.459 172.511 211.925 172.511 211.453C172.511 211.098 172.438 210.826 172.299 210.641C172.157 210.456 171.97 210.367 171.738 210.367C171.582 210.367 171.445 210.403 171.334 210.476C171.219 210.548 171.111 210.668 171.013 210.84C170.913 211.008 170.779 211.314 170.615 211.753C170.425 212.247 170.255 212.612 170.09 212.842C169.928 213.074 169.747 213.241 169.541 213.352C169.338 213.458 169.098 213.514 168.822 213.514ZM167.16 217.148V216.047H172.425V214.063H173.283V219.132H172.425V217.148H167.16ZM173.283 225.453H169.321C168.869 225.453 168.471 225.348 168.133 225.133C167.793 224.919 167.53 224.612 167.349 224.208C167.168 223.801 167.076 223.316 167.076 222.755C167.076 221.917 167.277 221.266 167.679 220.802C168.08 220.338 168.636 220.105 169.338 220.105H173.283V221.211H169.408C168.903 221.211 168.532 221.341 168.289 221.6C168.05 221.859 167.93 222.257 167.93 222.792C167.93 223.829 168.426 224.353 169.416 224.353H173.283V225.453ZM171.432 231.646C170.79 231.646 170.303 231.416 169.963 230.956C169.62 230.492 169.45 229.836 169.45 228.984V228.281H167.16V227.178H173.283V229.122C173.283 229.966 173.125 230.595 172.815 231.016C172.5 231.437 172.04 231.646 171.432 231.646ZM170.291 228.281V228.868C170.291 229.434 170.38 229.848 170.559 230.114C170.738 230.381 171.017 230.51 171.398 230.51C171.75 230.51 172.012 230.394 172.185 230.156C172.358 229.917 172.444 229.551 172.444 229.048V228.281H170.291Z" fill="#414142"/>
<path id="Vector_13" d="M136.23 190.798V245.369" stroke="#414142" stroke-width="2" stroke-miterlimit="22.9256"/>
<path id="Vector_14" d="M131.059 190.798V245.369" stroke="#414142" stroke-width="2" stroke-miterlimit="22.9256"/>
<path id="Vector_15" d="M125.648 190.798L125.648 245.369" stroke="#414142" stroke-width="2" stroke-miterlimit="22.9256"/>
<path id="Vector_16" d="M120.477 190.798L120.477 245.369" stroke="#414142" stroke-width="2" stroke-miterlimit="22.9256"/>
<path id="Vector_17" d="M115.161 190.798L115.161 245.369" stroke="#414142" stroke-width="2" stroke-miterlimit="22.9256"/>
<path id="Vector_18" d="M109.985 190.798L109.985 245.369" stroke="#414142" stroke-width="2" stroke-miterlimit="22.9256"/>
<path id="Vector_19" d="M104.766 190.798L104.766 245.369" stroke="#414142" stroke-width="2" stroke-miterlimit="22.9256"/>
<path id="Vector_20" d="M99.5908 190.798L99.5908 245.369" stroke="#414142" stroke-width="2" stroke-miterlimit="22.9256"/>
<path id="Vector_21" d="M94.2725 190.798L94.2725 245.369" stroke="#414142" stroke-width="2" stroke-miterlimit="22.9256"/>
<path id="Vector_22" d="M89.1035 190.798L89.1035 245.369" stroke="#414142" stroke-width="2" stroke-miterlimit="22.9256"/>
<path id="Vector_23" d="M83.8467 190.798L83.8467 245.369" stroke="#414142" stroke-width="2" stroke-miterlimit="22.9256"/>
<path id="Vector_24" d="M78.5298 191.624L78.5298 244.215" stroke="#414142" stroke-width="2" stroke-miterlimit="22.9256"/>
<path id="Vector_25" d="M74.7458 9.31409C72.3318 15.5561 70.3858 22.0491 68.5118 28.5071C63.3928 46.1271 59.3528 64.1301 56.0628 82.2701C51.0178 110.092 47.8008 138.319 46.1878 166.633C44.1088 203.219 44.7408 239.982 47.8838 276.474C51.7058 320.878 59.2358 364.873 70.0728 407.845C71.5368 413.649 73.0628 419.431 74.6428 425.2C75.0198 426.565 76.9658 425.983 76.5858 424.609C64.6218 380.941 55.9918 336.161 51.2668 290.838C47.3928 253.686 46.0988 216.198 47.6098 178.836C48.7928 149.601 51.6728 120.437 56.4778 91.6521C59.7258 72.1781 63.8248 52.8541 69.0848 33.9191C71.2778 26.0231 73.6198 18.1361 76.4638 10.4911C76.5478 10.2691 76.6228 10.0811 76.4858 10.4331C76.9918 9.13408 75.2538 8.00209 74.7458 9.31409Z" fill="#4A4A4A"/>
<path id="Vector_26" d="M84.6208 428.794L85.4048 429.115L84.5228 429.448L83.8168 429.115L84.6208 428.794Z" fill="#4A4A4A"/>
<path id="Vector_27" d="M147.287 429.947C143.341 431.005 139.27 431.642 135.244 432.172C125.482 433.46 115.591 433.764 105.784 432.943C98.8208 432.36 91.9118 431.172 85.1418 429.308C83.8808 428.96 83.3438 431.101 84.6038 431.45C103.738 436.718 124.179 436.871 143.559 433.041C144.984 432.76 146.414 432.467 147.822 432.09C149.083 431.75 148.55 429.608 147.287 429.947Z" fill="#4A4A4A"/>
<path id="Vector_28" d="M79.4244 33.9191L79.9854 30.8151L83.9954 30.7301C84.1654 30.7191 84.4974 30.7221 84.9904 30.7321C85.4894 30.7431 85.9024 30.7591 86.2344 30.7861C85.9774 30.6941 85.6604 30.5621 85.2894 30.3981C84.9134 30.2321 84.5724 30.0781 84.2634 29.9271C83.9484 29.7791 82.6874 29.1661 80.4804 28.0901L81.0434 24.9861L90.2954 24.5221L89.8384 27.0531L85.2274 27.1371C84.2064 27.1601 83.3954 27.1541 82.8004 27.1151C83.2004 27.2621 83.7404 27.4871 84.4174 27.7911C85.0934 28.0931 85.6524 28.3631 86.0894 28.5911L89.2724 30.1841L88.8304 32.6181L85.3454 32.7121C84.7844 32.7361 84.1454 32.7441 83.4144 32.7361C82.6884 32.7291 82.1484 32.7121 81.7924 32.6831C82.2314 32.8391 82.9784 33.1661 84.0314 33.6661L88.2654 35.7171L87.8084 38.2471L79.4244 33.9191Z" fill="#414142"/>
<path id="Vector_29" d="M84.9654 43.4282C85.0794 42.8032 84.9374 42.2652 84.5354 41.8152C84.1344 41.3612 83.5254 41.0462 82.7094 40.8662C81.0104 40.4932 80.0344 41.0182 79.7744 42.4402C79.6974 42.8682 79.6774 43.2962 79.7134 43.7242C79.7484 44.1512 79.8084 44.5852 79.8844 45.0262L77.8704 44.5852C77.6934 43.7022 77.6934 42.7502 77.8814 41.7272C78.1454 40.2582 78.7374 39.2212 79.6504 38.6102C80.5644 37.9992 81.7494 37.8532 83.2104 38.1722C84.1224 38.3742 84.8904 38.7372 85.5144 39.2692C86.1364 39.8022 86.5684 40.4622 86.8104 41.2562C87.0564 42.0482 87.0904 42.9242 86.9194 43.8862C86.7274 44.9382 86.3364 45.8942 85.7484 46.7612L84.0194 45.5422C84.2384 45.2192 84.4324 44.8882 84.6034 44.5502C84.7734 44.2142 84.8954 43.8432 84.9654 43.4282Z" fill="#414142"/>
<path id="Vector_30" d="M78.9426 400.92L78.2796 397.84L81.8886 395.921C82.0396 395.835 82.3436 395.682 82.7966 395.463C83.2536 395.245 83.6326 395.073 83.9426 394.943C83.6756 394.975 83.3386 395.004 82.9416 395.024C82.5376 395.046 82.1666 395.063 81.8256 395.068C81.4896 395.078 80.1116 395.1 77.6956 395.138L77.0296 392.058L85.2666 387.382L85.8076 389.894L81.6476 392.089C80.7266 392.581 79.9936 392.945 79.4366 393.183C79.8546 393.135 80.4316 393.093 81.1596 393.055C81.8886 393.022 82.4956 393.007 82.9826 393.016L86.4766 393L86.9966 395.412L83.8646 397.1C83.3646 397.381 82.7856 397.685 82.1226 398.007C81.4576 398.338 80.9626 398.572 80.6266 398.707C81.0816 398.648 81.8856 398.604 83.0326 398.574L87.6606 398.488L88.2026 401.002L78.9426 400.92Z" fill="#414142"/>
<path id="Vector_31" d="M87.5845 407.016C87.4495 406.394 87.1135 405.973 86.5785 405.745C86.0455 405.519 85.3705 405.511 84.5605 405.722C82.8765 406.161 82.1875 407.089 82.4925 408.5C82.5845 408.925 82.7265 409.323 82.9195 409.698C83.1145 410.067 83.3325 410.438 83.5725 410.802L81.5725 411.326C81.0735 410.605 80.7155 409.737 80.5005 408.722C80.1845 407.268 80.3265 406.05 80.9255 405.076C81.5265 404.098 82.5515 403.421 83.9955 403.043C84.9015 402.807 85.7385 402.786 86.5045 402.984C87.2725 403.18 87.9155 403.581 88.4385 404.189C88.9595 404.799 89.3215 405.578 89.5295 406.534C89.7515 407.575 89.7595 408.624 89.5565 409.679L87.5235 409.371C87.5985 408.974 87.6465 408.583 87.6745 408.2C87.6985 407.82 87.6705 407.425 87.5845 407.016Z" fill="#414142"/>
<path id="Vector_32" d="M194.888 197.128C194.888 197.128 202.674 198.585 202.674 215.657C202.674 232.729 195.443 235.717 195.443 235.717L193.263 228.749V209.782L194.888 197.128Z" fill="white"/>
<path id="Vector_33" d="M153.783 6.65919C154.995 10.3522 156.081 14.1012 157.151 17.8472C160.059 28.0122 162.678 38.2812 165.087 48.6022C168.629 63.7852 171.702 79.1042 174.297 94.5202C177.501 113.548 179.98 132.725 181.611 151.994C182.497 162.442 183.133 172.919 183.493 183.405C183.633 187.54 182.902 192.638 186.119 195.616C188.219 197.561 190.69 197.414 193.244 197.414H195.672C196.972 197.414 196.972 195.194 195.672 195.194C193.977 195.194 192.276 195.248 190.583 195.194C188.874 195.138 187.324 194.253 186.411 192.638C185.302 190.676 185.65 187.982 185.583 185.775C185.268 175.337 184.674 164.912 183.835 154.508C182.298 135.505 179.942 116.582 176.883 97.8062C174.351 82.2912 171.343 66.8732 167.854 51.5882C165.411 40.8752 162.74 30.2192 159.776 19.6642C158.521 15.2022 157.386 10.5792 155.78 6.2462C155.76 6.1902 155.743 6.12819 155.724 6.06819C155.286 4.73619 153.337 5.31119 153.783 6.65919Z" fill="#4A4A4A"/>
<path id="Vector_34" d="M134.229 6.74314V1.58314C134.229 1.58314 114.902 -0.803859 99.9065 1.88914C99.7325 2.05514 99.9065 6.74314 99.9065 6.74314L134.229 6.74314Z" fill="#35ABB9"/>
<path id="Vector_35" d="M210.962 188.038V186.122L215.123 182.942L214.401 181.965H210.962V180.311H220.148V181.965H215.764C216.267 182.42 216.754 182.87 217.217 183.316L220.148 186.05V187.933C218.263 186.166 216.922 184.9 216.123 184.131L210.962 188.038ZM210.962 197.81V195.778L218.285 190.799V190.748L217.878 190.778C217.097 190.842 216.387 190.876 215.739 190.876H210.962V189.374H220.148V191.383L212.868 196.345V196.386C212.968 196.377 213.316 196.362 213.923 196.333C214.524 196.306 214.999 196.289 215.34 196.289H220.149V197.81H210.962ZM210.962 200.476H220.148V202.13H210.962V200.476ZM210.962 212.789V211.125H215.103V206.458H210.962V204.802H220.148V206.458H216.392V211.125H220.148V212.789H210.962ZM215.568 224.434C214.076 224.434 212.911 224.023 212.083 223.199C211.257 222.377 210.84 221.207 210.84 219.7C210.84 218.174 211.253 216.999 212.078 216.179C212.898 215.361 214.069 214.95 215.583 214.95C217.1 214.95 218.263 215.366 219.075 216.188C219.89 217.012 220.294 218.187 220.294 219.717C220.294 221.22 219.883 222.381 219.057 223.204C218.228 224.023 217.068 224.434 215.568 224.434ZM215.568 216.711C214.439 216.711 213.583 216.964 213 217.465C212.412 217.97 212.119 218.711 212.119 219.699C212.119 220.682 212.409 221.424 212.988 221.926C213.565 222.43 214.426 222.677 215.568 222.677C216.698 222.677 217.551 222.43 218.133 221.933C218.713 221.435 219.007 220.696 219.007 219.716C219.007 218.722 218.713 217.974 218.133 217.468C217.551 216.964 216.698 216.711 215.568 216.711ZM220.147 232.372V234.094L210.961 230.55V228.802L220.147 225.274V226.975L214.439 229.087C214.166 229.195 213.817 229.314 213.385 229.44C212.956 229.564 212.635 229.646 212.426 229.682C212.743 229.743 213.117 229.838 213.535 229.96C213.954 230.086 214.263 230.188 214.461 230.263L220.147 232.372ZM210.962 243.862V241.834L218.285 236.855V236.804L217.878 236.834C217.097 236.899 216.387 236.931 215.739 236.931H210.962V235.429H220.148V237.436L212.868 242.399V242.441C212.968 242.433 213.316 242.418 213.923 242.388C214.524 242.359 214.999 242.344 215.34 242.344H220.149V243.863H210.962V243.862ZM210.962 252.81L213.514 251.798V247.929L210.962 246.94V245.197L220.189 248.98V250.78L210.962 254.567V252.81ZM214.807 251.365L217.31 250.417C217.477 250.349 217.74 250.252 218.102 250.132C218.461 250.007 218.725 249.923 218.893 249.873C218.378 249.75 217.812 249.57 217.199 249.326L214.806 248.416L214.807 251.365Z" fill="white"/>
<path id="Vector_36" d="M24.0614 183.597V184.746C24.0614 185.517 24.1924 186.077 24.4514 186.423C24.7124 186.768 25.0964 186.941 25.6084 186.941C26.1254 186.941 26.4984 186.756 26.7244 186.382C26.9504 186.008 27.0604 185.442 27.0604 184.691V183.597H24.0614ZM22.8174 183.597H19.1484V181.942H28.3304V184.803C28.3304 186.107 28.1104 187.072 27.6674 187.705C27.2244 188.331 26.5514 188.645 25.6584 188.645C24.5124 188.645 23.6994 187.989 23.2124 186.678L19.1494 189.536V187.655L22.8184 185.231V183.597H22.8174ZM19.1484 196.73L19.1484 191.004H28.3304L28.3304 196.73H27.0604L27.0604 192.66H24.5624L24.5624 196.474H23.3044L23.3044 192.66H20.4244L20.4244 196.73H19.1484ZM19.1484 206.643L19.1484 204.725L23.3044 201.547L22.5834 200.571H19.1474V198.916H28.3294V200.571H23.9494C24.4504 201.024 24.9354 201.474 25.3994 201.921L28.3294 204.653V206.537C26.4474 204.771 25.1034 203.504 24.3074 202.737L19.1484 206.643ZM19.1484 211.473V209.824H27.0444L27.0444 206.845H28.3294L28.3294 214.449H27.0444V211.472H19.1484V211.473ZM23.7554 224.982C22.2614 224.982 21.0964 224.572 20.2664 223.751C19.4424 222.925 19.0234 221.758 19.0234 220.25C19.0234 218.723 19.4364 217.549 20.2614 216.729C21.0804 215.909 22.2514 215.5 23.7664 215.5C25.2844 215.5 26.4494 215.913 27.2604 216.738C28.0744 217.56 28.4794 218.734 28.4794 220.265C28.4794 221.766 28.0664 222.93 27.2404 223.752C26.4154 224.572 25.2544 224.982 23.7554 224.982ZM23.7554 217.26C22.6254 217.26 21.7704 217.512 21.1854 218.013C20.5964 218.517 20.3054 219.26 20.3054 220.249C20.3054 221.232 20.5924 221.972 21.1734 222.476C21.7504 222.977 22.6104 223.226 23.7554 223.226C24.8814 223.226 25.7344 222.977 26.3204 222.483C26.9004 221.984 27.1894 221.246 27.1894 220.266C27.1894 219.272 26.9004 218.522 26.3204 218.017C25.7344 217.512 24.8804 217.26 23.7554 217.26ZM24.0614 228.812V229.96C24.0614 230.733 24.1924 231.291 24.4514 231.638C24.7124 231.984 25.0964 232.154 25.6084 232.154C26.1254 232.154 26.4984 231.971 26.7244 231.596C26.9504 231.223 27.0604 230.658 27.0604 229.904V228.812H24.0614ZM22.8174 228.812H19.1484V227.155H28.3304V230.019C28.3304 231.325 28.1104 232.29 27.6674 232.918C27.2244 233.546 26.5514 233.858 25.6584 233.858C24.5124 233.858 23.6994 233.204 23.2124 231.895L19.1494 234.752V232.871L22.8184 230.446V228.812H22.8174ZM19.1484 242.499L21.6974 241.487V237.615L19.1484 236.628L19.1484 234.885L28.3724 238.669V240.47L19.1484 244.253V242.499ZM22.9934 241.052L25.4954 240.105C25.6654 240.035 25.9244 239.939 26.2864 239.816C26.6454 239.694 26.9124 239.61 27.0794 239.562C26.5614 239.437 25.9974 239.255 25.3874 239.016L22.9934 238.104V241.052ZM29.0694 238.564H29.2244C29.5214 238.83 29.8474 239.104 30.2054 239.379C30.5694 239.658 30.8724 239.877 31.1294 240.039V241.931H30.9994C30.7424 241.692 30.4164 241.333 30.0084 240.855C29.6074 240.376 29.2924 239.969 29.0694 239.647V238.564ZM19.1484 249.085V247.434H27.0444L27.0444 244.456H28.3294L28.3294 252.061H27.0444V249.084H19.1484V249.085Z" fill="white"/>
<path id="Vector_37" d="M106.755 7.21411H107.667L105.786 13.1251H104.862L102.993 7.21411H103.891L105.014 10.8901C105.07 11.0671 105.135 11.2911 105.202 11.5671C105.266 11.8431 105.307 12.0481 105.327 12.1841C105.36 11.9801 105.411 11.7421 105.475 11.4701C105.541 11.2011 105.593 11.0031 105.635 10.8721L106.755 7.21411Z" fill="white"/>
<path id="Vector_38" d="M109.317 6.74311V6.64211C109.457 6.45411 109.598 6.24112 109.75 6.01112C109.897 5.77912 110.015 5.57911 110.099 5.41711H111.102V5.50011C110.977 5.66511 110.785 5.87611 110.531 6.13811C110.277 6.39911 110.065 6.60011 109.892 6.74211L109.317 6.74311ZM109.891 9.91212L111.161 7.21411H112.114L110.329 10.8331V13.1261H109.448V10.8661L107.667 7.21411H108.62L109.891 9.91212Z" fill="white"/>
<path id="Vector_39" d="M115.165 13.1141H114.286V8.03312H112.705V7.20312L116.74 7.20312V8.03312H115.165V13.1141Z" fill="white"/>
<path id="Vector_40" d="M119.637 10.6531L119.135 9.04408C119.099 8.93608 119.049 8.76308 118.982 8.53308C118.918 8.30108 118.873 8.13109 118.848 8.02309C118.781 8.35609 118.686 8.71808 118.558 9.11208L118.073 10.6531H119.637ZM120.403 13.1261L119.867 11.4851H117.815L117.291 13.1261H116.368L118.376 7.18909L119.329 7.18909L121.334 13.1261H120.403Z" fill="white"/>
<path id="Vector_41" d="M126.276 13.1261H125.395V10.4621H122.921V13.1261H122.043V7.21411H122.921V9.63011H125.395V7.21411H126.276V13.1261Z" fill="white"/>
<path id="Vector_42" d="M129.208 9.91207L130.476 7.21606H131.426L129.642 10.8331V13.1261H128.761V10.8661L126.982 7.21606H127.936L129.208 9.91207Z" fill="white"/>
<path id="Vector_43" d="M180.697 226.045L191.645 217.13C192.407 216.51 192.383 215.249 191.6 214.662L180.653 206.467C179.741 205.784 178.509 206.502 178.509 207.719V224.829C178.509 226.069 179.793 226.782 180.697 226.045Z" fill="#E95248"/>
<path id="Vector_44" d="M92.0586 20.1041L88.6266 12.0531C88.3866 11.4941 87.7166 11.3631 87.3176 11.7951L81.7186 17.8591C81.2536 18.3631 81.4896 19.2351 82.1276 19.3761L91.1616 21.3651C91.8206 21.5071 92.3436 20.7711 92.0586 20.1041Z" fill="#E95248"/>
<path id="Vector_45" d="M91.8975 413.641L88.7305 421.826C88.5095 422.394 87.8425 422.552 87.4305 422.135L81.6385 416.298C81.1575 415.811 81.3635 414.931 82.0015 414.762L90.9595 412.418C91.6105 412.247 92.1595 412.964 91.8975 413.641Z" fill="#E95248"/>
<path id="Vector_46" d="M133.515 1.41713C133.515 5.40513 133.582 9.39612 133.515 13.3801C133.456 16.7131 131.042 19.0481 128.075 19.1181C126.962 19.1441 125.85 19.1181 124.737 19.1181H110.471C109.063 19.1181 107.655 19.1311 106.246 19.1181C103.491 19.0951 100.837 17.1321 100.625 13.9101C100.344 9.67412 100.613 5.32113 100.613 1.07213C100.613 -0.356875 98.5976 -0.357875 98.5976 1.07213C98.5976 5.21513 98.5136 9.36913 98.5976 13.5091C98.6716 17.2161 101.081 20.3921 104.392 21.1471C105.751 21.4581 107.213 21.3391 108.596 21.3391H123.66C125.104 21.3391 126.551 21.3671 127.995 21.3391C131.032 21.2831 133.904 19.4711 135.05 16.2781C135.872 13.9941 135.529 11.1171 135.529 8.71312V1.41713C135.531 -0.00987375 133.515 -0.0128736 133.515 1.41713Z" fill="#4A4A4A"/>
<path id="Vector_47" d="M185.616 189.448C185.616 189.488 185.426 191.748 187.016 193.602C188.605 195.457 191.927 195.354 191.927 195.354L185.616 189.448Z" fill="#35ABB9"/>
<path id="Vector_48" d="M153.613 425.847L152.668 428.693L154.117 427.796L154.4 426.428L153.613 425.847Z" fill="#4A4A4A"/>
<path id="Vector_49" d="M144.73 432.859C144.73 432.859 148.26 432.718 153.929 429.803C159.598 426.889 147.555 438.306 147.555 438.306L143.755 436.364L144.73 432.859Z" fill="white"/>
<path id="Vector_50" d="M228.22 268.29C228.22 268.29 230.325 268.398 224.983 290.649C219.64 312.901 207.373 345.792 207.373 345.792L173.891 343.364L179.749 307.798L182.496 268.689L201.772 270.373L228.22 268.29Z" fill="#E95248"/>
<path id="Vector_51" d="M174.583 342.296C181.353 343.698 188.313 344.04 195.187 344.194C198.929 344.277 202.674 344.295 206.413 344.161C207.712 344.117 207.71 346.336 206.413 346.385C202.564 346.521 198.708 346.499 194.861 346.407C187.912 346.241 180.891 345.855 174.048 344.437C172.773 344.173 173.311 342.032 174.583 342.296Z" fill="#4A4A4A"/>
<path id="Vector_52" d="M228.651 269.832C218.324 270.895 207.87 271.136 197.509 270.813C192.665 270.664 187.822 270.346 183.001 269.801C181.724 269.653 181.71 267.431 183.001 267.577C197.052 269.18 211.31 268.997 225.388 267.894C226.478 267.81 227.564 267.722 228.652 267.61C229.941 267.479 229.929 269.701 228.651 269.832Z" fill="#4A4A4A"/>
<path id="Vector_53" d="M155.978 426.802C157.155 423.223 158.208 419.592 159.249 415.967C162.076 406.103 164.633 396.144 166.986 386.13C170.461 371.368 173.483 356.477 176.06 341.496C179.23 323.059 181.726 304.474 183.449 285.8C184.397 275.525 185.111 265.221 185.557 254.901C185.672 252.272 185.769 249.648 185.847 247.021C185.914 244.87 185.562 242.218 186.639 240.306C188.148 237.63 190.778 237.893 193.248 237.893H195.674C197.311 237.893 197.314 235.092 195.674 235.092C193.973 235.092 192.27 235.045 190.568 235.092C187.136 235.188 184.08 237.843 183.522 241.65C183.157 244.162 183.316 246.853 183.23 249.394C183.138 252.098 183.026 254.805 182.898 257.506C182.648 262.749 182.332 267.987 181.95 273.218C180.52 292.82 178.197 312.334 175.111 331.704C172.568 347.649 169.514 363.5 165.965 379.208C163.469 390.24 160.734 401.21 157.692 412.073C156.799 415.256 155.882 418.43 154.923 421.593C154.491 423.017 153.956 424.434 153.588 425.879C153.573 425.942 153.548 425.998 153.529 426.056C152.969 427.753 155.426 428.486 155.978 426.802Z" fill="#4A4A4A"/>
<path id="Vector_54" d="M164.397 420.686C180.823 399.022 194.717 374.919 205.83 349.477C222.373 311.603 232.544 270.34 234.324 228.264C235.37 203.484 233.513 178.58 228.867 154.313C224.342 130.645 216.95 107.725 207.555 85.8941C199.843 67.9751 190.736 50.7811 180.393 34.5621C174.853 25.8721 168.785 17.5401 162.369 9.62013C157.016 3.01113 147.795 0.0501206 140.023 0.0191206C130.582 -0.0208794 121.141 0.0191206 111.699 0.0191206L97.0226 0.0191206C91.6856 0.0191206 86.5156 0.561121 81.5256 2.89312C77.2296 4.89912 73.6746 7.74512 70.6216 11.5941C67.4566 15.5821 64.4006 19.6781 61.4366 23.8551C55.8606 31.7221 50.6886 39.9011 45.8366 48.3311C35.3936 66.4771 26.4406 85.6681 19.2086 105.631C2.7196 151.16 -3.44042 200.669 1.84358 249.409C6.21058 289.686 18.1116 328.681 35.6116 364.278C42.1466 377.57 49.4496 390.402 57.4776 402.652C60.5196 407.295 63.6686 411.856 66.9256 416.316C68.6256 418.65 70.3096 421.057 72.2446 423.166C75.5226 426.721 79.4696 429.471 83.7676 431.254C88.5526 433.242 93.4436 433.551 98.4736 433.551H113.805C122.689 433.551 131.635 433.899 140.513 433.525C149.736 433.135 158.41 428.426 164.397 420.686C165.239 419.604 163.819 418.017 162.972 419.111C156.991 426.845 148.425 431.245 139.218 431.323C136.072 431.347 132.927 431.323 129.784 431.323H97.8596C92.2916 431.323 86.8866 430.652 81.7926 427.906C75.5266 424.533 71.3036 418.861 67.0706 412.972C59.7956 402.855 53.0806 392.239 46.8986 381.266C29.1266 349.732 15.7696 315.065 8.42857 278.767C-0.869427 232.808 -0.0133982 184.768 11.0446 139.276C16.5466 116.646 24.7636 94.7281 34.6556 74.0231C43.0506 56.4661 52.7206 39.5531 63.8956 23.9861C66.6336 20.1661 69.4546 16.4211 72.3736 12.7601C75.6826 8.60713 79.8796 5.69212 84.6486 3.96312C89.1356 2.33812 93.6566 2.24412 98.2986 2.24412L130.996 2.24412C134.052 2.24412 137.108 2.22012 140.161 2.24412C144.441 2.28112 148.677 3.18912 152.608 5.08912C154.713 6.11012 156.718 7.39312 158.57 8.89512C160.43 10.4051 161.854 12.3091 163.358 14.2261C175.075 29.1531 185.241 45.4351 194.172 62.5391C215.361 103.122 229.108 148.225 231.991 195.102C234.716 239.427 227.892 283.947 213.231 325.245C202.825 354.56 188.623 382.313 171.413 407.404C168.687 411.381 165.87 415.288 162.971 419.112C162.147 420.203 163.563 421.785 164.397 420.686Z" fill="#4A4A4A"/>
<path id="Vector_55" d="M206.814 282.182L207.034 280.969L212.834 282.245L213.23 280.057L214.178 280.265L213.166 285.853L212.217 285.644L212.614 283.457L206.814 282.182ZM205.451 289.713L206.211 285.505L212.959 286.99L212.196 291.196L211.264 290.991L211.806 288L209.97 287.597L209.463 290.4L208.54 290.197L209.047 287.395L206.931 286.929L206.388 289.921L205.451 289.713ZM206.214 296.011C205.615 295.878 205.187 295.534 204.933 294.984C204.679 294.429 204.628 293.734 204.778 292.893C204.932 292.05 205.174 291.388 205.509 290.903L206.549 291.135C206.346 291.443 206.167 291.781 206.016 292.144C205.863 292.505 205.757 292.85 205.698 293.177C205.609 293.658 205.628 294.035 205.753 294.298C205.877 294.562 206.08 294.726 206.359 294.784C206.613 294.843 206.847 294.784 207.059 294.614C207.27 294.445 207.558 294.054 207.916 293.451C208.289 292.824 208.662 292.411 209.03 292.203C209.398 291.995 209.811 291.941 210.26 292.042C210.823 292.165 211.226 292.483 211.47 292.995C211.716 293.505 211.768 294.131 211.635 294.875C211.504 295.588 211.234 296.263 210.823 296.906L209.992 296.322C210.363 295.716 210.597 295.154 210.691 294.633C210.762 294.242 210.736 293.927 210.619 293.69C210.501 293.452 210.312 293.304 210.058 293.25C209.883 293.211 209.726 293.219 209.587 293.271C209.448 293.323 209.306 293.434 209.164 293.596C209.018 293.756 208.81 294.063 208.539 294.505C208.235 295.005 207.973 295.365 207.745 295.58C207.521 295.795 207.287 295.934 207.038 296.01C206.794 296.076 206.518 296.078 206.214 296.011ZM203.657 299.615L203.878 298.403L209.678 299.675L210.074 297.488L211.019 297.696L210.008 303.284L209.061 303.076L209.457 300.888L203.657 299.615ZM205.244 310.283C204.145 310.041 203.342 309.551 202.846 308.814C202.347 308.076 202.197 307.148 202.397 306.042C202.601 304.92 203.061 304.124 203.775 303.654C204.487 303.185 205.4 303.073 206.513 303.316C207.628 303.563 208.429 304.054 208.914 304.793C209.404 305.529 209.545 306.455 209.34 307.579C209.141 308.685 208.684 309.472 207.969 309.942C207.252 310.411 206.346 310.525 205.244 310.283ZM206.271 304.609C205.44 304.426 204.777 304.474 204.28 304.75C203.782 305.023 203.47 305.522 203.339 306.247C203.206 306.973 203.319 307.56 203.679 308.023C204.036 308.485 204.635 308.807 205.475 308.993C206.305 309.174 206.963 309.131 207.458 308.86C207.95 308.589 208.262 308.091 208.393 307.374C208.526 306.645 208.411 306.043 208.053 305.581C207.692 305.116 207.098 304.792 206.271 304.609ZM207.548 316.856L207.319 318.117L201.045 314.033L201.279 312.748L208.495 311.642L208.269 312.891L203.794 313.518C203.578 313.553 203.305 313.587 202.972 313.608C202.639 313.631 202.394 313.637 202.236 313.631C202.46 313.726 202.721 313.857 203.014 314.017C203.304 314.175 203.515 314.298 203.654 314.385L207.548 316.856ZM199.561 322.229L201.567 321.897L202.084 319.052L200.341 317.917L200.573 316.635L206.846 320.906L206.606 322.229L199.326 323.518L199.561 322.229ZM202.578 321.786L204.541 321.492C204.673 321.469 204.879 321.443 205.16 321.411C205.442 321.379 205.646 321.36 205.777 321.349C205.416 321.176 205.024 320.953 204.606 320.676L202.969 319.619L202.578 321.786ZM207.371 320.941L207.487 320.966C207.669 321.21 207.87 321.462 208.099 321.723C208.328 321.986 208.523 322.197 208.689 322.359L208.436 323.749L208.341 323.727C208.185 323.509 207.993 323.195 207.758 322.778C207.525 322.361 207.348 322.012 207.228 321.738L207.371 320.941ZM198.027 330.694L198.298 329.205L204.338 326.731L204.344 326.689L204.042 326.648C203.458 326.569 202.932 326.479 202.456 326.376L198.951 325.604L199.149 324.5L205.897 325.985L205.629 327.46L199.62 329.93L199.614 329.958C199.69 329.97 199.946 330.013 200.398 330.09C200.844 330.169 201.193 330.23 201.442 330.286L204.976 331.063L204.773 332.179L198.027 330.694ZM197.67 332.656L204.419 334.136L204.198 335.355L197.45 333.873L197.67 332.656ZM204.973 334.185L205.087 334.21C205.269 334.454 205.472 334.706 205.7 334.97C205.928 335.232 206.124 335.443 206.289 335.602L206.038 336.991L205.944 336.968C205.785 336.753 205.592 336.439 205.358 336.023C205.125 335.604 204.948 335.254 204.828 334.98L204.973 334.185Z" fill="white"/>
<path id="Vector_56" d="M202.239 284.568L197.873 283.608C197.374 283.496 196.961 283.284 196.63 282.967C196.298 282.649 196.072 282.245 195.953 281.758C195.833 281.267 195.827 280.711 195.939 280.092C196.106 279.166 196.458 278.498 196.993 278.084C197.528 277.671 198.187 277.548 198.961 277.718L203.306 278.674L203.086 279.895L198.817 278.955C198.259 278.832 197.824 278.884 197.506 279.113C197.19 279.342 196.981 279.75 196.873 280.338C196.666 281.484 197.107 282.177 198.197 282.417L202.458 283.352L202.239 284.568ZM203.46 280.931L203.576 280.956C203.757 281.197 203.96 281.446 204.189 281.709C204.415 281.973 204.611 282.184 204.777 282.343L204.527 283.735L204.429 283.711C204.273 283.494 204.08 283.18 203.847 282.762C203.612 282.345 203.436 282 203.316 281.723L203.46 280.931ZM198.537 286.994L198.384 287.84C198.28 288.406 198.303 288.835 198.446 289.131C198.591 289.429 198.856 289.617 199.229 289.701C199.609 289.784 199.907 289.707 200.123 289.471C200.34 289.234 200.496 288.834 200.6 288.283L200.742 287.48L198.537 286.994ZM197.622 286.791L194.926 286.201L195.146 284.983L201.894 286.465L201.512 288.569C201.34 289.528 201.048 290.199 200.639 290.593C200.229 290.982 199.694 291.103 199.039 290.958C198.196 290.772 197.684 290.159 197.502 289.119L194.137 290.561L194.388 289.178L197.405 287.992L197.622 286.791ZM196.13 298.985C195.031 298.746 194.231 298.255 193.732 297.517C193.232 296.776 193.085 295.849 193.283 294.743C193.486 293.623 193.947 292.827 194.661 292.359C195.372 291.887 196.286 291.777 197.399 292.019C198.514 292.267 199.312 292.757 199.802 293.496C200.29 294.23 200.429 295.159 200.229 296.283C200.025 297.387 199.57 298.174 198.854 298.647C198.138 299.113 197.232 299.23 196.13 298.985ZM197.157 293.31C196.325 293.127 195.662 293.177 195.168 293.452C194.669 293.725 194.357 294.223 194.226 294.95C194.092 295.674 194.207 296.263 194.566 296.727C194.923 297.189 195.523 297.51 196.365 297.697C197.19 297.878 197.851 297.832 198.347 297.565C198.838 297.294 199.15 296.795 199.281 296.076C199.412 295.347 199.298 294.746 198.941 294.285C198.578 293.817 197.985 293.493 197.157 293.31ZM198.436 305.557L198.207 306.821L191.933 302.733L192.162 301.451L199.381 300.342L199.155 301.592L194.679 302.221C194.464 302.255 194.191 302.288 193.856 302.312C193.524 302.333 193.276 302.339 193.12 302.333C193.343 302.431 193.605 302.561 193.898 302.721C194.189 302.878 194.4 303.003 194.536 303.091L198.436 305.557ZM190.16 312.513L190.431 311.02L196.471 308.548L196.479 308.51L196.176 308.466C195.593 308.388 195.066 308.296 194.592 308.193L191.084 307.422L191.283 306.316L198.031 307.802L197.763 309.277L191.754 311.746L191.748 311.775C191.824 311.787 192.082 311.833 192.532 311.908C192.978 311.986 193.326 312.05 193.574 312.103L197.11 312.88L196.909 313.996L190.16 312.513ZM189.043 318.681L189.804 314.474L196.552 315.957L195.791 320.163L194.857 319.959L195.401 316.968L193.563 316.565L193.059 319.366L192.133 319.162L192.64 316.363L190.523 315.898L189.98 318.887L189.043 318.681ZM197.865 320.51L197.74 320.481C197.417 319.966 197.174 319.599 197.012 319.383C196.853 319.166 196.711 318.996 196.589 318.875L196.829 317.552C197.191 317.4 197.729 317.073 198.449 316.565L198.577 316.591L198.429 317.398C198.069 317.803 197.718 318.123 197.377 318.354C197.626 318.748 197.837 319.199 198.01 319.701L197.865 320.51ZM187.428 327.607L189.435 327.273L189.948 324.429L188.209 323.29L188.439 322.011L194.713 326.281L194.473 327.603L187.192 328.895L187.428 327.607ZM190.445 327.161L192.408 326.869C192.538 326.848 192.745 326.817 193.027 326.79C193.309 326.757 193.512 326.735 193.643 326.727C193.281 326.553 192.89 326.329 192.472 326.052L190.834 324.995L190.445 327.161ZM185.303 328.521C185.362 328.186 185.45 327.92 185.568 327.712L186.497 327.913C186.38 328.185 186.304 328.428 186.266 328.64C186.145 329.303 186.469 329.717 187.233 329.884L193.77 331.322L193.55 332.545L187.045 331.116C186.358 330.963 185.862 330.668 185.564 330.228C185.264 329.784 185.177 329.215 185.303 328.521Z" fill="white"/>
<g id="R28">
<path id="Vector_57" d="M124.403 26.1091L124.397 37.0901C124.397 38.6231 123.436 39.8631 122.25 39.8631L111.531 39.8711C110.343 39.8711 109.387 38.6291 109.387 37.1001L109.389 26.1191C109.389 24.5871 110.352 23.3461 111.534 23.3431L122.256 23.3391C123.441 23.3381 124.4 24.5781 124.403 26.1091Z" fill="#A7D9E2"/>
<path id="Vector_58" d="M116.879 27.9211C117.017 28.5281 117.477 28.9631 118.079 28.9661C118.837 28.9691 119.436 28.3181 119.439 27.4881L119.447 25.4191L114.898 25.4011L114.896 26.4071L116.823 26.4181V26.9111L114.89 28.0001L114.887 29.1271L116.879 27.9211ZM117.528 27.4421L117.534 26.4211L118.65 26.4251L118.645 27.4481C118.645 27.7871 118.402 28.0531 118.084 28.0521C117.772 28.0491 117.528 27.7901 117.528 27.4421ZM114.888 29.3971L114.876 32.6681L115.652 32.6711L115.66 30.6621C117.144 32.2381 117.495 32.5781 118.203 32.5771C118.961 32.5711 119.491 31.9121 119.494 31.0521C119.497 30.1501 118.925 29.3641 118.089 29.4361L118.078 30.3721C118.476 30.3341 118.719 30.6281 118.719 31.0031C118.71 31.3101 118.557 31.6441 118.122 31.6421C117.751 31.6401 117.553 31.4921 115.531 29.4011L114.888 29.3971Z" fill="#252525"/>
</g>
<g id="R22">
<path id="Vector_59" d="M159.933 128.067L160.421 133.931L160.518 135.09L161.107 142.116C161.163 142.772 162.164 143.208 163.346 143.091L173.853 142.047C175.034 141.929 175.949 141.303 175.891 140.648L175.306 133.624L175.211 132.465L174.72 126.599C174.664 125.942 173.739 125.497 172.654 125.604L172.479 125.624L161.975 126.669L161.803 126.684C160.714 126.791 159.877 127.411 159.933 128.067Z" fill="#FBED62"/>
<path id="Vector_60" d="M167.512 130.993C167.702 131.583 168.196 131.965 168.794 131.899C169.55 131.814 170.094 131.099 170.024 130.276L169.859 128.215L165.328 128.71L165.409 129.714L167.33 129.504L167.372 129.995L165.54 131.296L165.63 132.418L167.512 130.993ZM168.12 130.443L168.039 129.426L169.152 129.306L169.233 130.323C169.258 130.663 169.041 130.952 168.726 130.988C168.412 131.022 168.151 130.79 168.12 130.443ZM165.654 132.687L165.916 135.938L166.688 135.858L166.526 133.859C168.138 135.257 168.517 135.556 169.223 135.473C169.979 135.382 170.45 134.665 170.38 133.81C170.308 132.914 169.669 132.201 168.844 132.364L168.91 133.293C169.306 133.213 169.571 133.476 169.602 133.848C169.622 134.156 169.496 134.504 169.063 134.551C168.695 134.591 168.483 134.468 166.297 132.617L165.654 132.687ZM165.962 136.474L166.226 139.728L166.999 139.644L166.837 137.644C168.449 139.044 168.826 139.343 169.534 139.26C170.286 139.169 170.758 138.454 170.688 137.598C170.616 136.702 169.98 135.986 169.152 136.151L169.221 137.083C169.617 137 169.883 137.265 169.913 137.636C169.932 137.945 169.807 138.291 169.372 138.339C169 138.381 168.791 138.254 166.605 136.402L165.962 136.474Z" fill="#252525"/>
</g>
<g id="R20">
<path id="Vector_61" d="M135.657 127.396L135.674 138.378C135.676 139.906 134.717 141.15 133.535 141.154L122.813 141.184C121.628 141.188 120.666 139.948 120.663 138.418L120.646 127.436C120.646 125.905 121.603 124.662 122.788 124.66L133.509 124.63C134.692 124.626 135.654 125.864 135.657 127.396Z" fill="#A7D9E2"/>
<path id="Vector_62" d="M128.117 129.755C128.26 130.362 128.719 130.794 129.322 130.793C130.077 130.793 130.677 130.138 130.677 129.308L130.672 127.239L126.126 127.252V128.258L128.056 128.252V128.746L126.129 129.848L126.131 130.976L128.117 129.755ZM128.767 129.273L128.764 128.252L129.879 128.248L129.882 129.271C129.882 129.611 129.639 129.878 129.324 129.878C129.009 129.88 128.767 129.619 128.767 129.273ZM126.131 131.244L126.14 134.515L126.915 134.514L126.912 132.505C128.404 134.068 128.758 134.409 129.466 134.4C130.224 134.394 130.752 133.731 130.749 132.869C130.746 131.967 130.172 131.187 129.332 131.264L129.329 132.199C129.728 132.159 129.971 132.451 129.971 132.822C129.968 133.134 129.815 133.467 129.38 133.467C129.009 133.468 128.811 133.321 126.781 131.243L126.131 131.244ZM126.084 136.976C126.084 138.063 127.044 138.827 128.42 138.824C129.797 138.821 130.752 138.052 130.752 136.964C130.749 135.861 129.79 135.104 128.413 135.106C127.038 135.111 126.081 135.872 126.084 136.976ZM126.86 136.974C126.86 136.453 127.501 136.081 128.416 136.08C129.336 136.079 129.98 136.443 129.98 136.964C129.982 137.477 129.341 137.847 128.419 137.849C127.504 137.85 126.86 137.487 126.86 136.974Z" fill="#252525"/>
</g>
<g id="R17">
<path id="Vector_63" d="M178.662 173.277L179.139 184.246C179.206 185.777 178.303 187.065 177.118 187.128L166.41 187.706C165.227 187.77 164.213 186.582 164.149 185.055L163.672 174.088C163.602 172.555 164.508 171.266 165.691 171.201L176.401 170.626C177.583 170.561 178.595 171.747 178.662 173.277Z" fill="#FBED62"/>
<path id="Vector_64" d="M171.189 176.365C171.354 176.965 171.831 177.375 172.432 177.345C173.188 177.308 173.76 176.624 173.726 175.797L173.643 173.73L169.101 173.955L169.143 174.96L171.068 174.866L171.089 175.359L169.207 176.548L169.251 177.676L171.189 176.365ZM171.819 175.852L171.775 174.831L172.89 174.776L172.932 175.797C172.946 176.138 172.715 176.416 172.4 176.434C172.085 176.448 171.834 176.201 171.819 175.852ZM169.301 178.852L169.34 179.826L173.882 179.602L173.843 178.686L173.04 177.624L172.072 177.671L172.841 178.677L169.301 178.852ZM169.38 180.82L169.422 181.872L173.415 183.99L174.059 183.956L173.92 180.527L173.15 180.566L173.247 182.94L169.38 180.82Z" fill="#252525"/>
</g>
<g id="R27">
<path id="Vector_65" d="M152.945 47.387L157.394 37.44C157.895 36.32 157.67 35.101 156.897 34.715L148.606 30.586L147.241 29.907L140.318 26.462C139.541 26.075 138.541 26.599 138.079 27.627L138.009 27.79L133.56 37.736L133.486 37.9C133.025 38.927 133.278 40.075 134.056 40.461L140.98 43.907L142.345 44.587L150.637 48.714C151.412 49.101 152.443 48.506 152.945 47.387Z" fill="#FBED62"/>
<path id="Vector_66" d="M143.261 36.37C143.829 36.484 144.382 36.229 144.62 35.667C144.921 34.958 144.611 34.138 143.913 33.811L142.168 32.979L140.352 37.221L141.2 37.624L141.97 35.825L142.387 36.021L142.543 38.258L143.493 38.711L143.261 36.37ZM143.119 35.571L142.256 35.163L142.702 34.124L143.564 34.536C143.851 34.669 143.978 35.003 143.852 35.297C143.725 35.59 143.411 35.713 143.119 35.571ZM143.719 38.819L146.478 40.131L146.786 39.408L145.092 38.602C147.01 37.84 147.439 37.648 147.717 36.986C148.012 36.273 147.666 35.517 146.939 35.174C146.18 34.812 145.291 35.035 145.02 35.844L145.805 36.225C145.931 35.837 146.276 35.725 146.59 35.877C146.85 36.008 147.068 36.283 146.894 36.69C146.747 37.035 146.542 37.162 143.979 38.216L143.719 38.819ZM146.929 40.346L147.818 40.769L151.324 38.054L151.579 37.452L148.686 36.079L148.376 36.796L150.382 37.748L146.929 40.346Z" fill="#252525"/>
</g>
<g id="R25">
<path id="Vector_67" d="M109.47 67.7471C109.704 68.5091 110.334 69.0141 111.105 68.9451C112.072 68.8581 112.78 67.9561 112.705 66.8931L112.513 64.2461L106.695 64.7561L106.786 66.0481L109.254 65.8281L109.302 66.4621L106.935 68.0791L107.04 69.5241L109.47 67.7471ZM110.256 67.0591L110.161 65.7491L111.589 65.6261L111.684 66.9331C111.715 67.3701 111.431 67.7381 111.023 67.7741C110.623 67.8091 110.287 67.5041 110.256 67.0591ZM107.064 69.8701L107.365 74.0571L108.358 73.9681L108.173 71.3991C110.226 73.2421 110.705 73.6351 111.614 73.5471C112.584 73.4511 113.201 72.5471 113.117 71.4461C113.036 70.2921 112.224 69.3561 111.162 69.5441L111.24 70.7441C111.748 70.6471 112.085 70.9941 112.119 71.4731C112.14 71.8681 111.976 72.3111 111.419 72.3611C110.945 72.4021 110.678 72.2361 107.892 69.7981L107.064 69.8701ZM107.516 77.2121C107.616 78.6041 108.912 79.4781 110.674 79.3231C112.434 79.1691 113.588 78.0801 113.487 76.6881C113.387 75.2771 112.091 74.4101 110.328 74.5661C108.567 74.7201 107.416 75.8001 107.516 77.2121ZM108.508 77.1231C108.458 76.4581 109.247 75.9161 110.421 75.8121C111.598 75.7091 112.456 76.1081 112.504 76.7721C112.551 77.4291 111.762 77.9721 110.582 78.0751C109.412 78.1791 108.555 77.7811 108.508 77.1231Z" fill="#252525"/>
<path id="Vector_68" d="M117.476 65.9761L117.577 76.9561C117.593 78.4861 116.645 79.7381 115.457 79.7531L104.738 79.8841C103.552 79.9011 102.583 78.6691 102.568 77.1401L102.465 66.1591C102.451 64.6301 103.4 63.3781 104.583 63.3611L115.305 63.2311C116.488 63.2141 117.461 64.4441 117.476 65.9761Z" fill="#FBED62"/>
<path id="Vector_69" d="M109.84 68.9821C109.985 69.5881 110.444 70.0211 111.047 70.0141C111.806 70.0101 112.402 69.3511 112.397 68.5231L112.386 66.4561L107.841 66.4881L107.843 67.4941L109.773 67.4801L109.776 67.9741L107.855 69.0831L107.86 70.2111L109.84 68.9821ZM110.487 68.4951L110.481 67.4751L111.597 67.4661L111.602 68.4871C111.605 68.8291 111.366 69.0961 111.047 69.0991C110.736 69.1041 110.49 68.8441 110.487 68.4951ZM107.86 70.4801L107.881 73.7521L108.658 73.7441L108.647 71.7371C110.144 73.2971 110.499 73.6321 111.209 73.6211C111.966 73.6081 112.49 72.9441 112.484 72.0831C112.48 71.1831 111.898 70.4041 111.064 70.4841L111.062 71.4191C111.462 71.3771 111.706 71.6681 111.708 72.0401C111.702 72.3511 111.552 72.6841 111.117 72.6871C110.746 72.6881 110.545 72.5421 108.509 70.4751L107.86 70.4801ZM107.833 76.0621C107.839 77.0771 108.51 77.8011 109.45 77.7961C110.328 77.7881 110.964 77.1371 110.962 76.2351C110.959 75.8611 110.848 75.4801 110.68 75.2611L111.657 75.3681L111.668 77.4511L112.438 77.4441L112.421 74.6071L110.179 74.3831L109.861 75.1631C110.06 75.3631 110.191 75.6911 110.194 75.9771C110.194 76.4591 109.857 76.8151 109.407 76.8171C108.967 76.8211 108.643 76.4831 108.64 75.9881C108.638 75.6221 108.813 75.2311 109.083 75.0171L108.467 74.4071C108.087 74.7721 107.83 75.4291 107.833 76.0621Z" fill="#252525"/>
</g>
<g id="R23">
<path id="Vector_70" d="M134.148 76.4221L134.218 87.4041C134.23 88.9331 133.276 90.1841 132.091 90.1941L121.369 90.2841C120.184 90.2941 119.216 89.0641 119.207 87.5321L119.138 76.5521C119.13 75.0231 120.08 73.7721 121.266 73.7631L131.987 73.6701C133.173 73.6601 134.14 74.8901 134.148 76.4221Z" fill="#A7D9E2"/>
<path id="Vector_71" d="M126.714 78.7061C126.854 79.3121 127.316 79.7451 127.916 79.7431C128.677 79.7381 129.275 79.0832 129.272 78.2552L129.264 76.1862L124.718 76.2052L124.722 77.2132L126.65 77.2052V77.6992L124.726 78.8031L124.73 79.9301L126.714 78.7061ZM127.36 78.2231L127.358 77.2012L128.472 77.1962L128.476 78.2191C128.476 78.5591 128.235 78.8272 127.92 78.8282C127.606 78.8282 127.36 78.5731 127.36 78.2231ZM124.731 80.1982L124.739 83.4691L125.518 83.4671L125.511 81.4561C127.006 83.0191 127.357 83.3582 128.068 83.3502C128.827 83.3382 129.351 82.6772 129.348 81.8172C129.345 80.9162 128.766 80.1342 127.932 80.2132L127.925 81.1492C128.324 81.1072 128.571 81.3992 128.571 81.7722C128.568 82.0802 128.418 82.4152 127.979 82.4162C127.609 82.4162 127.409 82.2702 125.377 80.1962L124.731 80.1982ZM127.333 86.5002C127.523 86.8152 127.812 87.0172 128.164 87.0162C128.833 87.0142 129.357 86.3781 129.354 85.5701C129.352 84.7541 128.821 84.1231 128.154 84.1241L128.14 85.0621C128.363 85.0601 128.54 85.2872 128.54 85.5742C128.542 85.9002 128.345 86.1422 128.071 86.1422C127.762 86.1452 127.529 85.9071 127.529 85.5771V85.5712L127.527 85.2382L126.829 85.2451V85.6422C126.832 86.0392 126.554 86.3342 126.18 86.3362C125.795 86.3372 125.513 86.0452 125.511 85.6472C125.511 85.2562 125.735 84.9521 126.016 84.9501L126.002 83.9942C125.269 83.9972 124.684 84.7282 124.687 85.6492C124.69 86.5782 125.347 87.2962 126.178 87.2942C126.686 87.2882 127.097 86.9732 127.333 86.5002Z" fill="#252525"/>
</g>
<g id="R24">
<path id="Vector_72" d="M117.448 85.2791L117.583 96.2581C117.602 97.7891 116.653 99.0451 115.471 99.0641L104.749 99.2331C103.567 99.2541 102.588 98.0251 102.571 96.4951L102.438 85.5151C102.421 83.9841 103.365 82.7281 104.548 82.7081L115.27 82.5391C116.456 82.5221 117.43 83.7451 117.448 85.2791Z" fill="#A7D9E2"/>
<path id="Vector_73" d="M109.697 87.8062C109.844 88.4122 110.31 88.8371 110.912 88.8291C111.671 88.8171 112.259 88.1551 112.251 87.3271L112.224 85.2592L107.678 85.3242L107.693 86.3331L109.619 86.3031L109.628 86.7971L107.713 87.9232L107.727 89.0522L109.697 87.8062ZM110.34 87.3172L110.328 86.2932L111.444 86.2762L111.455 87.2982C111.461 87.6412 111.221 87.9092 110.905 87.9142C110.591 87.9182 110.343 87.6632 110.34 87.3172ZM107.728 89.3201L107.77 92.5912L108.544 92.5791L108.52 90.5701C110.028 92.1171 110.385 92.4512 111.093 92.4352C111.852 92.4172 112.37 91.7472 112.359 90.8862C112.351 89.9872 111.765 89.2121 110.928 89.2991L110.934 90.2341C111.332 90.1871 111.579 90.4782 111.584 90.8502C111.581 91.1602 111.433 91.4951 110.998 91.4991C110.627 91.5061 110.426 91.3612 108.374 89.3092L107.728 89.3201ZM109.551 96.6862L109.545 96.2442L112.358 96.2032L112.344 94.9812L109.285 92.9042L108.727 92.9111L108.754 95.2892L107.8 95.3042L107.809 96.2711L108.766 96.2561L108.774 96.6972L109.551 96.6862ZM109.52 94.0101L111.478 95.2491L109.535 95.2771L109.52 94.0101Z" fill="#252525"/>
</g>
<g id="R21">
<path id="Vector_74" d="M118.221 127.044L118.177 138.025C118.171 139.558 117.207 140.795 116.021 140.788L105.303 140.747C104.117 140.745 103.16 139.499 103.166 137.969L103.211 126.988C103.217 125.458 104.181 124.221 105.366 124.224L116.088 124.265C117.271 124.27 118.226 125.512 118.221 127.044Z" fill="#FBED62"/>
<path id="Vector_75" d="M108.288 127.258V128.415H110.132V128.767C110.124 129.243 109.965 129.464 109.379 129.601C108.802 129.755 108.423 129.878 108.288 129.964V131.157C108.47 131.057 109.08 130.896 109.61 130.735C110.043 130.605 110.354 130.404 110.486 130.047H110.506C110.653 130.49 111.064 130.958 111.659 130.958C112.092 130.958 112.418 130.79 112.64 130.48C112.906 130.115 113.008 129.579 113.008 128.812C113.008 128.191 112.967 127.633 112.911 127.257L108.288 127.258ZM112.189 128.415C112.203 128.5 112.223 128.66 112.223 128.944C112.217 129.48 111.998 129.799 111.57 129.799C111.161 129.799 110.895 129.454 110.895 128.873V128.415H112.189ZM108.288 135.147H109.158V133.271H109.173L109.521 133.731C110.101 134.451 110.707 135.056 111.468 135.056C112.284 135.056 112.884 134.436 112.884 133.31C112.884 132.634 112.675 132.054 112.418 131.676L111.659 132.007C111.842 132.268 112.036 132.643 112.036 133.07C112.036 133.646 111.743 133.889 111.375 133.889C110.849 133.874 110.338 133.346 109.457 132.258L108.927 131.616H108.288V135.147ZM108.288 136.631V137.755H112.809V136.79L112.251 135.473L111.459 135.665L111.869 136.613V136.631H108.288Z" fill="#010202"/>
</g>
<g id="R18">
<path id="Vector_76" d="M124.732 161.388L132.543 161.286L134.085 161.265L143.437 161.144C144.313 161.13 145.016 160.041 145.007 158.712L144.946 146.864C144.938 145.53 144.224 144.461 143.351 144.472L133.996 144.592L132.457 144.613L124.644 144.717C123.771 144.73 123.065 145.733 123.075 146.958L123.077 147.151L123.139 158.996V159.189C123.143 160.413 123.853 161.4 124.732 161.388Z" fill="#A7D9E2"/>
<path id="Vector_77" d="M133.594 150.304C133.744 150.915 134.204 151.343 134.803 151.343C135.553 151.343 136.153 150.678 136.153 149.855V147.787L131.6 147.798L131.611 148.803H133.53L133.541 149.298L131.611 150.391V151.528L133.594 150.304ZM134.246 149.821V148.794H135.362V149.821C135.362 150.154 135.116 150.424 134.804 150.424C134.494 150.433 134.246 150.165 134.246 149.821Z" fill="#252525"/>
<path id="Vector_78" d="M131.613 152.703L131.616 153.675L136.164 153.665L136.161 152.747L135.401 151.649L134.43 151.652L135.16 152.693L131.613 152.703Z" fill="#252525"/>
<path id="Vector_79" d="M134.161 157.313C134.362 157.592 134.675 157.762 135.03 157.762C135.716 157.762 136.229 157.152 136.229 156.316C136.229 155.48 135.705 154.87 135.03 154.87C134.665 154.881 134.363 155.041 134.151 155.318C133.914 154.86 133.499 154.582 132.995 154.582C132.181 154.582 131.558 155.318 131.566 156.326C131.566 157.333 132.189 158.074 132.995 158.074C133.498 158.074 133.913 157.773 134.161 157.313ZM135.542 156.326C135.542 156.681 135.286 156.949 134.965 156.949C134.633 156.949 134.385 156.681 134.385 156.326C134.385 155.965 134.633 155.695 134.965 155.695C135.286 155.684 135.531 155.964 135.542 156.326ZM132.341 156.326C132.341 155.888 132.658 155.555 133.057 155.555C133.453 155.555 133.751 155.888 133.751 156.317C133.751 156.755 133.461 157.088 133.057 157.088C132.659 157.087 132.341 156.765 132.341 156.326Z" fill="#252525"/>
</g>
<g id="R19">
<path id="Vector_80" d="M101.456 161.462L109.267 161.36L110.808 161.339L120.162 161.219C121.037 161.209 121.74 160.116 121.734 158.784L121.67 146.939C121.665 145.606 120.948 144.537 120.075 144.545L110.723 144.668L109.18 144.689L101.367 144.792C100.494 144.805 99.7894 145.807 99.7944 147.033L99.7984 147.224L99.8614 159.069V159.264C99.8664 160.491 100.58 161.476 101.456 161.462Z" fill="#A7D9E2"/>
<path id="Vector_81" d="M110.908 150.233C111.046 150.841 111.502 151.277 112.108 151.28C112.863 151.281 113.465 150.628 113.465 149.799L113.471 147.731L108.922 147.72L108.92 148.729L110.847 148.731V149.225L108.92 150.317L108.917 151.447L110.908 150.233ZM111.557 149.756L111.561 148.733L112.673 148.737L112.67 149.758C112.67 150.099 112.427 150.363 112.112 150.363C111.797 150.363 111.555 150.104 111.557 149.756ZM108.915 152.622L108.912 153.598L113.46 153.609V152.693L112.704 151.588H111.734L112.459 152.631L108.915 152.622ZM111.934 158.291C112.83 158.284 113.518 157.454 113.512 156.43C113.501 155.438 112.818 154.588 111.917 154.59C111.122 154.596 110.437 155.277 110.351 156.178C110.342 156.238 110.336 156.31 110.342 156.378L108.905 155.145V156.254L110.913 157.888C111.213 158.117 111.557 158.291 111.934 158.291ZM111.095 156.452C111.089 155.918 111.454 155.548 111.92 155.539C112.381 155.527 112.753 155.903 112.768 156.43C112.774 156.959 112.397 157.324 111.94 157.336C111.474 157.343 111.095 156.98 111.095 156.452Z" fill="#252525"/>
</g>
<g id="R30">
<path id="Vector_82" d="M104.912 278.728L109.507 278.627L111.049 278.605L117.187 278.485C118.062 278.474 118.765 277.383 118.76 276.052L118.698 264.204C118.687 262.871 117.976 261.802 117.1 261.812L110.963 261.934L109.42 261.954L104.822 262.058C103.95 262.071 103.248 263.073 103.252 264.3V264.492L103.317 276.337V276.53C103.322 277.754 104.036 278.741 104.912 278.728Z" fill="#A7D9E2"/>
<path id="Vector_83" d="M111.255 266.949C111.403 267.554 111.874 267.977 112.474 267.965C113.23 267.947 113.822 267.283 113.804 266.453L113.768 264.386L109.223 264.482L109.243 265.488L111.17 265.449L111.178 265.944L109.271 267.079L109.289 268.208L111.255 266.949ZM111.896 266.455L111.876 265.432L112.991 265.409L113.012 266.43C113.018 266.77 112.778 267.043 112.462 267.049C112.15 267.056 111.902 266.802 111.896 266.455ZM111.919 270.925C112.114 271.239 112.41 271.436 112.759 271.425C113.425 271.413 113.941 270.767 113.93 269.958C113.912 269.144 113.375 268.521 112.708 268.536V269.469C112.929 269.465 113.109 269.688 113.115 269.978C113.121 270.304 112.926 270.549 112.652 270.556C112.345 270.562 112.109 270.326 112.103 269.999V269.99L112.097 269.657L111.403 269.678L111.409 270.074C111.415 270.472 111.141 270.774 110.764 270.778C110.382 270.786 110.095 270.5 110.086 270.1C110.081 269.712 110.298 269.402 110.582 269.395L110.552 268.44C109.822 268.456 109.244 269.198 109.264 270.119C109.281 271.047 109.944 271.755 110.775 271.735C111.283 271.726 111.69 271.403 111.919 270.925ZM109.337 274.352C109.354 275.439 110.327 276.186 111.702 276.158C113.079 276.127 114.021 275.34 114.005 274.253C113.983 273.15 113.015 272.41 111.638 272.44C110.262 272.469 109.317 273.248 109.337 274.352ZM110.112 274.337C110.1 273.815 110.739 273.434 111.654 273.414C112.574 273.393 113.223 273.746 113.232 274.268C113.244 274.782 112.605 275.164 111.684 275.18C110.769 275.203 110.12 274.848 110.112 274.337Z" fill="#252525"/>
</g>
<g id="R29">
<path id="Vector_84" d="M166.348 266.836L174.159 267.047L175.701 267.087L177.57 267.039C178.445 267.063 179.19 266.002 179.237 264.672L179.647 252.832C179.692 251.499 179.022 250.401 178.147 250.378L176.276 250.424L174.737 250.385L166.927 250.175C166.054 250.154 165.312 251.125 165.268 252.354L165.262 252.547L164.855 264.384L164.847 264.577C164.801 265.801 165.476 266.814 166.348 266.836Z" fill="#FBED62"/>
<path id="Vector_85" d="M172.656 255.394C172.775 256.009 173.219 256.457 173.821 256.478C174.58 256.502 175.198 255.867 175.226 255.039L175.296 252.972L170.754 252.825L170.72 253.832L172.644 253.895L172.63 254.389L170.664 255.421L170.628 256.55L172.656 255.394ZM173.32 254.94L173.356 253.916L174.472 253.954L174.435 254.973C174.424 255.316 174.176 255.575 173.858 255.565C173.546 255.553 173.309 255.286 173.32 254.94ZM170.617 256.817L170.509 260.087L171.287 260.112L171.354 258.102C172.789 259.721 173.13 260.071 173.838 260.086C174.596 260.106 175.146 259.46 175.174 258.601C175.205 257.698 174.658 256.9 173.819 256.946L173.779 257.882C174.181 257.856 174.413 258.156 174.402 258.529C174.385 258.837 174.223 259.163 173.785 259.149C173.414 259.14 173.222 258.983 171.267 256.836L170.617 256.817ZM173.398 264.411C174.293 264.432 175.007 263.62 175.035 262.598C175.055 261.604 174.399 260.734 173.499 260.71C172.704 260.694 171.996 261.353 171.882 262.25C171.873 262.309 171.865 262.381 171.867 262.448L170.473 261.177L170.437 262.282L172.391 263.975C172.681 264.214 173.018 264.399 173.398 264.411ZM172.616 262.544C172.628 262.011 173.004 261.652 173.47 261.659C173.933 261.661 174.296 262.045 174.29 262.571C174.276 263.102 173.889 263.456 173.435 263.454C172.969 263.448 172.601 263.073 172.616 262.544Z" fill="#252525"/>
</g>
<path id="Vector_86" d="M110.38 333.351C110.614 334.111 111.244 334.615 112.017 334.547C112.985 334.461 113.693 333.559 113.618 332.498L113.426 329.848L107.606 330.36L107.699 331.65L110.167 331.433L110.212 332.066L107.847 333.684L107.951 335.128L110.38 333.351ZM111.169 332.662L111.074 331.353L112.502 331.227L112.597 332.536C112.627 332.971 112.343 333.342 111.939 333.375C111.534 333.412 111.2 333.108 111.169 332.662ZM107.973 335.474L108.277 339.66L109.269 339.573L109.085 337.004C111.135 338.844 111.619 339.238 112.525 339.15C113.496 339.056 114.109 338.152 114.031 337.049C113.948 335.894 113.139 334.958 112.071 335.148L112.149 336.345C112.66 336.247 112.994 336.596 113.031 337.074C113.052 337.469 112.888 337.914 112.331 337.964C111.856 338.005 111.587 337.837 108.801 335.401L107.973 335.474ZM108.427 342.815C108.528 344.208 109.824 345.082 111.587 344.927C113.346 344.771 114.5 343.685 114.4 342.289C114.297 340.878 113.004 340.013 111.241 340.167C109.482 340.321 108.325 341.405 108.427 342.815ZM109.42 342.725C109.374 342.061 110.159 341.521 111.333 341.413C112.513 341.311 113.369 341.709 113.417 342.376C113.464 343.032 112.675 343.575 111.495 343.679C110.324 343.782 109.465 343.384 109.42 342.725Z" fill="#252525"/>
<g id="R35">
<path id="Vector_87" d="M118.388 331.814L118.489 342.793C118.506 344.325 117.557 345.576 116.373 345.593L105.651 345.724C104.466 345.741 103.496 344.507 103.481 342.98L103.379 332.001C103.361 330.469 104.313 329.216 105.497 329.199L116.219 329.068C117.403 329.053 118.374 330.283 118.388 331.814Z" fill="#FBED62"/>
<path id="Vector_88" d="M108.951 331.428V332.594H110.81V332.948C110.802 333.428 110.64 333.653 110.052 333.791C109.472 333.944 109.087 334.069 108.95 334.153V335.36C109.134 335.259 109.75 335.095 110.285 334.935C110.718 334.803 111.033 334.602 111.167 334.24H111.188C111.336 334.689 111.75 335.159 112.351 335.159C112.787 335.159 113.116 334.99 113.338 334.679C113.609 334.31 113.712 333.769 113.712 332.995C113.712 332.37 113.67 331.806 113.614 331.429H108.951V331.428ZM112.885 332.594C112.899 332.678 112.921 332.841 112.921 333.127C112.912 333.664 112.695 333.992 112.261 333.992C111.848 333.992 111.58 333.642 111.58 333.057V332.593H112.885V332.594ZM109.196 335.793C109.029 336.086 108.876 336.635 108.876 337.282C108.876 338.557 109.464 339.337 110.27 339.337C110.868 339.337 111.28 338.85 111.38 338.247H111.394C111.589 338.866 111.969 339.168 112.454 339.168C113.077 339.168 113.587 338.571 113.587 337.498C113.587 336.85 113.419 336.246 113.244 335.947L112.473 336.184C112.584 336.393 112.746 336.827 112.746 337.237C112.746 337.73 112.543 337.976 112.269 337.976C111.881 337.976 111.75 337.475 111.742 337.082V336.624H110.978V337.104C110.978 337.62 110.774 338.117 110.328 338.117C109.983 338.117 109.716 337.806 109.716 337.195C109.716 336.717 109.899 336.239 109.997 336.029L109.196 335.793ZM113.51 343.165V340.397L111.117 340.066C111.147 340.275 111.159 340.467 111.159 340.747C111.159 341.751 110.871 342.159 110.399 342.159C109.918 342.159 109.709 341.642 109.709 341.157C109.709 340.7 109.834 340.244 109.932 340.02L109.134 339.81C109 340.089 108.875 340.598 108.875 341.208C108.875 342.562 109.625 343.363 110.473 343.363C111.005 343.363 111.379 343.129 111.616 342.755C111.843 342.395 111.945 341.91 111.945 341.434C111.945 341.311 111.945 341.217 111.931 341.109L112.634 341.217V343.164H113.51V343.165Z" fill="#010202"/>
</g>
<g id="R34">
<path id="Vector_89" d="M134.519 331.843L134.589 342.822C134.598 344.353 133.644 345.603 132.462 345.612L121.741 345.705C120.556 345.716 119.588 344.481 119.58 342.952L119.511 331.971C119.502 330.441 120.453 329.193 121.638 329.181L132.36 329.089C133.54 329.077 134.508 330.311 134.519 331.843Z" fill="#FBED62"/>
<path id="Vector_90" d="M124.935 331.157V332.324H126.792V332.679C126.784 333.158 126.622 333.381 126.037 333.52C125.454 333.676 125.067 333.8 124.935 333.886V335.09C125.116 334.991 125.736 334.826 126.265 334.664C126.701 334.533 127.018 334.333 127.149 333.97H127.171C127.319 334.419 127.732 334.889 128.337 334.889C128.77 334.889 129.099 334.719 129.324 334.411C129.592 334.039 129.695 333.499 129.695 332.725C129.695 332.098 129.653 331.535 129.597 331.156H124.935V331.157ZM128.867 332.324C128.881 332.412 128.904 332.572 128.904 332.857C128.898 333.398 128.681 333.723 128.243 333.723C127.83 333.723 127.563 333.375 127.563 332.788V332.323L128.867 332.324ZM125.181 335.523C125.011 335.816 124.858 336.366 124.858 337.015C124.858 338.288 125.446 339.07 126.252 339.07C126.849 339.07 127.262 338.584 127.362 337.979H127.376C127.571 338.598 127.951 338.9 128.433 338.9C129.058 338.9 129.57 338.304 129.57 337.23C129.57 336.582 129.4 335.978 129.224 335.676L128.454 335.917C128.566 336.124 128.727 336.559 128.727 336.968C128.727 337.462 128.523 337.709 128.25 337.709C127.865 337.709 127.732 337.206 127.724 336.813V336.357H126.959V336.836C126.959 337.352 126.759 337.849 126.307 337.849C125.964 337.849 125.699 337.539 125.699 336.928C125.699 336.449 125.881 335.973 125.978 335.761L125.181 335.523ZM124.935 343.032H126.02V343.636H126.819V343.032H129.49V341.594L126.716 339.695H126.019V341.92H124.934V343.032H124.935ZM126.82 340.791H126.834L127.83 341.464C128.117 341.632 128.385 341.765 128.681 341.926V341.958C128.385 341.936 128.104 341.919 127.83 341.919H126.82V340.791Z" fill="#010202"/>
</g>
<g id="R36">
<path id="Vector_91" d="M118.36 350.879L118.493 361.86C118.51 363.389 117.568 364.646 116.382 364.665L105.663 364.832C104.475 364.854 103.503 363.629 103.483 362.097L103.348 351.118C103.329 349.585 104.277 348.33 105.459 348.311L116.181 348.141C117.366 348.122 118.34 349.347 118.36 350.879Z" fill="#FBED62"/>
<path id="Vector_92" d="M108.742 350.268V351.437H110.601V351.793C110.595 352.268 110.434 352.492 109.843 352.634C109.263 352.788 108.875 352.912 108.741 352.995V354.2C108.925 354.1 109.541 353.938 110.077 353.776C110.509 353.643 110.824 353.442 110.958 353.08H110.98C111.125 353.527 111.541 353.999 112.142 353.999C112.578 353.999 112.906 353.829 113.132 353.52C113.398 353.148 113.503 352.609 113.503 351.836C113.503 351.211 113.461 350.648 113.405 350.267L108.742 350.268ZM112.676 351.437C112.69 351.52 112.709 351.684 112.709 351.968C112.703 352.51 112.485 352.834 112.054 352.834C111.639 352.834 111.373 352.484 111.373 351.898V351.436H112.676V351.437ZM108.987 354.634C108.82 354.928 108.667 355.476 108.667 356.123C108.667 357.397 109.255 358.179 110.061 358.179C110.659 358.179 111.071 357.694 111.168 357.092H111.185C111.38 357.709 111.759 358.009 112.242 358.009C112.867 358.009 113.38 357.415 113.38 356.342C113.38 355.694 113.21 355.09 113.034 354.788L112.264 355.027C112.376 355.236 112.537 355.669 112.537 356.079C112.537 356.572 112.334 356.82 112.06 356.82C111.675 356.82 111.541 356.318 111.533 355.923V355.469H110.768V355.946C110.768 356.466 110.565 356.961 110.119 356.961C109.776 356.961 109.506 356.65 109.506 356.041C109.506 355.562 109.691 355.084 109.787 354.873L108.987 354.634ZM113.365 362.159C113.371 362.043 113.368 361.903 113.357 361.687C113.317 360.9 113.1 360.247 112.684 359.749C112.233 359.205 111.513 358.859 110.658 358.859C109.57 358.859 108.667 359.517 108.667 360.854C108.667 361.944 109.408 362.707 110.314 362.707C111.259 362.707 111.8 362 111.8 361.154C111.8 360.683 111.666 360.336 111.435 360.089V360.067C111.968 360.197 112.453 360.663 112.529 361.704C112.543 361.891 112.55 362.029 112.543 362.16L113.365 362.159ZM109.453 360.837C109.453 360.303 109.885 360.044 110.37 360.024C110.495 360.021 110.579 360.044 110.638 360.07C110.867 360.189 111.042 360.45 111.042 360.769C111.042 361.27 110.68 361.516 110.259 361.516C109.796 361.517 109.453 361.253 109.453 360.837Z" fill="#010202"/>
</g>
<g id="R32">
<path id="Vector_93" d="M140.686 285.41L140.708 296.392C140.713 297.921 139.754 299.163 138.571 299.169L127.847 299.209C126.662 299.216 125.7 297.975 125.697 296.446L125.672 285.465C125.672 283.934 126.629 282.688 127.811 282.685L138.536 282.648C139.719 282.64 140.681 283.876 140.686 285.41Z" fill="#A7D9E2"/>
<path id="Vector_94" d="M131.07 284.953V286.121H132.927V286.477C132.921 286.955 132.757 287.178 132.171 287.318C131.588 287.472 131.201 287.596 131.07 287.679V288.886C131.251 288.784 131.87 288.621 132.403 288.461C132.835 288.327 133.153 288.129 133.283 287.766H133.306C133.453 288.213 133.866 288.684 134.469 288.684C134.904 288.684 135.236 288.514 135.459 288.205C135.724 287.833 135.833 287.295 135.833 286.521C135.833 285.895 135.791 285.332 135.732 284.952L131.07 284.953ZM135.005 286.121C135.019 286.204 135.039 286.368 135.039 286.653C135.033 287.194 134.815 287.52 134.38 287.52C133.967 287.52 133.7 287.17 133.7 286.582V286.12L135.005 286.121ZM131.315 289.319C131.148 289.613 130.992 290.161 130.992 290.809C130.992 292.084 131.58 292.866 132.389 292.866C132.983 292.866 133.395 292.378 133.495 291.777H133.509C133.704 292.395 134.084 292.695 134.569 292.695C135.194 292.695 135.704 292.102 135.704 291.028C135.704 290.378 135.536 289.777 135.361 289.474L134.591 289.713C134.7 289.922 134.862 290.353 134.862 290.765C134.862 291.257 134.658 291.505 134.385 291.505C134 291.505 133.866 291.001 133.858 290.609V290.155H133.094V290.632C133.094 291.152 132.894 291.647 132.445 291.647C132.102 291.647 131.835 291.334 131.835 290.724C131.835 290.247 132.016 289.769 132.113 289.559L131.315 289.319ZM131.07 296.901H131.945V295.009H131.959L132.31 295.47C132.876 296.22 133.509 296.808 134.273 296.808C135.101 296.808 135.704 296.182 135.704 295.046C135.704 294.369 135.493 293.778 135.234 293.4L134.467 293.733C134.651 293.997 134.85 294.373 134.85 294.807C134.85 295.387 134.555 295.64 134.181 295.633C133.649 295.626 133.144 295.079 132.246 293.988L131.713 293.338H131.069V296.901H131.07Z" fill="#010202"/>
</g>
<g id="R31">
<path id="Vector_95" d="M118.385 285.309V296.289C118.385 297.821 117.426 299.063 116.241 299.064L105.519 299.078C104.333 299.078 103.375 297.837 103.375 296.307L103.371 285.326C103.371 283.796 104.331 282.552 105.517 282.55L116.237 282.54C117.424 282.536 118.383 283.777 118.385 285.309Z" fill="#FBED62"/>
<path id="Vector_96" d="M108.51 285.447V286.612H110.37V286.967C110.362 287.449 110.203 287.673 109.612 287.811C109.029 287.964 108.644 288.087 108.509 288.174V289.38C108.692 289.279 109.31 289.116 109.843 288.956C110.278 288.823 110.593 288.622 110.727 288.261H110.747C110.897 288.709 111.31 289.179 111.912 289.179C112.348 289.179 112.677 289.011 112.902 288.7C113.167 288.329 113.273 287.786 113.273 287.014C113.273 286.388 113.228 285.826 113.174 285.447H108.51ZM112.446 286.612C112.46 286.7 112.481 286.86 112.481 287.147C112.473 287.688 112.256 288.011 111.821 288.011C111.409 288.011 111.143 287.664 111.143 287.077V286.611L112.446 286.612ZM108.756 289.812C108.589 290.106 108.436 290.656 108.436 291.304C108.436 292.578 109.024 293.359 109.83 293.359C110.427 293.359 110.843 292.872 110.94 292.269H110.951C111.149 292.887 111.528 293.19 112.011 293.19C112.636 293.19 113.149 292.592 113.149 291.519C113.149 290.871 112.982 290.269 112.804 289.965L112.031 290.207C112.145 290.414 112.307 290.848 112.307 291.257C112.307 291.752 112.104 291.998 111.83 291.998C111.445 291.998 111.311 291.496 111.303 291.102V290.646H110.538V291.127C110.538 291.644 110.335 292.136 109.886 292.136C109.543 292.136 109.279 291.829 109.279 291.218C109.279 290.739 109.461 290.261 109.558 290.053L108.756 289.812ZM108.51 295.034V296.167H113.071V295.196L112.509 293.865L111.709 294.061L112.125 295.017V295.034H108.51Z" fill="#010202"/>
</g>
<g id="R38">
<path id="Vector_97" d="M108.863 410.685L116.673 410.584L118.215 410.56L127.57 410.44C128.444 410.429 129.146 409.343 129.14 408.007L129.078 396.161C129.07 394.828 128.353 393.758 127.48 393.77L118.128 393.892L116.586 393.911L108.775 394.017C107.899 394.026 107.197 395.03 107.203 396.254L107.206 396.446L107.267 408.294V408.486C107.273 409.712 107.987 410.699 108.863 410.685Z" fill="#A7D9E2"/>
<path id="Vector_98" d="M116.269 396.374V397.502H118.07V397.848C118.066 398.311 117.909 398.529 117.338 398.663C116.775 398.812 116.4 398.933 116.27 399.015V400.182C116.449 400.083 117.045 399.927 117.564 399.769C117.983 399.644 118.29 399.447 118.418 399.097H118.438C118.583 399.531 118.985 399.988 119.567 399.988C119.988 399.988 120.306 399.823 120.524 399.523C120.783 399.167 120.884 398.641 120.884 397.893C120.884 397.286 120.845 396.742 120.789 396.374H116.269ZM120.081 397.502C120.096 397.585 120.115 397.742 120.115 398.02C120.106 398.544 119.9 398.858 119.476 398.858C119.075 398.858 118.819 398.521 118.819 397.955V397.503H120.081V397.502ZM116.509 400.601C116.348 400.884 116.196 401.415 116.196 402.044C116.196 403.277 116.764 404.033 117.549 404.033C118.126 404.033 118.525 403.561 118.62 402.979H118.634C118.823 403.577 119.192 403.87 119.659 403.87C120.264 403.87 120.761 403.292 120.761 402.253C120.761 401.625 120.596 401.042 120.426 400.75L119.679 400.981C119.791 401.185 119.944 401.603 119.944 401.999C119.944 402.478 119.749 402.716 119.485 402.716C119.111 402.716 118.983 402.232 118.974 401.849V401.408H118.235V401.873C118.235 402.373 118.037 402.854 117.602 402.854C117.271 402.854 117.011 402.553 117.011 401.961C117.011 401.498 117.187 401.034 117.284 400.833L116.509 400.601ZM116.196 406.212C116.196 407.344 116.735 408.082 117.534 408.082C118.104 408.082 118.472 407.663 118.634 407.192H118.655C118.873 407.671 119.246 407.894 119.626 407.894C120.161 407.894 120.761 407.424 120.761 406.287C120.761 405.313 120.264 404.573 119.517 404.573C119.129 404.573 118.769 404.804 118.552 405.276H118.533C118.321 404.744 117.955 404.408 117.426 404.408C116.826 404.409 116.196 404.978 116.196 406.212ZM116.907 406.255C116.907 405.831 117.209 405.565 117.528 405.567C117.846 405.571 118.09 405.784 118.187 406.159C118.075 406.608 117.846 406.921 117.458 406.921C117.147 406.921 116.907 406.66 116.907 406.255ZM120.061 406.236C120.061 406.652 119.791 406.826 119.518 406.826C119.239 406.826 119.021 406.595 118.955 406.332C119.063 405.943 119.253 405.644 119.552 405.644C119.83 405.644 120.061 405.846 120.061 406.236Z" fill="#010202"/>
</g>
<g id="R37">
<path id="Vector_99" d="M134.519 350.644L134.589 361.624C134.598 363.157 133.644 364.404 132.462 364.414L121.741 364.506C120.556 364.516 119.588 363.284 119.58 361.752L119.511 350.772C119.502 349.242 120.453 347.992 121.638 347.982L132.36 347.889C133.54 347.879 134.508 349.111 134.519 350.644Z" fill="#FBED62"/>
<path id="Vector_100" d="M124.378 349.912L124.389 351.134L126.358 351.204L126.361 351.575C126.361 352.075 126.191 352.305 125.569 352.429C124.956 352.569 124.548 352.685 124.407 352.77L124.421 354.03C124.613 353.933 125.266 353.786 125.826 353.637C126.284 353.513 126.619 353.314 126.755 352.942L126.777 352.943C126.939 353.415 127.382 353.924 128.021 353.948C128.478 353.963 128.827 353.801 129.061 353.484C129.34 353.105 129.443 352.541 129.438 351.733C129.432 351.079 129.379 350.485 129.318 350.087L124.378 349.912ZM128.555 351.282C128.572 351.371 128.597 351.542 128.597 351.841C128.597 352.407 128.368 352.74 127.908 352.722C127.47 352.708 127.186 352.332 127.181 351.719L127.175 351.233L128.555 351.282ZM124.685 354.492C124.509 354.795 124.35 355.362 124.359 356.043C124.373 357.378 125.003 358.218 125.856 358.248C126.486 358.27 126.921 357.775 127.019 357.147H127.033C127.247 357.802 127.652 358.133 128.165 358.149C128.823 358.174 129.358 357.569 129.348 356.446C129.342 355.765 129.158 355.13 128.969 354.808L128.157 355.028C128.277 355.252 128.452 355.713 128.455 356.14C128.461 356.657 128.249 356.909 127.958 356.898C127.548 356.883 127.403 356.354 127.392 355.94L127.386 355.462L126.577 355.434L126.583 355.934C126.589 356.477 126.379 356.988 125.903 356.972C125.538 356.958 125.253 356.622 125.247 355.984C125.241 355.483 125.431 354.989 125.532 354.774L124.685 354.492ZM129.288 358.769L128.363 358.736L128.388 361.147L128.371 361.146L124.467 358.842L124.481 360.143L128.614 362.457L129.327 362.483L129.288 358.769Z" fill="#010202"/>
</g>
<path id="Vector_101" d="M134.733 432.117V419.5C134.733 415.655 131.853 412.54 128.3 412.54H106.253C102.696 412.54 99.8164 415.655 99.8164 419.5V432.479L134.733 432.117Z" fill="#35ABB9"/>
<path id="Vector_102" d="M106.964 419.461H107.877L105.995 425.373H105.071L103.201 419.461H104.103L105.221 423.136C105.28 423.312 105.344 423.539 105.409 423.816C105.475 424.091 105.517 424.297 105.538 424.43C105.568 424.225 105.62 423.988 105.685 423.719C105.75 423.448 105.804 423.251 105.845 423.123L106.964 419.461Z" fill="white"/>
<path id="Vector_103" d="M109.529 418.991V418.887C109.669 418.699 109.811 418.487 109.959 418.258C110.109 418.024 110.227 417.825 110.311 417.662H111.315V417.746C111.186 417.912 110.994 418.124 110.74 418.384C110.489 418.645 110.277 418.844 110.101 418.99H109.529V418.991ZM110.1 422.16L111.37 419.465H112.326L110.538 423.081V425.374H109.657V423.113L107.879 419.465H108.833L110.1 422.16Z" fill="white"/>
<path id="Vector_104" d="M115.374 425.361H114.495V420.28H112.918V419.452H116.949V420.28H115.374V425.361Z" fill="white"/>
<path id="Vector_105" d="M119.848 422.901L119.346 421.292C119.307 421.183 119.257 421.014 119.193 420.779C119.129 420.548 119.085 420.378 119.06 420.271C118.992 420.602 118.898 420.964 118.769 421.36L118.284 422.901H119.848ZM120.615 425.373L120.077 423.733H118.027L117.503 425.373H116.58L118.588 419.438H119.539L121.547 425.373H120.615Z" fill="white"/>
<path id="Vector_106" d="M126.488 425.373H125.608V422.709H123.131V425.373H122.256V419.464H123.131V421.879H125.608V419.464H126.488V425.373Z" fill="white"/>
<path id="Vector_107" d="M129.416 422.16L130.685 419.464H131.639L129.854 423.08V425.373H128.973V423.113L127.194 419.464H128.145L129.416 422.16Z" fill="white"/>
<path id="Vector_108" d="M133.724 432.191C133.724 428.207 133.792 424.214 133.724 420.23C133.669 416.896 131.254 414.563 128.287 414.491C127.174 414.463 126.059 414.491 124.946 414.491H110.683C109.273 414.491 107.865 414.479 106.458 414.491C103.703 414.514 101.049 416.476 100.834 419.7C100.555 423.934 100.825 428.288 100.825 432.537C100.825 433.966 98.8098 433.969 98.8098 432.537C98.8098 428.392 98.7248 424.239 98.8098 420.098C98.8838 416.394 101.294 413.219 104.604 412.463C105.964 412.151 107.422 412.272 108.808 412.272H123.869C125.313 412.272 126.764 412.243 128.208 412.272C131.244 412.323 134.117 414.136 135.263 417.331C136.086 419.617 135.74 422.493 135.74 424.897V432.192C135.74 433.619 133.724 433.621 133.724 432.191Z" fill="#4A4A4A"/>
<path id="Vector_109" d="M117.414 36.0351C117.617 36.3141 117.927 36.4861 118.281 36.4861C118.967 36.4861 119.48 35.8751 119.48 35.0381C119.48 34.2031 118.956 33.5911 118.281 33.5911C117.919 33.6011 117.617 33.7651 117.402 34.0421C117.166 33.5801 116.75 33.3031 116.246 33.3031C115.431 33.3031 114.809 34.0421 114.82 35.0501C114.82 36.0571 115.443 36.7971 116.246 36.7971C116.75 36.7961 117.166 36.4951 117.414 36.0351ZM118.794 35.0491C118.794 35.4031 118.54 35.6711 118.217 35.6711C117.884 35.6711 117.637 35.4031 117.637 35.0491C117.637 34.6851 117.884 34.4161 118.217 34.4161C118.54 34.4051 118.786 34.6851 118.794 35.0491ZM115.592 35.0491C115.592 34.6091 115.913 34.2771 116.309 34.2771C116.705 34.2771 117.006 34.6091 117.006 35.0381C117.006 35.4781 116.716 35.8111 116.309 35.8111C115.914 35.8111 115.592 35.4881 115.592 35.0491Z" fill="#252525"/>
<g id="R26">
<path id="Vector_110" d="M166.926 78.1301L168.504 88.9971C168.725 90.5131 167.955 91.8831 166.781 92.0571L156.177 93.6331C155.006 93.8101 153.876 92.7211 153.656 91.2081L152.08 80.3411C151.859 78.8231 152.633 77.4531 153.803 77.2781L164.407 75.7021C165.579 75.5281 166.708 76.6151 166.926 78.1301Z" fill="#FBED62"/>
<path id="Vector_111" d="M159.099 82.0901C159.509 81.9081 159.801 81.6621 159.88 81.2861L159.901 81.2822C160.11 81.7082 160.574 82.1232 161.181 82.0412C161.605 81.9852 161.911 81.7712 162.093 81.4352C162.313 81.0392 162.347 80.4842 162.246 79.7162C162.163 79.1012 162.045 78.5452 161.931 78.1812L157.311 78.7921L157.464 79.9501L159.313 79.7052L159.36 80.0562C159.414 80.5262 159.282 80.7691 158.716 80.9861C158.164 81.2211 157.796 81.3881 157.67 81.4931L157.829 82.6911C157.995 82.5601 158.591 82.3211 159.099 82.0901ZM160.138 80.0621L160.077 79.6051L161.373 79.4312C161.393 79.5062 161.437 79.6731 161.473 79.9501C161.535 80.4921 161.365 80.8411 160.932 80.8961C160.529 80.9501 160.217 80.6461 160.138 80.0621Z" fill="#010202"/>
<path id="Vector_112" d="M161.782 89.1741C161.72 88.7041 161.536 88.3861 161.28 88.1691L161.277 88.1481C161.815 88.2101 162.365 88.5991 162.576 89.6311C162.61 89.8091 162.64 89.9461 162.646 90.0711L163.466 89.9651C163.449 89.8501 163.429 89.7111 163.394 89.4991C163.248 88.7291 162.948 88.1101 162.468 87.6641C161.952 87.1931 161.194 86.9381 160.343 87.0511C159.259 87.1951 158.456 87.9721 158.631 89.2871C158.774 90.3721 159.608 91.0301 160.511 90.9091C161.444 90.7861 161.893 90.0131 161.782 89.1741ZM159.414 89.1741C159.344 88.6421 159.734 88.3291 160.208 88.2471C160.337 88.2281 160.426 88.2381 160.479 88.2551C160.728 88.3401 160.934 88.5821 160.976 88.8911C161.043 89.3911 160.714 89.6841 160.298 89.7381C159.843 89.7981 159.47 89.5871 159.414 89.1741Z" fill="#010202"/>
<path id="Vector_113" d="M158.017 83.5252L158.455 86.7652L159.227 86.6612L158.954 84.6702C160.644 86.0242 161.037 86.3102 161.74 86.2072C162.49 86.0982 162.922 85.3752 162.807 84.5192C162.687 83.6272 162.009 82.9302 161.19 83.1172L161.31 84.0472C161.7 83.9532 161.981 84.2072 162.029 84.5792C162.068 84.8862 161.96 85.2372 161.527 85.2952C161.161 85.3462 160.944 85.2262 158.655 83.4372L158.017 83.5252Z" fill="#010202"/>
</g>
<g id="R40">
<path id="Vector_114" d="M174.145 312.292L172.478 323.147C172.247 324.662 171.112 325.748 169.944 325.567L159.34 323.971C158.169 323.793 157.41 322.424 157.636 320.912L159.298 310.055C159.532 308.544 160.667 307.457 161.84 307.637L172.442 309.234C173.612 309.411 174.371 310.779 174.145 312.292Z" fill="#FBED62"/>
<path id="Vector_115" d="M165.543 313.786C166.001 313.721 166.338 313.576 166.53 313.24H166.552C166.622 313.711 166.959 314.24 167.553 314.337C167.982 314.404 168.339 314.288 168.613 314.018C168.934 313.688 169.114 313.174 169.235 312.412C169.336 311.789 169.381 311.233 169.388 310.842L164.784 310.107L164.6 311.261L166.432 311.554L166.373 311.906C166.297 312.381 166.105 312.577 165.5 312.623C164.895 312.675 164.494 312.742 164.354 312.806L164.165 313.994C164.361 313.921 165.002 313.863 165.543 313.786ZM167.121 312.128L167.193 311.671L168.484 311.88C168.481 311.964 168.478 312.125 168.434 312.414C168.347 312.942 168.075 313.234 167.651 313.168C167.236 313.103 167.029 312.711 167.121 312.128Z" fill="#010202"/>
<path id="Vector_116" d="M165.398 318.233L168.036 318.654L168.262 317.236L165.819 314.926L165.13 314.817L164.779 317.017L163.708 316.844L163.535 317.938L164.605 318.107L164.507 318.71L165.302 318.836L165.398 318.233ZM166.566 317.303L165.573 317.142L165.753 316.02L165.761 316.023L166.639 316.849C166.901 317.063 167.143 317.232 167.406 317.435L167.398 317.468C167.115 317.4 166.844 317.345 166.566 317.303Z" fill="#010202"/>
<path id="Vector_117" d="M162.983 320.904C162.83 321.989 163.678 322.891 165.052 323.08C166.432 323.269 167.497 322.635 167.653 321.547C167.807 320.448 166.959 319.555 165.582 319.364C164.204 319.174 163.139 319.801 162.983 320.904ZM163.761 321.012C163.83 320.491 164.528 320.213 165.442 320.338C166.363 320.465 166.957 320.919 166.884 321.444C166.809 321.952 166.112 322.231 165.191 322.105C164.277 321.979 163.686 321.526 163.761 321.012Z" fill="#010202"/>
</g>
<g id="R39">
<path id="Vector_118" d="M161.084 380.77L158.683 391.486C158.349 392.979 157.141 393.985 155.984 393.73L145.514 391.421C144.357 391.168 143.691 389.749 144.025 388.256L146.426 377.542C146.76 376.045 147.97 375.044 149.127 375.299L159.598 377.603C160.755 377.859 161.422 379.275 161.084 380.77Z" fill="#FBED62"/>
<path id="Vector_119" d="M151.869 377.959L151.601 379.096L153.408 379.523L153.327 379.87C153.209 380.332 153.001 380.515 152.396 380.515C151.793 380.53 151.392 380.563 151.241 380.613L150.965 381.788C151.163 381.731 151.801 381.718 152.356 381.681C152.811 381.652 153.165 381.529 153.377 381.208L153.399 381.212C153.436 381.682 153.731 382.237 154.319 382.375C154.743 382.476 155.1 382.385 155.389 382.136C155.736 381.839 155.961 381.336 156.139 380.586C156.285 379.976 156.374 379.415 156.408 379.034L151.869 377.959ZM155.429 380.001C155.421 380.086 155.404 380.251 155.34 380.526C155.209 381.052 154.922 381.317 154.498 381.217C154.097 381.121 153.918 380.723 154.055 380.151L154.16 379.702L155.429 380.001ZM151.102 382.264C150.871 382.508 150.595 383.007 150.447 383.639C150.152 384.88 150.545 385.777 151.328 385.962C151.911 386.097 152.424 385.722 152.658 385.155L152.672 385.161C152.722 385.806 153.021 386.186 153.492 386.301C154.097 386.441 154.733 385.981 154.981 384.937C155.132 384.306 155.104 383.68 155.003 383.346L154.197 383.401C154.261 383.63 154.317 384.089 154.222 384.487C154.108 384.968 153.854 385.162 153.586 385.099C153.212 385.011 153.198 384.492 153.278 384.106L153.384 383.664L152.639 383.486L152.531 383.952C152.41 384.457 152.098 384.89 151.664 384.786C151.329 384.708 151.139 384.345 151.279 383.752C151.391 383.286 151.681 382.861 151.823 382.682L151.102 382.264Z" fill="#010202"/>
<path id="Vector_120" d="M152.071 390.402C152.946 390.607 153.805 389.952 154.037 388.956C154.254 387.986 153.788 387.004 152.91 386.797C152.135 386.619 151.309 387.124 151.017 387.981C150.997 388.041 150.975 388.11 150.964 388.173L149.854 386.645L149.595 387.723L151.173 389.777C151.41 390.065 151.706 390.316 152.071 390.402ZM151.681 388.42C151.795 387.899 152.238 387.62 152.694 387.722C153.145 387.817 153.424 388.266 153.313 388.785C153.199 389.298 152.747 389.568 152.297 389.476C151.842 389.372 151.558 388.932 151.681 388.42Z" fill="#010202"/>
</g>
</g>
</g>
</svg>
