<svg width="379" height="241" viewBox="0 0 379 241" fill="none" xmlns="http://www.w3.org/2000/svg">
<g id="knihovna-1">
<g id="Group">
<path id="Vector" d="M214.209 68.7912L214.275 105.377L211.836 111.138L207.974 113.962L201.524 114.549L138.61 114.899H114.347L109.784 111.341L107.648 106.417V102.124C107.648 102.124 106.497 95.5402 97.5399 95.3592C91.2259 95.2252 89.2159 98.9392 88.5939 101.154C88.3239 102.08 88.3009 102.747 88.3009 102.747L87.8369 108.337L86.8189 110.154C85.8269 111.963 84.0979 113.227 82.0759 113.646L77.6719 114.549H31.2589L29.5299 113.158C29.3719 112.843 29.2249 112.528 29.0679 112.235V112.221C26.7179 109.976 25.4639 106.834 25.4199 103.593C25.4079 102.949 25.4199 102.316 25.4199 101.672V48.6642C25.4199 47.7162 25.4079 46.7782 25.5439 45.8292C26.0509 42.1912 28.2429 38.9042 31.4279 37.0862C31.6559 36.9632 31.8679 36.8502 32.1069 36.7352H187.418C187.418 36.7352 208.222 35.1552 211.6 41.1622C214.965 47.1722 214.209 68.7912 214.209 68.7912Z" fill="#E95248"/>
<path id="Vector_2" d="M377.386 36.7412H339.413H315.576L307.353 39.4322L304.808 44.0672L304.48 53.1322V94.4962V113.369L304.568 119.973L305.843 123.879L310.721 127.57L316.963 128.591C316.963 128.591 322.967 131.075 322.782 137.745C322.596 144.414 316.963 146.538 316.963 146.538L310.165 147.924L304.897 152.191L304.479 160.121V230.42L326.286 226.059L354.86 218.283L368.036 213.219L373.597 207.898L376.38 202.377L377.385 190.242V36.7412H377.386Z" fill="#35ABB9"/>
<path id="Vector_3" d="M25.9941 51.5352H37.8761C37.8761 51.5352 44.6921 50.2372 45.4071 62.8922C46.1211 75.5452 45.1451 95.9962 45.1451 95.9962C45.1451 95.9962 42.6151 105.011 26.9091 100.919L25.9941 51.5352Z" fill="#35ABB9"/>
<path id="Vector_4" d="M88.2729 175.503C87.8969 175.962 87.7159 176.602 87.7159 177.408C87.7159 178.048 87.8139 178.578 88.0219 178.979C88.0909 179.12 88.1739 179.231 88.2579 179.342C88.2999 179.411 88.3419 179.453 88.3969 179.481C88.6479 179.731 88.9539 179.884 89.3159 179.954C89.4669 179.982 89.6349 179.996 89.8019 179.996C90.1069 179.996 90.3859 179.969 90.6639 179.913C90.9419 179.842 91.2199 179.773 91.5259 179.69V180.664C90.9819 180.858 90.3579 180.97 89.6759 180.97C88.6599 180.97 87.8819 180.664 87.3239 180.037C87.0609 179.731 86.8509 179.356 86.7139 178.926C86.5739 178.481 86.5049 177.98 86.5049 177.408C86.5049 176.867 86.5889 176.365 86.7409 175.921C86.7829 175.781 86.8389 175.644 86.9069 175.503C87.0329 175.24 87.1999 175.004 87.3939 174.794C87.4499 174.739 87.5039 174.683 87.5599 174.642C87.7139 174.489 87.8809 174.365 88.0619 174.266C88.5629 173.974 89.1469 173.835 89.8139 173.835C90.5219 173.835 91.1779 173.974 91.7749 174.279L91.3719 175.226C91.1359 175.114 90.8989 175.016 90.6349 174.934C90.3709 174.849 90.0919 174.807 89.8009 174.807C89.6469 174.807 89.4949 174.822 89.3419 174.849C89.0489 174.905 88.7999 175.03 88.5769 175.198C88.4669 175.282 88.3689 175.394 88.2729 175.503Z" fill="#E95248"/>
<path id="Vector_5" d="M97.3531 173.932H98.4952V180.871H97.3531V177.744H94.1552V180.871H93.0142V173.932H94.1552V176.769H97.3531V173.932Z" fill="#E95248"/>
<path id="Vector_6" d="M101.457 173.932H100.315V180.871H101.457V173.932Z" fill="#E95248"/>
<path id="Vector_7" d="M103.292 180.871V173.932H104.418V179.899H107.368V180.871H103.292Z" fill="#E95248"/>
<path id="Vector_8" d="M108.548 180.871V173.932H109.689V179.899H112.625V180.871H108.548Z" fill="#E95248"/>
<path id="Vector_9" d="M121.665 174.754C121.107 174.128 120.315 173.82 119.272 173.82C118.23 173.82 117.423 174.128 116.852 174.739C116.295 175.35 116.003 176.241 116.003 177.382C116.003 177.952 116.072 178.452 116.212 178.898C116.253 179.009 116.295 179.121 116.338 179.218C116.435 179.426 116.532 179.621 116.656 179.786C116.712 179.885 116.783 179.954 116.851 180.037C117.408 180.648 118.214 180.97 119.271 180.97C120.299 180.97 121.093 180.649 121.664 180.023C122.233 179.398 122.512 178.522 122.512 177.396C122.512 176.255 122.234 175.379 121.665 174.754ZM120.789 179.343C120.622 179.566 120.413 179.718 120.163 179.828C120.064 179.871 119.969 179.898 119.856 179.927C119.674 179.969 119.48 179.996 119.272 179.996C118.59 179.996 118.076 179.773 117.728 179.343C117.381 178.898 117.214 178.244 117.214 177.396C117.214 176.546 117.381 175.893 117.728 175.463C118.076 175.017 118.59 174.794 119.272 174.794C119.954 174.794 120.455 175.017 120.802 175.463C121.136 175.893 121.303 176.546 121.303 177.396C121.303 178.258 121.136 178.91 120.789 179.343Z" fill="#E95248"/>
<path id="Vector_10" d="M124.654 180.288C124.18 179.828 123.944 179.203 123.944 178.396V173.931H125.086V178.326C125.086 178.897 125.211 179.314 125.476 179.592C125.753 179.858 126.157 179.996 126.7 179.996C127.77 179.996 128.313 179.439 128.313 178.312V173.931H129.439V178.424C129.439 178.938 129.329 179.382 129.119 179.759C128.898 180.149 128.577 180.441 128.16 180.648C127.743 180.858 127.242 180.969 126.672 180.969C125.808 180.97 125.141 180.734 124.654 180.288Z" fill="#E95248"/>
<path id="Vector_11" d="M132.485 174.906H130.439V173.932H135.654V174.906H133.611V180.871H132.485V174.906Z" fill="#E95248"/>
<path id="Vector_12" d="M143.611 180.871H138.646V180.079L142.135 174.906H138.743V173.932H143.512V174.726L140.007 179.899H143.611V180.871Z" fill="#E95248"/>
<path id="Vector_13" d="M147.784 173.376H147.046V173.252C147.227 173.029 147.407 172.792 147.602 172.514C147.798 172.249 147.95 172.013 148.061 171.819H149.355V171.917C149.188 172.111 148.937 172.361 148.618 172.668C148.283 172.973 148.003 173.209 147.784 173.376Z" fill="#E95248"/>
<path id="Vector_14" d="M150.162 174.754C149.591 174.128 148.798 173.82 147.767 173.82C146.71 173.82 145.905 174.128 145.349 174.739C144.778 175.35 144.5 176.241 144.5 177.382C144.5 178.522 144.777 179.412 145.334 180.037C145.904 180.648 146.71 180.97 147.754 180.97C148.783 180.97 149.59 180.649 150.161 180.023C150.716 179.398 150.995 178.522 150.995 177.396C150.996 176.255 150.716 175.379 150.162 174.754ZM149.283 179.343C148.936 179.774 148.437 179.996 147.755 179.996C147.073 179.996 146.573 179.773 146.226 179.343C145.877 178.898 145.711 178.244 145.711 177.396C145.711 176.546 145.877 175.893 146.226 175.463C146.574 175.017 147.088 174.794 147.768 174.794C148.438 174.794 148.952 175.017 149.284 175.463C149.633 175.893 149.8 176.546 149.8 177.396C149.798 178.258 149.618 178.91 149.283 179.343Z" fill="#E95248"/>
<path id="Vector_15" d="M153.206 180.871H152.177V173.932H153.555L156.949 179.44H156.976C156.976 179.357 156.962 179.092 156.949 178.633C156.92 178.189 156.92 177.827 156.92 177.563V173.932H157.95V180.871H156.559L153.152 175.337H153.109L153.138 175.644C153.18 176.242 153.206 176.784 153.206 177.27V180.871Z" fill="#E95248"/>
<path id="Vector_16" d="M173.024 152.028L61.0142 153.434H60.8882V154.366L61.0272 154.448L67.2162 158.051L70.0532 162.016L71.4722 167.342L71.5132 177.327V191.483L70.7782 199.758L73.0852 210.87L78.1622 217.476C78.1622 217.476 83.2242 220.382 96.6442 224.165C98.0222 224.61 99.4542 225.027 100.955 225.444C121.595 231.243 152.816 235.263 173.024 237.432C184.833 238.711 192.884 239.351 192.884 239.351V154.488L194.427 152.848L195.455 151.749L173.024 152.028ZM96.0322 222.484C93.5152 221.817 91.0122 221.135 88.5232 220.425C86.2132 219.771 83.8492 219.23 81.7222 218.088C76.0472 215.043 72.8342 209.174 72.8072 202.818C72.7792 194.32 72.8072 185.809 72.8072 177.312C72.8072 174.364 72.8482 171.415 72.8072 168.453C72.7242 162.432 69.3162 156.937 63.8512 154.405C65.6872 154.392 67.5222 154.365 69.3582 154.337C80.6242 154.198 91.8882 154.058 103.153 153.92C116.728 153.753 130.314 153.585 143.887 153.418L173.024 153.058V213.18H116.671C109.647 213.18 103.681 217.629 101.442 223.873C99.6352 223.414 97.8272 222.955 96.0322 222.484Z" fill="#E95248"/>
<path id="Vector_17" d="M196.542 152.779H196.291C195.665 152.808 195.053 152.836 194.427 152.85C189.338 153.001 184.206 152.932 179.115 152.988L173.023 153.058L143.886 153.418C130.313 153.585 116.727 153.753 103.152 153.92C91.887 154.058 80.623 154.198 69.357 154.337C67.521 154.365 65.686 154.393 63.85 154.405C62.905 154.421 61.972 154.433 61.026 154.447C59.107 154.475 57.188 154.489 55.269 154.517C54.364 154.532 54.087 153.558 54.449 152.958C54.588 152.682 54.866 152.501 55.269 152.485C55.352 152.485 55.435 152.485 55.505 152.471C61.222 152.222 66.979 152.332 72.695 152.262C84.432 152.123 96.17 151.971 107.922 151.831C121.496 151.664 135.083 151.497 148.657 151.331C156.779 151.233 164.901 151.137 173.022 151.024C176.166 150.997 179.309 150.955 182.452 150.914C187.152 150.857 191.839 150.802 196.541 150.733C197.85 150.722 197.85 152.751 196.542 152.779Z" fill="#4A4A4A"/>
<path id="Vector_18" d="M185.777 167.73V166.437L182.703 168.398C182.343 167.493 181.717 167.048 180.854 167.048C180.172 167.048 179.671 167.27 179.338 167.701C179.003 168.133 178.836 168.787 178.836 169.69V171.651H185.776V170.51H182.995V169.384L185.777 167.73ZM182.063 170.511H179.797V169.76C179.797 169.245 179.879 168.857 180.047 168.606C180.214 168.342 180.505 168.217 180.896 168.217C181.271 168.217 181.578 168.342 181.758 168.578C181.966 168.814 182.063 169.191 182.063 169.732V170.511ZM185.777 173.765V172.57L178.796 175.157V176.394L185.777 178.996V177.8L183.844 177.118V174.461L185.777 173.765ZM182.871 176.784L181.063 176.158C180.59 175.991 180.172 175.867 179.784 175.782C179.908 175.755 180.102 175.686 180.382 175.602C180.647 175.518 180.855 175.463 180.979 175.408L182.872 174.768L182.871 176.784ZM185.25 180.163C184.888 179.731 184.401 179.523 183.776 179.523C183.316 179.523 182.954 179.634 182.676 179.857C182.411 180.093 182.231 180.454 182.133 180.941H182.092C182.021 180.538 181.84 180.245 181.577 180.037C181.312 179.828 180.977 179.718 180.56 179.718C179.963 179.718 179.532 179.941 179.253 180.358C178.962 180.79 178.835 181.485 178.835 182.43V184.489H185.775V181.985C185.777 181.206 185.596 180.609 185.25 180.163ZM181.703 183.362H179.784V182.376C179.784 181.86 179.853 181.485 179.992 181.249C180.144 181.026 180.382 180.901 180.702 180.901C181.063 180.901 181.327 181.012 181.48 181.22C181.618 181.443 181.703 181.79 181.703 182.263V183.362ZM184.819 183.362H182.621V182.208C182.621 181.708 182.703 181.332 182.885 181.082C183.052 180.846 183.317 180.706 183.678 180.706C184.081 180.706 184.36 180.831 184.554 181.082C184.721 181.319 184.82 181.68 184.82 182.152L184.819 183.362ZM177.557 189.981C177.265 189.649 177.016 189.411 176.822 189.246H176.723V190.539C176.904 190.649 177.14 190.803 177.419 190.998C177.684 191.192 177.934 191.373 178.155 191.554H178.281V190.818C178.115 190.594 177.878 190.316 177.557 189.981ZM183.08 190.245L178.837 187.937V189.173L181.995 190.816L178.837 192.457V193.694L183.12 191.386H185.777V190.244H183.08V190.245ZM178.836 193.695V194.864L183.119 196.31C183.273 196.365 183.51 196.436 183.83 196.518C184.149 196.602 184.428 196.672 184.664 196.712C184.511 196.74 184.261 196.796 183.941 196.88C183.621 196.963 183.356 197.046 183.148 197.115L178.835 198.562V199.745L185.775 197.311V196.114L178.836 193.695ZM184.929 201.163C184.303 200.592 183.427 200.315 182.286 200.315C181.16 200.315 180.283 200.591 179.658 201.163C179.031 201.719 178.726 202.526 178.726 203.556C178.726 204.599 179.031 205.405 179.642 205.975C180.255 206.532 181.131 206.824 182.286 206.824C183.427 206.824 184.316 206.532 184.929 205.975C185.554 205.419 185.861 204.613 185.861 203.556C185.861 202.527 185.554 201.719 184.929 201.163ZM184.234 205.099C183.789 205.433 183.149 205.614 182.287 205.614C181.438 205.614 180.799 205.433 180.354 205.086C179.908 204.752 179.699 204.237 179.699 203.557C179.699 202.875 179.908 202.373 180.354 202.027C180.798 201.692 181.438 201.526 182.287 201.526C183.163 201.526 183.803 201.692 184.248 202.041C184.679 202.374 184.901 202.89 184.901 203.558C184.901 204.237 184.678 204.751 184.234 205.099ZM178.836 207.394V208.577L183.119 210.022C183.273 210.079 183.51 210.134 183.83 210.231C184.149 210.315 184.428 210.37 184.664 210.412C184.511 210.439 184.261 210.496 183.941 210.58C183.621 210.676 183.356 210.747 183.148 210.829L178.835 212.276V213.443L185.775 211.023V209.828L178.836 207.394ZM177.557 215.766C177.265 215.447 177.016 215.196 176.822 215.03H176.723V216.337C176.904 216.448 177.14 216.602 177.419 216.782C177.684 216.976 177.934 217.157 178.155 217.338H178.281V216.602C178.101 216.378 177.878 216.1 177.557 215.766ZM185.777 214.64V213.443L178.796 216.031V217.268L185.777 219.87V218.673L183.844 217.992V215.336L185.777 214.64ZM182.871 217.658L181.063 217.032C180.59 216.864 180.172 216.74 179.784 216.658C179.908 216.629 180.102 216.573 180.382 216.49C180.647 216.406 180.855 216.337 180.979 216.295L182.872 215.642L182.871 217.658ZM185.777 219.869L181.87 222.552C181.271 222.025 180.257 221.149 178.837 219.938V221.232L181.05 223.11C181.397 223.415 181.759 223.722 182.149 224.027H178.837V225.169H185.777V224.027H183.176L182.634 223.359L185.777 221.177V219.869Z" fill="white"/>
<path id="Vector_19" d="M89.8018 179.996C89.6348 179.996 89.4668 179.982 89.3158 179.954C89.1338 179.927 88.9678 179.871 88.8138 179.786C88.6478 179.718 88.5088 179.621 88.3968 179.481C88.3418 179.454 88.2998 179.412 88.2578 179.342C88.1738 179.231 88.0908 179.119 88.0218 178.979C87.8138 178.578 87.7158 178.047 87.7158 177.408C87.7158 176.601 87.8968 175.962 88.2728 175.503C88.3688 175.394 88.4668 175.281 88.5788 175.198C88.8018 175.016 89.0508 174.905 89.3438 174.849C89.4968 174.822 89.6488 174.807 89.8028 174.807C90.0938 174.807 90.3728 174.849 90.6368 174.934C90.9018 175.016 91.1378 175.114 91.3738 175.226L91.7768 174.279C91.1798 173.973 90.5238 173.835 89.8158 173.835C89.1488 173.835 88.5648 173.974 88.0638 174.266C87.8828 174.365 87.7158 174.489 87.5618 174.642C87.5058 174.683 87.4518 174.74 87.3958 174.794C87.2018 175.004 87.0348 175.24 86.9088 175.503C86.8408 175.644 86.7848 175.781 86.7428 175.921C86.6998 176.033 86.6728 176.144 86.6438 176.27C86.6178 176.38 86.5898 176.506 86.5758 176.617C86.5618 176.659 86.5618 176.687 86.5488 176.729C86.5488 176.797 86.5348 176.868 86.5348 176.937C86.5068 177.09 86.5068 177.256 86.5068 177.409C86.5068 177.55 86.5068 177.687 86.5348 177.813C86.5488 178.022 86.5618 178.203 86.6038 178.383V178.439C86.6038 178.481 86.6178 178.536 86.6298 178.579C86.6578 178.704 86.6858 178.815 86.7148 178.927C86.8528 179.358 87.0628 179.733 87.3248 180.038C87.8828 180.665 88.6608 180.971 89.6768 180.971C90.3588 180.971 90.9828 180.86 91.5268 180.665V179.691C91.2198 179.774 90.9428 179.858 90.6648 179.914C90.3868 179.97 90.1068 179.996 89.8018 179.996ZM97.3528 173.932V176.769H94.1548V173.932H93.0138V180.871H94.1548V177.743H97.3528V180.871H98.4948V173.932H97.3528ZM100.315 173.932V180.871H101.457V173.932H100.315ZM104.418 179.899V173.932H103.292V180.871H107.354V179.898L104.418 179.899ZM109.689 179.899V173.932H108.548V180.871H112.624V179.898L109.689 179.899ZM121.665 174.754C121.107 174.128 120.315 173.82 119.272 173.82C118.23 173.82 117.423 174.128 116.852 174.739C116.295 175.35 116.003 176.241 116.003 177.382C116.003 177.952 116.072 178.452 116.212 178.898C116.253 179.009 116.295 179.121 116.338 179.218C116.435 179.426 116.532 179.621 116.656 179.786C116.712 179.885 116.783 179.954 116.851 180.037C117.408 180.648 118.214 180.97 119.271 180.97C120.299 180.97 121.093 180.649 121.664 180.023C122.233 179.398 122.512 178.522 122.512 177.396C122.512 176.255 122.234 175.379 121.665 174.754ZM120.789 179.343C120.622 179.566 120.413 179.718 120.163 179.828C120.064 179.871 119.969 179.898 119.856 179.927C119.674 179.969 119.48 179.996 119.272 179.996C118.59 179.996 118.076 179.773 117.728 179.343C117.381 178.898 117.214 178.244 117.214 177.396C117.214 176.546 117.381 175.893 117.728 175.463C118.076 175.017 118.59 174.794 119.272 174.794C119.954 174.794 120.455 175.017 120.802 175.463C121.136 175.893 121.303 176.546 121.303 177.396C121.303 178.258 121.136 178.91 120.789 179.343ZM128.312 173.932V178.313C128.312 179.44 127.769 179.997 126.699 179.997C126.156 179.997 125.753 179.858 125.475 179.593C125.21 179.316 125.085 178.899 125.085 178.327V173.932H123.943V178.397C123.943 179.204 124.179 179.829 124.653 180.289C125.14 180.734 125.807 180.971 126.67 180.971C127.24 180.971 127.741 180.86 128.158 180.65C128.575 180.443 128.896 180.151 129.117 179.761C129.327 179.384 129.437 178.94 129.437 178.426V173.933H128.312V173.932ZM130.439 173.932V174.906H132.485V180.872H133.611V174.906H135.654V173.932H130.439ZM139.994 179.899L143.513 174.726V173.932H138.743V174.906H142.136L138.647 180.08V180.872H143.612V179.899H139.994ZM156.918 173.932V177.563C156.918 177.828 156.918 178.189 156.947 178.633C156.961 179.092 156.974 179.357 156.974 179.44H156.947L153.553 173.932H152.175V180.871H153.204V177.269C153.204 176.783 153.178 176.241 153.136 175.643L153.107 175.336H153.15L156.557 180.87H157.948V173.931H156.918V173.932Z" fill="#E95248"/>
<path id="Vector_20" d="M162.706 173.906H161.468L158.867 180.872H160.062L160.744 178.953H163.4L164.095 180.872H165.292L162.706 173.906ZM161.078 177.966L161.704 176.157C161.872 175.698 161.996 175.266 162.079 174.878C162.108 175.004 162.177 175.211 162.26 175.476C162.344 175.754 162.4 175.949 162.455 176.075L163.108 177.967H161.078V177.966Z" fill="#E95248"/>
<path id="Vector_21" d="M244.119 226.719H243.077V223.865H240.159V226.719H239.124V220.387H240.159V222.978H243.077V220.387H244.119V226.719ZM245.782 226.719V220.387H246.819V225.829H249.5V226.719H245.782ZM254.521 226.719L253.886 224.96H251.465L250.848 226.719H249.755L252.125 220.36H253.25L255.619 226.719H254.521ZM253.616 224.069L253.023 222.344C252.978 222.226 252.919 222.045 252.844 221.798C252.764 221.55 252.713 221.369 252.683 221.253C252.604 221.607 252.491 221.998 252.341 222.419L251.769 224.068H253.616V224.069ZM260.063 220.387H261.138L258.92 226.719H257.826L255.619 220.387H256.684L258.003 224.324C258.071 224.512 258.148 224.754 258.226 225.049C258.303 225.347 258.354 225.569 258.375 225.711C258.413 225.493 258.474 225.234 258.552 224.946C258.63 224.656 258.694 224.445 258.74 224.308L260.063 220.387ZM267.25 226.719H265.98L262.864 221.674H262.831L262.853 221.953C262.892 222.49 262.914 222.981 262.914 223.427V226.719H261.974V220.387H263.232L266.336 225.407H266.361C266.355 225.339 266.346 225.097 266.328 224.68C266.311 224.263 266.3 223.936 266.3 223.702V220.387H267.251L267.25 226.719ZM268.92 226.719V220.387H269.954V226.719H268.92ZM268.857 219.879V219.772C269.025 219.569 269.196 219.343 269.368 219.094C269.543 218.847 269.681 218.635 269.781 218.459H270.964V218.55C270.816 218.726 270.591 218.95 270.292 219.232C269.992 219.511 269.737 219.728 269.535 219.879H268.857Z" fill="#414142"/>
<path id="Vector_22" d="M245.26 230.367H246.335L244.117 236.698H243.023L240.815 230.367H241.881L243.201 234.302C243.267 234.49 243.345 234.731 243.422 235.029C243.5 235.326 243.55 235.548 243.573 235.689C243.609 235.471 243.672 235.213 243.749 234.925C243.827 234.636 243.891 234.423 243.938 234.286L245.26 230.367ZM250.823 234.977C250.823 235.54 250.619 235.982 250.212 236.303C249.804 236.62 249.244 236.781 248.528 236.781C247.81 236.781 247.222 236.671 246.767 236.451V235.473C247.058 235.606 247.367 235.711 247.691 235.787C248.014 235.867 248.317 235.906 248.595 235.906C249.006 235.906 249.31 235.828 249.502 235.673C249.697 235.517 249.794 235.309 249.794 235.047C249.794 234.808 249.706 234.608 249.527 234.444C249.348 234.28 248.978 234.085 248.418 233.859C247.84 233.627 247.433 233.356 247.197 233.058C246.961 232.758 246.843 232.396 246.843 231.973C246.843 231.447 247.031 231.031 247.406 230.726C247.78 230.422 248.285 230.273 248.918 230.273C249.523 230.273 250.126 230.405 250.728 230.671L250.399 231.517C249.836 231.281 249.334 231.162 248.89 231.162C248.556 231.162 248.302 231.234 248.127 231.381C247.955 231.528 247.87 231.719 247.87 231.96C247.87 232.123 247.904 232.263 247.973 232.38C248.04 232.498 248.156 232.609 248.316 232.709C248.472 232.814 248.759 232.953 249.172 233.123C249.637 233.317 249.979 233.496 250.194 233.663C250.41 233.833 250.57 234.02 250.673 234.232C250.773 234.445 250.823 234.692 250.823 234.977ZM254.234 236.698H253.201V231.254H251.339V230.367H256.099V231.254H254.235V236.698H254.234ZM262.028 230.367V234.462C262.028 234.931 261.928 235.339 261.73 235.689C261.528 236.041 261.239 236.31 260.86 236.499C260.479 236.687 260.024 236.782 259.497 236.782C258.71 236.782 258.099 236.575 257.665 236.159C257.229 235.746 257.011 235.173 257.011 234.446V230.368H258.049V234.371C258.049 234.897 258.169 235.28 258.414 235.529C258.657 235.778 259.03 235.901 259.533 235.901C260.509 235.901 260.996 235.387 260.996 234.364V230.368H262.028V230.367ZM267.84 232.278C267.84 232.94 267.624 233.446 267.193 233.799C266.757 234.153 266.142 234.328 265.342 234.328H264.684V236.698H263.648V230.367H265.474C266.267 230.367 266.856 230.526 267.25 230.848C267.645 231.173 267.84 231.647 267.84 232.278ZM264.684 233.458H265.233C265.765 233.458 266.155 233.366 266.402 233.178C266.652 232.995 266.776 232.706 266.776 232.314C266.776 231.95 266.666 231.678 266.444 231.501C266.22 231.321 265.875 231.23 265.403 231.23H264.684V233.458Z" fill="#414142"/>
<path id="Vector_23" d="M22.6339 31.2962H20.585L19.969 28.5033C19.941 28.3863 19.896 28.1552 19.831 27.8032C19.768 27.4542 19.723 27.1653 19.693 26.9323C19.671 27.1213 19.6319 27.3552 19.5799 27.6382C19.5269 27.9232 19.4759 28.1813 19.4249 28.4193C19.3729 28.6553 19.16 29.6142 18.785 31.2962H16.738L15.1479 24.8852H16.822L17.519 28.0972C17.678 28.8072 17.7839 29.3772 17.8419 29.7962C17.8799 29.4982 17.947 29.0912 18.045 28.5802C18.145 28.0662 18.237 27.6442 18.321 27.3092L18.8859 24.8842H20.49L21.04 27.3092C21.133 27.6972 21.2279 28.1453 21.3249 28.6543C21.4229 29.1643 21.4849 29.5432 21.5189 29.7952C21.5559 29.4722 21.6569 28.9102 21.8279 28.1072L22.5389 24.8842H24.2109L22.6339 31.2962ZM27.8989 26.2132C27.4859 26.2132 27.1679 26.3812 26.9349 26.7182C26.7039 27.0562 26.585 27.5212 26.585 28.1142C26.585 29.3502 27.0539 29.9672 27.9929 29.9672C28.2789 29.9672 28.5549 29.9252 28.8209 29.8462C29.0859 29.7682 29.3519 29.6732 29.6229 29.5642V31.0282C29.0859 31.2642 28.48 31.3832 27.805 31.3832C26.838 31.3832 26.0969 31.1032 25.5799 30.5392C25.0609 29.9782 24.8059 29.1682 24.8059 28.1072C24.8059 27.4432 24.9299 26.8582 25.1829 26.3552C25.4319 25.8522 25.7909 25.4662 26.2629 25.1942C26.7319 24.9232 27.282 24.7892 27.915 24.7892C28.609 24.7892 29.2709 24.9382 29.9049 25.2412L29.3709 26.6072C29.1349 26.4942 28.901 26.4012 28.665 26.3252C28.425 26.2512 28.1729 26.2132 27.8989 26.2132Z" fill="#414142"/>
<path id="Vector_24" d="M356.825 31.5852H354.778L354.162 28.7902C354.134 28.6732 354.089 28.4412 354.024 28.0932C353.961 27.7442 353.915 27.4532 353.887 27.2192C353.864 27.4092 353.824 27.6442 353.772 27.9272C353.719 28.2092 353.668 28.4692 353.617 28.7052C353.567 28.9412 353.352 29.9032 352.978 31.5842H350.929L349.342 25.1712H351.012L351.711 28.3852C351.868 29.0952 351.976 29.6632 352.034 30.0832C352.074 29.7842 352.138 29.3782 352.238 28.8662C352.338 28.3542 352.428 27.9312 352.513 27.5952L353.078 25.1712H354.682L355.234 27.5952C355.326 27.9832 355.421 28.4332 355.517 28.9432C355.614 29.4502 355.679 29.8302 355.71 30.0832C355.749 29.7602 355.851 29.1962 356.022 28.3942L356.733 25.1712H358.404L356.825 31.5852ZM362.091 26.5002C361.678 26.5002 361.36 26.6702 361.125 27.0052C360.895 27.3452 360.777 27.8112 360.777 28.4042C360.777 29.6392 361.246 30.2552 362.185 30.2552C362.469 30.2552 362.745 30.2132 363.013 30.1362C363.278 30.0562 363.544 29.9612 363.814 29.8512V31.3162C363.278 31.5542 362.672 31.6712 361.997 31.6712C361.03 31.6712 360.289 31.3912 359.771 30.8282C359.255 30.2682 358.997 29.4582 358.997 28.3952C358.997 27.7312 359.121 27.1482 359.374 26.6432C359.623 26.1432 359.983 25.7542 360.455 25.4832C360.924 25.2122 361.474 25.0772 362.105 25.0772C362.802 25.0772 363.464 25.2272 364.094 25.5322L363.563 26.8962C363.326 26.7852 363.091 26.6902 362.856 26.6132C362.618 26.5402 362.364 26.5002 362.091 26.5002Z" fill="#414142"/>
<g id="R1">
<path id="Vector_25" d="M298.165 202.941H287.633C286.165 202.941 284.976 201.929 284.976 200.679V189.358C284.976 188.108 286.165 187.095 287.633 187.095H298.164C299.631 187.095 300.822 188.108 300.822 189.358V200.679C300.823 201.929 299.631 202.941 298.165 202.941Z" fill="#FBED62"/>
<path id="Vector_26" d="M291.864 195.327C292.445 195.178 292.859 194.693 292.859 194.06C292.859 193.261 292.234 192.628 291.442 192.628H289.462V197.42H290.425V195.388H290.898L291.949 197.42H293.027L291.864 195.327ZM291.403 194.64H290.424V193.463H291.403C291.729 193.463 291.984 193.721 291.984 194.053C291.984 194.386 291.737 194.64 291.403 194.64Z" fill="#252525"/>
<path id="Vector_27" d="M294.47 197.42H295.404V192.628H294.528L293.474 193.427V194.45L294.47 193.683V197.42Z" fill="#252525"/>
</g>
<g id="R4">
<path id="Vector_28" d="M246.572 110.619L256.86 110.633C258.294 110.634 259.456 111.627 259.456 112.849L259.45 123.918C259.452 125.138 258.288 126.129 256.855 126.126L246.567 126.113C245.132 126.113 243.97 125.121 243.97 123.896L243.975 112.828C243.975 111.608 245.137 110.619 246.572 110.619Z" fill="#FBED62"/>
<path id="Vector_29" d="M250.465 118.454C251.047 118.309 251.461 117.823 251.461 117.187C251.461 116.389 250.836 115.758 250.043 115.758H248.063V120.55H249.027V118.518H249.5L250.551 120.55H251.628L250.465 118.454ZM250.005 117.77H249.026V116.594H250.005C250.33 116.594 250.586 116.85 250.586 117.183C250.586 117.514 250.338 117.77 250.005 117.77Z" fill="#252525"/>
<path id="Vector_30" d="M255.634 118.723H255.213V115.758H254.043L252.013 118.952V119.542H254.285V120.549H255.213V119.542H255.634V118.723ZM253.073 118.723L254.286 116.671V118.723H253.073Z" fill="#252525"/>
</g>
<g id="R5">
<path id="Vector_31" d="M246.575 93.8152L256.861 93.8322C258.296 93.8332 259.458 94.8262 259.456 96.0482L259.45 107.114C259.45 108.338 258.286 109.326 256.852 109.323L246.565 109.308C245.131 109.305 243.967 108.312 243.967 107.091L243.975 96.0222C243.977 94.8012 245.139 93.8152 246.575 93.8152Z" fill="#FBED62"/>
<path id="Vector_32" d="M250.523 101.348C251.104 101.201 251.518 100.717 251.518 100.081C251.518 99.2832 250.893 98.6522 250.1 98.6522H248.121V103.444H249.085V101.412H249.558L250.605 103.444H251.686L250.523 101.348ZM250.063 100.664H249.084V99.4882H250.063C250.389 99.4882 250.643 99.7452 250.643 100.078C250.643 100.409 250.395 100.664 250.063 100.664Z" fill="#252525"/>
<path id="Vector_33" d="M253.959 103.508C254.933 103.508 255.629 102.804 255.629 101.813C255.629 100.89 255.009 100.209 254.146 100.209C253.789 100.209 253.424 100.324 253.213 100.505L253.321 99.4742H255.315V98.6632H252.599L252.37 101.028L253.115 101.366C253.307 101.156 253.621 101.021 253.896 101.021C254.356 101.021 254.695 101.381 254.695 101.853C254.695 102.319 254.369 102.658 253.896 102.658C253.545 102.658 253.172 102.473 252.968 102.184L252.382 102.83C252.725 103.234 253.354 103.508 253.959 103.508Z" fill="#252525"/>
</g>
<path id="Vector_34" d="M75.0711 60.4962C75.0711 61.2232 74.8331 61.7752 74.3591 62.1622C73.8811 62.5512 73.2081 62.7452 72.3321 62.7452H71.6081V65.3392H70.4731V58.4002H72.4741C73.3421 58.4002 73.9901 58.5772 74.4211 58.9302C74.8561 59.2852 75.0711 59.8062 75.0711 60.4962ZM71.6081 61.7882H72.2131C72.7931 61.7882 73.2221 61.6872 73.4931 61.4842C73.7661 61.2812 73.9001 60.9662 73.9001 60.5352C73.9001 60.1362 73.7801 59.8392 73.5361 59.6422C73.2921 59.4462 72.9111 59.3462 72.3961 59.3462H71.6071L71.6081 61.7882ZM77.5901 61.6252H78.3771C78.9061 61.6252 79.2901 61.5262 79.5261 61.3322C79.7621 61.1352 79.8811 60.8442 79.8811 60.4582C79.8811 60.0652 79.7541 59.7862 79.4981 59.6152C79.2411 59.4442 78.8521 59.3572 78.3371 59.3572H77.5891L77.5901 61.6252ZM77.5901 62.5682V65.3392H76.4521V58.4002H78.4151C79.3111 58.4002 79.9721 58.5682 80.4041 58.9012C80.8341 59.2362 81.0511 59.7442 81.0511 60.4192C81.0511 61.2862 80.5991 61.9012 79.7011 62.2702L81.6611 65.3392H80.3711L78.7081 62.5682H77.5901ZM86.5951 65.3392H82.6681V58.4002H86.5951V59.3582H83.8051V61.2472H86.4191V62.1982H83.8051V64.3762H86.5951V65.3392ZM92.4571 65.3392H87.4951V64.5512L90.9921 59.3732H87.5881V58.4002H92.3641V59.1962L88.8501 64.3662H92.4561L92.4571 65.3392ZM97.6141 65.3392H93.6871V58.4002H97.6141V59.3582H94.8231V61.2472H97.4381V62.1982H94.8231V64.3762H97.6141V65.3392ZM104.898 65.3392H103.507L100.091 59.8082H100.055L100.077 60.1172C100.123 60.7062 100.143 61.2442 100.143 61.7322V65.3392H99.1111V58.4002H100.49L103.895 63.9002H103.92C103.916 63.8262 103.904 63.5612 103.885 63.1042C103.865 62.6492 103.856 62.2912 103.856 62.0332V58.3992H104.897V65.3392H104.898ZM109.126 65.3392H107.993V59.3732H105.952V58.4002H111.168V59.3732H109.126V65.3392ZM116.536 65.3392L115.843 63.4132H113.189L112.512 65.3392H111.315L113.912 58.3702H115.146L117.742 65.3392H116.536ZM115.544 62.4352L114.895 60.5452C114.848 60.4172 114.782 60.2182 114.698 59.9452C114.613 59.6742 114.555 59.4752 114.522 59.3472C114.436 59.7382 114.313 60.1632 114.147 60.6262L113.522 62.4352H115.544ZM121.61 59.2742C120.958 59.2742 120.446 59.5062 120.073 59.9652C119.7 60.4282 119.513 61.0662 119.513 61.8772C119.513 62.7292 119.693 63.3762 120.052 63.8102C120.41 64.2482 120.929 64.4662 121.61 64.4662C121.906 64.4662 122.19 64.4372 122.464 64.3782C122.739 64.3212 123.026 64.2432 123.323 64.1522V65.1242C122.778 65.3312 122.161 65.4342 121.473 65.4342C120.455 65.4342 119.674 65.1242 119.132 64.5092C118.587 63.8972 118.313 63.0142 118.313 61.8682C118.313 61.1472 118.446 60.5152 118.711 59.9732C118.976 59.4332 119.357 59.0202 119.857 58.7312C120.357 58.4392 120.944 58.2972 121.619 58.2972C122.326 58.2972 122.982 58.4462 123.583 58.7442L123.177 59.6882C122.943 59.5782 122.696 59.4832 122.435 59.3962C122.173 59.3132 121.9 59.2742 121.61 59.2742ZM128.746 65.3392H124.818V58.4002H128.746V59.3582H125.955V61.2472H128.57V62.1982H125.955V64.3762H128.746V65.3392ZM137.367 60.4962C137.367 61.2232 137.13 61.7752 136.656 62.1622C136.179 62.5512 135.505 62.7422 134.627 62.7422H133.905V65.3392H132.768V58.4002H134.771C135.639 58.4002 136.287 58.5772 136.718 58.9282C137.151 59.2852 137.367 59.8062 137.367 60.4962ZM133.905 61.7882H134.509C135.09 61.7882 135.518 61.6872 135.791 61.4842C136.062 61.2812 136.198 60.9662 136.198 60.5352C136.198 60.1362 136.076 59.8392 135.834 59.6422C135.588 59.4462 135.209 59.3462 134.693 59.3462H133.905V61.7882ZM139.884 61.6252H140.673C141.201 61.6252 141.585 61.5262 141.822 61.3322C142.058 61.1352 142.176 60.8442 142.176 60.4582C142.176 60.0652 142.05 59.7862 141.794 59.6152C141.536 59.4442 141.148 59.3572 140.635 59.3572H139.883L139.884 61.6252ZM139.884 62.5682V65.3392H138.75V58.4002H140.713C141.607 58.4002 142.269 58.5682 142.701 58.9012C143.132 59.2362 143.347 59.7442 143.347 60.4192C143.347 61.2862 142.897 61.9012 142 62.2702L143.958 65.3392H142.669L141.006 62.5682H139.884ZM149.273 65.3392L148.577 63.4132H145.924L145.246 65.3392H144.051L146.645 58.3702H147.881L150.478 65.3392H149.273ZM148.281 62.4352L147.63 60.5452C147.584 60.4172 147.517 60.2182 147.435 59.9452C147.35 59.6742 147.292 59.4752 147.259 59.3472C147.174 59.7382 147.05 60.1632 146.885 60.6262L146.259 62.4352H148.281ZM156.506 65.3392H155.201L153.46 62.5002L151.71 65.3392H150.495L152.797 61.7402L150.641 58.4002H151.905L153.51 61.0242L155.114 58.4002H156.34L154.171 61.7582L156.506 65.3392ZM157.442 65.3392V58.4002H158.576V65.3392H157.442ZM157.374 57.8432V57.7252C157.557 57.5002 157.743 57.2552 157.934 56.9842C158.125 56.7112 158.277 56.4792 158.387 56.2852H159.682V56.3842C159.519 56.5782 159.274 56.8252 158.947 57.1322C158.62 57.4392 158.341 57.6752 158.117 57.8432H157.374ZM163.206 58.4002L160.624 65.3392H159.572L162.157 58.4002H163.206ZM168.206 63.4552C168.206 64.0702 167.983 64.5552 167.536 64.9072C167.089 65.2582 166.476 65.4342 165.69 65.4342C164.904 65.4342 164.259 65.3132 163.759 65.0702V63.9972C164.077 64.1432 164.416 64.2602 164.772 64.3432C165.127 64.4302 165.458 64.4732 165.763 64.4732C166.212 64.4732 166.547 64.3882 166.758 64.2182C166.97 64.0452 167.078 63.8182 167.078 63.5322C167.078 63.2682 166.981 63.0492 166.787 62.8692C166.59 62.6912 166.185 62.4752 165.571 62.2292C164.937 61.9732 164.49 61.6782 164.232 61.3492C163.972 61.0222 163.842 60.6252 163.842 60.1612C163.842 59.5832 164.049 59.1292 164.459 58.7962C164.87 58.4612 165.421 58.2962 166.115 58.2962C166.779 58.2962 167.44 58.4432 168.1 58.7342L167.738 59.6612C167.121 59.4002 166.57 59.2722 166.086 59.2722C165.719 59.2722 165.44 59.3522 165.25 59.5112C165.06 59.6722 164.966 59.8842 164.966 60.1462C164.966 60.3252 165.006 60.4792 165.079 60.6052C165.153 60.7352 165.281 60.8562 165.453 60.9692C165.628 61.0822 165.941 61.2342 166.393 61.4212C166.903 61.6332 167.278 61.8302 167.514 62.0152C167.75 62.1982 167.925 62.4062 168.037 62.6382C168.151 62.8692 168.206 63.1442 168.206 63.4552ZM171.945 65.3392H170.813V59.3732H168.77V58.4002H173.989V59.3732H171.945V65.3392ZM179.357 65.3392L178.663 63.4132H176.009L175.331 65.3392H174.135L176.731 58.3702H177.966L180.562 65.3392H179.357ZM178.364 62.4352L177.714 60.5452C177.668 60.4172 177.602 60.2182 177.519 59.9452C177.435 59.6742 177.376 59.4752 177.342 59.3472C177.258 59.7382 177.135 60.1632 176.967 60.6262L176.342 62.4352H178.364ZM176.66 57.8432V57.7252C176.841 57.5002 177.028 57.2552 177.218 56.9842C177.409 56.7112 177.559 56.4792 177.671 56.2852H178.969V56.3842C178.805 56.5782 178.558 56.8252 178.231 57.1322C177.903 57.4392 177.625 57.6752 177.402 57.8432H176.66ZM185.839 65.3392H180.874V64.5512L184.372 59.3732H180.97V58.4002H185.746V59.1962L182.231 64.3662H185.838V65.3392H185.839ZM185.213 56.2852V56.4152C184.813 56.8272 184.535 57.1342 184.372 57.3312C184.211 57.5272 184.083 57.6972 183.998 57.8432H182.763C182.556 57.5102 182.158 57.0352 181.559 56.4152V56.2852H182.309C182.746 56.5702 183.103 56.8592 183.374 57.1542C183.684 56.8372 184.045 56.5482 184.458 56.2852H185.213ZM187.067 65.3392V58.4002H188.205V65.3392H187.067ZM187.002 57.8432V57.7252C187.185 57.5002 187.371 57.2552 187.562 56.9842C187.751 56.7112 187.904 56.4792 188.013 56.2852H189.31V56.3842C189.146 56.5782 188.901 56.8252 188.572 57.1322C188.246 57.4392 187.967 57.6752 187.743 57.8432H187.002Z" fill="white"/>
<path id="Vector_35" d="M57.2179 76.3742H52.2549V75.5862L55.7519 70.4062H52.3499V69.4352H57.1249V70.2322L53.6109 75.4012H57.2169L57.2179 76.3742ZM62.7549 76.3742L62.0609 74.4482H59.4069L58.7289 76.3742H57.5329L60.1289 69.4052H61.3649L63.9619 76.3742H62.7549ZM61.7629 73.4692L61.1129 71.5782C61.0669 71.4522 61.0009 71.2532 60.9169 70.9812C60.8319 70.7092 60.7729 70.5112 60.7409 70.3822C60.6549 70.7702 60.5329 71.1982 60.3669 71.6612L59.7399 73.4692H61.7629ZM67.8759 76.3742L65.8649 70.5792H65.8249C65.8769 71.4392 65.9049 72.2472 65.9049 72.9992V76.3742H64.8759V69.4352H66.4769L68.4029 74.9562H68.4329L70.4179 69.4352H72.0219V76.3742H70.9299V72.9432C70.9299 72.6002 70.9399 72.1472 70.9569 71.5932C70.9749 71.0392 70.9869 70.7032 71.0019 70.5862H70.9629L68.8789 76.3742H67.8759ZM77.7759 76.3742H73.8479V69.4352H77.7759V70.3932H74.9849V72.2822H77.5989V73.2332H74.9849V75.4102H77.7759V76.3742ZM77.6749 67.3202V67.4502C77.2759 67.8642 76.9959 68.1692 76.8319 68.3662C76.6699 68.5612 76.5469 68.7312 76.4609 68.8782H75.2259C75.0199 68.5442 74.6169 68.0702 74.0189 67.4502V67.3202H74.7719C75.2079 67.6042 75.5619 67.8932 75.8369 68.1892C76.1449 67.8712 76.5049 67.5822 76.9209 67.3202H77.6749ZM83.2789 74.4902C83.2789 75.1062 83.0559 75.5912 82.6099 75.9422C82.1629 76.2922 81.5489 76.4692 80.7639 76.4692C79.9769 76.4692 79.3319 76.3482 78.8329 76.1052V75.0322C79.1489 75.1792 79.4889 75.2932 79.8439 75.3782C80.1989 75.4652 80.5319 75.5082 80.8359 75.5082C81.2859 75.5082 81.6199 75.4232 81.8329 75.2532C82.0439 75.0812 82.1509 74.8512 82.1509 74.5672C82.1509 74.3042 82.0539 74.0842 81.8599 73.9042C81.6639 73.7262 81.2579 73.5102 80.6449 73.2642C80.0089 73.0092 79.5639 72.7122 79.3039 72.3872C79.0439 72.0582 78.9149 71.6602 78.9149 71.1972C78.9149 70.6202 79.1209 70.1652 79.5319 69.8292C79.9419 69.4962 80.4929 69.3312 81.1879 69.3312C81.8519 69.3312 82.5139 69.4792 83.1719 69.7692L82.8129 70.6962C82.1939 70.4352 81.6429 70.3082 81.1589 70.3082C80.7919 70.3082 80.5129 70.3872 80.3229 70.5462C80.1339 70.7082 80.0389 70.9192 80.0389 71.1822C80.0389 71.3612 80.0769 71.5152 80.1519 71.6412C80.2269 71.7712 80.3529 71.8922 80.5269 72.0052C80.7009 72.1172 81.0139 72.2692 81.4669 72.4572C81.9759 72.6692 82.3499 72.8652 82.5889 73.0482C82.8239 73.2342 82.9989 73.4412 83.1109 73.6732C83.2239 73.9052 83.2789 74.1792 83.2789 74.4902ZM87.0189 76.3742H85.8859V70.4062H83.8439V69.4352H89.0619V70.4062H87.0189V76.3742ZM95.9079 76.3742H94.5149L91.0999 70.8442H91.0649L91.0859 71.1522C91.1299 71.7412 91.1519 72.2792 91.1519 72.7672V76.3742H90.1229V69.4352H91.4989L94.9039 74.9352H94.9309C94.9259 74.8602 94.9139 74.5972 94.8949 74.1392C94.8749 73.6842 94.8649 73.3242 94.8649 73.0692V69.4342H95.9069V76.3742H95.9079ZM102.044 76.3742L101.351 74.4482H98.6949L98.0169 76.3742H96.8229L99.4199 69.4052H100.654L103.25 76.3742H102.044ZM101.053 73.4692L100.403 71.5782C100.356 71.4522 100.29 71.2532 100.207 70.9812C100.12 70.7092 100.063 70.5112 100.03 70.3822C99.9449 70.7702 99.8209 71.1982 99.6559 71.6612L99.0299 73.4692H101.053ZM108.12 69.4352H109.298L106.869 76.3742H105.669L103.25 69.4352H104.419L105.866 73.7482C105.939 73.9532 106.022 74.2182 106.108 74.5442C106.194 74.8682 106.249 75.1122 106.274 75.2682C106.315 75.0272 106.381 74.7472 106.464 74.4302C106.552 74.1152 106.619 73.8832 106.672 73.7312L108.12 69.4352ZM114.522 76.3742L113.828 74.4482H111.173L110.495 76.3742H109.298L111.896 69.4052H113.13L115.726 76.3742H114.522ZM113.53 73.4692L112.879 71.5782C112.832 71.4522 112.767 71.2532 112.684 70.9812C112.598 70.7092 112.541 70.5112 112.507 70.3822C112.423 70.7702 112.299 71.1982 112.132 71.6612L111.508 73.4692H113.53ZM119.039 76.3742H117.907V70.4062H115.863V69.4352H121.081V70.4062H119.039V76.3742ZM126.069 76.3742H122.142V69.4352H126.069V70.3932H123.276V72.2822H125.893V73.2332H123.276V75.4102H126.069V76.3742ZM127.57 76.3742V69.4352H128.704V75.4012H131.642V76.3742H127.57ZM138.277 69.4352V73.9252C138.277 74.4372 138.168 74.8862 137.95 75.2682C137.729 75.6552 137.412 75.9502 136.997 76.1542C136.58 76.3622 136.081 76.4682 135.503 76.4682C134.641 76.4682 133.971 76.2382 133.494 75.7832C133.017 75.3292 132.778 74.7002 132.778 73.9032V69.4332H133.915V73.8242C133.915 74.3972 134.048 74.8192 134.316 75.0892C134.582 75.3642 134.991 75.4982 135.543 75.4982C136.61 75.4982 137.147 74.9362 137.147 73.8142V69.4332H138.277V69.4352ZM136.656 67.8012C136.656 68.1232 136.552 68.3852 136.345 68.5862C136.14 68.7872 135.863 68.8892 135.521 68.8892C135.18 68.8892 134.906 68.7902 134.706 68.5902C134.503 68.3922 134.399 68.1342 134.399 67.8122C134.399 67.4922 134.503 67.2322 134.705 67.0342C134.905 66.8342 135.179 66.7382 135.521 66.7382C135.85 66.7382 136.122 66.8342 136.335 67.0312C136.548 67.2282 136.656 67.4832 136.656 67.8012ZM136.023 67.8122C136.023 67.6512 135.976 67.5272 135.884 67.4372C135.786 67.3462 135.667 67.3022 135.521 67.3022C135.374 67.3022 135.253 67.3452 135.156 67.4372C135.059 67.5262 135.012 67.6502 135.012 67.8122C135.012 68.1452 135.181 68.3132 135.521 68.3132C135.667 68.3132 135.787 68.2692 135.884 68.1802C135.976 68.0962 136.023 67.9712 136.023 67.8122ZM146.885 76.3742L146.192 74.4482H143.536L142.857 76.3742H141.662L144.26 69.4052H145.493L148.09 76.3742H146.885ZM145.893 73.4692L145.242 71.5782C145.195 71.4522 145.129 71.2532 145.047 70.9812C144.961 70.7092 144.903 70.5112 144.871 70.3822C144.786 70.7702 144.66 71.1982 144.497 71.6612L143.871 73.4692H145.893ZM156.126 71.5322C156.126 72.2582 155.889 72.8122 155.415 73.1972C154.938 73.5862 154.264 73.7772 153.388 73.7772H152.664V76.3742H151.528V69.4352H153.53C154.397 69.4352 155.046 69.6102 155.478 69.9632C155.912 70.3182 156.126 70.8412 156.126 71.5322ZM152.664 72.8242H153.269C153.848 72.8242 154.276 72.7232 154.549 72.5192C154.822 72.3172 154.957 72.0022 154.957 71.5712C154.957 71.1722 154.837 70.8742 154.593 70.6772C154.347 70.4802 153.967 70.3812 153.451 70.3812H152.663V72.8242H152.664ZM158.643 72.6602H159.433C159.96 72.6602 160.346 72.5612 160.581 72.3672C160.819 72.1722 160.937 71.8792 160.937 71.4932C160.937 71.1012 160.809 70.8212 160.554 70.6492C160.298 70.4792 159.908 70.3922 159.394 70.3922H158.642L158.643 72.6602ZM158.643 73.6002V76.3732H157.51V69.4342H159.471C160.367 69.4342 161.029 69.6022 161.461 69.9352C161.891 70.2702 162.106 70.7782 162.106 71.4532C162.106 72.3202 161.656 72.9342 160.756 73.3012L162.718 76.3722H161.428L159.765 73.5992H158.643V73.6002ZM161.514 67.3202V67.4502C161.115 67.8622 160.832 68.1692 160.669 68.3662C160.507 68.5612 160.384 68.7312 160.299 68.8782H159.064C158.856 68.5442 158.456 68.0702 157.856 67.4502V67.3202H158.606C159.044 67.6042 159.4 67.8932 159.676 68.1892C159.982 67.8712 160.343 67.5822 160.756 67.3202H161.514ZM167.653 76.3742H163.724V69.4352H167.653V70.3932H164.859V72.2822H167.476V73.2332H164.859V75.4102H167.653V76.3742ZM174.797 72.8372C174.797 73.9832 174.48 74.8582 173.844 75.4652C173.207 76.0722 172.289 76.3742 171.092 76.3742H169.149V69.4352H171.298C172.402 69.4352 173.261 69.7312 173.876 70.3252C174.493 70.9202 174.797 71.7592 174.797 72.8372ZM173.6 72.8752C173.6 71.2112 172.82 70.3812 171.27 70.3812H170.286V75.4202H171.093C172.763 75.4202 173.6 74.5722 173.6 72.8752ZM182.071 76.3742H180.678L177.264 70.8442H177.229L177.25 71.1522C177.295 71.7412 177.316 72.2792 177.316 72.7672V76.3742H176.284V69.4352H177.662L181.066 74.9352H181.093C181.087 74.8602 181.076 74.5962 181.058 74.1392C181.038 73.6842 181.028 73.3242 181.028 73.0692V69.4342H182.07V76.3742H182.071ZM188.208 76.3742L187.515 74.4482H184.86L184.184 76.3742H182.987L185.583 69.4052H186.817L189.414 76.3742H188.208ZM187.215 73.4692L186.566 71.5782C186.519 71.4522 186.453 71.2532 186.369 70.9812C186.285 70.7092 186.226 70.5112 186.194 70.3822C186.108 70.7702 185.985 71.1982 185.819 71.6612L185.193 73.4692H187.215ZM185.511 68.8782V68.7582C185.692 68.5352 185.879 68.2902 186.069 68.0192C186.259 67.7452 186.41 67.5142 186.521 67.3192H187.819V67.4182C187.654 67.6122 187.409 67.8602 187.081 68.1662C186.753 68.4732 186.474 68.7092 186.251 68.8772H185.511V68.8782ZM194.332 74.4902C194.332 75.1062 194.109 75.5912 193.663 75.9422C193.217 76.2922 192.602 76.4692 191.817 76.4692C191.031 76.4692 190.385 76.3482 189.887 76.1052V75.0322C190.203 75.1792 190.542 75.2932 190.897 75.3782C191.255 75.4652 191.585 75.5082 191.89 75.5082C192.34 75.5082 192.672 75.4232 192.884 75.2532C193.098 75.0812 193.204 74.8512 193.204 74.5672C193.204 74.3042 193.108 74.0842 192.912 73.9042C192.715 73.7262 192.309 73.5102 191.696 73.2642C191.063 73.0092 190.616 72.7122 190.357 72.3842C190.096 72.0582 189.967 71.6602 189.967 71.1962C189.967 70.6192 190.173 70.1642 190.584 69.8282C190.995 69.4952 191.546 69.3302 192.24 69.3302C192.904 69.3302 193.567 69.4782 194.225 69.7682L193.865 70.6952C193.246 70.4342 192.696 70.3072 192.211 70.3072C191.845 70.3072 191.565 70.3862 191.376 70.5452C191.186 70.7072 191.091 70.9182 191.091 71.1812C191.091 71.3602 191.131 71.5142 191.207 71.6402C191.279 71.7702 191.406 71.8912 191.581 72.0042C191.753 72.1162 192.069 72.2682 192.52 72.4562C193.031 72.6682 193.404 72.8642 193.642 73.0472C193.878 73.2332 194.051 73.4402 194.164 73.6722C194.276 73.9052 194.332 74.1762 194.332 74.4902ZM194.032 67.3202V67.4502C193.633 67.8622 193.354 68.1692 193.191 68.3662C193.028 68.5612 192.902 68.7312 192.816 68.8782H191.583C191.376 68.5442 190.975 68.0702 190.377 67.4502V67.3202H191.126C191.565 67.6042 191.921 67.8932 192.195 68.1892C192.503 67.8712 192.863 67.5822 193.276 67.3202H194.032ZM200.973 76.3742H199.659L197.48 73.2322L196.809 73.7762V76.3732H195.675V69.4342H196.809V72.7472C197.122 72.3672 197.429 72.0012 197.736 71.6492L199.61 69.4342H200.903C199.69 70.8572 198.822 71.8722 198.296 72.4762L200.973 76.3742ZM203.852 72.6012L205.494 69.4352H206.729L204.416 73.6822V76.3742H203.275V73.7202L200.972 69.4352H202.207L203.852 72.6012Z" fill="white"/>
<path id="Vector_36" d="M107.271 84.7452C107.271 83.9062 107.397 83.1192 107.642 82.3902C107.885 81.6592 108.239 81.0162 108.703 80.4702H109.676C109.236 81.0622 108.898 81.7302 108.663 82.4682C108.43 83.2082 108.31 83.9642 108.31 84.7352C108.31 85.5122 108.429 86.2572 108.663 86.9842C108.897 87.7072 109.23 88.3602 109.665 88.9472H108.703C108.236 88.4122 107.884 87.7832 107.639 87.0632C107.391 86.3442 107.271 85.5712 107.271 84.7452ZM113.668 87.4092H112.553V82.9282C112.553 82.3942 112.566 81.9682 112.591 81.6562C112.516 81.7332 112.427 81.8162 112.322 81.9102C112.215 82.0002 111.859 82.2922 111.256 82.7842L110.693 82.0752L112.735 80.4712H113.668V87.4092ZM120.384 82.0632C120.384 82.5042 120.258 82.8712 120 83.1622C119.745 83.4582 119.384 83.6532 118.92 83.7552V83.7902C119.475 83.8582 119.894 84.0342 120.171 84.3112C120.45 84.5892 120.588 84.9562 120.588 85.4162C120.588 86.0832 120.353 86.6002 119.882 86.9602C119.41 87.3202 118.738 87.5032 117.868 87.5032C117.098 87.5032 116.451 87.3792 115.923 87.1282V86.1352C116.217 86.2812 116.528 86.3932 116.86 86.4752C117.187 86.5542 117.505 86.5912 117.807 86.5912C118.344 86.5912 118.746 86.4922 119.015 86.2912C119.278 86.0932 119.411 85.7842 119.411 85.3652C119.411 84.9972 119.266 84.7222 118.971 84.5522C118.677 84.3772 118.216 84.2892 117.585 84.2892H116.981V83.3832H117.592C118.7 83.3832 119.253 82.9992 119.253 82.2332C119.253 81.9382 119.157 81.7112 118.965 81.5472C118.773 81.3832 118.488 81.3032 118.11 81.3032C117.85 81.3032 117.595 81.3392 117.352 81.4142C117.108 81.4892 116.822 81.6342 116.488 81.8492L115.942 81.0692C116.578 80.6022 117.317 80.3662 118.158 80.3662C118.857 80.3662 119.405 80.5182 119.798 80.8182C120.188 81.1192 120.384 81.5362 120.384 82.0632ZM124.769 87.4092H123.653V82.9282C123.653 82.3942 123.667 81.9682 123.692 81.6562C123.617 81.7332 123.53 81.8162 123.422 81.9102C123.317 82.0002 122.96 82.2922 122.357 82.7842L121.796 82.0752L123.837 80.4712H124.769V87.4092ZM130.328 80.4702L127.747 87.4092H126.694L129.278 80.4702H130.328ZM136.762 80.4702V84.9602C136.762 85.4722 136.653 85.9222 136.435 86.3032C136.213 86.6902 135.898 86.9852 135.482 87.1922C135.065 87.3982 134.567 87.5042 133.989 87.5042C133.126 87.5042 132.456 87.2752 131.979 86.8192C131.502 86.3652 131.262 85.7362 131.262 84.9392V80.4702H132.4V84.8612C132.4 85.4342 132.532 85.8572 132.8 86.1272C133.067 86.4012 133.474 86.5362 134.027 86.5362C135.097 86.5362 135.631 85.9732 135.631 84.8522V80.4712H136.762V80.4702ZM141.327 87.4092H140.211V82.9282C140.211 82.3942 140.227 81.9682 140.249 81.6562C140.175 81.7332 140.087 81.8162 139.983 81.9102C139.875 82.0002 139.52 82.2922 138.916 82.7842L138.353 82.0752L140.396 80.4712H141.328L141.327 87.4092ZM148.043 82.0632C148.043 82.5042 147.916 82.8712 147.66 83.1622C147.403 83.4582 147.042 83.6532 146.576 83.7552V83.7902C147.134 83.8582 147.552 84.0342 147.831 84.3112C148.11 84.5892 148.247 84.9562 148.247 85.4162C148.247 86.0832 148.013 86.6002 147.542 86.9602C147.07 87.3202 146.396 87.5032 145.526 87.5032C144.757 87.5032 144.109 87.3792 143.581 87.1282V86.1352C143.876 86.2812 144.187 86.3932 144.519 86.4752C144.847 86.5542 145.162 86.5912 145.466 86.5912C146.002 86.5912 146.404 86.4922 146.674 86.2912C146.937 86.0932 147.07 85.7842 147.07 85.3652C147.07 84.9972 146.924 84.7222 146.629 84.5522C146.334 84.3772 145.874 84.2892 145.242 84.2892H144.639V83.3832H145.25C146.357 83.3832 146.912 82.9992 146.912 82.2332C146.912 81.9382 146.816 81.7112 146.622 81.5472C146.43 81.3842 146.144 81.3032 145.768 81.3032C145.505 81.3032 145.252 81.3392 145.01 81.4142C144.764 81.4892 144.477 81.6342 144.144 81.8492L143.599 81.0692C144.235 80.6022 144.973 80.3662 145.815 80.3662C146.514 80.3662 147.059 80.5182 147.456 80.8182C147.847 81.1192 148.043 81.5362 148.043 82.0632ZM151.417 84.7452C151.417 85.5782 151.296 86.3542 151.05 87.0732C150.805 87.7932 150.45 88.4152 149.986 88.9462H149.025C149.461 88.3552 149.793 87.6982 150.029 86.9762C150.258 86.2562 150.375 85.5112 150.375 84.7342C150.375 83.9632 150.259 83.2032 150.025 82.4672C149.791 81.7312 149.453 81.0682 149.013 80.4692H149.986C150.452 81.0232 150.805 81.6652 151.05 82.3972C151.296 83.1302 151.417 83.9142 151.417 84.7452Z" fill="white"/>
<path id="Vector_37" d="M331.201 84.2502C331.201 84.8682 330.977 85.3522 330.532 85.7032C330.084 86.0532 329.47 86.2292 328.682 86.2292C327.899 86.2292 327.254 86.1082 326.755 85.8652V84.7932C327.07 84.9392 327.41 85.0552 327.766 85.1412C328.121 85.2282 328.452 85.2712 328.759 85.2712C329.206 85.2712 329.541 85.1862 329.752 85.0132C329.964 84.8432 330.072 84.6142 330.072 84.3272C330.072 84.0652 329.976 83.8462 329.781 83.6662C329.585 83.4862 329.179 83.2712 328.565 83.0262C327.931 82.7682 327.484 82.4752 327.226 82.1462C326.966 81.8172 326.835 81.4233 326.835 80.9593C326.835 80.3793 327.044 79.9242 327.453 79.5912C327.863 79.2582 328.415 79.0923 329.11 79.0923C329.772 79.0923 330.436 79.2382 331.094 79.5302L330.733 80.4552C330.115 80.1972 329.563 80.0663 329.079 80.0663C328.712 80.0663 328.433 80.1452 328.245 80.3062C328.054 80.4652 327.96 80.6782 327.96 80.9392C327.96 81.1182 328 81.2722 328.072 81.4012C328.147 81.5292 328.273 81.6523 328.447 81.7643C328.622 81.8753 328.934 82.0293 329.387 82.2173C329.897 82.4293 330.272 82.6243 330.508 82.8083C330.746 82.9933 330.918 83.2003 331.032 83.4333C331.145 83.6673 331.201 83.9392 331.201 84.2502ZM330.899 77.0812V77.2112C330.5 77.6252 330.221 77.9312 330.058 78.1272C329.897 78.3212 329.769 78.4942 329.685 78.6392H328.449C328.243 78.3062 327.844 77.8322 327.245 77.2112V77.0812H327.996C328.434 77.3672 328.789 77.6562 329.062 77.9512C329.371 77.6352 329.731 77.3462 330.145 77.0812H330.899ZM336.851 86.1362L336.155 84.2102H333.502L332.824 86.1362H331.628L334.224 79.1662H335.459L338.056 86.1362H336.851ZM335.858 83.2312L335.208 81.3392C335.161 81.2142 335.095 81.0162 335.013 80.7412C334.927 80.4682 334.868 80.2702 334.835 80.1432C334.75 80.5312 334.626 80.9592 334.46 81.4232L333.835 83.2312H335.858ZM341.368 86.1362H340.235V80.1682H338.192V79.1953H343.409V80.1682H341.368V86.1362ZM350.254 86.1362H348.863L345.448 80.6053H345.414L345.435 80.9142C345.479 81.5032 345.501 82.0382 345.501 82.5282V86.1353H344.469V79.1953H345.849L349.252 84.6972H349.278C349.272 84.6232 349.261 84.3582 349.243 83.9002C349.224 83.4462 349.214 83.0872 349.214 82.8312V79.1953H350.254V86.1362ZM356.393 86.1362L355.7 84.2102H353.044L352.366 86.1362H351.169L353.767 79.1662H355.001L357.598 86.1362H356.393ZM355.402 83.2312L354.752 81.3392C354.703 81.2142 354.638 81.0162 354.556 80.7412C354.47 80.4682 354.412 80.2702 354.379 80.1432C354.294 80.5312 354.17 80.9592 354.005 81.4232L353.379 83.2312H355.402Z" fill="white"/>
<path id="Vector_38" d="M312.21 179.231H313C313.528 179.231 313.91 179.131 314.149 178.937C314.384 178.74 314.504 178.45 314.504 178.064C314.504 177.671 314.376 177.39 314.118 177.219C313.864 177.047 313.475 176.962 312.96 176.962H312.209V179.231H312.21ZM312.21 180.17V182.943H311.075V176.003H313.037C313.933 176.003 314.595 176.172 315.027 176.506C315.457 176.842 315.672 177.347 315.672 178.023C315.672 178.888 315.223 179.506 314.324 179.873L316.285 182.944H314.994L313.332 180.171L312.21 180.17ZM321.218 182.944H317.29V176.004H321.218V176.963H318.425V178.853H321.042V179.803H318.425V181.98H321.218V182.944ZM326.721 181.06C326.721 181.675 326.499 182.16 326.051 182.51C325.605 182.86 324.989 183.035 324.204 183.035C323.419 183.035 322.773 182.915 322.275 182.674V181.601C322.591 181.747 322.931 181.862 323.285 181.949C323.642 182.034 323.972 182.079 324.279 182.079C324.728 182.079 325.063 181.993 325.274 181.823C325.486 181.651 325.593 181.421 325.593 181.136C325.593 180.873 325.496 180.654 325.301 180.474C325.106 180.293 324.699 180.079 324.085 179.834C323.45 179.579 323.005 179.283 322.744 178.955C322.487 178.627 322.356 178.23 322.356 177.767C322.356 177.187 322.563 176.732 322.974 176.399C323.383 176.066 323.936 175.901 324.631 175.901C325.295 175.901 325.955 176.047 326.613 176.339L326.254 177.265C325.637 177.006 325.086 176.875 324.599 176.875C324.234 176.875 323.955 176.954 323.766 177.116C323.574 177.274 323.482 177.487 323.482 177.748C323.482 177.929 323.52 178.084 323.594 178.21C323.669 178.339 323.794 178.462 323.969 178.572C324.143 178.685 324.457 178.838 324.908 179.025C325.418 179.237 325.793 179.433 326.03 179.617C326.266 179.803 326.441 180.01 326.554 180.242C326.667 180.474 326.721 180.746 326.721 181.06ZM330.461 182.944H329.328V176.976H327.286V176.003H332.502V176.976H330.461V182.944ZM337.874 182.944L337.179 181.018H334.525L333.845 182.944H332.651L335.247 175.973H336.482L339.079 182.944H337.874ZM336.88 180.036L336.23 178.146C336.182 178.021 336.118 177.823 336.035 177.548C335.948 177.275 335.89 177.076 335.858 176.95C335.772 177.339 335.649 177.766 335.484 178.229L334.857 180.035H336.88V180.036ZM345.431 176.003V180.491C345.431 181.007 345.321 181.456 345.104 181.837C344.884 182.224 344.566 182.52 344.151 182.725C343.735 182.932 343.236 183.036 342.657 183.036C341.794 183.036 341.125 182.809 340.647 182.354C340.171 181.899 339.93 181.27 339.93 180.474V176.003H341.069V180.393C341.069 180.966 341.202 181.388 341.469 181.662C341.736 181.935 342.143 182.069 342.696 182.069C343.763 182.069 344.299 181.506 344.299 180.386V176.003H345.431ZM348.342 179.231H349.13C349.66 179.231 350.041 179.131 350.279 178.937C350.517 178.74 350.635 178.447 350.635 178.061C350.635 177.671 350.507 177.39 350.251 177.219C349.993 177.047 349.606 176.962 349.09 176.962H348.341L348.342 179.231ZM348.342 180.17V182.943H347.206V176.003H349.168C350.064 176.003 350.727 176.172 351.158 176.506C351.589 176.842 351.803 177.347 351.803 178.023C351.803 178.888 351.355 179.506 350.456 179.873L352.414 182.944H351.125L349.463 180.171L348.342 180.17ZM357.729 182.944L357.036 181.018H354.382L353.702 182.944H352.508L355.104 175.973H356.337L358.935 182.944H357.729ZM356.737 180.036L356.086 178.146C356.041 178.021 355.974 177.823 355.892 177.548C355.806 177.275 355.748 177.076 355.716 176.95C355.629 177.339 355.506 177.766 355.34 178.229L354.715 180.035H356.737V180.036ZM362.803 176.876C362.151 176.876 361.636 177.107 361.265 177.568C360.893 178.032 360.706 178.668 360.706 179.481C360.706 180.333 360.884 180.976 361.246 181.414C361.603 181.851 362.123 182.068 362.803 182.068C363.098 182.068 363.381 182.039 363.657 181.979C363.932 181.922 364.218 181.845 364.516 181.753V182.726C363.97 182.933 363.354 183.035 362.663 183.035C361.645 183.035 360.866 182.726 360.323 182.114C359.777 181.498 359.506 180.618 359.506 179.472C359.506 178.75 359.637 178.12 359.902 177.576C360.168 177.036 360.55 176.624 361.048 176.332C361.548 176.042 362.136 175.9 362.81 175.9C363.52 175.9 364.175 176.049 364.776 176.348L364.367 177.291C364.134 177.182 363.889 177.083 363.626 176.998C363.366 176.919 363.092 176.876 362.803 176.876ZM369.939 182.944H366.009V176.004H369.939V176.963H367.147V178.853H369.763V179.803H367.147V181.98H369.939V182.944Z" fill="white"/>
<g id="R2">
<path id="Vector_39" d="M301.019 152.51V181.821C301.019 183.104 299.866 184.145 298.447 184.145H287.743C286.322 184.145 285.172 183.104 285.172 181.821V152.51C285.172 151.229 286.322 150.187 287.743 150.187H298.447C299.866 150.187 301.019 151.229 301.019 152.51Z" fill="#EC6963"/>
<path id="Vector_40" d="M291.318 167.877C291.898 167.73 292.313 167.244 292.313 166.611C292.313 165.812 291.689 165.18 290.894 165.18H288.916V169.972H289.879V167.941H290.352L291.4 169.972H292.48L291.318 167.877ZM290.856 167.194H289.879V166.019H290.856C291.184 166.019 291.438 166.274 291.438 166.607C291.438 166.938 291.191 167.194 290.856 167.194Z" fill="#252525"/>
<path id="Vector_41" d="M293.056 169.973H296.184V169.156H294.263C295.766 167.584 296.089 167.214 296.083 166.465C296.077 165.665 295.444 165.11 294.62 165.11C293.758 165.11 293.01 165.716 293.081 166.599L293.976 166.608C293.938 166.185 294.219 165.931 294.576 165.931C294.871 165.935 295.19 166.096 295.19 166.557C295.19 166.945 295.049 167.154 293.056 169.29V169.973Z" fill="#252525"/>
</g>
<path id="Vector_42" d="M191.107 200.557V233.257V237.956C191.107 239.268 193.142 239.269 193.142 237.956V205.255V200.557C193.142 199.248 191.107 199.246 191.107 200.557Z" fill="#4A4A4A"/>
<path id="Vector_43" d="M12.1341 32.4522L6.7341 28.4612C6.3591 28.1842 6.3701 27.6182 6.7551 27.3562L12.1531 23.6892C12.6051 23.3812 13.2141 23.7052 13.2141 24.2502V31.9072C13.2141 32.4632 12.5831 32.7812 12.1341 32.4522Z" fill="#E95248"/>
<g id="R7">
<path id="Vector_44" d="M259.69 74.0632L259.62 66.0022L259.604 64.4122L259.52 54.7582C259.514 53.8552 258.497 53.1272 257.247 53.1302L246.149 53.1592C244.901 53.1632 243.896 53.8982 243.905 54.7982L243.986 64.4522L244 66.0432L244.071 74.1062C244.08 75.0092 245.017 75.7372 246.166 75.7352L246.347 75.7322L257.445 75.7042H257.626C258.774 75.7022 259.698 74.9682 259.69 74.0632Z" fill="#A7D9E2"/>
<g id="Group_2">
<path id="Vector_45" d="M250.792 64.7492C251.373 64.6032 251.788 64.1172 251.788 63.4842C251.788 62.6862 251.163 62.0522 250.369 62.0522H248.39V66.8442H249.353V64.8122H249.826L250.874 66.8442H251.954L250.792 64.7492ZM250.331 64.0652H249.353V62.8892H250.331C250.657 62.8892 250.913 63.1462 250.913 63.4782C250.913 63.8092 250.665 64.0652 250.331 64.0652Z" fill="#252525"/>
<path id="Vector_46" d="M253.128 66.8452H254.139L256.35 62.7302V62.0532H253.065V62.8642H255.34L253.128 66.8452Z" fill="#252525"/>
</g>
</g>
<g id="R8">
<path id="Vector_47" d="M229.385 68.6322L218.855 68.6852C217.386 68.6952 216.19 67.6882 216.184 66.4372L216.126 55.1142C216.118 53.8652 217.305 52.8442 218.773 52.8372L229.303 52.7852C230.769 52.7762 231.966 53.7842 231.973 55.0332L232.032 66.3552C232.039 67.6042 230.853 68.6242 229.385 68.6322Z" fill="#A7D9E2"/>
<g id="Group_3">
<path id="Vector_48" d="M222.752 60.8382C223.335 60.6952 223.75 60.2092 223.753 59.5772C223.754 58.7782 223.131 58.1422 222.34 58.1402L220.36 58.1342L220.344 62.9292L221.308 62.9302L221.314 60.8982L221.788 60.9002L222.83 62.9352L223.909 62.9392L222.752 60.8382ZM222.294 60.1522L221.316 60.1502L221.32 58.9742L222.297 58.9762C222.625 58.9792 222.878 59.2342 222.878 59.5682C222.877 59.8982 222.627 60.1542 222.294 60.1522Z" fill="#252525"/>
<path id="Vector_49" d="M227.028 60.2762C227.298 60.0592 227.46 59.7352 227.46 59.3582C227.463 58.6422 226.885 58.0922 226.086 58.0902C225.286 58.0882 224.703 58.6352 224.7 59.3502C224.7 59.7342 224.858 60.0542 225.126 60.2792C224.684 60.5262 224.407 60.9652 224.407 61.4962C224.403 62.3522 225.109 63.0052 226.069 63.0102C227.032 63.0122 227.746 62.3612 227.748 61.5082C227.749 60.9752 227.469 60.5342 227.028 60.2762ZM226.088 58.8172C226.426 58.8172 226.689 59.0822 226.687 59.4242C226.686 59.7732 226.422 60.0302 226.084 60.0302C225.738 60.0282 225.478 59.7682 225.479 59.4222C225.481 59.0772 225.745 58.8152 226.088 58.8172ZM226.072 62.1912C225.657 62.1912 225.339 61.8512 225.339 61.4272C225.341 61.0052 225.661 60.7012 226.077 60.7012C226.497 60.7032 226.809 61.0102 226.808 61.4312C226.807 61.8552 226.492 62.1922 226.072 62.1912Z" fill="#252525"/>
</g>
</g>
<g id="R6">
<path id="Vector_50" d="M256.648 92.7872H246.117C244.649 92.7872 243.458 91.7722 243.458 90.5222V79.2022C243.458 77.9542 244.649 76.9392 246.117 76.9392H256.648C258.116 76.9392 259.305 77.9542 259.305 79.2022V90.5222C259.305 91.7722 258.116 92.7872 256.648 92.7872Z" fill="#A7D9E2"/>
<g id="Group_4">
<path id="Vector_51" d="M250.361 85.0252C250.943 84.8802 251.356 84.3942 251.356 83.7592C251.356 82.9612 250.733 82.3292 249.939 82.3292H247.96V87.1212H248.925V85.0892H249.396L250.445 87.1212H251.524L250.361 85.0252ZM249.901 84.3402H248.924V83.1652H249.901C250.228 83.1652 250.481 83.4212 250.481 83.7542C250.481 84.0852 250.235 84.3402 249.901 84.3402Z" fill="#252525"/>
<path id="Vector_52" d="M255.631 85.4982C255.625 84.6552 254.973 83.9372 254.112 83.8422C254.052 83.8422 253.998 83.8352 253.932 83.8352L255.094 82.3292H254.033L252.481 84.4492C252.258 84.7632 252.089 85.1272 252.089 85.5242C252.098 86.4642 252.898 87.1912 253.873 87.1852C254.834 87.1712 255.631 86.4432 255.631 85.4982ZM253.876 86.3932C253.366 86.4062 253.012 86.0152 253.012 85.5242C253.007 85.0392 253.338 84.6372 253.851 84.6292C254.356 84.6242 254.714 85.0052 254.727 85.4982C254.732 85.9912 254.379 86.3862 253.876 86.3932Z" fill="#252525"/>
</g>
</g>
<g id="R11">
<path id="Vector_53" d="M267.12 41.3842H256.588C255.121 41.3842 253.929 40.3722 253.929 39.1212V27.8012C253.929 26.5522 255.121 25.5382 256.588 25.5382H267.12C268.587 25.5382 269.779 26.5522 269.779 27.8012V39.1212C269.779 40.3722 268.586 41.3842 267.12 41.3842Z" fill="#FBED62"/>
<g id="Group_5">
<path id="Vector_54" d="M259.711 33.4822C260.291 33.3362 260.706 32.8512 260.706 32.2162C260.706 31.4172 260.082 30.7862 259.287 30.7862H257.308V35.5782H258.273V33.5462H258.744L259.794 35.5782H260.873L259.711 33.4822ZM259.25 32.7982H258.274V31.6232H259.25C259.577 31.6232 259.833 31.8792 259.833 32.2112C259.833 32.5422 259.584 32.7982 259.25 32.7982Z" fill="#252525"/>
<path id="Vector_55" d="M262.319 35.5782H263.252V30.7862H262.374L261.321 31.5852V32.6082L262.319 31.8402V35.5782ZM265.072 35.5782H266.005V30.7862H265.128L264.073 31.5852V32.6082L265.072 31.8402V35.5782Z" fill="#252525"/>
</g>
</g>
<g id="R13">
<path id="Vector_56" d="M276.701 74.1372L276.711 66.0742L276.713 64.4832L276.724 54.8312C276.726 53.9272 275.716 53.1882 274.466 53.1792L263.369 53.0972C262.12 53.0902 261.108 53.8142 261.105 54.7162L261.094 64.3702L261.092 65.9602L261.083 74.0222C261.083 74.9252 262.014 75.6632 263.161 75.6722H263.342L274.44 75.7532H274.621C275.768 75.7652 276.701 75.0412 276.701 74.1372Z" fill="#A7D9E2"/>
<path id="Vector_57" d="M266.592 64.6972C267.176 64.5582 267.596 64.0802 267.605 63.4452C267.616 62.6472 267 62.0062 266.207 61.9952L264.228 61.9702L264.165 66.7622L265.128 66.7732L265.155 64.7412L265.627 64.7482L266.649 66.7942L267.729 66.8082L266.592 64.6972ZM266.142 64.0062L265.163 63.9962L265.18 62.8192L266.157 62.8302C266.483 62.8342 266.737 63.0952 266.731 63.4282C266.727 63.7592 266.476 64.0112 266.142 64.0062ZM268.701 66.8222L269.635 66.8322L269.698 62.0402L268.821 62.0292L267.756 62.8152L267.742 63.8362L268.751 63.0822L268.701 66.8222ZM272.863 64.1522C273.171 63.9612 273.369 63.6532 273.373 63.2862C273.382 62.5822 272.782 62.0192 272.009 62.0082C271.23 61.9972 270.614 62.5482 270.606 63.2482L271.5 63.2792C271.505 63.0422 271.723 62.8622 271.999 62.8642C272.312 62.8682 272.54 63.0822 272.536 63.3692C272.531 63.6952 272.3 63.9352 271.985 63.9322H271.977L271.66 63.9262L271.653 64.6592L272.035 64.6662C272.416 64.6702 272.692 64.9682 272.687 65.3632C272.681 65.7662 272.396 66.0622 272.015 66.0592C271.642 66.0532 271.353 65.8132 271.357 65.5132H270.443C270.433 66.2892 271.121 66.9162 272.003 66.9292C272.892 66.9392 273.59 66.2582 273.602 65.3852C273.608 64.8472 273.313 64.4092 272.863 64.1522Z" fill="#252525"/>
</g>
<path id="Vector_58" d="M90.665 179.913C90.943 179.842 91.221 179.773 91.527 179.69V180.664C90.983 180.858 90.359 180.97 89.677 180.97C88.661 180.97 87.883 180.664 87.325 180.037C87.062 179.731 86.852 179.356 86.715 178.926C86.59 178.481 86.52 177.98 86.52 177.396C86.52 176.854 86.59 176.366 86.743 175.921C86.785 175.781 86.841 175.644 86.909 175.503C87.035 175.24 87.202 175.004 87.396 174.794C87.452 174.739 87.506 174.683 87.562 174.642C87.716 174.489 87.883 174.365 88.064 174.266C88.565 173.974 89.149 173.835 89.816 173.835C90.524 173.835 91.18 173.974 91.777 174.279L91.374 175.226C91.138 175.114 90.901 175.016 90.637 174.934C90.373 174.849 90.094 174.807 89.803 174.807C89.649 174.807 89.497 174.822 89.344 174.849C89.051 174.905 88.802 175.016 88.579 175.198C88.468 175.281 88.369 175.393 88.273 175.503C87.897 175.962 87.716 176.602 87.716 177.408C87.716 178.048 87.814 178.578 88.022 178.979C88.078 179.12 88.162 179.231 88.245 179.342H88.259C88.301 179.411 88.343 179.453 88.398 179.481C88.649 179.731 88.955 179.884 89.317 179.954C89.468 179.982 89.636 179.996 89.803 179.996C90.107 179.996 90.386 179.969 90.665 179.913Z" fill="#E95248"/>
<path id="Vector_59" d="M98.4952 173.932V180.871H97.3531V177.744H94.1552V180.871H93.0142V173.932H94.1552V176.769H97.3531V173.932H98.4952Z" fill="#E95248"/>
<path id="Vector_60" d="M101.457 173.932H100.315V180.871H101.457V173.932Z" fill="#E95248"/>
<path id="Vector_61" d="M107.368 179.899V180.871H103.292V173.932H104.418V179.899H107.368Z" fill="#E95248"/>
<path id="Vector_62" d="M112.625 179.899V180.871H108.563V173.932H109.689V179.899H112.625Z" fill="#E95248"/>
<path id="Vector_63" d="M121.665 174.754C121.107 174.128 120.315 173.82 119.272 173.82C118.23 173.82 117.423 174.128 116.852 174.739C116.295 175.35 116.003 176.241 116.003 177.382C116.003 177.952 116.072 178.452 116.212 178.898C116.253 179.009 116.295 179.121 116.338 179.218C116.435 179.426 116.532 179.621 116.656 179.786C116.712 179.885 116.783 179.954 116.851 180.037C117.408 180.648 118.214 180.97 119.271 180.97C120.299 180.97 121.093 180.649 121.664 180.023C122.233 179.398 122.512 178.522 122.512 177.396C122.512 176.255 122.234 175.379 121.665 174.754ZM120.789 179.343C120.622 179.566 120.413 179.718 120.163 179.828C120.064 179.871 119.969 179.898 119.856 179.927C119.674 179.969 119.48 179.996 119.272 179.996C118.59 179.996 118.076 179.773 117.728 179.343C117.381 178.898 117.214 178.244 117.214 177.396C117.214 176.546 117.381 175.893 117.728 175.463C118.076 175.017 118.59 174.794 119.272 174.794C119.954 174.794 120.455 175.017 120.802 175.463C121.136 175.893 121.303 176.546 121.303 177.396C121.303 178.258 121.136 178.91 120.789 179.343Z" fill="#E95248"/>
<path id="Vector_64" d="M129.438 173.932V178.425C129.438 178.939 129.328 179.383 129.118 179.76C128.897 180.15 128.576 180.442 128.159 180.649C127.742 180.859 127.241 180.97 126.671 180.97C125.809 180.97 125.142 180.734 124.654 180.288C124.18 179.828 123.944 179.203 123.944 178.396V173.931H125.086V178.326C125.086 178.897 125.211 179.314 125.476 179.592C125.753 179.858 126.157 179.996 126.7 179.996C127.77 179.996 128.313 179.439 128.313 178.312V173.931H129.438V173.932Z" fill="#E95248"/>
<path id="Vector_65" d="M135.654 173.932V174.906H133.611V180.871H132.485V174.906H130.439V173.932H135.654Z" fill="#E95248"/>
<path id="Vector_66" d="M143.611 179.899V180.871H138.646V180.079L142.149 174.906H138.743V173.932H143.512V174.726L140.007 179.899H143.611Z" fill="#E95248"/>
<path id="Vector_67" d="M148.06 171.819C147.949 172.013 147.797 172.25 147.601 172.514C147.407 172.792 147.226 173.03 147.045 173.252V173.376H147.783C148.003 173.209 148.282 172.973 148.616 172.667C148.935 172.36 149.186 172.11 149.353 171.916V171.818H148.06V171.819ZM150.162 174.754C149.591 174.128 148.798 173.82 147.767 173.82C146.71 173.82 145.905 174.128 145.349 174.739C144.778 175.35 144.5 176.241 144.5 177.382C144.5 178.522 144.777 179.412 145.334 180.037C145.904 180.648 146.71 180.97 147.754 180.97C148.783 180.97 149.59 180.649 150.161 180.023C150.716 179.398 150.995 178.522 150.995 177.396C150.996 176.255 150.716 175.379 150.162 174.754ZM149.283 179.343C148.936 179.774 148.437 179.996 147.755 179.996C147.073 179.996 146.573 179.773 146.226 179.343C145.877 178.898 145.711 178.244 145.711 177.396C145.711 176.546 145.877 175.893 146.226 175.463C146.574 175.017 147.088 174.794 147.768 174.794C148.438 174.794 148.952 175.017 149.284 175.463C149.633 175.893 149.8 176.546 149.8 177.396C149.798 178.258 149.618 178.91 149.283 179.343Z" fill="#E95248"/>
<path id="Vector_68" d="M208.721 213.798H197.606C194.579 213.798 192.125 211.342 192.125 208.316V157.08C192.125 154.051 194.579 151.597 197.606 151.597H208.721C211.748 151.597 214.201 154.051 214.201 157.08V208.316C214.202 211.342 211.749 213.798 208.721 213.798Z" stroke="#4A4A4A" stroke-width="2" stroke-miterlimit="10"/>
<path id="Vector_69" d="M273.911 148.578H244.7C242.362 148.578 240.47 146.686 240.47 144.349V132.243C240.47 129.907 242.363 128.012 244.7 128.012H273.911C276.246 128.012 278.141 129.908 278.141 132.243V144.349C278.141 146.687 276.246 148.578 273.911 148.578Z" stroke="#414142" stroke-width="2" stroke-miterlimit="10"/>
<path id="Vector_70" d="M240.541 133.16H278.212" stroke="#414142" stroke-width="2" stroke-miterlimit="10"/>
<path id="Vector_71" d="M240.469 138.295H278.139" stroke="#414142" stroke-width="2" stroke-miterlimit="10"/>
<path id="Vector_72" d="M240.469 143.454H278.139" stroke="#414142" stroke-width="2" stroke-miterlimit="10"/>
<path id="Vector_73" d="M281.683 223.964C281.683 223.964 281.407 227.289 282.516 228.953C283.623 230.617 285.724 231.794 287.686 231.588C289.652 231.381 288.959 225.144 288.959 225.144L281.683 223.964Z" fill="white"/>
<path id="Vector_74" d="M378.395 31.6042V184.001C378.395 187.813 378.409 191.637 378.395 195.447C378.395 199.036 377.713 202.512 376.085 205.738C374.445 208.993 371.942 211.802 368.925 213.845C366.31 215.613 363.332 216.572 360.371 217.545C344.39 222.787 327.993 226.862 311.527 230.229C306.492 231.258 301.431 232.218 296.353 233.067C292.404 233.734 287.982 235.152 284.184 233.218C281.307 231.759 279.443 228.81 279.234 225.612C279.109 223.749 279.207 221.843 279.207 219.979C279.207 218.671 281.252 218.671 281.252 219.979C281.252 221.675 281.182 223.386 281.252 225.083C281.39 229.046 284.506 232.301 288.566 232.204C290.972 232.161 293.462 231.508 295.826 231.118C298.204 230.716 300.568 230.285 302.947 229.84C307.689 228.963 312.418 228.003 317.132 226.975C332.375 223.636 347.604 219.785 362.374 214.737C369.771 212.206 375.391 206.155 376.253 198.187C376.393 196.949 376.363 195.697 376.363 194.459V31.3812C376.363 21.7852 372.359 12.7322 364.348 7.14123C359.035 3.44123 352.956 2.03622 346.603 2.03622H30.959C22.101 2.05022 13.757 5.69422 8.164 12.6892C4.16 17.7102 2.087 23.9402 2.047 30.3242C2.032 31.6172 2.047 32.9102 2.047 34.1902V134.074C2.047 135.882 1.99001 137.676 2.32301 139.455C3.77001 147.008 10.418 152.709 18.109 152.945C25.41 153.181 32.753 152.959 40.068 152.959H54.449C56.674 152.945 58.871 152.945 61.013 153.434C61.721 153.585 62.431 153.794 63.141 154.087C63.377 154.185 63.614 154.28 63.85 154.405C69.315 156.937 72.723 162.431 72.806 168.453C72.847 171.415 72.806 174.364 72.806 177.312C72.806 185.809 72.778 194.32 72.806 202.818C72.833 209.173 76.046 215.043 81.721 218.088C83.848 219.23 86.212 219.771 88.522 220.425C91.011 221.135 93.514 221.817 96.031 222.484C97.826 222.956 99.635 223.415 101.442 223.874C104.571 224.654 107.7 225.405 110.843 226.128C129.076 230.301 147.543 233.401 166.125 235.488C168.419 235.751 170.714 235.987 173.022 236.21C179.627 236.879 186.248 237.407 192.882 237.796C198.111 238.103 203.354 238.325 208.597 238.45C211.268 238.519 213.937 238.546 216.622 238.562C220.265 238.575 223.59 238.06 226.01 235.014C228.916 231.343 228.026 225.864 228.026 221.482C228.026 220.174 230.056 220.174 230.056 221.482C230.056 225.53 230.738 230.329 228.957 234.097C227.621 236.906 225.133 239.076 222.185 240.035C219.612 240.884 216.748 240.605 214.078 240.577C200.392 240.438 186.68 239.674 173.022 238.325C154.748 236.516 136.557 233.679 118.616 229.91C108.437 227.768 98.339 225.307 88.341 222.484C84.392 221.385 80.678 220.329 77.479 217.644C74.712 215.335 72.653 212.177 71.597 208.729C70.705 205.807 70.747 202.776 70.777 199.758V170.539C70.777 165.768 69.83 161.333 65.95 158.092C62.557 155.255 58.636 154.99 54.476 154.99H41.181C33.67 154.99 26.146 155.087 18.637 154.99C11.669 154.906 5.14601 151.04 2.00301 144.755C0.501006 141.777 0 138.594 0 135.299V30.4362C0.042 24.9012 1.446 19.4632 4.312 14.7072C9.833 5.51423 19.86 0.0342222 30.541 0.00622222C37.12 -0.00777778 43.713 0.00622222 50.304 0.00622222H347.227C355.184 0.00622222 362.748 2.57922 368.66 8.01722C375.35 14.1772 378.395 22.6472 378.395 31.6042Z" fill="#4A4A4A"/>
<path id="Vector_75" d="M29.0679 112.221C26.7179 109.976 25.4639 106.834 25.4199 103.593C25.4079 102.949 25.4199 102.316 25.4199 101.672V85.9162L25.8819 85.9852V95.9582L27.2599 108.642C27.2589 108.64 28.0159 110.143 29.0679 112.221Z" fill="white"/>
<path id="Vector_76" d="M35.801 101.486H26.436V51.8042H36.723C41.702 51.8042 45.74 55.8412 45.74 60.8222V91.5502C45.74 97.0382 41.291 101.486 35.801 101.486Z" stroke="#4A4A4A" stroke-width="2" stroke-miterlimit="10"/>
<path id="Vector_77" d="M92.6452 106.962L89.0732 102.581C89.0732 102.581 90.7802 96.8622 98.1942 96.9272C105.61 96.9882 107.596 101.069 108.266 103.533C108.939 105.998 101.822 104.702 101.822 104.702L92.6452 106.962Z" fill="white"/>
<path id="Vector_78" d="M214.829 100.001C214.829 103.004 214.987 105.917 213.678 108.73C211.588 113.205 207.126 115.543 202.325 115.543H123.791C122.38 115.543 120.954 115.566 119.531 115.543C118.232 115.52 116.978 115.305 115.794 114.899C113.646 114.175 111.726 112.865 110.281 111.047C108.191 108.404 107.682 105.4 107.682 102.123C107.682 100.813 109.715 100.813 109.715 102.123C109.715 105.32 110.246 108.234 112.584 110.606C114.459 112.493 116.955 113.476 119.608 113.509C124.973 113.566 130.328 113.509 135.693 113.509H202.088C206.516 113.509 210.605 111.398 212.196 107.026C213.054 104.655 212.796 101.943 212.796 99.4472V55.9252C212.796 53.2392 212.809 50.5602 212.796 47.8742C212.783 42.3162 208.672 37.6402 202.969 37.5712C200.167 37.5382 197.367 37.5712 194.554 37.5712H39.3689C38.6689 37.5712 37.9689 37.5602 37.2679 37.5712C31.4379 37.6502 27.4509 42.4402 27.4509 48.0542V99.7752C27.4509 102.44 27.2039 105.242 28.3329 107.737C29.9369 111.249 33.4289 113.487 37.2689 113.531C37.9359 113.541 38.6019 113.531 39.2679 113.531H67.8799C71.0289 113.531 74.1929 113.541 77.3319 113.531C79.9309 113.52 82.3929 112.662 84.3019 110.855C86.8099 108.459 87.4059 105.443 87.4059 102.122C87.4059 101.399 88.0289 101.072 88.5939 101.152C89.0339 101.22 89.4419 101.535 89.4419 102.122C89.4419 105.297 88.9899 108.233 87.0129 110.844C84.8899 113.645 81.6259 115.384 78.1119 115.554C75.4919 115.676 72.8369 115.565 70.2069 115.565H40.2389C39.2679 115.565 38.3069 115.576 37.3479 115.565C35.6759 115.542 34.0369 115.202 32.5459 114.548C31.3489 114.029 30.2319 113.316 29.2479 112.401C29.1919 112.347 29.1249 112.288 29.0679 112.234V112.22C26.7179 109.975 25.4639 106.833 25.4199 103.592C25.4079 102.948 25.4199 102.315 25.4199 101.671V48.6632C25.4199 47.7152 25.4079 46.7772 25.5439 45.8282C26.0509 42.1902 28.2429 38.9032 31.4279 37.0852C31.6559 36.9622 31.8679 36.8492 32.1069 36.7342C35.6089 35.0752 39.8329 35.5382 43.6059 35.5382H201.003C202.066 35.5382 203.139 35.4922 204.191 35.6042C210.402 36.2832 214.807 41.6022 214.83 47.7462C214.864 55.4062 214.83 63.0742 214.83 70.7342V100.001H214.829Z" fill="#4A4A4A"/>
<path id="Vector_79" d="M310.59 132.433L315.164 129.215C315.164 129.215 321.131 130.752 321.066 137.429C321 144.105 316.741 145.893 314.17 146.5C311.598 147.104 312.949 140.695 312.949 140.695L310.59 132.433Z" fill="white"/>
<path id="Vector_80" d="M305.497 230.42V199.346V157.778C305.497 156.729 305.475 155.677 305.497 154.631C305.562 151.412 307.917 148.833 310.936 147.933C312.863 147.36 314.979 147.558 316.965 147.558C318.275 147.558 318.277 145.523 316.965 145.523C315.342 145.523 313.672 145.419 312.059 145.629C309.339 145.987 306.786 147.373 305.146 149.593C303.753 151.479 303.461 153.596 303.461 155.84V170.918V195.189V218.388V226.346C303.461 227.635 303.369 228.962 303.461 230.249C303.464 230.303 303.461 230.363 303.461 230.42C303.461 231.729 305.497 231.731 305.497 230.42Z" fill="#4A4A4A"/>
<path id="Vector_81" d="M377.386 35.7232H360.979H330.384C324.77 35.7232 319.145 35.6242 313.53 35.7232C307.543 35.8292 303.517 41.1282 303.463 46.8332C303.442 48.6682 303.463 50.5042 303.463 52.3412V78.9902V108.187V116.834C303.463 120.092 303.834 123.213 305.98 125.883C307.932 128.312 310.759 129.591 313.853 129.606C314.981 129.611 316.109 129.606 317.238 129.606H324.101H352.983H376.137H377.386C378.695 129.606 378.696 127.573 377.386 127.573H360.812H331.076H315.124C314.019 127.573 312.896 127.635 311.813 127.37C310.096 126.946 308.594 125.921 307.5 124.542C306.11 122.794 305.507 120.636 305.496 118.427C305.485 116.541 305.496 114.657 305.496 112.77V86.5902V57.7982V48.8552C305.496 46.0462 305.566 43.3332 307.371 40.9462C308.892 38.9362 311.148 37.7892 313.658 37.7562C314.297 37.7472 314.938 37.7562 315.578 37.7562H325.018H354.491H376.236H377.385C378.695 37.7582 378.696 35.7232 377.386 35.7232Z" fill="#4A4A4A"/>
<path id="Vector_82" d="M316.965 129.666H337.043H369.029H376.347C377.731 129.666 377.732 127.518 376.347 127.518H356.271H324.284H316.965C315.586 127.518 315.581 129.666 316.965 129.666Z" fill="white"/>
<path id="Vector_83" d="M202.945 199.522V198.803C202.945 198.319 202.855 197.971 202.676 197.755C202.496 197.536 202.231 197.428 201.879 197.428C201.522 197.428 201.265 197.548 201.108 197.778C200.953 198.015 200.873 198.368 200.873 198.838V199.523H202.945V199.522ZM203.802 199.522H206.332V200.557H199.998V198.767C199.998 197.952 200.151 197.344 200.459 196.954C200.764 196.561 201.228 196.365 201.844 196.365C202.633 196.365 203.194 196.773 203.531 197.594L206.333 195.806V196.987L203.803 198.5L203.802 199.522Z" fill="#E95248"/>
<path id="Vector_84" d="M202.945 199.522V198.803C202.945 198.319 202.855 197.971 202.676 197.755C202.496 197.536 202.231 197.428 201.879 197.428C201.522 197.428 201.265 197.548 201.108 197.778C200.953 198.015 200.873 198.368 200.873 198.838V199.523H202.945V199.522ZM203.802 199.522H206.332V200.557H199.998V198.767C199.998 197.952 200.151 197.344 200.459 196.954C200.764 196.561 201.228 196.365 201.844 196.365C202.633 196.365 203.194 196.773 203.531 197.594L206.333 195.806V196.987L203.803 198.5L203.802 199.522Z" fill="#E95248"/>
<path id="Vector_85" d="M206.333 191.307V194.887H200.001V191.307H200.874V193.852H202.598V191.466H203.464V193.852H205.453V191.307H206.333Z" fill="#E95248"/>
<path id="Vector_86" d="M206.333 191.307V194.887H200.001V191.307H200.874V193.852H202.598V191.466H203.464V193.852H205.453V191.307H206.333Z" fill="#E95248"/>
<path id="Vector_87" d="M200.797 187.243C200.797 187.839 201.007 188.307 201.43 188.647C201.849 188.988 202.432 189.157 203.174 189.157C203.95 189.157 204.538 188.995 204.938 188.666C205.335 188.337 205.536 187.866 205.536 187.243C205.536 186.976 205.507 186.716 205.455 186.465C205.401 186.213 205.332 185.95 205.249 185.683H206.139C206.326 186.178 206.419 186.741 206.419 187.371C206.419 188.295 206.139 189.009 205.577 189.506C205.014 190.001 204.21 190.249 203.167 190.249C202.509 190.249 201.931 190.128 201.438 189.889C200.944 189.645 200.566 189.298 200.304 188.843C200.038 188.387 199.91 187.85 199.91 187.238C199.91 186.589 200.045 185.991 200.315 185.443L201.179 185.817C201.075 186.029 200.986 186.256 200.91 186.494C200.834 186.729 200.797 186.98 200.797 187.243Z" fill="#E95248"/>
<path id="Vector_88" d="M200.797 187.243C200.797 187.839 201.007 188.307 201.43 188.647C201.849 188.988 202.432 189.157 203.174 189.157C203.95 189.157 204.538 188.995 204.938 188.666C205.335 188.337 205.536 187.866 205.536 187.243C205.536 186.976 205.507 186.716 205.455 186.465C205.401 186.213 205.332 185.95 205.249 185.683H206.139C206.326 186.178 206.419 186.741 206.419 187.371C206.419 188.295 206.139 189.009 205.577 189.506C205.014 190.001 204.21 190.249 203.167 190.249C202.509 190.249 201.931 190.128 201.438 189.889C200.944 189.645 200.566 189.298 200.304 188.843C200.038 188.387 199.91 187.85 199.91 187.238C199.91 186.589 200.045 185.991 200.315 185.443L201.179 185.817C201.075 186.029 200.986 186.256 200.91 186.494C200.834 186.729 200.797 186.98 200.797 187.243Z" fill="#E95248"/>
<path id="Vector_89" d="M206.333 180.736V184.315H200.001V180.736H200.874V183.281H202.598V180.894H203.464V183.281H205.453V180.736H206.333Z" fill="#E95248"/>
<path id="Vector_90" d="M206.333 180.736V184.315H200.001V180.736H200.874V183.281H202.598V180.894H203.464V183.281H205.453V180.736H206.333Z" fill="#E95248"/>
<path id="Vector_91" d="M203.091 178.33V177.781C203.091 177.249 202.999 176.86 202.816 176.611C202.63 176.361 202.341 176.237 201.949 176.237C201.585 176.237 201.314 176.35 201.135 176.572C200.956 176.795 200.867 177.141 200.867 177.611V178.33H203.091ZM201.914 175.173C202.576 175.173 203.081 175.389 203.435 175.824C203.789 176.256 203.963 176.871 203.963 177.672V178.33H206.333V179.364H200.002V177.541C200.002 176.753 200.163 176.159 200.486 175.767C200.808 175.371 201.286 175.173 201.914 175.173Z" fill="#E95248"/>
<path id="Vector_92" d="M203.091 178.33V177.781C203.091 177.249 202.999 176.86 202.816 176.611C202.63 176.361 202.341 176.237 201.949 176.237C201.585 176.237 201.314 176.35 201.135 176.572C200.956 176.795 200.867 177.141 200.867 177.611V178.33H203.091ZM201.914 175.173C202.576 175.173 203.081 175.389 203.435 175.824C203.789 176.256 203.963 176.871 203.963 177.672V178.33H206.333V179.364H200.002V177.541C200.002 176.753 200.163 176.159 200.486 175.767C200.808 175.371 201.286 175.173 201.914 175.173Z" fill="#E95248"/>
<path id="Vector_93" d="M200.797 171.216C200.797 171.811 201.007 172.279 201.43 172.618C201.849 172.96 202.432 173.13 203.174 173.13C203.95 173.13 204.538 172.965 204.938 172.637C205.335 172.309 205.536 171.835 205.536 171.216C205.536 170.945 205.507 170.686 205.455 170.436C205.401 170.185 205.332 169.923 205.249 169.654H206.139C206.326 170.147 206.419 170.713 206.419 171.341C206.419 172.268 206.139 172.981 205.577 173.478C205.014 173.974 204.21 174.221 203.167 174.221C202.509 174.221 201.931 174.102 201.438 173.86C200.944 173.62 200.566 173.27 200.304 172.814C200.038 172.359 199.91 171.823 199.91 171.208C199.91 170.56 200.045 169.964 200.315 169.416L201.179 169.787C201.075 170.002 200.986 170.226 200.91 170.465C200.834 170.701 200.797 170.952 200.797 171.216Z" fill="#E95248"/>
<path id="Vector_94" d="M200.797 171.216C200.797 171.811 201.007 172.279 201.43 172.618C201.849 172.96 202.432 173.13 203.174 173.13C203.95 173.13 204.538 172.965 204.938 172.637C205.335 172.309 205.536 171.835 205.536 171.216C205.536 170.945 205.507 170.686 205.455 170.436C205.401 170.185 205.332 169.923 205.249 169.654H206.139C206.326 170.147 206.419 170.713 206.419 171.341C206.419 172.268 206.139 172.981 205.577 173.478C205.014 173.974 204.21 174.221 203.167 174.221C202.509 174.221 201.931 174.102 201.438 173.86C200.944 173.62 200.566 173.27 200.304 172.814C200.038 172.359 199.91 171.823 199.91 171.208C199.91 170.56 200.045 169.964 200.315 169.416L201.179 169.787C201.075 170.002 200.986 170.226 200.91 170.465C200.834 170.701 200.797 170.952 200.797 171.216Z" fill="#E95248"/>
<path id="Vector_95" d="M206.333 164.705V168.287H200.001V164.705H200.874V167.252H202.598V164.867H203.464V167.252H205.453V164.705H206.333Z" fill="#E95248"/>
<path id="Vector_96" d="M206.333 164.705V168.287H200.001V164.705H200.874V167.252H202.598V164.867H203.464V167.252H205.453V164.705H206.333Z" fill="#E95248"/>
<path id="Vector_97" d="M32.916 90.0432V88.9672L39.249 91.1852V92.2772L32.916 94.4852V93.4182L36.854 92.0972C37.042 92.0292 37.284 91.9552 37.578 91.8772C37.875 91.8002 38.095 91.7502 38.241 91.7252C38.019 91.6862 37.766 91.6292 37.478 91.5532C37.189 91.4752 36.975 91.4112 36.837 91.3642L32.916 90.0432Z" fill="white"/>
<path id="Vector_98" d="M32.4092 86.0592H32.3032C32.1012 85.8962 31.8742 85.7262 31.6262 85.5512C31.3772 85.3752 31.1642 85.2382 30.9912 85.1362V83.9562H31.0812C31.2572 84.1052 31.4832 84.3282 31.7622 84.6282C32.0412 84.9282 32.2572 85.1782 32.4092 85.3832V86.0592ZM35.8042 85.3842L32.9152 83.8862V82.7612L36.7912 84.8683H39.2472V85.9092H36.8262L32.9152 88.0092V86.8832L35.8042 85.3842Z" fill="white"/>
<path id="Vector_99" d="M39.248 79.0412V80.0762H33.804V81.9382H32.916V77.1772H33.804V79.0412H39.248Z" fill="white"/>
<path id="Vector_100" d="M36.5972 73.8812L34.8722 74.4762C34.7572 74.5182 34.5732 74.5792 34.3282 74.6552C34.0782 74.7302 33.8972 74.7852 33.7822 74.8112C34.1372 74.8912 34.5252 75.0052 34.9472 75.1532L36.5962 75.7252L36.5972 73.8812ZM39.2492 72.9772L37.4902 73.6102V76.0302L39.2492 76.6492V77.7412L32.8892 75.3732V74.2462L39.2492 71.8762V72.9772Z" fill="white"/>
<path id="Vector_101" d="M39.248 66.0463V67.0873H36.395V70.0073H39.248V71.0393H32.916V70.0073H35.506V67.0873H32.916V66.0463H39.248Z" fill="white"/>
<path id="Vector_102" d="M35.805 62.5902L32.916 61.0922V59.9672L36.792 62.0762H39.248V63.1162H36.827L32.916 65.2152V64.0912L35.805 62.5902Z" fill="white"/>
<path id="Vector_103" d="M264.383 210.921L254.897 198.081C254.238 197.189 252.895 197.216 252.27 198.135L243.549 210.971C242.821 212.041 243.586 213.487 244.877 213.487H263.09C264.411 213.487 265.169 211.985 264.383 210.921Z" fill="#E95248"/>
<path id="Vector_104" d="M367.249 23.8242L372.649 27.8122C373.022 28.0912 373.013 28.6572 372.626 28.9202L367.228 32.5862C366.777 32.8932 366.169 32.5712 366.169 32.0262V24.3662C366.168 23.8122 366.803 23.4932 367.249 23.8242Z" fill="#E95248"/>
<path id="Vector_105" d="M104.261 113.494L99.0429 106.432C98.6799 105.941 97.9409 105.955 97.5979 106.46L92.7999 113.52C92.3999 114.109 92.8209 114.905 93.5319 114.905H103.549C104.276 114.906 104.695 114.079 104.261 113.494Z" fill="#E95248"/>
<path id="Vector_106" d="M307.163 143.465L314.224 138.246C314.717 137.885 314.702 137.146 314.197 136.802L307.136 132.003C306.548 131.605 305.75 132.024 305.75 132.736V142.754C305.75 143.48 306.578 143.897 307.163 143.465Z" fill="#E95248"/>
<g id="R12">
<path id="Vector_107" d="M286.412 41.5173H275.881C274.414 41.5173 273.224 40.5053 273.224 39.2533V27.9343C273.224 26.6833 274.414 25.6713 275.881 25.6713H286.412C287.88 25.6713 289.071 26.6833 289.071 27.9343V39.2533C289.071 40.5053 287.879 41.5173 286.412 41.5173Z" fill="#A7D9E2"/>
<path id="Vector_108" d="M279.146 34.0892C279.729 33.9432 280.145 33.4582 280.145 32.8242C280.145 32.0262 279.52 31.3932 278.726 31.3932H276.747V36.1852H277.71V34.1532H278.183L279.232 36.1852H280.312L279.147 34.0912V34.0892H279.146ZM278.688 33.4052H277.709V32.2292H278.688C279.013 32.2292 279.269 32.4852 279.269 32.8182C279.269 33.1492 279.022 33.4052 278.688 33.4052Z" fill="#252525"/>
<path id="Vector_109" d="M281.755 36.1852H282.688V31.3932H281.813L280.758 32.1912V33.2142L281.755 32.4462V36.1852ZM283.639 36.1852H286.769V35.3662H284.848C286.348 33.7982 286.672 33.4252 286.668 32.6772C286.66 31.8792 286.027 31.3232 285.203 31.3232C284.344 31.3232 283.593 31.9292 283.664 32.8122L284.559 32.8192C284.521 32.3972 284.801 32.1413 285.16 32.1413C285.454 32.1473 285.772 32.3082 285.772 32.7672C285.772 33.1582 285.63 33.3672 283.639 35.5022V36.1852Z" fill="#252525"/>
</g>
<g id="R9">
<path id="Vector_110" d="M228.825 41.3932H218.293C216.826 41.3932 215.635 40.3802 215.635 39.1272V27.8073C215.635 26.5583 216.826 25.5443 218.293 25.5443H228.824C230.292 25.5443 231.482 26.5583 231.482 27.8073V39.1272C231.483 40.3812 230.292 41.3932 228.825 41.3932Z" fill="#FBED62"/>
<path id="Vector_111" d="M222.135 33.6392C222.717 33.4932 223.131 33.0082 223.131 32.3752C223.131 31.5762 222.508 30.9432 221.713 30.9432H219.734V35.7352H220.698V33.7032H221.17L222.219 35.7352H223.298L222.135 33.6392ZM221.675 32.9552H220.698V31.7793H221.675C222.002 31.7793 222.256 32.0352 222.256 32.3682C222.256 32.6992 222.01 32.9552 221.675 32.9552Z" fill="#252525"/>
<path id="Vector_112" d="M227.409 32.5402C227.401 31.5972 226.602 30.8732 225.626 30.8792C224.675 30.8922 223.862 31.6162 223.867 32.5662C223.876 33.4022 224.526 34.1243 225.388 34.2143C225.446 34.2213 225.516 34.2252 225.58 34.2212L224.405 35.7342H225.464L227.024 33.6142C227.242 33.3022 227.409 32.9372 227.409 32.5402ZM225.649 33.4293C225.14 33.4363 224.782 33.0522 224.776 32.5602C224.762 32.0752 225.122 31.6782 225.626 31.6672C226.131 31.6582 226.481 32.0552 226.495 32.5362C226.501 33.0262 226.155 33.4293 225.649 33.4293Z" fill="#252525"/>
</g>
<g id="R10">
<path id="Vector_113" d="M247.784 41.4222H237.254C235.787 41.4222 234.597 40.4082 234.597 39.1562V27.8372C234.597 26.5882 235.787 25.5742 237.254 25.5742H247.784C249.253 25.5742 250.442 26.5882 250.442 27.8372V39.1562C250.442 40.4082 249.252 41.4222 247.784 41.4222Z" fill="#FBED62"/>
<path id="Vector_114" d="M239.288 33.6673C239.868 33.5223 240.282 33.0363 240.282 32.4013C240.282 31.6023 239.657 30.9713 238.866 30.9713H236.886V35.7633H237.851V33.7313H238.322L239.371 35.7633H240.452L239.288 33.6673ZM238.827 32.9833H237.85V31.8083H238.827C239.153 31.8083 239.409 32.0633 239.409 32.3973C239.409 32.7273 239.159 32.9833 238.827 32.9833Z" fill="#252525"/>
<path id="Vector_115" d="M241.895 35.7643H242.828V30.9723H241.95L240.897 31.7703V32.7943L241.895 32.0263V35.7643ZM245.619 35.8273C246.661 35.8273 247.392 34.8193 247.392 33.3673C247.392 31.9163 246.661 30.9083 245.619 30.9083C244.564 30.9083 243.837 31.9173 243.837 33.3673C243.836 34.8193 244.564 35.8273 245.619 35.8273ZM245.619 35.0113C245.121 35.0113 244.77 34.3333 244.77 33.3673C244.77 32.3973 245.121 31.7203 245.619 31.7203C246.108 31.7203 246.46 32.3973 246.46 33.3673C246.459 34.3333 246.108 35.0113 245.619 35.0113Z" fill="#252525"/>
</g>
<g id="R3">
<path id="Vector_116" d="M212.626 131.816L219.239 127.207L220.547 126.297L228.465 120.776C229.205 120.259 229.233 119.008 228.526 117.98L222.234 108.836C221.526 107.808 220.354 107.394 219.614 107.909L211.693 113.43L210.387 114.34L203.776 118.949C203.035 119.465 202.962 120.65 203.612 121.599L203.716 121.746L210.006 130.89L210.11 131.038C210.756 131.985 211.884 132.334 212.626 131.816Z" fill="#FBED62"/>
<path id="Vector_117" d="M215.421 121.171C215.819 120.723 215.891 120.09 215.535 119.566C215.088 118.903 214.217 118.73 213.558 119.175L211.919 120.285L214.605 124.255L215.402 123.714L214.264 122.031L214.657 121.765L216.665 122.862L217.559 122.256L215.421 121.171ZM214.657 120.863L213.847 121.41L213.189 120.436L213.999 119.889C214.269 119.707 214.622 119.775 214.811 120.05C214.996 120.323 214.932 120.675 214.657 120.863Z" fill="#252525"/>
<path id="Vector_118" d="M218.495 118.333C218.639 118.001 218.624 117.637 218.418 117.333C218.022 116.75 217.209 116.629 216.569 117.061C215.923 117.5 215.731 118.301 216.126 118.884L216.876 118.397C216.744 118.203 216.82 117.927 217.048 117.772C217.308 117.598 217.618 117.642 217.778 117.881C217.961 118.15 217.905 118.48 217.646 118.656L217.641 118.658L217.377 118.838L217.79 119.444L218.105 119.231C218.419 119.016 218.818 119.104 219.04 119.43C219.268 119.766 219.201 120.17 218.886 120.383C218.579 120.591 218.204 120.563 218.035 120.313L217.283 120.835C217.718 121.475 218.642 121.599 219.373 121.104C220.106 120.605 220.292 119.648 219.803 118.923C219.502 118.479 219.009 118.287 218.495 118.333Z" fill="#252525"/>
</g>
<g id="R15">
<path id="Vector_119" d="M263.515 93.8152L273.802 93.8322C275.236 93.8332 276.398 94.8262 276.397 96.0482L276.389 107.114C276.389 108.338 275.226 109.326 273.792 109.323L263.506 109.308C262.07 109.305 260.91 108.312 260.91 107.091L260.916 96.0222C260.917 94.8012 262.079 93.8152 263.515 93.8152Z" fill="#FBED62"/>
<path id="Vector_120" d="M266.415 101.161C266.981 101.012 267.383 100.535 267.379 99.9122C267.372 99.1312 266.756 98.5162 265.981 98.5222L264.041 98.5382L264.079 103.23L265.023 103.223L265.006 101.233L265.47 101.229L266.511 103.209L267.57 103.201L266.415 101.161ZM265.957 100.493L264.999 100.503L264.991 99.3513L265.948 99.3442C266.268 99.3422 266.52 99.5892 266.521 99.9162C266.526 100.239 266.284 100.491 265.957 100.493ZM268.671 103.193L269.585 103.186L269.546 98.4942L268.688 98.5013L267.663 99.2932L267.671 100.295L268.643 99.5332L268.671 103.193ZM272.181 103.228C273.129 103.22 273.807 102.527 273.8 101.556C273.791 100.649 273.179 99.9912 272.334 99.9982C271.985 100.001 271.629 100.115 271.423 100.294L271.521 99.2863L273.474 99.2682L273.467 98.4742L270.81 98.4952L270.603 100.812L271.336 101.136C271.524 100.93 271.827 100.796 272.1 100.795C272.549 100.789 272.883 101.138 272.886 101.601C272.891 102.058 272.573 102.392 272.11 102.396C271.768 102.398 271.401 102.219 271.2 101.939L270.631 102.576C270.971 102.971 271.584 103.234 272.181 103.228Z" fill="#252525"/>
</g>
<g id="R16">
<path id="Vector_121" d="M263.512 110.619L273.8 110.633C275.235 110.634 276.393 111.627 276.396 112.849L276.389 123.918C276.391 125.138 275.227 126.129 273.795 126.126L263.506 126.113C262.072 126.113 260.91 125.121 260.91 123.896L260.913 112.828C260.916 111.608 262.077 110.619 263.512 110.619Z" fill="#FBED62"/>
<path id="Vector_122" d="M265.957 118.912C266.526 118.764 266.929 118.287 266.926 117.665C266.922 116.884 266.307 116.269 265.53 116.273L263.592 116.282L263.617 120.974L264.559 120.969L264.549 118.979L265.013 118.978L266.05 120.961L267.107 120.957L265.957 118.912ZM265.502 118.244L264.545 118.248L264.538 117.097L265.496 117.093C265.814 117.091 266.065 117.34 266.068 117.666C266.071 117.99 265.829 118.241 265.502 118.244ZM268.209 120.951L269.121 120.946L269.098 116.254L268.24 116.259L267.212 117.047L267.218 118.048L268.19 117.292L268.209 120.951ZM273.505 119.333C273.492 118.506 272.85 117.809 272.005 117.721C271.949 117.721 271.895 117.715 271.83 117.715L272.961 116.231L271.924 116.237L270.412 118.322C270.196 118.629 270.035 118.989 270.038 119.377C270.049 120.296 270.836 121.004 271.792 120.992C272.733 120.976 273.511 120.259 273.505 119.333ZM271.788 120.217C271.29 120.234 270.943 119.853 270.938 119.371C270.931 118.896 271.253 118.502 271.753 118.492C272.248 118.485 272.602 118.855 272.616 119.338C272.624 119.821 272.282 120.209 271.788 120.217Z" fill="#252525"/>
</g>
<g id="R14">
<path id="Vector_123" d="M274.177 92.7872H263.648C262.18 92.7872 260.988 91.7722 260.988 90.5222V79.2022C260.988 77.9542 262.18 76.9392 263.648 76.9392H274.177C275.645 76.9392 276.835 77.9542 276.835 79.2022V90.5222C276.835 91.7722 275.645 92.7872 274.177 92.7872Z" fill="#FBED62"/>
<path id="Vector_124" d="M266.386 85.0573C266.955 84.9113 267.36 84.4342 267.36 83.8142C267.358 83.0302 266.744 82.4142 265.967 82.4162L264.029 82.4193L264.04 87.1122L264.983 87.1112L264.979 85.1212H265.44L266.473 87.1082L267.53 87.1062L266.386 85.0573ZM265.935 84.3872L264.977 84.3882L264.975 83.2362H265.932C266.25 83.2352 266.501 83.4832 266.501 83.8112C266.502 84.1362 266.262 84.3872 265.935 84.3872ZM268.633 87.1022H269.546L269.534 82.4082L268.676 82.4102L267.647 83.1963L267.649 84.1963L268.624 83.4422L268.633 87.1022ZM273.831 85.3022H273.419L273.412 82.4012L272.27 82.4032L270.286 85.5363L270.287 86.1122L272.514 86.1082L272.517 87.0963L273.423 87.0952L273.419 86.1062H273.833L273.831 85.3022ZM271.324 85.3092L272.509 83.2993L272.513 85.3062L271.324 85.3092Z" fill="#252525"/>
</g>
<g id="Group_6">
<path id="Vector_125" d="M119.711 225.481C119.489 225.481 119.27 225.481 119.049 225.407V224.453C119.122 224.453 119.195 224.453 119.27 224.526C119.343 224.599 119.418 224.526 119.49 224.526C119.712 224.526 119.856 224.453 119.93 224.308C120.001 224.159 120.076 223.939 120.076 223.646V219.317H121.323V223.499C121.323 224.159 121.177 224.602 120.884 224.968C120.589 225.333 120.295 225.481 119.711 225.481Z" fill="white"/>
<path id="Vector_126" d="M126.17 219.98C125.794 219.605 125.21 219.396 124.473 219.396C123.75 219.396 123.152 219.605 122.79 219.98C122.428 220.341 122.205 220.926 122.205 221.746C122.205 222.471 122.428 223.137 122.79 223.5C123.151 223.86 123.75 224.083 124.473 224.083C125.21 224.083 125.794 223.86 126.17 223.5C126.532 223.137 126.754 222.539 126.754 221.746C126.754 220.926 126.601 220.341 126.17 219.98ZM125.21 222.761C125.071 222.984 124.779 223.054 124.473 223.054C123.82 223.054 123.527 222.623 123.527 221.745C123.527 220.786 123.889 220.341 124.473 220.341C124.849 220.341 125.072 220.495 125.21 220.718C125.363 220.926 125.434 221.301 125.434 221.745C125.434 222.178 125.364 222.538 125.21 222.761Z" fill="white"/>
<path id="Vector_127" d="M131.01 221.954C130.856 221.816 130.649 221.662 130.343 221.594C130.565 221.524 130.717 221.371 130.856 221.232C131.01 221.079 131.079 220.856 131.079 220.564C131.079 220.203 130.94 219.911 130.649 219.689C130.343 219.465 129.911 219.396 129.244 219.396H127.631V224.014H129.466C130.051 224.014 130.495 223.944 130.788 223.651C131.079 223.346 131.233 223.054 131.233 222.624C131.233 222.401 131.148 222.108 131.01 221.954ZM128.882 220.425H129.243C129.618 220.425 129.841 220.495 129.841 220.786C129.841 220.855 129.758 221.009 129.688 221.078C129.537 221.078 129.465 221.148 129.244 221.148H128.883V220.425H128.882ZM129.328 223.054H128.883V222.039H129.328C129.466 222.039 129.688 222.107 129.759 222.178C129.842 222.247 129.911 222.401 129.911 222.538C129.911 222.915 129.688 223.054 129.328 223.054Z" fill="white"/>
</g>
<g id="Group_7">
<path id="Vector_128" d="M135.483 220.345C135.19 220.345 134.968 220.491 134.75 220.712C134.603 220.932 134.53 221.299 134.53 221.737C134.53 222.62 134.896 223.058 135.557 223.058C135.778 223.058 135.923 223.058 136.144 222.985C136.364 222.913 136.51 222.839 136.729 222.765V223.792C136.364 223.938 135.923 224.086 135.411 224.086C134.678 224.086 134.162 223.864 133.796 223.499C133.429 223.058 133.208 222.471 133.208 221.739C133.208 221.224 133.284 220.858 133.503 220.489C133.724 220.123 133.943 219.83 134.31 219.684C134.678 219.463 135.044 219.39 135.484 219.39C135.999 219.39 136.436 219.463 136.952 219.684L136.587 220.71C136.437 220.64 136.219 220.564 136.072 220.488C135.85 220.345 135.704 220.345 135.483 220.345Z" fill="white"/>
<path id="Vector_129" d="M140.398 224.014H137.611V219.317H140.398V220.345H138.857V221.077H140.252V222.105H138.857V222.986H140.398V224.014Z" fill="white"/>
<path id="Vector_130" d="M145.682 224.014H143.994L142.305 220.712C142.305 221.226 142.381 221.592 142.381 221.885V224.014H141.279V219.317H142.964L144.654 222.545C144.654 222.106 144.58 221.665 144.58 221.445V219.317H145.683L145.682 224.014Z" fill="white"/>
<path id="Vector_131" d="M148.76 224.014H147.514V220.345H146.416V219.317H149.934V220.345H148.834L148.76 224.014Z" fill="white"/>
<path id="Vector_132" d="M153.234 221.954C153.748 221.662 154.042 221.231 154.042 220.718C154.042 219.757 153.388 219.312 152.136 219.312H150.593V224.014H151.845V222.33H152.136L153.164 224.014H154.626L153.234 221.954ZM152.066 221.371H151.844V220.272H152.066C152.498 220.272 152.72 220.495 152.72 220.786C152.72 221.149 152.498 221.371 152.066 221.371Z" fill="white"/>
<path id="Vector_133" d="M158.959 219.392V222.179C158.959 222.766 158.813 223.28 158.445 223.572C158.079 223.939 157.638 224.088 156.979 224.088C156.317 224.088 155.877 223.94 155.512 223.572C155.142 223.28 154.995 222.766 154.995 222.179V219.317H156.244V222.034C156.244 222.325 156.316 222.621 156.463 222.766C156.61 222.912 156.757 222.986 156.979 222.986C157.272 222.986 157.417 222.912 157.563 222.766C157.71 222.62 157.71 222.399 157.71 222.034V219.317L158.959 219.392Z" fill="white"/>
<path id="Vector_134" d="M161.967 224.014L161.014 220.639C161.086 221.226 161.086 221.664 161.086 221.958V224.014H159.985V219.317H161.673L162.623 222.621L163.58 219.317H165.267V224.014H164.092V221.958C164.092 221.885 164.092 221.74 164.092 221.592C164.092 221.445 164.092 221.153 164.168 220.639L163.211 224.014H161.967Z" fill="white"/>
</g>
<path id="Vector_135" d="M173.024 238.325V237.434V236.209V213.18V153.058V152.028V151.027" stroke="#4A4A4A" stroke-width="2" stroke-miterlimit="10"/>
<path id="Vector_136" d="M173.024 213.18H116.671C109.647 213.18 103.681 217.629 101.442 223.873C101.247 224.389 101.094 224.916 100.954 225.445" stroke="#4A4A4A" stroke-width="2" stroke-miterlimit="10"/>
</g>
</g>
</svg>
